@startuml
title 'core' class diagram
class "internal::is_tuple_impl<typename>" as C_0001622597287291291801
class C_0001622597287291291801 [[https://github.com/skypjack/entt/blob/fef921132cae7588213d0f9bcd2fb9c8ffd8b7fc/src/entt/core/tuple.hpp#L18{is_tuple_impl}]] {
__
}
class "internal::is_tuple_impl<std::tuple<Args...>>" as C_0002198683157240036358
class C_0002198683157240036358 [[https://github.com/skypjack/entt/blob/fef921132cae7588213d0f9bcd2fb9c8ffd8b7fc/src/entt/core/tuple.hpp#L21{is_tuple_impl}]] {
__
}
class "internal::has_iterator_category<typename,typename=void>" as C_0001778521713000369063
class C_0001778521713000369063 [[https://github.com/skypjack/entt/blob/fef921132cae7588213d0f9bcd2fb9c8ffd8b7fc/src/entt/core/type_traits.hpp#L540{has_iterator_category}]] {
__
}
class "internal::has_iterator_category<Type,void>" as C_0001068501097622379577
class C_0001068501097622379577 [[https://github.com/skypjack/entt/blob/fef921132cae7588213d0f9bcd2fb9c8ffd8b7fc/src/entt/core/type_traits.hpp#L543{has_iterator_category}]] {
__
}
class "internal::has_tuple_size_value<typename,typename=void>" as C_0002187872504885326697
class C_0002187872504885326697 [[https://github.com/skypjack/entt/blob/fef921132cae7588213d0f9bcd2fb9c8ffd8b7fc/src/entt/core/type_traits.hpp#L615{has_tuple_size_value}]] {
__
}
class "internal::has_tuple_size_value<Type,void>" as C_0001557830619325445650
class C_0001557830619325445650 [[https://github.com/skypjack/entt/blob/fef921132cae7588213d0f9bcd2fb9c8ffd8b7fc/src/entt/core/type_traits.hpp#L618{has_tuple_size_value}]] {
__
}
class "internal::fnv1a_traits<unsigned int>" as C_0000190644970627340610
class C_0000190644970627340610 [[https://github.com/skypjack/entt/blob/fef921132cae7588213d0f9bcd2fb9c8ffd8b7fc/src/entt/core/hashed_string.hpp#L21{fnv1a_traits}]] {
__
{static} +offset : const std::uint32_t [[[https://github.com/skypjack/entt/blob/fef921132cae7588213d0f9bcd2fb9c8ffd8b7fc/src/entt/core/hashed_string.hpp#L23{offset}]]]
{static} +prime : const std::uint32_t [[[https://github.com/skypjack/entt/blob/fef921132cae7588213d0f9bcd2fb9c8ffd8b7fc/src/entt/core/hashed_string.hpp#L24{prime}]]]
}
class "internal::fnv1a_traits<unsigned long>" as C_0001347941775213415812
class C_0001347941775213415812 [[https://github.com/skypjack/entt/blob/fef921132cae7588213d0f9bcd2fb9c8ffd8b7fc/src/entt/core/hashed_string.hpp#L28{fnv1a_traits}]] {
__
{static} +offset : const std::uint64_t [[[https://github.com/skypjack/entt/blob/fef921132cae7588213d0f9bcd2fb9c8ffd8b7fc/src/entt/core/hashed_string.hpp#L30{offset}]]]
{static} +prime : const std::uint64_t [[[https://github.com/skypjack/entt/blob/fef921132cae7588213d0f9bcd2fb9c8ffd8b7fc/src/entt/core/hashed_string.hpp#L31{prime}]]]
}
class "internal::basic_hashed_string<Char>" as C_0000436936324155938400
class C_0000436936324155938400 [[https://github.com/skypjack/entt/blob/fef921132cae7588213d0f9bcd2fb9c8ffd8b7fc/src/entt/core/hashed_string.hpp#L35{basic_hashed_string}]] {
__
+hash : internal::basic_hashed_string::hash_type [[[https://github.com/skypjack/entt/blob/fef921132cae7588213d0f9bcd2fb9c8ffd8b7fc/src/entt/core/hashed_string.hpp#L42{hash}]]]
+length : internal::basic_hashed_string::size_type [[[https://github.com/skypjack/entt/blob/fef921132cae7588213d0f9bcd2fb9c8ffd8b7fc/src/entt/core/hashed_string.hpp#L41{length}]]]
+repr : const internal::basic_hashed_string::value_type * [[[https://github.com/skypjack/entt/blob/fef921132cae7588213d0f9bcd2fb9c8ffd8b7fc/src/entt/core/hashed_string.hpp#L40{repr}]]]
}
class "internal::fnv1a_traits<typename>" as C_0001451224966841885956
class C_0001451224966841885956 [[https://github.com/skypjack/entt/blob/fef921132cae7588213d0f9bcd2fb9c8ffd8b7fc/src/entt/core/hashed_string.hpp#L18{fnv1a_traits}]] {
__
}
class "internal::compressed_pair_element<Type,std::size_t,typename=void>" as C_0001719175816700695228
class C_0001719175816700695228 [[https://github.com/skypjack/entt/blob/fef921132cae7588213d0f9bcd2fb9c8ffd8b7fc/src/entt/core/compressed_pair.hpp#L20{compressed_pair_element}]] {
+compressed_pair_element<Type, , type-parameter-0-2><_Bool Dummy=true,typename=std::enable_if_t<Dummy && std::is_default_constructible_v<Type> >>() noexcept : void
+compressed_pair_element<Type, , type-parameter-0-2><Arg,typename=std::enable_if_t<!std::is_same_v<std::remove_cv_t<std::remove_reference_t<Arg> >, compressed_pair_element<Type, , type-parameter-0-2> > >>(Arg && arg) noexcept : void
+compressed_pair_element<Type, , type-parameter-0-2><Args...,std::size_t... Index>(std::tuple<Args...> args, std::index_sequence<Index...>) noexcept : void
..
+get() constexpr noexcept : internal::compressed_pair_element::reference [[[https://github.com/skypjack/entt/blob/fef921132cae7588213d0f9bcd2fb9c8ffd8b7fc/src/entt/core/compressed_pair.hpp#L36{get}]]]
+get() constexpr const noexcept : internal::compressed_pair_element::const_reference [[[https://github.com/skypjack/entt/blob/fef921132cae7588213d0f9bcd2fb9c8ffd8b7fc/src/entt/core/compressed_pair.hpp#L40{get}]]]
__
-value : Type [[[https://github.com/skypjack/entt/blob/fef921132cae7588213d0f9bcd2fb9c8ffd8b7fc/src/entt/core/compressed_pair.hpp#L45{value}]]]
}
class "internal::compressed_pair_element<Type,Tag,typename enable_if<is_ebco_eligible_v<Type>,void>::type>" as C_0001308884857362667657
class C_0001308884857362667657 [[https://github.com/skypjack/entt/blob/fef921132cae7588213d0f9bcd2fb9c8ffd8b7fc/src/entt/core/compressed_pair.hpp#L49{compressed_pair_element}]] {
+compressed_pair_element<type-parameter-0-0, Tag, typename enable_if<is_ebco_eligible_v<Type>, void>::type><_Bool Dummy=true,typename=std::enable_if_t<Dummy && std::is_default_constructible_v<base_type> >>() noexcept : void
+compressed_pair_element<type-parameter-0-0, Tag, typename enable_if<is_ebco_eligible_v<Type>, void>::type><Arg,typename=std::enable_if_t<!std::is_same_v<std::remove_cv_t<std::remove_reference_t<Arg> >, compressed_pair_element<type-parameter-0-0, Tag, typename enable_if<is_ebco_eligible_v<Type>, void>::type> > >>(Arg && arg) noexcept : void
+compressed_pair_element<type-parameter-0-0, Tag, typename enable_if<is_ebco_eligible_v<Type>, void>::type><Args...,std::size_t... Index>(std::tuple<Args...> args, std::index_sequence<Index...>) noexcept : void
..
+get() constexpr noexcept : internal::compressed_pair_element<type-parameter-0-0,Tag,typename enable_if<is_ebco_eligible_v<Type>,void>::type>::reference [[[https://github.com/skypjack/entt/blob/fef921132cae7588213d0f9bcd2fb9c8ffd8b7fc/src/entt/core/compressed_pair.hpp#L66{get}]]]
+get() constexpr const noexcept : internal::compressed_pair_element<type-parameter-0-0,Tag,typename enable_if<is_ebco_eligible_v<Type>,void>::type>::const_reference [[[https://github.com/skypjack/entt/blob/fef921132cae7588213d0f9bcd2fb9c8ffd8b7fc/src/entt/core/compressed_pair.hpp#L70{get}]]]
__
}
class "internal::type_index" as C_0001182856215224793842
class C_0001182856215224793842 [[https://github.com/skypjack/entt/blob/fef921132cae7588213d0f9bcd2fb9c8ffd8b7fc/src/entt/core/type_info.hpp#L21{type_index}]] {
{static} +next() noexcept : id_type [[[https://github.com/skypjack/entt/blob/fef921132cae7588213d0f9bcd2fb9c8ffd8b7fc/src/entt/core/type_info.hpp#L22{next}]]]
__
}
enum "internal::any_operation" as C_0001949041833194725502
enum C_0001949041833194725502 [[https://github.com/skypjack/entt/blob/fef921132cae7588213d0f9bcd2fb9c8ffd8b7fc/src/entt/core/any.hpp#L23{any_operation}]] {
copy
move
transfer
assign
destroy
compare
get
}
enum "internal::any_policy" as C_0000844366660775410093
enum C_0000844366660775410093 [[https://github.com/skypjack/entt/blob/fef921132cae7588213d0f9bcd2fb9c8ffd8b7fc/src/entt/core/any.hpp#L33{any_policy}]] {
owner
ref
cref
}
class "internal::uses_allocator_construction<Type>" as C_0001706589851531218937
class C_0001706589851531218937 [[https://github.com/skypjack/entt/blob/fef921132cae7588213d0f9bcd2fb9c8ffd8b7fc/src/entt/core/memory.hpp#L174{uses_allocator_construction}]] {
{static} +args<Allocator,Params...>(const Allocator & allocator, Params &&... params) constexpr noexcept : auto
__
}
class "internal::uses_allocator_construction<std::pair<Type,Other>>" as C_0000302815724758950566
class C_0000302815724758950566 [[https://github.com/skypjack/entt/blob/fef921132cae7588213d0f9bcd2fb9c8ffd8b7fc/src/entt/core/memory.hpp#L193{uses_allocator_construction}]] {
{static} +args<Allocator,First,Second>(const Allocator & allocator, std::piecewise_construct_t, First && first, Second && second) constexpr noexcept : auto
{static} +args<Allocator>(const Allocator & allocator) constexpr noexcept : auto
{static} +args<Allocator,First,Second>(const Allocator & allocator, First && first, Second && second) constexpr noexcept : auto
{static} +args<Allocator,First,Second>(const Allocator & allocator, const std::pair<First,Second> & value) constexpr noexcept : auto
{static} +args<Allocator,First,Second>(const Allocator & allocator, std::pair<First,Second> && value) constexpr noexcept : auto
__
}
class "is_tuple<Type>" as C_0001469008790074712993
class C_0001469008790074712993 [[https://github.com/skypjack/entt/blob/fef921132cae7588213d0f9bcd2fb9c8ffd8b7fc/src/entt/core/tuple.hpp#L36{is_tuple}]] {
__
}
class "forward_apply<Func>" as C_0000022467787730434495
class C_0000022467787730434495 [[https://github.com/skypjack/entt/blob/fef921132cae7588213d0f9bcd2fb9c8ffd8b7fc/src/entt/core/tuple.hpp#L66{forward_apply}]] {
+forward_apply<Func><Args...>(Args &&... args) noexcept : void
..
+operator()<Type>(Type && args) constexpr noexcept : decltype(auto)
+operator()<Type>(Type && args) constexpr const noexcept : decltype(auto)
__
}
class "choice_t<std::size_t N>" as C_0001987093795004491588
class C_0001987093795004491588 [[https://github.com/skypjack/entt/blob/fef921132cae7588213d0f9bcd2fb9c8ffd8b7fc/src/entt/core/type_traits.hpp#L18{choice_t}]] {
__
}
class "choice_t<0UL>" as C_0001345807541575891228
class C_0001345807541575891228 [[https://github.com/skypjack/entt/blob/fef921132cae7588213d0f9bcd2fb9c8ffd8b7fc/src/entt/core/type_traits.hpp#L25{choice_t}]] {
__
}
class "type_identity<Type>" as C_0000123728246267120719
class C_0000123728246267120719 [[https://github.com/skypjack/entt/blob/fef921132cae7588213d0f9bcd2fb9c8ffd8b7fc/src/entt/core/type_traits.hpp#L43{type_identity}]] {
__
}
class "size_of<Type,typename=void>" as C_0001920246409009389790
class C_0001920246409009389790 [[https://github.com/skypjack/entt/blob/fef921132cae7588213d0f9bcd2fb9c8ffd8b7fc/src/entt/core/type_traits.hpp#L61{size_of}]] {
__
}
class "size_of<Type,void>" as C_0002041863656754635307
class C_0002041863656754635307 [[https://github.com/skypjack/entt/blob/fef921132cae7588213d0f9bcd2fb9c8ffd8b7fc/src/entt/core/type_traits.hpp#L65{size_of}]] {
__
}
class "type_list<Type...>" as C_0000150299823092418682
class C_0000150299823092418682 [[https://github.com/skypjack/entt/blob/fef921132cae7588213d0f9bcd2fb9c8ffd8b7fc/src/entt/core/type_traits.hpp#L110{type_list}]] {
__
{static} +size : const unsigned long [[[https://github.com/skypjack/entt/blob/fef921132cae7588213d0f9bcd2fb9c8ffd8b7fc/src/entt/core/type_traits.hpp#L114{size}]]]
}
class "type_list<First,Other...>" as C_0001723716587279733623
class C_0001723716587279733623 [[https://github.com/skypjack/entt/blob/fef921132cae7588213d0f9bcd2fb9c8ffd8b7fc/src/entt/core/type_traits.hpp#L119{type_list}]] {
__
}
class "type_list<Other...>" as C_0000401973545844492876
class C_0000401973545844492876 [[https://github.com/skypjack/entt/blob/fef921132cae7588213d0f9bcd2fb9c8ffd8b7fc/src/entt/core/type_traits.hpp#L119{type_list}]] {
__
}
class "type_list_element<Index,type_list<First,Other...>>" as C_0001608351857538900169
class C_0001608351857538900169 [[https://github.com/skypjack/entt/blob/fef921132cae7588213d0f9bcd2fb9c8ffd8b7fc/src/entt/core/type_traits.hpp#L128{type_list_element}]] {
__
}
class "type_list_element<0UL,type_list<First,Other...>>" as C_0001341836735802216850
class C_0001341836735802216850 [[https://github.com/skypjack/entt/blob/fef921132cae7588213d0f9bcd2fb9c8ffd8b7fc/src/entt/core/type_traits.hpp#L137{type_list_element}]] {
__
}
class "type_list_index<Type,type_list<First,Other...>>" as C_0000683152846792042069
class C_0000683152846792042069 [[https://github.com/skypjack/entt/blob/fef921132cae7588213d0f9bcd2fb9c8ffd8b7fc/src/entt/core/type_traits.hpp#L161{type_list_index}]] {
__
{static} +value : value_type const [[[https://github.com/skypjack/entt/blob/fef921132cae7588213d0f9bcd2fb9c8ffd8b7fc/src/entt/core/type_traits.hpp#L165{value}]]]
}
class "type_list<Type,Other...>" as C_0000496685335806935509
class C_0000496685335806935509 [[https://github.com/skypjack/entt/blob/fef921132cae7588213d0f9bcd2fb9c8ffd8b7fc/src/entt/core/type_traits.hpp#L152{type_list}]] {
__
}
class "type_list_index<Type,type_list<Type,Other...>>" as C_0001409650621385633800
class C_0001409650621385633800 [[https://github.com/skypjack/entt/blob/fef921132cae7588213d0f9bcd2fb9c8ffd8b7fc/src/entt/core/type_traits.hpp#L174{type_list_index}]] {
__
{static} +value : value_type const [[[https://github.com/skypjack/entt/blob/fef921132cae7588213d0f9bcd2fb9c8ffd8b7fc/src/entt/core/type_traits.hpp#L179{value}]]]
}
class "type_list" as C_0000816653833137337534
class C_0000816653833137337534 [[https://github.com/skypjack/entt/blob/fef921132cae7588213d0f9bcd2fb9c8ffd8b7fc/src/entt/core/type_traits.hpp#L152{type_list}]] {
__
}
class "type_list_index<Type,type_list>" as C_0002036394014341745892
class C_0002036394014341745892 [[https://github.com/skypjack/entt/blob/fef921132cae7588213d0f9bcd2fb9c8ffd8b7fc/src/entt/core/type_traits.hpp#L187{type_list_index}]] {
__
{static} +value : value_type const [[[https://github.com/skypjack/entt/blob/fef921132cae7588213d0f9bcd2fb9c8ffd8b7fc/src/entt/core/type_traits.hpp#L191{value}]]]
}
class "type_list_cat" as C_0001837908976920033604
class C_0001837908976920033604 [[https://github.com/skypjack/entt/blob/fef921132cae7588213d0f9bcd2fb9c8ffd8b7fc/src/entt/core/type_traits.hpp#L219{type_list_cat}]] {
__
}
class "type_list_cat<type_list<Type...>,type_list<Other...>,List...>" as C_0000121441401309806436
class C_0000121441401309806436 [[https://github.com/skypjack/entt/blob/fef921132cae7588213d0f9bcd2fb9c8ffd8b7fc/src/entt/core/type_traits.hpp#L231{type_list_cat}]] {
__
}
class "type_list_cat<type_list<Type...>>" as C_0001923186203322886359
class C_0001923186203322886359 [[https://github.com/skypjack/entt/blob/fef921132cae7588213d0f9bcd2fb9c8ffd8b7fc/src/entt/core/type_traits.hpp#L241{type_list_cat}]] {
__
}
class "type_list_unique<type_list<Type,Other...>>" as C_0002092362459099158912
class C_0002092362459099158912 [[https://github.com/skypjack/entt/blob/fef921132cae7588213d0f9bcd2fb9c8ffd8b7fc/src/entt/core/type_traits.hpp#L263{type_list_unique}]] {
__
}
class "type_list_unique<type_list>" as C_0002072760276875243109
class C_0002072760276875243109 [[https://github.com/skypjack/entt/blob/fef921132cae7588213d0f9bcd2fb9c8ffd8b7fc/src/entt/core/type_traits.hpp#L273{type_list_unique}]] {
__
}
class "type_list_contains<type_list<Type...>,Other>" as C_0002194597380700596211
class C_0002194597380700596211 [[https://github.com/skypjack/entt/blob/fef921132cae7588213d0f9bcd2fb9c8ffd8b7fc/src/entt/core/type_traits.hpp#L300{type_list_contains}]] {
__
}
class "type_list_diff<type_list<Type...>,type_list<Other...>>" as C_0001275280113128552014
class C_0001275280113128552014 [[https://github.com/skypjack/entt/blob/fef921132cae7588213d0f9bcd2fb9c8ffd8b7fc/src/entt/core/type_traits.hpp#L320{type_list_diff}]] {
__
}
class "type_list_transform<type_list<Type...>,type_list_transform<type_list<type-parameter-0-0...>, Op>::Op>" as C_0000499769244180894001
class C_0000499769244180894001 [[https://github.com/skypjack/entt/blob/fef921132cae7588213d0f9bcd2fb9c8ffd8b7fc/src/entt/core/type_traits.hpp#L342{type_list_transform}]] {
__
}
class "value_list<auto... Value>" as C_0000586162688184991499
class C_0000586162688184991499 [[https://github.com/skypjack/entt/blob/fef921132cae7588213d0f9bcd2fb9c8ffd8b7fc/src/entt/core/type_traits.hpp#L360{value_list}]] {
__
{static} +size : const unsigned long [[[https://github.com/skypjack/entt/blob/fef921132cae7588213d0f9bcd2fb9c8ffd8b7fc/src/entt/core/type_traits.hpp#L364{size}]]]
}
class "value_list<Value,Other...>" as C_0001276342508473126665
class C_0001276342508473126665 [[https://github.com/skypjack/entt/blob/fef921132cae7588213d0f9bcd2fb9c8ffd8b7fc/src/entt/core/type_traits.hpp#L369{value_list}]] {
__
}
class "value_list<Other...>" as C_0000669672540584988414
class C_0000669672540584988414 [[https://github.com/skypjack/entt/blob/fef921132cae7588213d0f9bcd2fb9c8ffd8b7fc/src/entt/core/type_traits.hpp#L369{value_list}]] {
__
}
class "value_list_element<Index,value_list<Value,Other...>>" as C_0001722867564985277107
class C_0001722867564985277107 [[https://github.com/skypjack/entt/blob/fef921132cae7588213d0f9bcd2fb9c8ffd8b7fc/src/entt/core/type_traits.hpp#L378{value_list_element}]] {
__
}
class "value_list_element<0UL,value_list<Value,Other...>>" as C_0000618783256746069511
class C_0000618783256746069511 [[https://github.com/skypjack/entt/blob/fef921132cae7588213d0f9bcd2fb9c8ffd8b7fc/src/entt/core/type_traits.hpp#L387{value_list_element}]] {
__
{static} +value : const auto [[[https://github.com/skypjack/entt/blob/fef921132cae7588213d0f9bcd2fb9c8ffd8b7fc/src/entt/core/type_traits.hpp#L389{value}]]]
}
class "value_list_cat" as C_0001054288259585211651
class C_0001054288259585211651 [[https://github.com/skypjack/entt/blob/fef921132cae7588213d0f9bcd2fb9c8ffd8b7fc/src/entt/core/type_traits.hpp#L417{value_list_cat}]] {
__
}
class "value_list<Value>" as C_0000114548431562228752
class C_0000114548431562228752 [[https://github.com/skypjack/entt/blob/fef921132cae7588213d0f9bcd2fb9c8ffd8b7fc/src/entt/core/type_traits.hpp#L413{value_list}]] {
__
}
class "value_list_cat<value_list<Value>,value_list<Other...>,List...>" as C_0001460567976117784695
class C_0001460567976117784695 [[https://github.com/skypjack/entt/blob/fef921132cae7588213d0f9bcd2fb9c8ffd8b7fc/src/entt/core/type_traits.hpp#L429{value_list_cat}]] {
__
}
class "value_list_cat<value_list<Value>>" as C_0000167235983220730819
class C_0000167235983220730819 [[https://github.com/skypjack/entt/blob/fef921132cae7588213d0f9bcd2fb9c8ffd8b7fc/src/entt/core/type_traits.hpp#L439{value_list_cat}]] {
__
}
class "is_applicable<typename,typename>" as C_0001824263356167167949
class C_0001824263356167167949 [[https://github.com/skypjack/entt/blob/fef921132cae7588213d0f9bcd2fb9c8ffd8b7fc/src/entt/core/type_traits.hpp#L453{is_applicable}]] {
__
}
class "is_applicable<Func,Tuple<Args...>>" as C_0001902848304695597310
class C_0001902848304695597310 [[https://github.com/skypjack/entt/blob/fef921132cae7588213d0f9bcd2fb9c8ffd8b7fc/src/entt/core/type_traits.hpp#L462{is_applicable}]] {
__
}
class "is_applicable<Func,Tuple<Args...> const>" as C_0002215075946142720645
class C_0002215075946142720645 [[https://github.com/skypjack/entt/blob/fef921132cae7588213d0f9bcd2fb9c8ffd8b7fc/src/entt/core/type_traits.hpp#L471{is_applicable}]] {
__
}
class "is_applicable_r<typename,typename,typename>" as C_0000442715663532313051
class C_0000442715663532313051 [[https://github.com/skypjack/entt/blob/fef921132cae7588213d0f9bcd2fb9c8ffd8b7fc/src/entt/core/type_traits.hpp#L483{is_applicable_r}]] {
__
}
class "is_applicable_r<Ret,Func,std::tuple<Args...>>" as C_0001798669837481466216
class C_0001798669837481466216 [[https://github.com/skypjack/entt/blob/fef921132cae7588213d0f9bcd2fb9c8ffd8b7fc/src/entt/core/type_traits.hpp#L493{is_applicable_r}]] {
__
}
class "is_complete<Type,typename=void>" as C_0000546874088669025752
class C_0000546874088669025752 [[https://github.com/skypjack/entt/blob/fef921132cae7588213d0f9bcd2fb9c8ffd8b7fc/src/entt/core/type_traits.hpp#L511{is_complete}]] {
__
}
class "is_complete<Type,void>" as C_0001350726405145293589
class C_0001350726405145293589 [[https://github.com/skypjack/entt/blob/fef921132cae7588213d0f9bcd2fb9c8ffd8b7fc/src/entt/core/type_traits.hpp#L515{is_complete}]] {
__
}
class "is_iterator<Type,typename=void>" as C_0001690229383453135081
class C_0001690229383453135081 [[https://github.com/skypjack/entt/blob/fef921132cae7588213d0f9bcd2fb9c8ffd8b7fc/src/entt/core/type_traits.hpp#L530{is_iterator}]] {
__
}
class "is_iterator<Type,typename enable_if<!std::is_same_v<std::remove_cv_t<std::remove_pointer_t<Type>>,void>,void>::type>" as C_0002035074371099284696
class C_0002035074371099284696 [[https://github.com/skypjack/entt/blob/fef921132cae7588213d0f9bcd2fb9c8ffd8b7fc/src/entt/core/type_traits.hpp#L554{is_iterator}]] {
__
}
class "is_ebco_eligible<Type>" as C_0000023938023713813515
class C_0000023938023713813515 [[https://github.com/skypjack/entt/blob/fef921132cae7588213d0f9bcd2fb9c8ffd8b7fc/src/entt/core/type_traits.hpp#L570{is_ebco_eligible}]] {
__
}
class "is_transparent<Type,typename=void>" as C_0001251691454377216125
class C_0001251691454377216125 [[https://github.com/skypjack/entt/blob/fef921132cae7588213d0f9bcd2fb9c8ffd8b7fc/src/entt/core/type_traits.hpp#L586{is_transparent}]] {
__
}
class "is_transparent<Type,void>" as C_0002191833632314674298
class C_0002191833632314674298 [[https://github.com/skypjack/entt/blob/fef921132cae7588213d0f9bcd2fb9c8ffd8b7fc/src/entt/core/type_traits.hpp#L590{is_transparent}]] {
__
}
class "is_equality_comparable<Type,typename=void>" as C_0001554362300378759805
class C_0001554362300378759805 [[https://github.com/skypjack/entt/blob/fef921132cae7588213d0f9bcd2fb9c8ffd8b7fc/src/entt/core/type_traits.hpp#L605{is_equality_comparable}]] {
__
}
class "is_equality_comparable<Type,void>" as C_0001905714764316104657
class C_0001905714764316104657 [[https://github.com/skypjack/entt/blob/fef921132cae7588213d0f9bcd2fb9c8ffd8b7fc/src/entt/core/type_traits.hpp#L659{is_equality_comparable}]] {
__
}
class "constness_as<To,From>" as C_0000876522523946587891
class C_0000876522523946587891 [[https://github.com/skypjack/entt/blob/fef921132cae7588213d0f9bcd2fb9c8ffd8b7fc/src/entt/core/type_traits.hpp#L675{constness_as}]] {
__
}
class "constness_as<To,From const>" as C_0002224427931273836031
class C_0002224427931273836031 [[https://github.com/skypjack/entt/blob/fef921132cae7588213d0f9bcd2fb9c8ffd8b7fc/src/entt/core/type_traits.hpp#L682{constness_as}]] {
__
}
class "member_class<Member>" as C_0000388702136995770050
class C_0000388702136995770050 [[https://github.com/skypjack/entt/blob/fef921132cae7588213d0f9bcd2fb9c8ffd8b7fc/src/entt/core/type_traits.hpp#L700{member_class}]] {
{static} -clazz<Class,Ret,Args...>(Ret (Class::*)(Args...)) : Class *
{static} -clazz<Class,Ret,Args...>(Ret (Class::*)(Args...) const) : Class *
{static} -clazz<Class,Type>(Type Class::*) : Class *
__
}
class "nth_argument<std::size_t Index,auto Candidate>" as C_0002228359401759493077
class C_0002228359401759493077 [[https://github.com/skypjack/entt/blob/fef921132cae7588213d0f9bcd2fb9c8ffd8b7fc/src/entt/core/type_traits.hpp#L730{nth_argument}]] {
{static} -pick_up<Ret,Args...>(Ret (*)(Args...)) constexpr : type_list<Args...>
{static} -pick_up<Ret,Class,Args...>(Ret (Class::*)(Args...)) constexpr : type_list<Args...>
{static} -pick_up<Ret,Class,Args...>(Ret (Class::*)(Args...) const) constexpr : type_list<Args...>
{static} -pick_up<Type,Class>(Type Class::*) constexpr : type_list<Type>
__
}
class "ident<Type...>" as C_0001467411322034971828
class C_0001467411322034971828 [[https://github.com/skypjack/entt/blob/fef921132cae7588213d0f9bcd2fb9c8ffd8b7fc/src/entt/core/ident.hpp#L17{ident}]] {
{static} -get<Curr,std::size_t... Index>(std::index_sequence<Index...>) constexpr noexcept : id_type
__
}
class "type_list_transform<typename,<>>" as C_0000050823123841207506
class C_0000050823123841207506 [[https://github.com/skypjack/entt/blob/fef921132cae7588213d0f9bcd2fb9c8ffd8b7fc/src/entt/core/type_traits.hpp#L334{type_list_transform}]] {
__
}
class "value_list_cat<typename...>" as C_0000065117302876923077
class C_0000065117302876923077 [[https://github.com/skypjack/entt/blob/fef921132cae7588213d0f9bcd2fb9c8ffd8b7fc/src/entt/core/type_traits.hpp#L413{value_list_cat}]] {
__
}
class "type_list_cat<typename...>" as C_0000162513903661835094
class C_0000162513903661835094 [[https://github.com/skypjack/entt/blob/fef921132cae7588213d0f9bcd2fb9c8ffd8b7fc/src/entt/core/type_traits.hpp#L215{type_list_cat}]] {
__
}
class "basic_any<std::size_t Len=sizeof(double[2]),std::size_t=__alignof(double[2])>" as C_0000562924448768510536
class C_0000562924448768510536 [[https://github.com/skypjack/entt/blob/fef921132cae7588213d0f9bcd2fb9c8ffd8b7fc/src/entt/core/fwd.hpp#L10{basic_any}]] {
__
}
class "type_list_contains<List,Type>" as C_0000590915702938605183
class C_0000590915702938605183 [[https://github.com/skypjack/entt/blob/fef921132cae7588213d0f9bcd2fb9c8ffd8b7fc/src/entt/core/type_traits.hpp#L292{type_list_contains}]] {
__
}
class "type_list_unique<typename>" as C_0000604213528917442712
class C_0000604213528917442712 [[https://github.com/skypjack/entt/blob/fef921132cae7588213d0f9bcd2fb9c8ffd8b7fc/src/entt/core/type_traits.hpp#L255{type_list_unique}]] {
__
}
class "type_list_index<typename,typename>" as C_0001290396051644670455
class C_0001290396051644670455 [[https://github.com/skypjack/entt/blob/fef921132cae7588213d0f9bcd2fb9c8ffd8b7fc/src/entt/core/type_traits.hpp#L152{type_list_index}]] {
__
}
class "value_list_element<std::size_t,typename>" as C_0001876765213030307332
class C_0001876765213030307332 [[https://github.com/skypjack/entt/blob/fef921132cae7588213d0f9bcd2fb9c8ffd8b7fc/src/entt/core/type_traits.hpp#L369{value_list_element}]] {
__
}
class "type_list_element<std::size_t,typename>" as C_0002095454172998530227
class C_0002095454172998530227 [[https://github.com/skypjack/entt/blob/fef921132cae7588213d0f9bcd2fb9c8ffd8b7fc/src/entt/core/type_traits.hpp#L119{type_list_element}]] {
__
}
class "type_list_diff<typename...>" as C_0002176858368507679423
class C_0002176858368507679423 [[https://github.com/skypjack/entt/blob/fef921132cae7588213d0f9bcd2fb9c8ffd8b7fc/src/entt/core/type_traits.hpp#L312{type_list_diff}]] {
__
}
class "identity" as C_0000999474595687875220
class C_0000999474595687875220 [[https://github.com/skypjack/entt/blob/fef921132cae7588213d0f9bcd2fb9c8ffd8b7fc/src/entt/core/utility.hpp#L10{identity}]] {
+operator()<Type>(Type && value) constexpr const noexcept : Type &&
__
}
class "overloaded<Func...>" as C_0001652463775119335037
class C_0001652463775119335037 [[https://github.com/skypjack/entt/blob/fef921132cae7588213d0f9bcd2fb9c8ffd8b7fc/src/entt/core/utility.hpp#L54{overloaded}]] {
__
}
class "y_combinator<Func>" as C_0001649065174229515681
class C_0001649065174229515681 [[https://github.com/skypjack/entt/blob/fef921132cae7588213d0f9bcd2fb9c8ffd8b7fc/src/entt/core/utility.hpp#L70{y_combinator}]] {
+y_combinator(Func recursive) noexcept : void [[[https://github.com/skypjack/entt/blob/fef921132cae7588213d0f9bcd2fb9c8ffd8b7fc/src/entt/core/utility.hpp#L75{y_combinator}]]]
..
+operator()<Args...>(Args &&... args) constexpr const noexcept : decltype(auto)
+operator()<Args...>(Args &&... args) constexpr noexcept : decltype(auto)
__
-func : Func [[[https://github.com/skypjack/entt/blob/fef921132cae7588213d0f9bcd2fb9c8ffd8b7fc/src/entt/core/utility.hpp#L96{func}]]]
}
class "basic_hashed_string<Char>" as C_0000286711128870137288
class C_0000286711128870137288 [[https://github.com/skypjack/entt/blob/fef921132cae7588213d0f9bcd2fb9c8ffd8b7fc/src/entt/core/hashed_string.hpp#L68{basic_hashed_string}]] {
+basic_hashed_string() noexcept : void [[[https://github.com/skypjack/entt/blob/fef921132cae7588213d0f9bcd2fb9c8ffd8b7fc/src/entt/core/hashed_string.hpp#L141{basic_hashed_string}]]]
+basic_hashed_string(const basic_hashed_string::value_type * str, const basic_hashed_string::size_type len) noexcept : void [[[https://github.com/skypjack/entt/blob/fef921132cae7588213d0f9bcd2fb9c8ffd8b7fc/src/entt/core/hashed_string.hpp#L149{basic_hashed_string}]]]
+basic_hashed_string(basic_hashed_string::const_wrapper wrapper) noexcept : void [[[https://github.com/skypjack/entt/blob/fef921132cae7588213d0f9bcd2fb9c8ffd8b7fc/src/entt/core/hashed_string.hpp#L170{basic_hashed_string}]]]
+basic_hashed_string<Char><std::size_t N>(const basic_hashed_string::value_type (&)[N] str) noexcept : void
..
+data() constexpr const noexcept : const basic_hashed_string::value_type * [[[https://github.com/skypjack/entt/blob/fef921132cae7588213d0f9bcd2fb9c8ffd8b7fc/src/entt/core/hashed_string.hpp#L185{data}]]]
{static} -helper(const Char * str) constexpr noexcept : auto [[[https://github.com/skypjack/entt/blob/fef921132cae7588213d0f9bcd2fb9c8ffd8b7fc/src/entt/core/hashed_string.hpp#L81{helper}]]]
{static} -helper(const Char * str, const std::size_t len) constexpr noexcept : auto [[[https://github.com/skypjack/entt/blob/fef921132cae7588213d0f9bcd2fb9c8ffd8b7fc/src/entt/core/hashed_string.hpp#L92{helper}]]]
+operator const typename basic_hashed_string() constexpr const noexcept : const basic_hashed_string::value_type * [[[https://github.com/skypjack/entt/blob/fef921132cae7588213d0f9bcd2fb9c8ffd8b7fc/src/entt/core/hashed_string.hpp#L198{operator const typename basic_hashed_string}]]]
+operator typename basic_hashed_string() constexpr const noexcept : basic_hashed_string::hash_type [[[https://github.com/skypjack/entt/blob/fef921132cae7588213d0f9bcd2fb9c8ffd8b7fc/src/entt/core/hashed_string.hpp#L206{operator typename basic_hashed_string}]]]
+size() constexpr const noexcept : basic_hashed_string::size_type [[[https://github.com/skypjack/entt/blob/fef921132cae7588213d0f9bcd2fb9c8ffd8b7fc/src/entt/core/hashed_string.hpp#L177{size}]]]
{static} +value(const basic_hashed_string::value_type * str, const basic_hashed_string::size_type len) constexpr noexcept : basic_hashed_string::hash_type [[[https://github.com/skypjack/entt/blob/fef921132cae7588213d0f9bcd2fb9c8ffd8b7fc/src/entt/core/hashed_string.hpp#L116{value}]]]
{static} +value(basic_hashed_string::const_wrapper wrapper) constexpr noexcept : basic_hashed_string::hash_type [[[https://github.com/skypjack/entt/blob/fef921132cae7588213d0f9bcd2fb9c8ffd8b7fc/src/entt/core/hashed_string.hpp#L136{value}]]]
+value() constexpr const noexcept : basic_hashed_string::hash_type [[[https://github.com/skypjack/entt/blob/fef921132cae7588213d0f9bcd2fb9c8ffd8b7fc/src/entt/core/hashed_string.hpp#L193{value}]]]
{static} +value<std::size_t N>(const basic_hashed_string::value_type (&)[N] str) constexpr noexcept : basic_hashed_string::hash_type
__
}
class "basic_hashed_string::const_wrapper" as C_0000424868921443386713
class C_0000424868921443386713 [[https://github.com/skypjack/entt/blob/fef921132cae7588213d0f9bcd2fb9c8ffd8b7fc/src/entt/core/hashed_string.hpp#L72{basic_hashed_string##const_wrapper}]] {
+const_wrapper(const Char * str) constexpr noexcept : void [[[https://github.com/skypjack/entt/blob/fef921132cae7588213d0f9bcd2fb9c8ffd8b7fc/src/entt/core/hashed_string.hpp#L74{const_wrapper}]]]
__
+repr : const Char * [[[https://github.com/skypjack/entt/blob/fef921132cae7588213d0f9bcd2fb9c8ffd8b7fc/src/entt/core/hashed_string.hpp#L77{repr}]]]
}
class "monostate<id_type>" as C_0000110998143379460752
class C_0000110998143379460752 [[https://github.com/skypjack/entt/blob/fef921132cae7588213d0f9bcd2fb9c8ffd8b7fc/src/entt/core/monostate.hpp#L21{monostate}]] {
+operator=<Type>(Type val) const noexcept : void
..
+operator type-parameter-1-0<Type>() const noexcept : Type
__
}
class "family<typename...>" as C_0000700404943238928557
class C_0000700404943238928557 [[https://github.com/skypjack/entt/blob/fef921132cae7588213d0f9bcd2fb9c8ffd8b7fc/src/entt/core/family.hpp#L17{family}]] {
__
{static} -identifier : id_type [[[https://github.com/skypjack/entt/blob/fef921132cae7588213d0f9bcd2fb9c8ffd8b7fc/src/entt/core/family.hpp#L18{identifier}]]]
}
class "compressed_pair<First,Second>" as C_0000605601419221693862
class C_0000605601419221693862 [[https://github.com/skypjack/entt/blob/fef921132cae7588213d0f9bcd2fb9c8ffd8b7fc/src/entt/core/compressed_pair.hpp#L92{compressed_pair}]] {
+compressed_pair(const compressed_pair<First,Second> & other) noexcept = default : void [[[https://github.com/skypjack/entt/blob/fef921132cae7588213d0f9bcd2fb9c8ffd8b7fc/src/entt/core/compressed_pair.hpp#L121{compressed_pair}]]]
+compressed_pair(compressed_pair<First,Second> && other) noexcept = default : void [[[https://github.com/skypjack/entt/blob/fef921132cae7588213d0f9bcd2fb9c8ffd8b7fc/src/entt/core/compressed_pair.hpp#L127{compressed_pair}]]]
+compressed_pair<First, Second><_Bool Dummy=true,typename=std::enable_if_t<Dummy && std::is_default_constructible_v<first_type> && std::is_default_constructible_v<second_type> >>() noexcept : void
+compressed_pair<First, Second><Arg,Other>(Arg && arg, Other && other) noexcept : void
+compressed_pair<First, Second><Args...,Other...>(std::piecewise_construct_t, std::tuple<Args...> args, std::tuple<Other...> other) noexcept : void
..
+operator=(const compressed_pair<First,Second> & other) constexpr noexcept = default : compressed_pair<First,Second> & [[[https://github.com/skypjack/entt/blob/fef921132cae7588213d0f9bcd2fb9c8ffd8b7fc/src/entt/core/compressed_pair.hpp#L158{operator=}]]]
+operator=(compressed_pair<First,Second> && other) constexpr noexcept = default : compressed_pair<First,Second> & [[[https://github.com/skypjack/entt/blob/fef921132cae7588213d0f9bcd2fb9c8ffd8b7fc/src/entt/core/compressed_pair.hpp#L165{operator=}]]]
..
+first() constexpr noexcept : compressed_pair::first_type & [[[https://github.com/skypjack/entt/blob/fef921132cae7588213d0f9bcd2fb9c8ffd8b7fc/src/entt/core/compressed_pair.hpp#L171{first}]]]
+first() constexpr const noexcept : const compressed_pair::first_type & [[[https://github.com/skypjack/entt/blob/fef921132cae7588213d0f9bcd2fb9c8ffd8b7fc/src/entt/core/compressed_pair.hpp#L176{first}]]]
+get<std::size_t Index>() constexpr noexcept : decltype(auto)
+get<std::size_t Index>() constexpr const noexcept : decltype(auto)
+second() constexpr noexcept : compressed_pair::second_type & [[[https://github.com/skypjack/entt/blob/fef921132cae7588213d0f9bcd2fb9c8ffd8b7fc/src/entt/core/compressed_pair.hpp#L184{second}]]]
+second() constexpr const noexcept : const compressed_pair::second_type & [[[https://github.com/skypjack/entt/blob/fef921132cae7588213d0f9bcd2fb9c8ffd8b7fc/src/entt/core/compressed_pair.hpp#L189{second}]]]
+swap(compressed_pair<First,Second> & other) constexpr noexcept : void [[[https://github.com/skypjack/entt/blob/fef921132cae7588213d0f9bcd2fb9c8ffd8b7fc/src/entt/core/compressed_pair.hpp#L197{swap}]]]
__
}
class "std_sort" as C_0000419718929949705229
class C_0000419718929949705229 [[https://github.com/skypjack/entt/blob/fef921132cae7588213d0f9bcd2fb9c8ffd8b7fc/src/entt/core/algorithm.hpp#L21{std_sort}]] {
+operator()<It,Compare=std::less<>,Args...>(It first, It last, Compare compare = Compare{}, Args &&... args) const : void
__
}
class "insertion_sort" as C_0000328187849696204075
class C_0000328187849696204075 [[https://github.com/skypjack/entt/blob/fef921132cae7588213d0f9bcd2fb9c8ffd8b7fc/src/entt/core/algorithm.hpp#L42{insertion_sort}]] {
+operator()<It,Compare=std::less<>>(It first, It last, Compare compare = Compare{}) const : void
__
}
class "radix_sort<std::size_t Bit,std::size_t N>" as C_0001812620939643757576
class C_0001812620939643757576 [[https://github.com/skypjack/entt/blob/fef921132cae7588213d0f9bcd2fb9c8ffd8b7fc/src/entt/core/algorithm.hpp#L77{radix_sort}]] {
+operator()<It,Getter=struct entt::identity>(It first, It last, Getter getter = Getter{}) const : void
__
}
class "type_index<Type,typename=void>" as C_0002237278689011475005
class C_0002237278689011475005 [[https://github.com/skypjack/entt/blob/fef921132cae7588213d0f9bcd2fb9c8ffd8b7fc/src/entt/core/type_info.hpp#L79{type_index}]] {
+operator unsigned int() constexpr const noexcept : id_type [[[https://github.com/skypjack/entt/blob/fef921132cae7588213d0f9bcd2fb9c8ffd8b7fc/src/entt/core/type_info.hpp#L90{operator unsigned int}]]]
{static} +value() noexcept : id_type [[[https://github.com/skypjack/entt/blob/fef921132cae7588213d0f9bcd2fb9c8ffd8b7fc/src/entt/core/type_info.hpp#L84{value}]]]
__
}
class "type_hash<Type,typename=void>" as C_0000735209705791977855
class C_0000735209705791977855 [[https://github.com/skypjack/entt/blob/fef921132cae7588213d0f9bcd2fb9c8ffd8b7fc/src/entt/core/type_info.hpp#L100{type_hash}]] {
+operator unsigned int() constexpr const noexcept : id_type [[[https://github.com/skypjack/entt/blob/fef921132cae7588213d0f9bcd2fb9c8ffd8b7fc/src/entt/core/type_info.hpp#L115{operator unsigned int}]]]
{static} +value() constexpr noexcept : id_type [[[https://github.com/skypjack/entt/blob/fef921132cae7588213d0f9bcd2fb9c8ffd8b7fc/src/entt/core/type_info.hpp#L106{value}]]]
__
}
class "type_name<Type,typename=void>" as C_0000683842967548804301
class C_0000683842967548804301 [[https://github.com/skypjack/entt/blob/fef921132cae7588213d0f9bcd2fb9c8ffd8b7fc/src/entt/core/type_info.hpp#L125{type_name}]] {
+operator basic_string_view() constexpr const noexcept : std::string_view [[[https://github.com/skypjack/entt/blob/fef921132cae7588213d0f9bcd2fb9c8ffd8b7fc/src/entt/core/type_info.hpp#L135{operator basic_string_view}]]]
{static} +value() constexpr noexcept : std::string_view [[[https://github.com/skypjack/entt/blob/fef921132cae7588213d0f9bcd2fb9c8ffd8b7fc/src/entt/core/type_info.hpp#L130{value}]]]
__
}
class "type_info" as C_0000732345362277076015
class C_0000732345362277076015 [[https://github.com/skypjack/entt/blob/fef921132cae7588213d0f9bcd2fb9c8ffd8b7fc/src/entt/core/type_info.hpp#L141{type_info}]] {
+type_info<Type>(std::in_place_type_t<Type>) noexcept : void
..
+hash() constexpr const noexcept : id_type [[[https://github.com/skypjack/entt/blob/fef921132cae7588213d0f9bcd2fb9c8ffd8b7fc/src/entt/core/type_info.hpp#L164{hash}]]]
+index() constexpr const noexcept : id_type [[[https://github.com/skypjack/entt/blob/fef921132cae7588213d0f9bcd2fb9c8ffd8b7fc/src/entt/core/type_info.hpp#L156{index}]]]
+name() constexpr const noexcept : std::string_view [[[https://github.com/skypjack/entt/blob/fef921132cae7588213d0f9bcd2fb9c8ffd8b7fc/src/entt/core/type_info.hpp#L172{name}]]]
__
-alias : std::string_view [[[https://github.com/skypjack/entt/blob/fef921132cae7588213d0f9bcd2fb9c8ffd8b7fc/src/entt/core/type_info.hpp#L179{alias}]]]
-identifier : id_type [[[https://github.com/skypjack/entt/blob/fef921132cae7588213d0f9bcd2fb9c8ffd8b7fc/src/entt/core/type_info.hpp#L178{identifier}]]]
-seq : id_type [[[https://github.com/skypjack/entt/blob/fef921132cae7588213d0f9bcd2fb9c8ffd8b7fc/src/entt/core/type_info.hpp#L177{seq}]]]
}
class "basic_any<std::size_t Len=sizeof(double[2]),std::size_t Align=__alignof(double[2])>" as C_0001667148687885332667
class C_0001667148687885332667 [[https://github.com/skypjack/entt/blob/fef921132cae7588213d0f9bcd2fb9c8ffd8b7fc/src/entt/core/any.hpp#L52{basic_any}]] {
-basic_any(const basic_any<Len,> & other, const basic_any::policy pol) noexcept : void [[[https://github.com/skypjack/entt/blob/fef921132cae7588213d0f9bcd2fb9c8ffd8b7fc/src/entt/core/any.hpp#L150{basic_any}]]]
+basic_any() noexcept : void [[[https://github.com/skypjack/entt/blob/fef921132cae7588213d0f9bcd2fb9c8ffd8b7fc/src/entt/core/any.hpp#L163{basic_any}]]]
+basic_any(const basic_any<Len,> & other) : void [[[https://github.com/skypjack/entt/blob/fef921132cae7588213d0f9bcd2fb9c8ffd8b7fc/src/entt/core/any.hpp#L194{basic_any}]]]
+basic_any(basic_any<Len,> && other) noexcept : void [[[https://github.com/skypjack/entt/blob/fef921132cae7588213d0f9bcd2fb9c8ffd8b7fc/src/entt/core/any.hpp#L205{basic_any}]]]
+basic_any<Len, ><Type,Args...>(std::in_place_type_t<Type>, Args &&... args) : void
+basic_any<Len, ><Type,typename=std::enable_if_t<!std::is_same_v<std::decay_t<Type>, basic_any<Len, > > >>(Type && value) : void
+~basic_any() : void [[[https://github.com/skypjack/entt/blob/fef921132cae7588213d0f9bcd2fb9c8ffd8b7fc/src/entt/core/any.hpp#L216{~basic_any}]]]
..
+operator=(const basic_any<Len,> & other) : basic_any<Len,> & [[[https://github.com/skypjack/entt/blob/fef921132cae7588213d0f9bcd2fb9c8ffd8b7fc/src/entt/core/any.hpp#L227{operator=}]]]
+operator=(basic_any<Len,> && other) noexcept : basic_any<Len,> & [[[https://github.com/skypjack/entt/blob/fef921132cae7588213d0f9bcd2fb9c8ffd8b7fc/src/entt/core/any.hpp#L242{operator=}]]]
..
+operator!=(const basic_any<Len,> & other) const noexcept : bool [[[https://github.com/skypjack/entt/blob/fef921132cae7588213d0f9bcd2fb9c8ffd8b7fc/src/entt/core/any.hpp#L387{operator!=}]]]
+operator=<Type>(Type && value) : std::enable_if_t<!std::is_same_v<std::decay_t<Type>, basic_any<Len, > >, basic_any<Len, > &>
+operator==(const basic_any<Len,> & other) const noexcept : bool [[[https://github.com/skypjack/entt/blob/fef921132cae7588213d0f9bcd2fb9c8ffd8b7fc/src/entt/core/any.hpp#L374{operator==}]]]
..
+as_ref() noexcept : basic_any<Len,> [[[https://github.com/skypjack/entt/blob/fef921132cae7588213d0f9bcd2fb9c8ffd8b7fc/src/entt/core/any.hpp#L395{as_ref}]]]
+as_ref() const noexcept : basic_any<Len,> [[[https://github.com/skypjack/entt/blob/fef921132cae7588213d0f9bcd2fb9c8ffd8b7fc/src/entt/core/any.hpp#L400{as_ref}]]]
+assign(const basic_any<Len,> & other) : bool [[[https://github.com/skypjack/entt/blob/fef921132cae7588213d0f9bcd2fb9c8ffd8b7fc/src/entt/core/any.hpp#L327{assign}]]]
+assign(basic_any<Len,> && other) : bool [[[https://github.com/skypjack/entt/blob/fef921132cae7588213d0f9bcd2fb9c8ffd8b7fc/src/entt/core/any.hpp#L336{assign}]]]
{static} -basic_vtable<Type>(const basic_any::operation op, const basic_any<Len,> & value, const void * other) : const void *
+data() const noexcept : const void * [[[https://github.com/skypjack/entt/blob/fef921132cae7588213d0f9bcd2fb9c8ffd8b7fc/src/entt/core/any.hpp#L280{data}]]]
+data(const type_info & req) const noexcept : const void * [[[https://github.com/skypjack/entt/blob/fef921132cae7588213d0f9bcd2fb9c8ffd8b7fc/src/entt/core/any.hpp#L289{data}]]]
+data() noexcept : void * [[[https://github.com/skypjack/entt/blob/fef921132cae7588213d0f9bcd2fb9c8ffd8b7fc/src/entt/core/any.hpp#L297{data}]]]
+data(const type_info & req) noexcept : void * [[[https://github.com/skypjack/entt/blob/fef921132cae7588213d0f9bcd2fb9c8ffd8b7fc/src/entt/core/any.hpp#L306{data}]]]
+emplace<Type,Args...>(Args &&... args) : void
-initialize<Type,Args...>(Args &&... args) : void
+operator bool() const noexcept : bool [[[https://github.com/skypjack/entt/blob/fef921132cae7588213d0f9bcd2fb9c8ffd8b7fc/src/entt/core/any.hpp#L365{operator bool}]]]
+owner() const noexcept : bool [[[https://github.com/skypjack/entt/blob/fef921132cae7588213d0f9bcd2fb9c8ffd8b7fc/src/entt/core/any.hpp#L408{owner}]]]
+reset() : void [[[https://github.com/skypjack/entt/blob/fef921132cae7588213d0f9bcd2fb9c8ffd8b7fc/src/entt/core/any.hpp#L349{reset}]]]
+type() const noexcept : const type_info & [[[https://github.com/skypjack/entt/blob/fef921132cae7588213d0f9bcd2fb9c8ffd8b7fc/src/entt/core/any.hpp#L272{type}]]]
__
- : basic_any::(anonymous_4039047) [[[https://github.com/skypjack/entt/blob/fef921132cae7588213d0f9bcd2fb9c8ffd8b7fc/src/entt/core/any.hpp#L413{}]]]
{static} +alignment : const std::size_t [[[https://github.com/skypjack/entt/blob/fef921132cae7588213d0f9bcd2fb9c8ffd8b7fc/src/entt/core/any.hpp#L160{alignment}]]]
-info : const type_info * [[[https://github.com/skypjack/entt/blob/fef921132cae7588213d0f9bcd2fb9c8ffd8b7fc/src/entt/core/any.hpp#L417{info}]]]
{static} +length : const std::size_t [[[https://github.com/skypjack/entt/blob/fef921132cae7588213d0f9bcd2fb9c8ffd8b7fc/src/entt/core/any.hpp#L158{length}]]]
-mode : basic_any::policy [[[https://github.com/skypjack/entt/blob/fef921132cae7588213d0f9bcd2fb9c8ffd8b7fc/src/entt/core/any.hpp#L419{mode}]]]
-vtable : basic_any::vtable_type * [[[https://github.com/skypjack/entt/blob/fef921132cae7588213d0f9bcd2fb9c8ffd8b7fc/src/entt/core/any.hpp#L418{vtable}]]]
}
class "basic_any::storage_type" as C_0001379767756691943453
class C_0001379767756691943453 [[https://github.com/skypjack/entt/blob/fef921132cae7588213d0f9bcd2fb9c8ffd8b7fc/src/entt/core/any.hpp#L57{basic_any##storage_type}]] {
__
+data : std::byte[Len + !Len] [[[https://github.com/skypjack/entt/blob/fef921132cae7588213d0f9bcd2fb9c8ffd8b7fc/src/entt/core/any.hpp#L58{data}]]]
}
class "basic_any::()" as C_0001686474886712986303
class C_0001686474886712986303 [[https://github.com/skypjack/entt/blob/fef921132cae7588213d0f9bcd2fb9c8ffd8b7fc/src/entt/core/any.hpp#L413{basic_any##()}]] {
__
+instance : const void * [[[https://github.com/skypjack/entt/blob/fef921132cae7588213d0f9bcd2fb9c8ffd8b7fc/src/entt/core/any.hpp#L414{instance}]]]
+storage : basic_any::storage_type [[[https://github.com/skypjack/entt/blob/fef921132cae7588213d0f9bcd2fb9c8ffd8b7fc/src/entt/core/any.hpp#L415{storage}]]]
}
class "allocation_deleter<Allocator>" as C_0000768632859928872772
class C_0000768632859928872772 [[https://github.com/skypjack/entt/blob/fef921132cae7588213d0f9bcd2fb9c8ffd8b7fc/src/entt/core/memory.hpp#L112{allocation_deleter}]] {
+allocation_deleter(const allocation_deleter::allocator_type & alloc) noexcept : void [[[https://github.com/skypjack/entt/blob/fef921132cae7588213d0f9bcd2fb9c8ffd8b7fc/src/entt/core/memory.hpp#L122{allocation_deleter}]]]
..
+operator()(allocation_deleter::pointer ptr) constexpr noexcept : void [[[https://github.com/skypjack/entt/blob/fef921132cae7588213d0f9bcd2fb9c8ffd8b7fc/src/entt/core/memory.hpp#L129{operator()}]]]
__
}
class "input_iterator_pointer<Type>" as C_0000128816374590776206
class C_0000128816374590776206 [[https://github.com/skypjack/entt/blob/fef921132cae7588213d0f9bcd2fb9c8ffd8b7fc/src/entt/core/iterator.hpp#L16{input_iterator_pointer}]] {
+input_iterator_pointer(input_iterator_pointer::value_type && val) noexcept : void [[[https://github.com/skypjack/entt/blob/fef921132cae7588213d0f9bcd2fb9c8ffd8b7fc/src/entt/core/iterator.hpp#L28{input_iterator_pointer}]]]
..
+operator*() constexpr noexcept : input_iterator_pointer::reference [[[https://github.com/skypjack/entt/blob/fef921132cae7588213d0f9bcd2fb9c8ffd8b7fc/src/entt/core/iterator.hpp#L43{operator*}]]]
+operator->() constexpr noexcept : input_iterator_pointer::pointer [[[https://github.com/skypjack/entt/blob/fef921132cae7588213d0f9bcd2fb9c8ffd8b7fc/src/entt/core/iterator.hpp#L35{operator->}]]]
__
-value : Type [[[https://github.com/skypjack/entt/blob/fef921132cae7588213d0f9bcd2fb9c8ffd8b7fc/src/entt/core/iterator.hpp#L48{value}]]]
}
class "iota_iterator<Type>" as C_0000319626794207445538
class C_0000319626794207445538 [[https://github.com/skypjack/entt/blob/fef921132cae7588213d0f9bcd2fb9c8ffd8b7fc/src/entt/core/iterator.hpp#L56{iota_iterator}]] {
+iota_iterator() noexcept : void [[[https://github.com/skypjack/entt/blob/fef921132cae7588213d0f9bcd2fb9c8ffd8b7fc/src/entt/core/iterator.hpp#L72{iota_iterator}]]]
+iota_iterator(const iota_iterator::value_type init) noexcept : void [[[https://github.com/skypjack/entt/blob/fef921132cae7588213d0f9bcd2fb9c8ffd8b7fc/src/entt/core/iterator.hpp#L79{iota_iterator}]]]
..
+operator*() constexpr const noexcept : iota_iterator::reference [[[https://github.com/skypjack/entt/blob/fef921132cae7588213d0f9bcd2fb9c8ffd8b7fc/src/entt/core/iterator.hpp#L103{operator*}]]]
+operator++() constexpr noexcept : iota_iterator<Type> & [[[https://github.com/skypjack/entt/blob/fef921132cae7588213d0f9bcd2fb9c8ffd8b7fc/src/entt/core/iterator.hpp#L86{operator++}]]]
+operator++(int) constexpr noexcept : iota_iterator<Type> [[[https://github.com/skypjack/entt/blob/fef921132cae7588213d0f9bcd2fb9c8ffd8b7fc/src/entt/core/iterator.hpp#L94{operator++}]]]
__
-current : iota_iterator::value_type [[[https://github.com/skypjack/entt/blob/fef921132cae7588213d0f9bcd2fb9c8ffd8b7fc/src/entt/core/iterator.hpp#L108{current}]]]
}
class "iterable_adaptor<It,Sentinel=It>" as C_0001488718257206211258
class C_0001488718257206211258 [[https://github.com/skypjack/entt/blob/fef921132cae7588213d0f9bcd2fb9c8ffd8b7fc/src/entt/core/iterator.hpp#L141{iterable_adaptor}]] {
+iterable_adaptor() noexcept : void [[[https://github.com/skypjack/entt/blob/fef921132cae7588213d0f9bcd2fb9c8ffd8b7fc/src/entt/core/iterator.hpp#L150{iterable_adaptor}]]]
+iterable_adaptor(iterable_adaptor::iterator from, iterable_adaptor::sentinel to) noexcept : void [[[https://github.com/skypjack/entt/blob/fef921132cae7588213d0f9bcd2fb9c8ffd8b7fc/src/entt/core/iterator.hpp#L159{iterable_adaptor}]]]
..
+begin() constexpr const noexcept : iterable_adaptor::iterator [[[https://github.com/skypjack/entt/blob/fef921132cae7588213d0f9bcd2fb9c8ffd8b7fc/src/entt/core/iterator.hpp#L167{begin}]]]
+cbegin() constexpr const noexcept : iterable_adaptor::iterator [[[https://github.com/skypjack/entt/blob/fef921132cae7588213d0f9bcd2fb9c8ffd8b7fc/src/entt/core/iterator.hpp#L181{cbegin}]]]
+cend() constexpr const noexcept : iterable_adaptor::sentinel [[[https://github.com/skypjack/entt/blob/fef921132cae7588213d0f9bcd2fb9c8ffd8b7fc/src/entt/core/iterator.hpp#L186{cend}]]]
+end() constexpr const noexcept : iterable_adaptor::sentinel [[[https://github.com/skypjack/entt/blob/fef921132cae7588213d0f9bcd2fb9c8ffd8b7fc/src/entt/core/iterator.hpp#L176{end}]]]
__
-first : It [[[https://github.com/skypjack/entt/blob/fef921132cae7588213d0f9bcd2fb9c8ffd8b7fc/src/entt/core/iterator.hpp#L191{first}]]]
-last : Sentinel [[[https://github.com/skypjack/entt/blob/fef921132cae7588213d0f9bcd2fb9c8ffd8b7fc/src/entt/core/iterator.hpp#L192{last}]]]
}
class "enum_as_bitmask<Type,typename=void>" as C_0000271188026916733604
class C_0000271188026916733604 [[https://github.com/skypjack/entt/blob/fef921132cae7588213d0f9bcd2fb9c8ffd8b7fc/src/entt/core/enum.hpp#L13{enum_as_bitmask}]] {
__
}
class "enum_as_bitmask<Type,void>" as C_0001220363114169480737
class C_0001220363114169480737 [[https://github.com/skypjack/entt/blob/fef921132cae7588213d0f9bcd2fb9c8ffd8b7fc/src/entt/core/enum.hpp#L17{enum_as_bitmask}]] {
__
}
C_0002198683157240036358 ..|> C_0001622597287291291801
C_0001068501097622379577 ..|> C_0001778521713000369063
C_0001557830619325445650 ..|> C_0002187872504885326697
C_0000190644970627340610 ..|> C_0001451224966841885956
C_0001347941775213415812 ..|> C_0001451224966841885956
C_0001308884857362667657 ..|> C_0001719175816700695228
C_0000302815724758950566 ..|> C_0001706589851531218937
C_0001345807541575891228 ..|> C_0001987093795004491588
C_0002041863656754635307 ..|> C_0001920246409009389790
C_0001723716587279733623 ..|> C_0000150299823092418682
C_0000401973545844492876 ..|> C_0000150299823092418682
C_0001608351857538900169 ..> C_0001723716587279733623
C_0001608351857538900169 ..|> C_0002095454172998530227
C_0001341836735802216850 ..> C_0001723716587279733623
C_0001341836735802216850 ..|> C_0002095454172998530227
C_0000683152846792042069 ..> C_0001723716587279733623
C_0000683152846792042069 ..|> C_0001290396051644670455
C_0000496685335806935509 ..|> C_0000150299823092418682
C_0001409650621385633800 ..> C_0000496685335806935509
C_0001409650621385633800 ..|> C_0000683152846792042069
C_0002036394014341745892 ..|> C_0000683152846792042069
C_0001837908976920033604 ..|> C_0000162513903661835094
C_0000121441401309806436 ..> C_0000150299823092418682
C_0000121441401309806436 ..> C_0000401973545844492876
C_0000121441401309806436 ..|> C_0000162513903661835094
C_0001923186203322886359 ..> C_0000150299823092418682
C_0001923186203322886359 ..|> C_0000121441401309806436
C_0002092362459099158912 ..> C_0000496685335806935509
C_0002092362459099158912 ..|> C_0000604213528917442712
C_0002072760276875243109 ..|> C_0002092362459099158912
C_0002194597380700596211 ..> C_0000150299823092418682
C_0002194597380700596211 ..|> C_0000590915702938605183
C_0001275280113128552014 ..> C_0000150299823092418682
C_0001275280113128552014 ..> C_0000401973545844492876
C_0001275280113128552014 ..|> C_0002176858368507679423
C_0000499769244180894001 ..> C_0000150299823092418682
C_0000499769244180894001 ..|> C_0000050823123841207506
C_0001276342508473126665 ..|> C_0000586162688184991499
C_0000669672540584988414 ..|> C_0000586162688184991499
C_0001722867564985277107 ..> C_0001276342508473126665
C_0001722867564985277107 ..|> C_0001876765213030307332
C_0000618783256746069511 ..> C_0001276342508473126665
C_0000618783256746069511 ..|> C_0001876765213030307332
C_0001054288259585211651 ..|> C_0000065117302876923077
C_0000114548431562228752 ..|> C_0000586162688184991499
C_0001460567976117784695 ..> C_0000114548431562228752
C_0001460567976117784695 ..> C_0000669672540584988414
C_0001460567976117784695 ..|> C_0000065117302876923077
C_0000167235983220730819 ..> C_0000114548431562228752
C_0000167235983220730819 ..|> C_0001460567976117784695
C_0001902848304695597310 ..|> C_0001824263356167167949
C_0002215075946142720645 ..|> C_0001902848304695597310
C_0001798669837481466216 ..|> C_0000442715663532313051
C_0001350726405145293589 ..|> C_0000546874088669025752
C_0002035074371099284696 ..|> C_0001690229383453135081
C_0002191833632314674298 ..|> C_0001251691454377216125
C_0001905714764316104657 ..|> C_0001554362300378759805
C_0002224427931273836031 ..|> C_0000876522523946587891
C_0000436936324155938400 <|-- C_0000286711128870137288
C_0000424868921443386713 --+ C_0000286711128870137288
C_0001667148687885332667 ..> C_0001949041833194725502
C_0001667148687885332667 --> C_0000732345362277076015 : -info
C_0001667148687885332667 o-- C_0000844366660775410093 : -mode
C_0001667148687885332667 o-- C_0001686474886712986303
C_0001379767756691943453 --+ C_0001667148687885332667
C_0001220363114169480737 ..|> C_0000271188026916733604

'Generated with clang-uml, version 0.4.0-9-gc398c6f
'LLVM version Ubuntu clang version 15.0.7
@enduml
