@startuml
title 'graph' class diagram
class "directed_tag" as C_0002020830202082955781
class C_0002020830202082955781 [[https://github.com/skypjack/entt/blob/fef921132cae7588213d0f9bcd2fb9c8ffd8b7fc/src/entt/graph/fwd.hpp#L11{directed_tag}]] {
__
}
class "undirected_tag" as C_0000261952894934420548
class C_0000261952894934420548 [[https://github.com/skypjack/entt/blob/fef921132cae7588213d0f9bcd2fb9c8ffd8b7fc/src/entt/graph/fwd.hpp#L14{undirected_tag}]] {
__
}
class "internal::edge_iterator<It>" as C_0001033172316353199790
class C_0001033172316353199790 [[https://github.com/skypjack/entt/blob/fef921132cae7588213d0f9bcd2fb9c8ffd8b7fc/src/entt/graph/adjacency_matrix.hpp#L24{edge_iterator}]] {
+edge_iterator() noexcept : void [[[https://github.com/skypjack/entt/blob/fef921132cae7588213d0f9bcd2fb9c8ffd8b7fc/src/entt/graph/adjacency_matrix.hpp#L34{edge_iterator}]]]
+edge_iterator(It base, const internal::edge_iterator::size_type vertices, const internal::edge_iterator::size_type from, const internal::edge_iterator::size_type to, const internal::edge_iterator::size_type step) noexcept : void [[[https://github.com/skypjack/entt/blob/fef921132cae7588213d0f9bcd2fb9c8ffd8b7fc/src/entt/graph/adjacency_matrix.hpp#L41{edge_iterator}]]]
..
+operator*() constexpr const noexcept : internal::edge_iterator::reference [[[https://github.com/skypjack/entt/blob/fef921132cae7588213d0f9bcd2fb9c8ffd8b7fc/src/entt/graph/adjacency_matrix.hpp#L60{operator*}]]]
+operator++() constexpr noexcept : edge_iterator<It> & [[[https://github.com/skypjack/entt/blob/fef921132cae7588213d0f9bcd2fb9c8ffd8b7fc/src/entt/graph/adjacency_matrix.hpp#L50{operator++}]]]
+operator++(int) constexpr noexcept : edge_iterator<It> [[[https://github.com/skypjack/entt/blob/fef921132cae7588213d0f9bcd2fb9c8ffd8b7fc/src/entt/graph/adjacency_matrix.hpp#L55{operator++}]]]
+operator->() constexpr const noexcept : internal::edge_iterator::pointer [[[https://github.com/skypjack/entt/blob/fef921132cae7588213d0f9bcd2fb9c8ffd8b7fc/src/entt/graph/adjacency_matrix.hpp#L64{operator->}]]]
__
-it : It [[[https://github.com/skypjack/entt/blob/fef921132cae7588213d0f9bcd2fb9c8ffd8b7fc/src/entt/graph/adjacency_matrix.hpp#L72{it}]]]
-last : internal::edge_iterator::size_type [[[https://github.com/skypjack/entt/blob/fef921132cae7588213d0f9bcd2fb9c8ffd8b7fc/src/entt/graph/adjacency_matrix.hpp#L75{last}]]]
-offset : internal::edge_iterator::size_type [[[https://github.com/skypjack/entt/blob/fef921132cae7588213d0f9bcd2fb9c8ffd8b7fc/src/entt/graph/adjacency_matrix.hpp#L76{offset}]]]
-pos : internal::edge_iterator::size_type [[[https://github.com/skypjack/entt/blob/fef921132cae7588213d0f9bcd2fb9c8ffd8b7fc/src/entt/graph/adjacency_matrix.hpp#L74{pos}]]]
-vert : internal::edge_iterator::size_type [[[https://github.com/skypjack/entt/blob/fef921132cae7588213d0f9bcd2fb9c8ffd8b7fc/src/entt/graph/adjacency_matrix.hpp#L73{vert}]]]
}
class "adjacency_matrix<Category,Allocator=std::allocator<std::size_t>>" as C_0001453232910335396883
class C_0001453232910335396883 [[https://github.com/skypjack/entt/blob/fef921132cae7588213d0f9bcd2fb9c8ffd8b7fc/src/entt/graph/adjacency_matrix.hpp#L102{adjacency_matrix}]] {
+adjacency_matrix() noexcept : void [[[https://github.com/skypjack/entt/blob/fef921132cae7588213d0f9bcd2fb9c8ffd8b7fc/src/entt/graph/adjacency_matrix.hpp#L129{adjacency_matrix}]]]
+adjacency_matrix(const adjacency_matrix::allocator_type & allocator) noexcept : void [[[https://github.com/skypjack/entt/blob/fef921132cae7588213d0f9bcd2fb9c8ffd8b7fc/src/entt/graph/adjacency_matrix.hpp#L136{adjacency_matrix}]]]
+adjacency_matrix(const adjacency_matrix::size_type vertices, const adjacency_matrix::allocator_type & allocator = allocator_type{}) : void [[[https://github.com/skypjack/entt/blob/fef921132cae7588213d0f9bcd2fb9c8ffd8b7fc/src/entt/graph/adjacency_matrix.hpp#L145{adjacency_matrix}]]]
+adjacency_matrix(const adjacency_matrix<type-parameter-0-0,type-parameter-0-1> & other) : void [[[https://github.com/skypjack/entt/blob/fef921132cae7588213d0f9bcd2fb9c8ffd8b7fc/src/entt/graph/adjacency_matrix.hpp#L153{adjacency_matrix}]]]
+adjacency_matrix(const adjacency_matrix<type-parameter-0-0,type-parameter-0-1> & other, const adjacency_matrix::allocator_type & allocator) : void [[[https://github.com/skypjack/entt/blob/fef921132cae7588213d0f9bcd2fb9c8ffd8b7fc/src/entt/graph/adjacency_matrix.hpp#L161{adjacency_matrix}]]]
+adjacency_matrix(adjacency_matrix<type-parameter-0-0,type-parameter-0-1> && other) noexcept : void [[[https://github.com/skypjack/entt/blob/fef921132cae7588213d0f9bcd2fb9c8ffd8b7fc/src/entt/graph/adjacency_matrix.hpp#L169{adjacency_matrix}]]]
+adjacency_matrix(adjacency_matrix<type-parameter-0-0,type-parameter-0-1> && other, const adjacency_matrix::allocator_type & allocator) : void [[[https://github.com/skypjack/entt/blob/fef921132cae7588213d0f9bcd2fb9c8ffd8b7fc/src/entt/graph/adjacency_matrix.hpp#L177{adjacency_matrix}]]]
..
+operator=(const adjacency_matrix<type-parameter-0-0,type-parameter-0-1> & other) : adjacency_matrix<type-parameter-0-0,type-parameter-0-1> & [[[https://github.com/skypjack/entt/blob/fef921132cae7588213d0f9bcd2fb9c8ffd8b7fc/src/entt/graph/adjacency_matrix.hpp#L186{operator=}]]]
+operator=(adjacency_matrix<type-parameter-0-0,type-parameter-0-1> && other) noexcept : adjacency_matrix<type-parameter-0-0,type-parameter-0-1> & [[[https://github.com/skypjack/entt/blob/fef921132cae7588213d0f9bcd2fb9c8ffd8b7fc/src/entt/graph/adjacency_matrix.hpp#L197{operator=}]]]
..
+clear() noexcept : void [[[https://github.com/skypjack/entt/blob/fef921132cae7588213d0f9bcd2fb9c8ffd8b7fc/src/entt/graph/adjacency_matrix.hpp#L212{clear}]]]
+contains(const adjacency_matrix::vertex_type lhs, const adjacency_matrix::vertex_type rhs) const : bool [[[https://github.com/skypjack/entt/blob/fef921132cae7588213d0f9bcd2fb9c8ffd8b7fc/src/entt/graph/adjacency_matrix.hpp#L336{contains}]]]
+edges() const noexcept : iterable_adaptor<adjacency_matrix::edge_iterator> [[[https://github.com/skypjack/entt/blob/fef921132cae7588213d0f9bcd2fb9c8ffd8b7fc/src/entt/graph/adjacency_matrix.hpp#L247{edges}]]]
+erase(const adjacency_matrix::vertex_type lhs, const adjacency_matrix::vertex_type rhs) : adjacency_matrix::size_type [[[https://github.com/skypjack/entt/blob/fef921132cae7588213d0f9bcd2fb9c8ffd8b7fc/src/entt/graph/adjacency_matrix.hpp#L318{erase}]]]
+get_allocator() constexpr const noexcept : adjacency_matrix::allocator_type [[[https://github.com/skypjack/entt/blob/fef921132cae7588213d0f9bcd2fb9c8ffd8b7fc/src/entt/graph/adjacency_matrix.hpp#L207{get_allocator}]]]
+in_edges(const adjacency_matrix::vertex_type vertex) const noexcept : iterable_adaptor<adjacency_matrix::in_edge_iterator> [[[https://github.com/skypjack/entt/blob/fef921132cae7588213d0f9bcd2fb9c8ffd8b7fc/src/entt/graph/adjacency_matrix.hpp#L270{in_edges}]]]
+insert(const adjacency_matrix::vertex_type lhs, const adjacency_matrix::vertex_type rhs) : std::pair<edge_iterator,bool> [[[https://github.com/skypjack/entt/blob/fef921132cae7588213d0f9bcd2fb9c8ffd8b7fc/src/entt/graph/adjacency_matrix.hpp#L299{insert}]]]
+out_edges(const adjacency_matrix::vertex_type vertex) const noexcept : iterable_adaptor<adjacency_matrix::out_edge_iterator> [[[https://github.com/skypjack/entt/blob/fef921132cae7588213d0f9bcd2fb9c8ffd8b7fc/src/entt/graph/adjacency_matrix.hpp#L258{out_edges}]]]
+resize(const adjacency_matrix::size_type vertices) : void [[[https://github.com/skypjack/entt/blob/fef921132cae7588213d0f9bcd2fb9c8ffd8b7fc/src/entt/graph/adjacency_matrix.hpp#L281{resize}]]]
+size() const noexcept : adjacency_matrix::size_type [[[https://github.com/skypjack/entt/blob/fef921132cae7588213d0f9bcd2fb9c8ffd8b7fc/src/entt/graph/adjacency_matrix.hpp#L231{size}]]]
+swap(adjacency_matrix<type-parameter-0-0,type-parameter-0-1> & other) : void [[[https://github.com/skypjack/entt/blob/fef921132cae7588213d0f9bcd2fb9c8ffd8b7fc/src/entt/graph/adjacency_matrix.hpp#L221{swap}]]]
+vertices() const noexcept : iterable_adaptor<adjacency_matrix::vertex_iterator> [[[https://github.com/skypjack/entt/blob/fef921132cae7588213d0f9bcd2fb9c8ffd8b7fc/src/entt/graph/adjacency_matrix.hpp#L239{vertices}]]]
__
-matrix : adjacency_matrix::container_type [[[https://github.com/skypjack/entt/blob/fef921132cae7588213d0f9bcd2fb9c8ffd8b7fc/src/entt/graph/adjacency_matrix.hpp#L342{matrix}]]]
-vert : adjacency_matrix::size_type [[[https://github.com/skypjack/entt/blob/fef921132cae7588213d0f9bcd2fb9c8ffd8b7fc/src/entt/graph/adjacency_matrix.hpp#L343{vert}]]]
}
class "basic_flow<typename=std::allocator<id_type>>" as C_0000144454592563963931
class C_0000144454592563963931 [[https://github.com/skypjack/entt/blob/fef921132cae7588213d0f9bcd2fb9c8ffd8b7fc/src/entt/graph/fwd.hpp#L20{basic_flow}]] {
__
}
class "adjacency_matrix<typename,typename=std::allocator<std::size_t>>" as C_0000887826077265495331
class C_0000887826077265495331 [[https://github.com/skypjack/entt/blob/fef921132cae7588213d0f9bcd2fb9c8ffd8b7fc/src/entt/graph/fwd.hpp#L17{adjacency_matrix}]] {
__
}
class "adjacency_matrix<directed_tag>" as C_0000873438139212187708
class C_0000873438139212187708 [[https://github.com/skypjack/entt/blob/fef921132cae7588213d0f9bcd2fb9c8ffd8b7fc/src/entt/graph/adjacency_matrix.hpp#L102{adjacency_matrix}]] {
__
}
class "basic_flow<Allocator=std::allocator<id_type>>" as C_0000210061193389745692
class C_0000210061193389745692 [[https://github.com/skypjack/entt/blob/fef921132cae7588213d0f9bcd2fb9c8ffd8b7fc/src/entt/graph/flow.hpp#L29{basic_flow}]] {
+basic_flow() : void [[[https://github.com/skypjack/entt/blob/fef921132cae7588213d0f9bcd2fb9c8ffd8b7fc/src/entt/graph/flow.hpp#L55{basic_flow}]]]
+basic_flow(const basic_flow::allocator_type & allocator) : void [[[https://github.com/skypjack/entt/blob/fef921132cae7588213d0f9bcd2fb9c8ffd8b7fc/src/entt/graph/flow.hpp#L62{basic_flow}]]]
+basic_flow(const basic_flow<type-parameter-0-0> &) = default : void [[[https://github.com/skypjack/entt/blob/fef921132cae7588213d0f9bcd2fb9c8ffd8b7fc/src/entt/graph/flow.hpp#L69{basic_flow}]]]
+basic_flow(const basic_flow<type-parameter-0-0> & other, const basic_flow::allocator_type & allocator) : void [[[https://github.com/skypjack/entt/blob/fef921132cae7588213d0f9bcd2fb9c8ffd8b7fc/src/entt/graph/flow.hpp#L76{basic_flow}]]]
+basic_flow(basic_flow<type-parameter-0-0> &&) noexcept = default : void [[[https://github.com/skypjack/entt/blob/fef921132cae7588213d0f9bcd2fb9c8ffd8b7fc/src/entt/graph/flow.hpp#L83{basic_flow}]]]
+basic_flow(basic_flow<type-parameter-0-0> && other, const basic_flow::allocator_type & allocator) : void [[[https://github.com/skypjack/entt/blob/fef921132cae7588213d0f9bcd2fb9c8ffd8b7fc/src/entt/graph/flow.hpp#L90{basic_flow}]]]
..
+operator=(const basic_flow<type-parameter-0-0> &) = default : basic_flow<type-parameter-0-0> & [[[https://github.com/skypjack/entt/blob/fef921132cae7588213d0f9bcd2fb9c8ffd8b7fc/src/entt/graph/flow.hpp#L100{operator=}]]]
+operator=(basic_flow<type-parameter-0-0> &&) noexcept = default : basic_flow<type-parameter-0-0> & [[[https://github.com/skypjack/entt/blob/fef921132cae7588213d0f9bcd2fb9c8ffd8b7fc/src/entt/graph/flow.hpp#L106{operator=}]]]
..
+operator[](const basic_flow::size_type pos) const : id_type [[[https://github.com/skypjack/entt/blob/fef921132cae7588213d0f9bcd2fb9c8ffd8b7fc/src/entt/graph/flow.hpp#L121{operator[]}]]]
..
+bind(const id_type value) : basic_flow<type-parameter-0-0> & [[[https://github.com/skypjack/entt/blob/fef921132cae7588213d0f9bcd2fb9c8ffd8b7fc/src/entt/graph/flow.hpp#L157{bind}]]]
+clear() noexcept : void [[[https://github.com/skypjack/entt/blob/fef921132cae7588213d0f9bcd2fb9c8ffd8b7fc/src/entt/graph/flow.hpp#L126{clear}]]]
-emplace(const id_type res, const bool is_rw) : void [[[https://github.com/skypjack/entt/blob/fef921132cae7588213d0f9bcd2fb9c8ffd8b7fc/src/entt/graph/flow.hpp#L36{emplace}]]]
+get_allocator() constexpr const noexcept : basic_flow::allocator_type [[[https://github.com/skypjack/entt/blob/fef921132cae7588213d0f9bcd2fb9c8ffd8b7fc/src/entt/graph/flow.hpp#L112{get_allocator}]]]
+graph() const : adjacency_matrix<directed_tag> [[[https://github.com/skypjack/entt/blob/fef921132cae7588213d0f9bcd2fb9c8ffd8b7fc/src/entt/graph/flow.hpp#L248{graph}]]]
+ro(const id_type res) : basic_flow<type-parameter-0-0> & [[[https://github.com/skypjack/entt/blob/fef921132cae7588213d0f9bcd2fb9c8ffd8b7fc/src/entt/graph/flow.hpp#L195{ro}]]]
+ro<It>(It first, It last) : std::enable_if_t<std::is_same_v<std::remove_const_t<typename std::iterator_traits<It>::value_type>, id_type>, basic_flow<type-parameter-0-0> &>
+rw(const id_type res) : basic_flow<type-parameter-0-0> & [[[https://github.com/skypjack/entt/blob/fef921132cae7588213d0f9bcd2fb9c8ffd8b7fc/src/entt/graph/flow.hpp#L222{rw}]]]
+rw<It>(It first, It last) : std::enable_if_t<std::is_same_v<std::remove_const_t<typename std::iterator_traits<It>::value_type>, id_type>, basic_flow<type-parameter-0-0> &>
+set(const id_type res, bool is_rw = false) : basic_flow<type-parameter-0-0> & [[[https://github.com/skypjack/entt/blob/fef921132cae7588213d0f9bcd2fb9c8ffd8b7fc/src/entt/graph/flow.hpp#L185{set}]]]
+size() const noexcept : basic_flow::size_type [[[https://github.com/skypjack/entt/blob/fef921132cae7588213d0f9bcd2fb9c8ffd8b7fc/src/entt/graph/flow.hpp#L148{size}]]]
+swap(basic_flow<type-parameter-0-0> & other) : void [[[https://github.com/skypjack/entt/blob/fef921132cae7588213d0f9bcd2fb9c8ffd8b7fc/src/entt/graph/flow.hpp#L136{swap}]]]
+sync() : basic_flow<type-parameter-0-0> & [[[https://github.com/skypjack/entt/blob/fef921132cae7588213d0f9bcd2fb9c8ffd8b7fc/src/entt/graph/flow.hpp#L168{sync}]]]
__
-deps : basic_flow::deps_container_type [[[https://github.com/skypjack/entt/blob/fef921132cae7588213d0f9bcd2fb9c8ffd8b7fc/src/entt/graph/flow.hpp#L321{deps}]]]
-index : compressed_pair<basic_flow::size_type,basic_flow::allocator_type> [[[https://github.com/skypjack/entt/blob/fef921132cae7588213d0f9bcd2fb9c8ffd8b7fc/src/entt/graph/flow.hpp#L319{index}]]]
-sync_on : basic_flow::size_type [[[https://github.com/skypjack/entt/blob/fef921132cae7588213d0f9bcd2fb9c8ffd8b7fc/src/entt/graph/flow.hpp#L322{sync_on}]]]
-vertices : basic_flow::task_container_type [[[https://github.com/skypjack/entt/blob/fef921132cae7588213d0f9bcd2fb9c8ffd8b7fc/src/entt/graph/flow.hpp#L320{vertices}]]]
}
C_0002020830202082955781 <|-- C_0000261952894934420548
C_0000873438139212187708 ..> C_0002020830202082955781
C_0000873438139212187708 ..|> C_0001453232910335396883
C_0000210061193389745692 ..> C_0000873438139212187708
C_0000210061193389745692 ..> C_0002020830202082955781

'Generated with clang-uml, version 0.4.0-9-gc398c6f
'LLVM version Ubuntu clang version 15.0.7
@enduml
