@startuml
title Comment visitor class hierarchy
class "common::visitor::comment::comment_visitor" as C_0000902598929857859706
class C_0000902598929857859706 [[classclanguml_1_1common_1_1visitor_1_1comment_1_1comment__visitor.html{Base class for comment visitors}]] {
__
}
class "common::visitor::comment::plain_visitor" as C_0005952270140500946513
class C_0005952270140500946513 [[classclanguml_1_1common_1_1visitor_1_1comment_1_1plain__visitor.html{Plain comment visitor which extracts raw and formatted comment.}]] {
__
}
class "common::visitor::comment::clang_visitor" as C_0002493834664364968455
class C_0002493834664364968455 [[classclanguml_1_1common_1_1visitor_1_1comment_1_1clang__visitor.html{Uses Clang's comment parser to extract Doxygen-style comment blocks.}]] {
__
}
C_0000902598929857859706 <|-- C_0005952270140500946513
C_0000902598929857859706 <|-- C_0002493834664364968455

'Generated with clang-uml, version 0.6.1
'LLVM version Ubuntu clang version 19.1.1 (1ubuntu1)
@enduml
