@startuml
title Configuration model class hierarchy
package [config] as C_0000891115944470323979 {
class "inheritable_diagram_options" as C_0000966232506125300666
class C_0000966232506125300666 [[structclanguml_1_1config_1_1inheritable__diagram__options.html{Represents subset of inheritable configuration options}]] {
__
}
class "diagram" as C_0003201952778923380387
class C_0003201952778923380387 [[structclanguml_1_1config_1_1diagram.html{Common diagram configuration type}]] {
__
}
class "class_diagram" as C_0002526575321178023965
class C_0002526575321178023965 [[structclanguml_1_1config_1_1class__diagram.html{Class diagram configuration}]] {
__
}
class "sequence_diagram" as C_0016556429241281113094
class C_0016556429241281113094 [[structclanguml_1_1config_1_1sequence__diagram.html{Sequence diagram configuration}]] {
__
}
class "package_diagram" as C_0016241417306223764720
class C_0016241417306223764720 [[structclanguml_1_1config_1_1package__diagram.html{Package diagram configuration}]] {
__
}
class "include_diagram" as C_0004074670510951731805
class C_0004074670510951731805 [[structclanguml_1_1config_1_1include__diagram.html{Include diagram configuration}]] {
__
}
}
C_0000966232506125300666 <|-- C_0003201952778923380387
C_0003201952778923380387 <|-- C_0002526575321178023965
C_0003201952778923380387 <|-- C_0016556429241281113094
C_0003201952778923380387 <|-- C_0016241417306223764720
C_0003201952778923380387 <|-- C_0004074670510951731805

'Generated with clang-uml, version 0.6.1
'LLVM version Ubuntu clang version 19.1.1 (1ubuntu1)
@enduml
