@startuml
title Template trait diagram element model class hierarchy
package [common] as C_0002532840279361781187 {
package [model] as C_0000669774451444102653 {
class "template_parameter" as C_0001425108501944636238
class C_0001425108501944636238 [[classclanguml_1_1common_1_1model_1_1template__parameter.html{Represents template parameter, template arguments or concept         constraints}]] {
__
}
class "template_trait" as C_0003717723700041732716
class C_0003717723700041732716 [[classclanguml_1_1common_1_1model_1_1template__trait.html{Common interface for template diagram elements.}]] {
__
}
class "template_element" as C_0013384831159811298387
class C_0013384831159811298387 [[classclanguml_1_1common_1_1model_1_1template__element.html{Base class for any element qualified by namespace.}]] {
__
}
}
}
package [class_diagram] as C_0017921336289613804855 {
package [model] as C_0007176993879715460962 {
class "class_method" as C_0001633165731746789371
class C_0001633165731746789371 [[classclanguml_1_1class__diagram_1_1model_1_1class__method.html{Class method model.}]] {
__
}
class "class_" as C_0010336274859733225462
class C_0010336274859733225462 [[classclanguml_1_1class__diagram_1_1model_1_1class__.html{Diagram element representing a class or class template.}]] {
__
}
class "concept_" as C_0010998792414017796003
class C_0010998792414017796003 [[classclanguml_1_1class__diagram_1_1model_1_1concept__.html{Model of C++ concept.}]] {
__
}
}
}
package [sequence_diagram] as C_0012174902727661033893 {
package [model] as C_0017655759046645114118 {
class "participant" as C_0011201726182739961811
class C_0011201726182739961811 [[structclanguml_1_1sequence__diagram_1_1model_1_1participant.html{Base class for various types of sequence diagram participants}]] {
__
}
class "class_" as C_0007084118972955772881
class C_0007084118972955772881 [[structclanguml_1_1sequence__diagram_1_1model_1_1class__.html{Sequence diagram participant representing a class.}]] {
__
}
class "function" as C_0001861107648253454629
class C_0001861107648253454629 [[structclanguml_1_1sequence__diagram_1_1model_1_1function.html{Participant mode representing a free function.}]] {
__
}
class "method" as C_0006541327780382276039
class C_0006541327780382276039 [[structclanguml_1_1sequence__diagram_1_1model_1_1method.html{Participant model representing a method}]] {
__
}
class "objc_method" as C_0013742559556936917396
class C_0013742559556936917396 [[structclanguml_1_1sequence__diagram_1_1model_1_1objc__method.html{objc_method}]] {
__
}
class "function_template" as C_0018241535739946484465
class C_0018241535739946484465 [[structclanguml_1_1sequence__diagram_1_1model_1_1function__template.html{Participant model representing a function template.}]] {
__
}
}
}
C_0001425108501944636238 o-- C_0001425108501944636238 [[{template_params_}]] : -template_params_
C_0003717723700041732716 o-- C_0001425108501944636238 [[{templates_}]] : -templates_
C_0003717723700041732716 <|-- C_0013384831159811298387
C_0003717723700041732716 <|-- C_0001633165731746789371
C_0010336274859733225462 o-- C_0001633165731746789371 [[{methods_}]] : -methods_
C_0013384831159811298387 <|-- C_0010336274859733225462
C_0013384831159811298387 <|-- C_0010998792414017796003
C_0013384831159811298387 <|-- C_0011201726182739961811
C_0011201726182739961811 <|-- C_0007084118972955772881
C_0011201726182739961811 <|-- C_0001861107648253454629
C_0001861107648253454629 <|-- C_0006541327780382276039
C_0001861107648253454629 <|-- C_0013742559556936917396
C_0001861107648253454629 <|-- C_0018241535739946484465

'Generated with clang-uml, version 0.6.1
'LLVM version Ubuntu clang version 19.1.1 (1ubuntu1)
@enduml
