@startuml
title 'cpp_entity_index' class diagram
left to right direction
class "cpp_attribute" as C_0004485257828227364477
class C_0004485257828227364477 [[https://github.com/foonathan/cppast/blob/5329e377ab9b9ab9309e9641f3fcda04366a449a/include/cppast/cpp_attribute.hpp#L42{cpp_attribute}]] {
__
}
class "cpp_scope_name" as C_0013528989159768861052
class C_0013528989159768861052 [[https://github.com/foonathan/cppast/blob/5329e377ab9b9ab9309e9641f3fcda04366a449a/include/cppast/cpp_entity.hpp#L22{cpp_scope_name}]] {
__
}
class "cpp_entity" as C_0014837562978658247224
class C_0014837562978658247224 [[https://github.com/foonathan/cppast/blob/5329e377ab9b9ab9309e9641f3fcda04366a449a/include/cppast/cpp_entity.hpp#L47{cpp_entity}]] {
__
}
class "cpp_unexposed_entity" as C_0011598861676029238614
class C_0011598861676029238614 [[https://github.com/foonathan/cppast/blob/5329e377ab9b9ab9309e9641f3fcda04366a449a/include/cppast/cpp_entity.hpp#L187{cpp_unexposed_entity}]] {
__
}
class "cpp_entity_id" as C_0009218756409310628439
class C_0009218756409310628439 [[https://github.com/foonathan/cppast/blob/5329e377ab9b9ab9309e9641f3fcda04366a449a/include/cppast/cpp_entity_index.hpp#L38{cpp_entity_id}]] {
__
}
class "cpp_entity_index" as C_0015917849809320296332
class C_0015917849809320296332 [[https://github.com/foonathan/cppast/blob/5329e377ab9b9ab9309e9641f3fcda04366a449a/include/cppast/cpp_entity_index.hpp#L58{cpp_entity_index}]] {
__
}
class "cpp_entity_index::duplicate_definition_error" as C_0015916253088811816967
class C_0015916253088811816967 [[https://github.com/foonathan/cppast/blob/5329e377ab9b9ab9309e9641f3fcda04366a449a/include/cppast/cpp_entity_index.hpp#L62{cpp_entity_index::duplicate_definition_error}]] {
__
}
class "cpp_entity_index::hash" as C_0005075454191225961157
class C_0005075454191225961157 [[https://github.com/foonathan/cppast/blob/5329e377ab9b9ab9309e9641f3fcda04366a449a/include/cppast/cpp_entity_index.hpp#L116{cpp_entity_index::hash}]] {
__
}
class "cpp_entity_index::value" as C_0015347669116277710106
class C_0015347669116277710106 [[https://github.com/foonathan/cppast/blob/5329e377ab9b9ab9309e9641f3fcda04366a449a/include/cppast/cpp_entity_index.hpp#L124{cpp_entity_index::value}]] {
__
}
class "code_generator" as C_0005317930743773681966
class C_0005317930743773681966 [[https://github.com/foonathan/cppast/blob/5329e377ab9b9ab9309e9641f3fcda04366a449a/include/cppast/code_generator.hpp#L142{code_generator}]] {
__
}
class "code_generator::output" as C_0001539461946534932835
class C_0001539461946534932835 [[https://github.com/foonathan/cppast/blob/5329e377ab9b9ab9309e9641f3fcda04366a449a/include/cppast/code_generator.hpp#L168{code_generator::output}]] {
__
}
class "cpp_template_parameter" as C_0009267542389196346145
class C_0009267542389196346145 [[https://github.com/foonathan/cppast/blob/5329e377ab9b9ab9309e9641f3fcda04366a449a/include/cppast/cpp_template_parameter.hpp#L17{cpp_template_parameter}]] {
__
}
class "cpp_template" as C_0000056978405368650305
class C_0000056978405368650305 [[https://github.com/foonathan/cppast/blob/5329e377ab9b9ab9309e9641f3fcda04366a449a/include/cppast/cpp_template.hpp#L21{cpp_template}]] {
__
}
class "cpp_file" as C_0009988748056411922181
class C_0009988748056411922181 [[https://github.com/foonathan/cppast/blob/5329e377ab9b9ab9309e9641f3fcda04366a449a/include/cppast/cpp_file.hpp#L27{cpp_file}]] {
__
}
class "cpp_namespace" as C_0010549045533069850854
class C_0010549045533069850854 [[https://github.com/foonathan/cppast/blob/5329e377ab9b9ab9309e9641f3fcda04366a449a/include/cppast/cppast_fwd.hpp#L55{cpp_namespace}]] {
__
}
C_0013528989159768861052 o-- C_0014837562978658247224 [[https://github.com/foonathan/cppast/blob/5329e377ab9b9ab9309e9641f3fcda04366a449a/include/cppast/cpp_entity.hpp#L42{entity_}]] : -entity_
C_0013528989159768861052 o-- C_0000056978405368650305 [[https://github.com/foonathan/cppast/blob/5329e377ab9b9ab9309e9641f3fcda04366a449a/include/cppast/cpp_entity.hpp#L43{templ_}]] : -templ_
C_0014837562978658247224 o-- C_0004485257828227364477 [[https://github.com/foonathan/cppast/blob/5329e377ab9b9ab9309e9641f3fcda04366a449a/include/cppast/cpp_entity.hpp#L175{attributes_}]] : -attributes_
C_0014837562978658247224 o-- C_0014837562978658247224 [[https://github.com/foonathan/cppast/blob/5329e377ab9b9ab9309e9641f3fcda04366a449a/include/cppast/cpp_entity.hpp#L176{parent_}]] : -parent_
C_0014837562978658247224 <|-- C_0011598861676029238614
C_0015917849809320296332 o-- C_0009218756409310628439 [[https://github.com/foonathan/cppast/blob/5329e377ab9b9ab9309e9641f3fcda04366a449a/include/cppast/cpp_entity_index.hpp#L135{map_}]] : -map_
C_0015917849809320296332 o-- C_0009218756409310628439 [[https://github.com/foonathan/cppast/blob/5329e377ab9b9ab9309e9641f3fcda04366a449a/include/cppast/cpp_entity_index.hpp#L138{ns_}]] : -ns_
C_0015917849809320296332 o-- C_0010549045533069850854 [[https://github.com/foonathan/cppast/blob/5329e377ab9b9ab9309e9641f3fcda04366a449a/include/cppast/cpp_entity_index.hpp#L138{ns_}]] : -ns_
C_0015916253088811816967 --+ C_0015917849809320296332
C_0005075454191225961157 --+ C_0015917849809320296332
C_0015347669116277710106 --+ C_0015917849809320296332
C_0015347669116277710106 o-- C_0014837562978658247224 [[https://github.com/foonathan/cppast/blob/5329e377ab9b9ab9309e9641f3fcda04366a449a/include/cppast/cpp_entity_index.hpp#L126{entity}]] : +entity
C_0005317930743773681966 o-- C_0014837562978658247224 [[https://github.com/foonathan/cppast/blob/5329e377ab9b9ab9309e9641f3fcda04366a449a/include/cppast/code_generator.hpp#L509{main_entity_}]] : -main_entity_
C_0001539461946534932835 --+ C_0005317930743773681966
C_0001539461946534932835 o-- C_0005317930743773681966 [[https://github.com/foonathan/cppast/blob/5329e377ab9b9ab9309e9641f3fcda04366a449a/include/cppast/code_generator.hpp#L355{gen_}]] : -gen_
C_0001539461946534932835 o-- C_0014837562978658247224 [[https://github.com/foonathan/cppast/blob/5329e377ab9b9ab9309e9641f3fcda04366a449a/include/cppast/code_generator.hpp#L356{e_}]] : -e_
C_0014837562978658247224 <|-- C_0009267542389196346145
C_0000056978405368650305 o-- C_0009267542389196346145 [[https://github.com/foonathan/cppast/blob/5329e377ab9b9ab9309e9641f3fcda04366a449a/include/cppast/cpp_template.hpp#L89{parameters_}]] : -parameters_
C_0014837562978658247224 <|-- C_0000056978405368650305
C_0014837562978658247224 <|-- C_0009988748056411922181

'Generated with clang-uml, version 0.6.1
'LLVM version Ubuntu clang version 19.1.1 (1ubuntu1)
@enduml
