@startuml
title App::PropertyExpressionEngine context
package [Base] as C_0000701777446892506059 {
class "Type" as C_0001299587473968259399
class C_0001299587473968259399 [[https://github.com/FreeCAD/FreeCAD/blob/f6708547a9bb3f71a4aaade12109f511a72c207c/src/Base/Type.h#L80{Type}]] {
+Type(const Base::Type & type) : void [[[https://github.com/FreeCAD/FreeCAD/blob/f6708547a9bb3f71a4aaade12109f511a72c207c/src/Base/Type.h#L84{Type}]]]
+Type() : void [[[https://github.com/FreeCAD/FreeCAD/blob/f6708547a9bb3f71a4aaade12109f511a72c207c/src/Base/Type.h#L85{Type}]]]
+~Type() : void [[[https://github.com/FreeCAD/FreeCAD/blob/f6708547a9bb3f71a4aaade12109f511a72c207c/src/Base/Type.h#L87{~Type}]]]
..
+operator=(const Base::Type type) : void [[[https://github.com/FreeCAD/FreeCAD/blob/f6708547a9bb3f71a4aaade12109f511a72c207c/src/Base/Type.h#L114{operator=}]]]
..
+operator!=(const Base::Type type) const : bool [[[https://github.com/FreeCAD/FreeCAD/blob/f6708547a9bb3f71a4aaade12109f511a72c207c/src/Base/Type.h#L116{operator!=}]]]
+operator<(const Base::Type type) const : bool [[[https://github.com/FreeCAD/FreeCAD/blob/f6708547a9bb3f71a4aaade12109f511a72c207c/src/Base/Type.h#L118{operator<}]]]
+operator<=(const Base::Type type) const : bool [[[https://github.com/FreeCAD/FreeCAD/blob/f6708547a9bb3f71a4aaade12109f511a72c207c/src/Base/Type.h#L119{operator<=}]]]
+operator==(const Base::Type type) const : bool [[[https://github.com/FreeCAD/FreeCAD/blob/f6708547a9bb3f71a4aaade12109f511a72c207c/src/Base/Type.h#L115{operator==}]]]
+operator>(const Base::Type type) const : bool [[[https://github.com/FreeCAD/FreeCAD/blob/f6708547a9bb3f71a4aaade12109f511a72c207c/src/Base/Type.h#L121{operator>}]]]
+operator>=(const Base::Type type) const : bool [[[https://github.com/FreeCAD/FreeCAD/blob/f6708547a9bb3f71a4aaade12109f511a72c207c/src/Base/Type.h#L120{operator>=}]]]
..
{static} +badType() : Base::Type [[[https://github.com/FreeCAD/FreeCAD/blob/f6708547a9bb3f71a4aaade12109f511a72c207c/src/Base/Type.h#L123{badType}]]]
+createInstance() : void * [[[https://github.com/FreeCAD/FreeCAD/blob/f6708547a9bb3f71a4aaade12109f511a72c207c/src/Base/Type.h#L90{createInstance}]]]
{static} +createInstanceByName(const char * TypeName, bool bLoadModule = false) : void * [[[https://github.com/FreeCAD/FreeCAD/blob/f6708547a9bb3f71a4aaade12109f511a72c207c/src/Base/Type.h#L92{createInstanceByName}]]]
{static} +createType(const Base::Type parent, const char * name, Base::Type::instantiationMethod method = nullptr) : const Base::Type [[[https://github.com/FreeCAD/FreeCAD/blob/f6708547a9bb3f71a4aaade12109f511a72c207c/src/Base/Type.h#L109{createType}]]]
{static} +destruct() : void [[[https://github.com/FreeCAD/FreeCAD/blob/f6708547a9bb3f71a4aaade12109f511a72c207c/src/Base/Type.h#L125{destruct}]]]
{static} +fromKey(unsigned int key) : Base::Type [[[https://github.com/FreeCAD/FreeCAD/blob/f6708547a9bb3f71a4aaade12109f511a72c207c/src/Base/Type.h#L98{fromKey}]]]
{static} +fromName(const char * name) : Base::Type [[[https://github.com/FreeCAD/FreeCAD/blob/f6708547a9bb3f71a4aaade12109f511a72c207c/src/Base/Type.h#L97{fromName}]]]
{static} +getAllDerivedFrom(const Base::Type type, std::vector<Type> & List) : int [[[https://github.com/FreeCAD/FreeCAD/blob/f6708547a9bb3f71a4aaade12109f511a72c207c/src/Base/Type.h#L103{getAllDerivedFrom}]]]
+getKey() const : unsigned int [[[https://github.com/FreeCAD/FreeCAD/blob/f6708547a9bb3f71a4aaade12109f511a72c207c/src/Base/Type.h#L111{getKey}]]]
{static} #getModuleName(const char * ClassName) : std::string [[[https://github.com/FreeCAD/FreeCAD/blob/f6708547a9bb3f71a4aaade12109f511a72c207c/src/Base/Type.h#L128{getModuleName}]]]
+getName() const : const char * [[[https://github.com/FreeCAD/FreeCAD/blob/f6708547a9bb3f71a4aaade12109f511a72c207c/src/Base/Type.h#L99{getName}]]]
{static} +getNumTypes() : int [[[https://github.com/FreeCAD/FreeCAD/blob/f6708547a9bb3f71a4aaade12109f511a72c207c/src/Base/Type.h#L107{getNumTypes}]]]
+getParent() const : const Base::Type [[[https://github.com/FreeCAD/FreeCAD/blob/f6708547a9bb3f71a4aaade12109f511a72c207c/src/Base/Type.h#L100{getParent}]]]
{static} +getTypeIfDerivedFrom(const char * name, const Base::Type parent, bool bLoadModule = false) : Base::Type [[[https://github.com/FreeCAD/FreeCAD/blob/f6708547a9bb3f71a4aaade12109f511a72c207c/src/Base/Type.h#L105{getTypeIfDerivedFrom}]]]
{static} +importModule(const char * TypeName) : void [[[https://github.com/FreeCAD/FreeCAD/blob/f6708547a9bb3f71a4aaade12109f511a72c207c/src/Base/Type.h#L93{importModule}]]]
{static} +init() : void [[[https://github.com/FreeCAD/FreeCAD/blob/f6708547a9bb3f71a4aaade12109f511a72c207c/src/Base/Type.h#L124{init}]]]
+isBad() const : bool [[[https://github.com/FreeCAD/FreeCAD/blob/f6708547a9bb3f71a4aaade12109f511a72c207c/src/Base/Type.h#L112{isBad}]]]
+isDerivedFrom(const Base::Type type) const : bool [[[https://github.com/FreeCAD/FreeCAD/blob/f6708547a9bb3f71a4aaade12109f511a72c207c/src/Base/Type.h#L101{isDerivedFrom}]]]
__
-index : unsigned int [[[https://github.com/FreeCAD/FreeCAD/blob/f6708547a9bb3f71a4aaade12109f511a72c207c/src/Base/Type.h#L134{index}]]]
{static} -loadModuleSet : std::set<std::string> [[[https://github.com/FreeCAD/FreeCAD/blob/f6708547a9bb3f71a4aaade12109f511a72c207c/src/Base/Type.h#L140{loadModuleSet}]]]
{static} -typedata : std::vector<TypeData *> [[[https://github.com/FreeCAD/FreeCAD/blob/f6708547a9bb3f71a4aaade12109f511a72c207c/src/Base/Type.h#L138{typedata}]]]
{static} -typemap : std::map<std::string,unsigned int> [[[https://github.com/FreeCAD/FreeCAD/blob/f6708547a9bb3f71a4aaade12109f511a72c207c/src/Base/Type.h#L137{typemap}]]]
}
}
package [App] as C_0002285326295477687690 {
abstract "PropertyExpressionContainer" as C_0001638333326926612093
abstract C_0001638333326926612093 [[https://github.com/FreeCAD/FreeCAD/blob/f6708547a9bb3f71a4aaade12109f511a72c207c/src/App/PropertyExpressionEngine.h#L47{PropertyExpressionContainer}]] {
+PropertyExpressionContainer() : void [[[https://github.com/FreeCAD/FreeCAD/blob/f6708547a9bb3f71a4aaade12109f511a72c207c/src/App/PropertyExpressionEngine.h#L51{PropertyExpressionContainer}]]]
+~PropertyExpressionContainer() : void [[[https://github.com/FreeCAD/FreeCAD/blob/f6708547a9bb3f71a4aaade12109f511a72c207c/src/App/PropertyExpressionEngine.h#L52{~PropertyExpressionContainer}]]]
..
{static} +create() : void * [[[https://github.com/FreeCAD/FreeCAD/blob/f6708547a9bb3f71a4aaade12109f511a72c207c/src/App/PropertyExpressionEngine.h#L49{create}]]]
{static} +getClassTypeId() : Base::Type [[[https://github.com/FreeCAD/FreeCAD/blob/f6708547a9bb3f71a4aaade12109f511a72c207c/src/App/PropertyExpressionEngine.h#L49{getClassTypeId}]]]
{abstract} +getExpressions() const = 0 : std::map<App::ObjectIdentifier,const App::Expression *> [[[https://github.com/FreeCAD/FreeCAD/blob/f6708547a9bb3f71a4aaade12109f511a72c207c/src/App/PropertyExpressionEngine.h#L54{getExpressions}]]]
+getTypeId() const : Base::Type [[[https://github.com/FreeCAD/FreeCAD/blob/f6708547a9bb3f71a4aaade12109f511a72c207c/src/App/PropertyExpressionEngine.h#L49{getTypeId}]]]
{static} +init() : void [[[https://github.com/FreeCAD/FreeCAD/blob/f6708547a9bb3f71a4aaade12109f511a72c207c/src/App/PropertyExpressionEngine.h#L49{init}]]]
{abstract} #onRelabeledDocument(const App::Document & doc) = 0 : void [[[https://github.com/FreeCAD/FreeCAD/blob/f6708547a9bb3f71a4aaade12109f511a72c207c/src/App/PropertyExpressionEngine.h#L58{onRelabeledDocument}]]]
{abstract} +setExpressions(std::map<App::ObjectIdentifier,App::ExpressionPtr> && exprs) = 0 : void [[[https://github.com/FreeCAD/FreeCAD/blob/f6708547a9bb3f71a4aaade12109f511a72c207c/src/App/PropertyExpressionEngine.h#L55{setExpressions}]]]
{static} -slotRelabelDocument(const App::Document & doc) : void [[[https://github.com/FreeCAD/FreeCAD/blob/f6708547a9bb3f71a4aaade12109f511a72c207c/src/App/PropertyExpressionEngine.h#L61{slotRelabelDocument}]]]
__
{static} -classTypeId : Base::Type [[[https://github.com/FreeCAD/FreeCAD/blob/f6708547a9bb3f71a4aaade12109f511a72c207c/src/App/PropertyExpressionEngine.h#L49{classTypeId}]]]
}
class "PropertyExpressionEngine" as C_0001571613461017811342
class C_0001571613461017811342 [[https://github.com/FreeCAD/FreeCAD/blob/f6708547a9bb3f71a4aaade12109f511a72c207c/src/App/PropertyExpressionEngine.h#L64{PropertyExpressionEngine}]] {
+PropertyExpressionEngine() : void [[[https://github.com/FreeCAD/FreeCAD/blob/f6708547a9bb3f71a4aaade12109f511a72c207c/src/App/PropertyExpressionEngine.h#L107{PropertyExpressionEngine}]]]
+~PropertyExpressionEngine() : void [[[https://github.com/FreeCAD/FreeCAD/blob/f6708547a9bb3f71a4aaade12109f511a72c207c/src/App/PropertyExpressionEngine.h#L108{~PropertyExpressionEngine}]]]
..
+Copy() const : App::Property * [[[https://github.com/FreeCAD/FreeCAD/blob/f6708547a9bb3f71a4aaade12109f511a72c207c/src/App/PropertyExpressionEngine.h#L118{Copy}]]]
+CopyOnImportExternal(const std::map<std::string,std::string> & nameMap) const : App::Property * [[[https://github.com/FreeCAD/FreeCAD/blob/f6708547a9bb3f71a4aaade12109f511a72c207c/src/App/PropertyExpressionEngine.h#L74{CopyOnImportExternal}]]]
+CopyOnLabelChange(App::DocumentObject * obj, const std::string & ref, const char * newLabel) const : App::Property * [[[https://github.com/FreeCAD/FreeCAD/blob/f6708547a9bb3f71a4aaade12109f511a72c207c/src/App/PropertyExpressionEngine.h#L75{CopyOnLabelChange}]]]
+CopyOnLinkReplace(const App::DocumentObject * parent, App::DocumentObject * oldObj, App::DocumentObject * newObj) const : App::Property * [[[https://github.com/FreeCAD/FreeCAD/blob/f6708547a9bb3f71a4aaade12109f511a72c207c/src/App/PropertyExpressionEngine.h#L77{CopyOnLinkReplace}]]]
+Paste(const App::Property & from) : void [[[https://github.com/FreeCAD/FreeCAD/blob/f6708547a9bb3f71a4aaade12109f511a72c207c/src/App/PropertyExpressionEngine.h#L120{Paste}]]]
+Restore(Base::XMLReader & reader) : void [[[https://github.com/FreeCAD/FreeCAD/blob/f6708547a9bb3f71a4aaade12109f511a72c207c/src/App/PropertyExpressionEngine.h#L124{Restore}]]]
+Save(Base::Writer & writer) const : void [[[https://github.com/FreeCAD/FreeCAD/blob/f6708547a9bb3f71a4aaade12109f511a72c207c/src/App/PropertyExpressionEngine.h#L122{Save}]]]
+adjustLink(const std::set<App::DocumentObject *> & inList) : bool [[[https://github.com/FreeCAD/FreeCAD/blob/f6708547a9bb3f71a4aaade12109f511a72c207c/src/App/PropertyExpressionEngine.h#L73{adjustLink}]]]
+afterRestore() : void [[[https://github.com/FreeCAD/FreeCAD/blob/f6708547a9bb3f71a4aaade12109f511a72c207c/src/App/PropertyExpressionEngine.h#L167{afterRestore}]]]
-buildGraph(const App::PropertyExpressionEngine::ExpressionMap & exprs, boost::unordered::unordered_map<int,App::ObjectIdentifier> & revNodes, App::PropertyExpressionEngine::DiGraph & g, App::PropertyExpressionEngine::ExecuteOption option = ExecuteAll) const : void [[[https://github.com/FreeCAD/FreeCAD/blob/f6708547a9bb3f71a4aaade12109f511a72c207c/src/App/PropertyExpressionEngine.h#L194{buildGraph}]]]
-buildGraphStructures(const App::ObjectIdentifier & path, const std::shared_ptr<Expression> expression, boost::unordered::unordered_map<App::ObjectIdentifier,int> & nodes, boost::unordered::unordered_map<int,App::ObjectIdentifier> & revNodes, std::vector<Edge> & edges) const : void [[[https://github.com/FreeCAD/FreeCAD/blob/f6708547a9bb3f71a4aaade12109f511a72c207c/src/App/PropertyExpressionEngine.h#L190{buildGraphStructures}]]]
+canonicalPath(const App::ObjectIdentifier & p) const : App::ObjectIdentifier [[[https://github.com/FreeCAD/FreeCAD/blob/f6708547a9bb3f71a4aaade12109f511a72c207c/src/App/PropertyExpressionEngine.h#L160{canonicalPath}]]]
-computeEvaluationOrder(App::PropertyExpressionEngine::ExecuteOption option) : std::vector<App::ObjectIdentifier> [[[https://github.com/FreeCAD/FreeCAD/blob/f6708547a9bb3f71a4aaade12109f511a72c207c/src/App/PropertyExpressionEngine.h#L188{computeEvaluationOrder}]]]
{static} +create() : void * [[[https://github.com/FreeCAD/FreeCAD/blob/f6708547a9bb3f71a4aaade12109f511a72c207c/src/App/PropertyExpressionEngine.h#L67{create}]]]
+depsAreTouched() const : bool [[[https://github.com/FreeCAD/FreeCAD/blob/f6708547a9bb3f71a4aaade12109f511a72c207c/src/App/PropertyExpressionEngine.h#L149{depsAreTouched}]]]
+execute(App::PropertyExpressionEngine::ExecuteOption option = ExecuteAll, bool * touched = nullptr) : App::DocumentObjectExecReturn * [[[https://github.com/FreeCAD/FreeCAD/blob/f6708547a9bb3f71a4aaade12109f511a72c207c/src/App/PropertyExpressionEngine.h#L145{execute}]]]
{static} +getClassTypeId() : Base::Type [[[https://github.com/FreeCAD/FreeCAD/blob/f6708547a9bb3f71a4aaade12109f511a72c207c/src/App/PropertyExpressionEngine.h#L67{getClassTypeId}]]]
+getExpressions() const : std::map<App::ObjectIdentifier,const App::Expression *> [[[https://github.com/FreeCAD/FreeCAD/blob/f6708547a9bb3f71a4aaade12109f511a72c207c/src/App/PropertyExpressionEngine.h#L112{getExpressions}]]]
+getMemSize() const : unsigned int [[[https://github.com/FreeCAD/FreeCAD/blob/f6708547a9bb3f71a4aaade12109f511a72c207c/src/App/PropertyExpressionEngine.h#L110{getMemSize}]]]
+getPathValue(const App::ObjectIdentifier & path) const : const boost::any [[[https://github.com/FreeCAD/FreeCAD/blob/f6708547a9bb3f71a4aaade12109f511a72c207c/src/App/PropertyExpressionEngine.h#L128{getPathValue}]]]
+getPathsToDocumentObject(App::DocumentObject *, std::vector<App::ObjectIdentifier> & paths) const : void [[[https://github.com/FreeCAD/FreeCAD/blob/f6708547a9bb3f71a4aaade12109f511a72c207c/src/App/PropertyExpressionEngine.h#L147{getPathsToDocumentObject}]]]
+getPyObject() : PyObject * [[[https://github.com/FreeCAD/FreeCAD/blob/f6708547a9bb3f71a4aaade12109f511a72c207c/src/App/PropertyExpressionEngine.h#L171{getPyObject}]]]
+getTypeId() const : Base::Type [[[https://github.com/FreeCAD/FreeCAD/blob/f6708547a9bb3f71a4aaade12109f511a72c207c/src/App/PropertyExpressionEngine.h#L67{getTypeId}]]]
#hasSetValue() : void [[[https://github.com/FreeCAD/FreeCAD/blob/f6708547a9bb3f71a4aaade12109f511a72c207c/src/App/PropertyExpressionEngine.h#L175{hasSetValue}]]]
{static} +init() : void [[[https://github.com/FreeCAD/FreeCAD/blob/f6708547a9bb3f71a4aaade12109f511a72c207c/src/App/PropertyExpressionEngine.h#L67{init}]]]
+numExpressions() const : size_t [[[https://github.com/FreeCAD/FreeCAD/blob/f6708547a9bb3f71a4aaade12109f511a72c207c/src/App/PropertyExpressionEngine.h#L162{numExpressions}]]]
+onContainerRestored() : void [[[https://github.com/FreeCAD/FreeCAD/blob/f6708547a9bb3f71a4aaade12109f511a72c207c/src/App/PropertyExpressionEngine.h#L168{onContainerRestored}]]]
+onRelabeledDocument(const App::Document & doc) : void [[[https://github.com/FreeCAD/FreeCAD/blob/f6708547a9bb3f71a4aaade12109f511a72c207c/src/App/PropertyExpressionEngine.h#L114{onRelabeledDocument}]]]
+referenceChanged() const : bool [[[https://github.com/FreeCAD/FreeCAD/blob/f6708547a9bb3f71a4aaade12109f511a72c207c/src/App/PropertyExpressionEngine.h#L72{referenceChanged}]]]
+renameExpressions(const std::map<App::ObjectIdentifier,App::ObjectIdentifier> & paths) : void [[[https://github.com/FreeCAD/FreeCAD/blob/f6708547a9bb3f71a4aaade12109f511a72c207c/src/App/PropertyExpressionEngine.h#L156{renameExpressions}]]]
+renameObjectIdentifiers(const std::map<App::ObjectIdentifier,App::ObjectIdentifier> & paths) : void [[[https://github.com/FreeCAD/FreeCAD/blob/f6708547a9bb3f71a4aaade12109f511a72c207c/src/App/PropertyExpressionEngine.h#L158{renameObjectIdentifiers}]]]
+setExpressions(std::map<App::ObjectIdentifier,App::ExpressionPtr> && exprs) : void [[[https://github.com/FreeCAD/FreeCAD/blob/f6708547a9bb3f71a4aaade12109f511a72c207c/src/App/PropertyExpressionEngine.h#L113{setExpressions}]]]
+setPyObject(PyObject *) : void [[[https://github.com/FreeCAD/FreeCAD/blob/f6708547a9bb3f71a4aaade12109f511a72c207c/src/App/PropertyExpressionEngine.h#L172{setPyObject}]]]
+setValidator(App::PropertyExpressionEngine::ValidatorFunc f) : void [[[https://github.com/FreeCAD/FreeCAD/blob/f6708547a9bb3f71a4aaade12109f511a72c207c/src/App/PropertyExpressionEngine.h#L152{setValidator}]]]
+setValue() : void [[[https://github.com/FreeCAD/FreeCAD/blob/f6708547a9bb3f71a4aaade12109f511a72c207c/src/App/PropertyExpressionEngine.h#L116{setValue}]]]
+setValue(const App::ObjectIdentifier & path, std::shared_ptr<App::Expression> expr) : void [[[https://github.com/FreeCAD/FreeCAD/blob/f6708547a9bb3f71a4aaade12109f511a72c207c/src/App/PropertyExpressionEngine.h#L126{setValue}]]]
-slotChangedObject(const App::DocumentObject & obj, const App::Property & prop) : void [[[https://github.com/FreeCAD/FreeCAD/blob/f6708547a9bb3f71a4aaade12109f511a72c207c/src/App/PropertyExpressionEngine.h#L198{slotChangedObject}]]]
-slotChangedProperty(const App::DocumentObject & obj, const App::Property & prop) : void [[[https://github.com/FreeCAD/FreeCAD/blob/f6708547a9bb3f71a4aaade12109f511a72c207c/src/App/PropertyExpressionEngine.h#L199{slotChangedProperty}]]]
+updateElementReference(App::DocumentObject * feature, bool reverse = false, bool notify = false) : void [[[https://github.com/FreeCAD/FreeCAD/blob/f6708547a9bb3f71a4aaade12109f511a72c207c/src/App/PropertyExpressionEngine.h#L70{updateElementReference}]]]
-updateHiddenReference(const std::string & key) : void [[[https://github.com/FreeCAD/FreeCAD/blob/f6708547a9bb3f71a4aaade12109f511a72c207c/src/App/PropertyExpressionEngine.h#L200{updateHiddenReference}]]]
+validateExpression(const App::ObjectIdentifier & path, std::shared_ptr<const App::Expression> expr) const : std::string [[[https://github.com/FreeCAD/FreeCAD/blob/f6708547a9bb3f71a4aaade12109f511a72c207c/src/App/PropertyExpressionEngine.h#L154{validateExpression}]]]
__
{static} -classTypeId : Base::Type [[[https://github.com/FreeCAD/FreeCAD/blob/f6708547a9bb3f71a4aaade12109f511a72c207c/src/App/PropertyExpressionEngine.h#L67{classTypeId}]]]
+expressionChanged : boost::signals2::signal<void (const App::ObjectIdentifier &)> [[[https://github.com/FreeCAD/FreeCAD/blob/f6708547a9bb3f71a4aaade12109f511a72c207c/src/App/PropertyExpressionEngine.h#L165{expressionChanged}]]]
-expressions : App::PropertyExpressionEngine::ExpressionMap [[[https://github.com/FreeCAD/FreeCAD/blob/f6708547a9bb3f71a4aaade12109f511a72c207c/src/App/PropertyExpressionEngine.h#L205{expressions}]]]
-pimpl : std::unique_ptr<Private> [[[https://github.com/FreeCAD/FreeCAD/blob/f6708547a9bb3f71a4aaade12109f511a72c207c/src/App/PropertyExpressionEngine.h#L218{pimpl}]]]
-restoredExpressions : std::unique_ptr<std::vector<RestoredExpression>> [[[https://github.com/FreeCAD/FreeCAD/blob/f6708547a9bb3f71a4aaade12109f511a72c207c/src/App/PropertyExpressionEngine.h#L215{restoredExpressions}]]]
-restoring : bool [[[https://github.com/FreeCAD/FreeCAD/blob/f6708547a9bb3f71a4aaade12109f511a72c207c/src/App/PropertyExpressionEngine.h#L203{restoring}]]]
-running : bool [[[https://github.com/FreeCAD/FreeCAD/blob/f6708547a9bb3f71a4aaade12109f511a72c207c/src/App/PropertyExpressionEngine.h#L202{running}]]]
-validator : App::PropertyExpressionEngine::ValidatorFunc [[[https://github.com/FreeCAD/FreeCAD/blob/f6708547a9bb3f71a4aaade12109f511a72c207c/src/App/PropertyExpressionEngine.h#L207{validator}]]]
}
class "PropertyExpressionEngine::ExpressionInfo" as C_0002265584471313809397
class C_0002265584471313809397 [[https://github.com/FreeCAD/FreeCAD/blob/f6708547a9bb3f71a4aaade12109f511a72c207c/src/App/PropertyExpressionEngine.h#L86{PropertyExpressionEngine##ExpressionInfo}]] {
+operator=(const App::PropertyExpressionEngine::ExpressionInfo & other) : App::PropertyExpressionEngine::ExpressionInfo & [[[https://github.com/FreeCAD/FreeCAD/blob/f6708547a9bb3f71a4aaade12109f511a72c207c/src/App/PropertyExpressionEngine.h#L100{operator=}]]]
..
+ExpressionInfo(std::shared_ptr<App::Expression> expression = std::shared_ptr<App::Expression>()) : void [[[https://github.com/FreeCAD/FreeCAD/blob/f6708547a9bb3f71a4aaade12109f511a72c207c/src/App/PropertyExpressionEngine.h#L90{ExpressionInfo}]]]
+ExpressionInfo(const App::PropertyExpressionEngine::ExpressionInfo & other) : void [[[https://github.com/FreeCAD/FreeCAD/blob/f6708547a9bb3f71a4aaade12109f511a72c207c/src/App/PropertyExpressionEngine.h#L95{ExpressionInfo}]]]
__
+busy : bool [[[https://github.com/FreeCAD/FreeCAD/blob/f6708547a9bb3f71a4aaade12109f511a72c207c/src/App/PropertyExpressionEngine.h#L88{busy}]]]
+expression : std::shared_ptr<App::Expression> [[[https://github.com/FreeCAD/FreeCAD/blob/f6708547a9bb3f71a4aaade12109f511a72c207c/src/App/PropertyExpressionEngine.h#L87{expression}]]]
}
enum "PropertyExpressionEngine##ExecuteOption" as C_0001954045783222820798
enum C_0001954045783222820798 [[https://github.com/FreeCAD/FreeCAD/blob/f6708547a9bb3f71a4aaade12109f511a72c207c/src/App/PropertyExpressionEngine.h#L131{PropertyExpressionEngine##ExecuteOption}]] {
ExecuteAll
ExecuteOutput
ExecuteNonOutput
ExecuteOnRestore
}
class "PropertyExpressionEngine::RestoredExpression" as C_0000312445509782133691
class C_0000312445509782133691 [[https://github.com/FreeCAD/FreeCAD/blob/f6708547a9bb3f71a4aaade12109f511a72c207c/src/App/PropertyExpressionEngine.h#L209{PropertyExpressionEngine##RestoredExpression}]] {
__
+comment : std::string [[[https://github.com/FreeCAD/FreeCAD/blob/f6708547a9bb3f71a4aaade12109f511a72c207c/src/App/PropertyExpressionEngine.h#L212{comment}]]]
+expr : std::string [[[https://github.com/FreeCAD/FreeCAD/blob/f6708547a9bb3f71a4aaade12109f511a72c207c/src/App/PropertyExpressionEngine.h#L211{expr}]]]
+path : std::string [[[https://github.com/FreeCAD/FreeCAD/blob/f6708547a9bb3f71a4aaade12109f511a72c207c/src/App/PropertyExpressionEngine.h#L210{path}]]]
}
class "DocumentObject" as C_0001679842198945066576
class C_0001679842198945066576 [[https://github.com/FreeCAD/FreeCAD/blob/f6708547a9bb3f71a4aaade12109f511a72c207c/src/App/DocumentObject.h#L96{DocumentObject}]] {
+DocumentObject() : void [[[https://github.com/FreeCAD/FreeCAD/blob/f6708547a9bb3f71a4aaade12109f511a72c207c/src/App/DocumentObject.h#L132{DocumentObject}]]]
+~DocumentObject() : void [[[https://github.com/FreeCAD/FreeCAD/blob/f6708547a9bb3f71a4aaade12109f511a72c207c/src/App/DocumentObject.h#L133{~DocumentObject}]]]
..
+Save(Base::Writer & writer) const : void [[[https://github.com/FreeCAD/FreeCAD/blob/f6708547a9bb3f71a4aaade12109f511a72c207c/src/App/DocumentObject.h#L427{Save}]]]
+_addBackLink(App::DocumentObject *) : void [[[https://github.com/FreeCAD/FreeCAD/blob/f6708547a9bb3f71a4aaade12109f511a72c207c/src/App/DocumentObject.h#L274{_addBackLink}]]]
+_removeBackLink(App::DocumentObject *) : void [[[https://github.com/FreeCAD/FreeCAD/blob/f6708547a9bb3f71a4aaade12109f511a72c207c/src/App/DocumentObject.h#L272{_removeBackLink}]]]
+addDynamicProperty(const char * type, const char * name = nullptr, const char * group = nullptr, const char * doc = nullptr, short attr = 0, bool ro = false, bool hidden = false) : App::Property * [[[https://github.com/FreeCAD/FreeCAD/blob/f6708547a9bb3f71a4aaade12109f511a72c207c/src/App/DocumentObject.h#L447{addDynamicProperty}]]]
+adjustRelativeLinks(const std::set<App::DocumentObject *> & inList, std::set<App::DocumentObject *> * visited = nullptr) : bool [[[https://github.com/FreeCAD/FreeCAD/blob/f6708547a9bb3f71a4aaade12109f511a72c207c/src/App/DocumentObject.h#L529{adjustRelativeLinks}]]]
+allowDuplicateLabel() const : bool [[[https://github.com/FreeCAD/FreeCAD/blob/f6708547a9bb3f71a4aaade12109f511a72c207c/src/App/DocumentObject.h#L411{allowDuplicateLabel}]]]
+canLinkProperties() const : bool [[[https://github.com/FreeCAD/FreeCAD/blob/f6708547a9bb3f71a4aaade12109f511a72c207c/src/App/DocumentObject.h#L408{canLinkProperties}]]]
+canLoadPartial() const : int [[[https://github.com/FreeCAD/FreeCAD/blob/f6708547a9bb3f71a4aaade12109f511a72c207c/src/App/DocumentObject.h#L538{canLoadPartial}]]]
+clearExpression(const App::ObjectIdentifier & path) : void [[[https://github.com/FreeCAD/FreeCAD/blob/f6708547a9bb3f71a4aaade12109f511a72c207c/src/App/DocumentObject.h#L433{clearExpression}]]]
+clearOutListCache() const : void [[[https://github.com/FreeCAD/FreeCAD/blob/f6708547a9bb3f71a4aaade12109f511a72c207c/src/App/DocumentObject.h#L235{clearOutListCache}]]]
{static} +create() : void * [[[https://github.com/FreeCAD/FreeCAD/blob/f6708547a9bb3f71a4aaade12109f511a72c207c/src/App/DocumentObject.h#L98{create}]]]
+detachFromDocument() : const char * [[[https://github.com/FreeCAD/FreeCAD/blob/f6708547a9bb3f71a4aaade12109f511a72c207c/src/App/DocumentObject.h#L146{detachFromDocument}]]]
+enforceRecompute() : void [[[https://github.com/FreeCAD/FreeCAD/blob/f6708547a9bb3f71a4aaade12109f511a72c207c/src/App/DocumentObject.h#L158{enforceRecompute}]]]
#execute() : App::DocumentObjectExecReturn * [[[https://github.com/FreeCAD/FreeCAD/blob/f6708547a9bb3f71a4aaade12109f511a72c207c/src/App/DocumentObject.h#L577{execute}]]]
#executeExtensions() : App::DocumentObjectExecReturn * [[[https://github.com/FreeCAD/FreeCAD/blob/f6708547a9bb3f71a4aaade12109f511a72c207c/src/App/DocumentObject.h#L582{executeExtensions}]]]
{static} +getClassTypeId() : Base::Type [[[https://github.com/FreeCAD/FreeCAD/blob/f6708547a9bb3f71a4aaade12109f511a72c207c/src/App/DocumentObject.h#L98{getClassTypeId}]]]
+getDocument() const : App::Document * [[[https://github.com/FreeCAD/FreeCAD/blob/f6708547a9bb3f71a4aaade12109f511a72c207c/src/App/DocumentObject.h#L148{getDocument}]]]
+getExportName(bool forced = false) const : std::string [[[https://github.com/FreeCAD/FreeCAD/blob/f6708547a9bb3f71a4aaade12109f511a72c207c/src/App/DocumentObject.h#L140{getExportName}]]]
+getExpression(const App::ObjectIdentifier & path) const : const PropertyExpressionEngine::ExpressionInfo [[[https://github.com/FreeCAD/FreeCAD/blob/f6708547a9bb3f71a4aaade12109f511a72c207c/src/App/DocumentObject.h#L435{getExpression}]]]
+getFirstParent() const : App::DocumentObject * [[[https://github.com/FreeCAD/FreeCAD/blob/f6708547a9bb3f71a4aaade12109f511a72c207c/src/App/DocumentObject.h#L387{getFirstParent}]]]
+getFullLabel() const : std::string [[[https://github.com/FreeCAD/FreeCAD/blob/f6708547a9bb3f71a4aaade12109f511a72c207c/src/App/DocumentObject.h#L144{getFullLabel}]]]
+getFullName() const : std::string [[[https://github.com/FreeCAD/FreeCAD/blob/f6708547a9bb3f71a4aaade12109f511a72c207c/src/App/DocumentObject.h#L142{getFullName}]]]
+getGroup() const : App::DocumentObjectGroup * [[[https://github.com/FreeCAD/FreeCAD/blob/f6708547a9bb3f71a4aaade12109f511a72c207c/src/App/DocumentObject.h#L261{getGroup}]]]
+getID() const : long [[[https://github.com/FreeCAD/FreeCAD/blob/f6708547a9bb3f71a4aaade12109f511a72c207c/src/App/DocumentObject.h#L138{getID}]]]
+getInList() const : const std::vector<App::DocumentObject *> & [[[https://github.com/FreeCAD/FreeCAD/blob/f6708547a9bb3f71a4aaade12109f511a72c207c/src/App/DocumentObject.h#L242{getInList}]]]
+getInListEx(bool recursive) const : std::set<App::DocumentObject *> [[[https://github.com/FreeCAD/FreeCAD/blob/f6708547a9bb3f71a4aaade12109f511a72c207c/src/App/DocumentObject.h#L258{getInListEx}]]]
+getInListEx(std::set<App::DocumentObject *> & inSet, bool recursive, std::vector<App::DocumentObject *> * inList = nullptr) const : void [[[https://github.com/FreeCAD/FreeCAD/blob/f6708547a9bb3f71a4aaade12109f511a72c207c/src/App/DocumentObject.h#L253{getInListEx}]]]
+getInListRecursive() const : std::vector<App::DocumentObject *> [[[https://github.com/FreeCAD/FreeCAD/blob/f6708547a9bb3f71a4aaade12109f511a72c207c/src/App/DocumentObject.h#L245{getInListRecursive}]]]
+getLinkedObject(bool recurse = true, Base::Matrix4D * mat = nullptr, bool transform = false, int depth = 0) const : App::DocumentObject * [[[https://github.com/FreeCAD/FreeCAD/blob/f6708547a9bb3f71a4aaade12109f511a72c207c/src/App/DocumentObject.h#L404{getLinkedObject}]]]
+getNameInDocument() const : const char * [[[https://github.com/FreeCAD/FreeCAD/blob/f6708547a9bb3f71a4aaade12109f511a72c207c/src/App/DocumentObject.h#L136{getNameInDocument}]]]
+getOldLabel() const : const std::string & [[[https://github.com/FreeCAD/FreeCAD/blob/f6708547a9bb3f71a4aaade12109f511a72c207c/src/App/DocumentObject.h#L439{getOldLabel}]]]
+getOutList() const : const std::vector<App::DocumentObject *> & [[[https://github.com/FreeCAD/FreeCAD/blob/f6708547a9bb3f71a4aaade12109f511a72c207c/src/App/DocumentObject.h#L226{getOutList}]]]
+getOutList(int option) const : std::vector<App::DocumentObject *> [[[https://github.com/FreeCAD/FreeCAD/blob/f6708547a9bb3f71a4aaade12109f511a72c207c/src/App/DocumentObject.h#L227{getOutList}]]]
+getOutList(int option, std::vector<App::DocumentObject *> & res) const : void [[[https://github.com/FreeCAD/FreeCAD/blob/f6708547a9bb3f71a4aaade12109f511a72c207c/src/App/DocumentObject.h#L228{getOutList}]]]
+getOutListOfProperty(App::Property *) const : std::vector<App::DocumentObject *> [[[https://github.com/FreeCAD/FreeCAD/blob/f6708547a9bb3f71a4aaade12109f511a72c207c/src/App/DocumentObject.h#L231{getOutListOfProperty}]]]
+getOutListRecursive() const : std::vector<App::DocumentObject *> [[[https://github.com/FreeCAD/FreeCAD/blob/f6708547a9bb3f71a4aaade12109f511a72c207c/src/App/DocumentObject.h#L233{getOutListRecursive}]]]
+getParents(int depth = 0) const : std::vector<std::pair<App::DocumentObject *,std::string>> [[[https://github.com/FreeCAD/FreeCAD/blob/f6708547a9bb3f71a4aaade12109f511a72c207c/src/App/DocumentObject.h#L384{getParents}]]]
+getPathsByOutList(App::DocumentObject * to) const : std::vector<std::list<App::DocumentObject *>> [[[https://github.com/FreeCAD/FreeCAD/blob/f6708547a9bb3f71a4aaade12109f511a72c207c/src/App/DocumentObject.h#L237{getPathsByOutList}]]]
#getPropertyData() const : const App::PropertyData & [[[https://github.com/FreeCAD/FreeCAD/blob/f6708547a9bb3f71a4aaade12109f511a72c207c/src/App/DocumentObject.h#L98{getPropertyData}]]]
{static} #getPropertyDataPtr() : const App::PropertyData * [[[https://github.com/FreeCAD/FreeCAD/blob/f6708547a9bb3f71a4aaade12109f511a72c207c/src/App/DocumentObject.h#L98{getPropertyDataPtr}]]]
+getPyObject() : PyObject * [[[https://github.com/FreeCAD/FreeCAD/blob/f6708547a9bb3f71a4aaade12109f511a72c207c/src/App/DocumentObject.h#L322{getPyObject}]]]
+getStatus() const : unsigned long [[[https://github.com/FreeCAD/FreeCAD/blob/f6708547a9bb3f71a4aaade12109f511a72c207c/src/App/DocumentObject.h#L179{getStatus}]]]
+getStatusString() const : const char * [[[https://github.com/FreeCAD/FreeCAD/blob/f6708547a9bb3f71a4aaade12109f511a72c207c/src/App/DocumentObject.h#L313{getStatusString}]]]
+getSubObject(const char * subname, PyObject ** pyObj = nullptr, Base::Matrix4D * mat = nullptr, bool transform = true, int depth = 0) const : App::DocumentObject * [[[https://github.com/FreeCAD/FreeCAD/blob/f6708547a9bb3f71a4aaade12109f511a72c207c/src/App/DocumentObject.h#L352{getSubObject}]]]
+getSubObjectList(const char * subname) const : std::vector<DocumentObject *> [[[https://github.com/FreeCAD/FreeCAD/blob/f6708547a9bb3f71a4aaade12109f511a72c207c/src/App/DocumentObject.h#L356{getSubObjectList}]]]
+getSubObjects(int reason = 0) const : std::vector<std::string> [[[https://github.com/FreeCAD/FreeCAD/blob/f6708547a9bb3f71a4aaade12109f511a72c207c/src/App/DocumentObject.h#L381{getSubObjects}]]]
+getTypeId() const : Base::Type [[[https://github.com/FreeCAD/FreeCAD/blob/f6708547a9bb3f71a4aaade12109f511a72c207c/src/App/DocumentObject.h#L98{getTypeId}]]]
+getViewProviderName() const : const char * [[[https://github.com/FreeCAD/FreeCAD/blob/f6708547a9bb3f71a4aaade12109f511a72c207c/src/App/DocumentObject.h#L115{getViewProviderName}]]]
+getViewProviderNameOverride() const : const char * [[[https://github.com/FreeCAD/FreeCAD/blob/f6708547a9bb3f71a4aaade12109f511a72c207c/src/App/DocumentObject.h#L127{getViewProviderNameOverride}]]]
+getViewProviderNameStored() const : const char * [[[https://github.com/FreeCAD/FreeCAD/blob/f6708547a9bb3f71a4aaade12109f511a72c207c/src/App/DocumentObject.h#L441{getViewProviderNameStored}]]]
+hasChildElement() const : bool [[[https://github.com/FreeCAD/FreeCAD/blob/f6708547a9bb3f71a4aaade12109f511a72c207c/src/App/DocumentObject.h#L207{hasChildElement}]]]
{static} +hasHiddenMarker(const char * subname) : const char * [[[https://github.com/FreeCAD/FreeCAD/blob/f6708547a9bb3f71a4aaade12109f511a72c207c/src/App/DocumentObject.h#L565{hasHiddenMarker}]]]
{static} +hiddenMarker() : const std::string & [[[https://github.com/FreeCAD/FreeCAD/blob/f6708547a9bb3f71a4aaade12109f511a72c207c/src/App/DocumentObject.h#L563{hiddenMarker}]]]
{static} +init() : void [[[https://github.com/FreeCAD/FreeCAD/blob/f6708547a9bb3f71a4aaade12109f511a72c207c/src/App/DocumentObject.h#L98{init}]]]
+isAttachedToDocument() const : bool [[[https://github.com/FreeCAD/FreeCAD/blob/f6708547a9bb3f71a4aaade12109f511a72c207c/src/App/DocumentObject.h#L145{isAttachedToDocument}]]]
+isElementVisible(const char * element) const : int [[[https://github.com/FreeCAD/FreeCAD/blob/f6708547a9bb3f71a4aaade12109f511a72c207c/src/App/DocumentObject.h#L204{isElementVisible}]]]
+isError() const : bool [[[https://github.com/FreeCAD/FreeCAD/blob/f6708547a9bb3f71a4aaade12109f511a72c207c/src/App/DocumentObject.h#L168{isError}]]]
+isExporting() const : int [[[https://github.com/FreeCAD/FreeCAD/blob/f6708547a9bb3f71a4aaade12109f511a72c207c/src/App/DocumentObject.h#L184{isExporting}]]]
+isInInList(App::DocumentObject * objToTest) const : bool [[[https://github.com/FreeCAD/FreeCAD/blob/f6708547a9bb3f71a4aaade12109f511a72c207c/src/App/DocumentObject.h#L266{isInInList}]]]
+isInInListRecursive(App::DocumentObject * objToTest) const : bool [[[https://github.com/FreeCAD/FreeCAD/blob/f6708547a9bb3f71a4aaade12109f511a72c207c/src/App/DocumentObject.h#L264{isInInListRecursive}]]]
+isInOutList(App::DocumentObject * objToTest) const : bool [[[https://github.com/FreeCAD/FreeCAD/blob/f6708547a9bb3f71a4aaade12109f511a72c207c/src/App/DocumentObject.h#L270{isInOutList}]]]
+isInOutListRecursive(App::DocumentObject * objToTest) const : bool [[[https://github.com/FreeCAD/FreeCAD/blob/f6708547a9bb3f71a4aaade12109f511a72c207c/src/App/DocumentObject.h#L268{isInOutListRecursive}]]]
+isRecomputing() const : bool [[[https://github.com/FreeCAD/FreeCAD/blob/f6708547a9bb3f71a4aaade12109f511a72c207c/src/App/DocumentObject.h#L173{isRecomputing}]]]
+isRemoving() const : bool [[[https://github.com/FreeCAD/FreeCAD/blob/f6708547a9bb3f71a4aaade12109f511a72c207c/src/App/DocumentObject.h#L177{isRemoving}]]]
+isRestoring() const : bool [[[https://github.com/FreeCAD/FreeCAD/blob/f6708547a9bb3f71a4aaade12109f511a72c207c/src/App/DocumentObject.h#L175{isRestoring}]]]
+isTouched() const : bool [[[https://github.com/FreeCAD/FreeCAD/blob/f6708547a9bb3f71a4aaade12109f511a72c207c/src/App/DocumentObject.h#L156{isTouched}]]]
+isValid() const : bool [[[https://github.com/FreeCAD/FreeCAD/blob/f6708547a9bb3f71a4aaade12109f511a72c207c/src/App/DocumentObject.h#L169{isValid}]]]
+mustExecute() const : short [[[https://github.com/FreeCAD/FreeCAD/blob/f6708547a9bb3f71a4aaade12109f511a72c207c/src/App/DocumentObject.h#L304{mustExecute}]]]
+mustRecompute() const : bool [[[https://github.com/FreeCAD/FreeCAD/blob/f6708547a9bb3f71a4aaade12109f511a72c207c/src/App/DocumentObject.h#L160{mustRecompute}]]]
#onBeforeChange(const App::Property * prop) : void [[[https://github.com/FreeCAD/FreeCAD/blob/f6708547a9bb3f71a4aaade12109f511a72c207c/src/App/DocumentObject.h#L605{onBeforeChange}]]]
+onBeforeChangeLabel(std::string & newLabel) : void [[[https://github.com/FreeCAD/FreeCAD/blob/f6708547a9bb3f71a4aaade12109f511a72c207c/src/App/DocumentObject.h#L419{onBeforeChangeLabel}]]]
#onChanged(const App::Property * prop) : void [[[https://github.com/FreeCAD/FreeCAD/blob/f6708547a9bb3f71a4aaade12109f511a72c207c/src/App/DocumentObject.h#L607{onChanged}]]]
#onDocumentRestored() : void [[[https://github.com/FreeCAD/FreeCAD/blob/f6708547a9bb3f71a4aaade12109f511a72c207c/src/App/DocumentObject.h#L609{onDocumentRestored}]]]
+onLostLinkToObject(App::DocumentObject *) : void [[[https://github.com/FreeCAD/FreeCAD/blob/f6708547a9bb3f71a4aaade12109f511a72c207c/src/App/DocumentObject.h#L321{onLostLinkToObject}]]]
#onPropertyStatusChanged(const App::Property & prop, unsigned long oldStatus) : void [[[https://github.com/FreeCAD/FreeCAD/blob/f6708547a9bb3f71a4aaade12109f511a72c207c/src/App/DocumentObject.h#L620{onPropertyStatusChanged}]]]
#onSettingDocument() : void [[[https://github.com/FreeCAD/FreeCAD/blob/f6708547a9bb3f71a4aaade12109f511a72c207c/src/App/DocumentObject.h#L613{onSettingDocument}]]]
#onUndoRedoFinished() : void [[[https://github.com/FreeCAD/FreeCAD/blob/f6708547a9bb3f71a4aaade12109f511a72c207c/src/App/DocumentObject.h#L611{onUndoRedoFinished}]]]
+onUpdateElementReference(const App::Property *) : void [[[https://github.com/FreeCAD/FreeCAD/blob/f6708547a9bb3f71a4aaade12109f511a72c207c/src/App/DocumentObject.h#L540{onUpdateElementReference}]]]
-printInvalidLinks() const : void [[[https://github.com/FreeCAD/FreeCAD/blob/f6708547a9bb3f71a4aaade12109f511a72c207c/src/App/DocumentObject.h#L623{printInvalidLinks}]]]
+purgeError() : void [[[https://github.com/FreeCAD/FreeCAD/blob/f6708547a9bb3f71a4aaade12109f511a72c207c/src/App/DocumentObject.h#L171{purgeError}]]]
+purgeTouched() : void [[[https://github.com/FreeCAD/FreeCAD/blob/f6708547a9bb3f71a4aaade12109f511a72c207c/src/App/DocumentObject.h#L162{purgeTouched}]]]
#recompute() : App::DocumentObjectExecReturn * [[[https://github.com/FreeCAD/FreeCAD/blob/f6708547a9bb3f71a4aaade12109f511a72c207c/src/App/DocumentObject.h#L569{recompute}]]]
+recomputeFeature(bool recursive = false) : bool [[[https://github.com/FreeCAD/FreeCAD/blob/f6708547a9bb3f71a4aaade12109f511a72c207c/src/App/DocumentObject.h#L310{recomputeFeature}]]]
+redirectSubName(std::ostringstream & ss, App::DocumentObject * topParent, App::DocumentObject * child) const : bool [[[https://github.com/FreeCAD/FreeCAD/blob/f6708547a9bb3f71a4aaade12109f511a72c207c/src/App/DocumentObject.h#L555{redirectSubName}]]]
+removeDynamicProperty(const char * prop) : bool [[[https://github.com/FreeCAD/FreeCAD/blob/f6708547a9bb3f71a4aaade12109f511a72c207c/src/App/DocumentObject.h#L445{removeDynamicProperty}]]]
+renameObjectIdentifiers(const std::map<App::ObjectIdentifier,App::ObjectIdentifier> & paths) : void [[[https://github.com/FreeCAD/FreeCAD/blob/f6708547a9bb3f71a4aaade12109f511a72c207c/src/App/DocumentObject.h#L437{renameObjectIdentifiers}]]]
#resetError() : void [[[https://github.com/FreeCAD/FreeCAD/blob/f6708547a9bb3f71a4aaade12109f511a72c207c/src/App/DocumentObject.h#L601{resetError}]]]
+resolve(const char * subname, App::DocumentObject ** parent = nullptr, std::string * childName = nullptr, const char ** subElement = nullptr, PyObject ** pyObj = nullptr, Base::Matrix4D * mat = nullptr, bool transform = true, int depth = 0) const : App::DocumentObject * [[[https://github.com/FreeCAD/FreeCAD/blob/f6708547a9bb3f71a4aaade12109f511a72c207c/src/App/DocumentObject.h#L464{resolve}]]]
+resolveRelativeLink(std::string & subname, App::DocumentObject *& link, std::string & linkSub) const : App::DocumentObject * [[[https://github.com/FreeCAD/FreeCAD/blob/f6708547a9bb3f71a4aaade12109f511a72c207c/src/App/DocumentObject.h#L512{resolveRelativeLink}]]]
#setDocument(App::Document * doc) : void [[[https://github.com/FreeCAD/FreeCAD/blob/f6708547a9bb3f71a4aaade12109f511a72c207c/src/App/DocumentObject.h#L602{setDocument}]]]
+setElementVisible(const char * element, bool visible) : int [[[https://github.com/FreeCAD/FreeCAD/blob/f6708547a9bb3f71a4aaade12109f511a72c207c/src/App/DocumentObject.h#L197{setElementVisible}]]]
#setError() : void [[[https://github.com/FreeCAD/FreeCAD/blob/f6708547a9bb3f71a4aaade12109f511a72c207c/src/App/DocumentObject.h#L600{setError}]]]
+setExpression(const App::ObjectIdentifier & path, std::shared_ptr<App::Expression> expr) : void [[[https://github.com/FreeCAD/FreeCAD/blob/f6708547a9bb3f71a4aaade12109f511a72c207c/src/App/DocumentObject.h#L431{setExpression}]]]
+setStatus(App::ObjectStatus pos, bool on) : void [[[https://github.com/FreeCAD/FreeCAD/blob/f6708547a9bb3f71a4aaade12109f511a72c207c/src/App/DocumentObject.h#L181{setStatus}]]]
#setupObject() : void [[[https://github.com/FreeCAD/FreeCAD/blob/f6708547a9bb3f71a4aaade12109f511a72c207c/src/App/DocumentObject.h#L615{setupObject}]]]
+testIfLinkDAGCompatible(App::PropertyLinkSub & linkTo) const : bool [[[https://github.com/FreeCAD/FreeCAD/blob/f6708547a9bb3f71a4aaade12109f511a72c207c/src/App/DocumentObject.h#L290{testIfLinkDAGCompatible}]]]
+testIfLinkDAGCompatible(App::PropertyLinkSubList & linksTo) const : bool [[[https://github.com/FreeCAD/FreeCAD/blob/f6708547a9bb3f71a4aaade12109f511a72c207c/src/App/DocumentObject.h#L289{testIfLinkDAGCompatible}]]]
+testIfLinkDAGCompatible(const std::vector<DocumentObject *> & linksTo) const : bool [[[https://github.com/FreeCAD/FreeCAD/blob/f6708547a9bb3f71a4aaade12109f511a72c207c/src/App/DocumentObject.h#L288{testIfLinkDAGCompatible}]]]
+testIfLinkDAGCompatible(App::DocumentObject * linkTo) const : bool [[[https://github.com/FreeCAD/FreeCAD/blob/f6708547a9bb3f71a4aaade12109f511a72c207c/src/App/DocumentObject.h#L287{testIfLinkDAGCompatible}]]]
+testStatus(App::ObjectStatus pos) const : bool [[[https://github.com/FreeCAD/FreeCAD/blob/f6708547a9bb3f71a4aaade12109f511a72c207c/src/App/DocumentObject.h#L180{testStatus}]]]
+touch(bool noRecompute = false) : void [[[https://github.com/FreeCAD/FreeCAD/blob/f6708547a9bb3f71a4aaade12109f511a72c207c/src/App/DocumentObject.h#L154{touch}]]]
#unsetupObject() : void [[[https://github.com/FreeCAD/FreeCAD/blob/f6708547a9bb3f71a4aaade12109f511a72c207c/src/App/DocumentObject.h#L617{unsetupObject}]]]
__
+ExpressionEngine : App::PropertyExpressionEngine [[[https://github.com/FreeCAD/FreeCAD/blob/f6708547a9bb3f71a4aaade12109f511a72c207c/src/App/DocumentObject.h#L104{ExpressionEngine}]]]
+Label : App::PropertyString [[[https://github.com/FreeCAD/FreeCAD/blob/f6708547a9bb3f71a4aaade12109f511a72c207c/src/App/DocumentObject.h#L102{Label}]]]
+Label2 : App::PropertyString [[[https://github.com/FreeCAD/FreeCAD/blob/f6708547a9bb3f71a4aaade12109f511a72c207c/src/App/DocumentObject.h#L103{Label2}]]]
#PythonObject : Py::SmartPtr [[[https://github.com/FreeCAD/FreeCAD/blob/f6708547a9bb3f71a4aaade12109f511a72c207c/src/App/DocumentObject.h#L627{PythonObject}]]]
#StatusBits : std::bitset<32> [[[https://github.com/FreeCAD/FreeCAD/blob/f6708547a9bb3f71a4aaade12109f511a72c207c/src/App/DocumentObject.h#L598{StatusBits}]]]
{static} +StdReturn : App::DocumentObjectExecReturn * [[[https://github.com/FreeCAD/FreeCAD/blob/f6708547a9bb3f71a4aaade12109f511a72c207c/src/App/DocumentObject.h#L425{StdReturn}]]]
+Visibility : App::PropertyBool [[[https://github.com/FreeCAD/FreeCAD/blob/f6708547a9bb3f71a4aaade12109f511a72c207c/src/App/DocumentObject.h#L107{Visibility}]]]
-_Id : long [[[https://github.com/FreeCAD/FreeCAD/blob/f6708547a9bb3f71a4aaade12109f511a72c207c/src/App/DocumentObject.h#L642{_Id}]]]
-_inList : std::vector<App::DocumentObject *> [[[https://github.com/FreeCAD/FreeCAD/blob/f6708547a9bb3f71a4aaade12109f511a72c207c/src/App/DocumentObject.h#L647{_inList}]]]
-_outList : std::vector<App::DocumentObject *> [[[https://github.com/FreeCAD/FreeCAD/blob/f6708547a9bb3f71a4aaade12109f511a72c207c/src/App/DocumentObject.h#L648{_outList}]]]
-_outListCached : bool [[[https://github.com/FreeCAD/FreeCAD/blob/f6708547a9bb3f71a4aaade12109f511a72c207c/src/App/DocumentObject.h#L650{_outListCached}]]]
-_outListMap : std::unordered_map<const char *,App::DocumentObject *,CStringHasher,CStringHasher> [[[https://github.com/FreeCAD/FreeCAD/blob/f6708547a9bb3f71a4aaade12109f511a72c207c/src/App/DocumentObject.h#L649{_outListMap}]]]
#_pDoc : App::Document * [[[https://github.com/FreeCAD/FreeCAD/blob/f6708547a9bb3f71a4aaade12109f511a72c207c/src/App/DocumentObject.h#L629{_pDoc}]]]
-_pcViewProviderName : std::string [[[https://github.com/FreeCAD/FreeCAD/blob/f6708547a9bb3f71a4aaade12109f511a72c207c/src/App/DocumentObject.h#L639{_pcViewProviderName}]]]
{static} -classTypeId : Base::Type [[[https://github.com/FreeCAD/FreeCAD/blob/f6708547a9bb3f71a4aaade12109f511a72c207c/src/App/DocumentObject.h#L98{classTypeId}]]]
#oldLabel : std::string [[[https://github.com/FreeCAD/FreeCAD/blob/f6708547a9bb3f71a4aaade12109f511a72c207c/src/App/DocumentObject.h#L632{oldLabel}]]]
#pcNameInDocument : const std::string * [[[https://github.com/FreeCAD/FreeCAD/blob/f6708547a9bb3f71a4aaade12109f511a72c207c/src/App/DocumentObject.h#L635{pcNameInDocument}]]]
{static} -propertyData : App::PropertyData [[[https://github.com/FreeCAD/FreeCAD/blob/f6708547a9bb3f71a4aaade12109f511a72c207c/src/App/DocumentObject.h#L98{propertyData}]]]
+signalBeforeChange : boost::signals2::signal<void (const App::DocumentObject &,const App::Property &)> [[[https://github.com/FreeCAD/FreeCAD/blob/f6708547a9bb3f71a4aaade12109f511a72c207c/src/App/DocumentObject.h#L110{signalBeforeChange}]]]
+signalChanged : boost::signals2::signal<void (const App::DocumentObject &,const App::Property &)> [[[https://github.com/FreeCAD/FreeCAD/blob/f6708547a9bb3f71a4aaade12109f511a72c207c/src/App/DocumentObject.h#L112{signalChanged}]]]
}
class "PropertyExpressionEngine::Private" as C_0000171014023859456167
class C_0000171014023859456167 [[https://github.com/FreeCAD/FreeCAD/blob/f6708547a9bb3f71a4aaade12109f511a72c207c/src/App/PropertyExpressionEngine.h#L217{PropertyExpressionEngine##Private}]] {
__
+conns : std::vector<boost::signals2::scoped_connection> [[[https://github.com/FreeCAD/FreeCAD/blob/f6708547a9bb3f71a4aaade12109f511a72c207c/src/App/PropertyExpressionEngine.cpp#L77{conns}]]]
+propMap : std::unordered_map<std::string,std::vector<ObjectIdentifier>> [[[https://github.com/FreeCAD/FreeCAD/blob/f6708547a9bb3f71a4aaade12109f511a72c207c/src/App/PropertyExpressionEngine.cpp#L78{propMap}]]]
}
package [ExpressionParser] as C_0000905861183269213715 {
}
package [Meta] as C_0002283864520314866053 {
}
}
C_0001638333326926612093 --> C_0001299587473968259399 : -classTypeId
C_0001571613461017811342 --> C_0001299587473968259399 : -classTypeId
C_0001638333326926612093 <|-- C_0001571613461017811342
C_0002265584471313809397 --+ C_0001571613461017811342
C_0001954045783222820798 --+ C_0001571613461017811342
C_0000312445509782133691 --+ C_0001571613461017811342
C_0001679842198945066576 o-- C_0001571613461017811342 : +ExpressionEngine
C_0001679842198945066576 --> C_0001299587473968259399 : -classTypeId
C_0000171014023859456167 --+ C_0001571613461017811342

'Generated with clang-uml, version 0.4.0-14-g26abb71
'LLVM version Ubuntu clang version 15.0.7
@enduml
