@startuml
title App::InventorObject context
package [Base] as C_0000701777446892506059 {
class "Type" as C_0001299587473968259399
class C_0001299587473968259399 [[https://github.com/FreeCAD/FreeCAD/blob/f6708547a9bb3f71a4aaade12109f511a72c207c/src/Base/Type.h#L80{Type}]] {
+Type(const Base::Type & type) : void [[[https://github.com/FreeCAD/FreeCAD/blob/f6708547a9bb3f71a4aaade12109f511a72c207c/src/Base/Type.h#L84{Type}]]]
+Type() : void [[[https://github.com/FreeCAD/FreeCAD/blob/f6708547a9bb3f71a4aaade12109f511a72c207c/src/Base/Type.h#L85{Type}]]]
+~Type() : void [[[https://github.com/FreeCAD/FreeCAD/blob/f6708547a9bb3f71a4aaade12109f511a72c207c/src/Base/Type.h#L87{~Type}]]]
..
+operator=(const Base::Type type) : void [[[https://github.com/FreeCAD/FreeCAD/blob/f6708547a9bb3f71a4aaade12109f511a72c207c/src/Base/Type.h#L114{operator=}]]]
..
+operator!=(const Base::Type type) const : bool [[[https://github.com/FreeCAD/FreeCAD/blob/f6708547a9bb3f71a4aaade12109f511a72c207c/src/Base/Type.h#L116{operator!=}]]]
+operator<(const Base::Type type) const : bool [[[https://github.com/FreeCAD/FreeCAD/blob/f6708547a9bb3f71a4aaade12109f511a72c207c/src/Base/Type.h#L118{operator<}]]]
+operator<=(const Base::Type type) const : bool [[[https://github.com/FreeCAD/FreeCAD/blob/f6708547a9bb3f71a4aaade12109f511a72c207c/src/Base/Type.h#L119{operator<=}]]]
+operator==(const Base::Type type) const : bool [[[https://github.com/FreeCAD/FreeCAD/blob/f6708547a9bb3f71a4aaade12109f511a72c207c/src/Base/Type.h#L115{operator==}]]]
+operator>(const Base::Type type) const : bool [[[https://github.com/FreeCAD/FreeCAD/blob/f6708547a9bb3f71a4aaade12109f511a72c207c/src/Base/Type.h#L121{operator>}]]]
+operator>=(const Base::Type type) const : bool [[[https://github.com/FreeCAD/FreeCAD/blob/f6708547a9bb3f71a4aaade12109f511a72c207c/src/Base/Type.h#L120{operator>=}]]]
..
{static} +badType() : Base::Type [[[https://github.com/FreeCAD/FreeCAD/blob/f6708547a9bb3f71a4aaade12109f511a72c207c/src/Base/Type.h#L123{badType}]]]
+createInstance() : void * [[[https://github.com/FreeCAD/FreeCAD/blob/f6708547a9bb3f71a4aaade12109f511a72c207c/src/Base/Type.h#L90{createInstance}]]]
{static} +createInstanceByName(const char * TypeName, bool bLoadModule = false) : void * [[[https://github.com/FreeCAD/FreeCAD/blob/f6708547a9bb3f71a4aaade12109f511a72c207c/src/Base/Type.h#L92{createInstanceByName}]]]
{static} +createType(const Base::Type parent, const char * name, Base::Type::instantiationMethod method = nullptr) : const Base::Type [[[https://github.com/FreeCAD/FreeCAD/blob/f6708547a9bb3f71a4aaade12109f511a72c207c/src/Base/Type.h#L109{createType}]]]
{static} +destruct() : void [[[https://github.com/FreeCAD/FreeCAD/blob/f6708547a9bb3f71a4aaade12109f511a72c207c/src/Base/Type.h#L125{destruct}]]]
{static} +fromKey(unsigned int key) : Base::Type [[[https://github.com/FreeCAD/FreeCAD/blob/f6708547a9bb3f71a4aaade12109f511a72c207c/src/Base/Type.h#L98{fromKey}]]]
{static} +fromName(const char * name) : Base::Type [[[https://github.com/FreeCAD/FreeCAD/blob/f6708547a9bb3f71a4aaade12109f511a72c207c/src/Base/Type.h#L97{fromName}]]]
{static} +getAllDerivedFrom(const Base::Type type, std::vector<Type> & List) : int [[[https://github.com/FreeCAD/FreeCAD/blob/f6708547a9bb3f71a4aaade12109f511a72c207c/src/Base/Type.h#L103{getAllDerivedFrom}]]]
+getKey() const : unsigned int [[[https://github.com/FreeCAD/FreeCAD/blob/f6708547a9bb3f71a4aaade12109f511a72c207c/src/Base/Type.h#L111{getKey}]]]
{static} #getModuleName(const char * ClassName) : std::string [[[https://github.com/FreeCAD/FreeCAD/blob/f6708547a9bb3f71a4aaade12109f511a72c207c/src/Base/Type.h#L128{getModuleName}]]]
+getName() const : const char * [[[https://github.com/FreeCAD/FreeCAD/blob/f6708547a9bb3f71a4aaade12109f511a72c207c/src/Base/Type.h#L99{getName}]]]
{static} +getNumTypes() : int [[[https://github.com/FreeCAD/FreeCAD/blob/f6708547a9bb3f71a4aaade12109f511a72c207c/src/Base/Type.h#L107{getNumTypes}]]]
+getParent() const : const Base::Type [[[https://github.com/FreeCAD/FreeCAD/blob/f6708547a9bb3f71a4aaade12109f511a72c207c/src/Base/Type.h#L100{getParent}]]]
{static} +getTypeIfDerivedFrom(const char * name, const Base::Type parent, bool bLoadModule = false) : Base::Type [[[https://github.com/FreeCAD/FreeCAD/blob/f6708547a9bb3f71a4aaade12109f511a72c207c/src/Base/Type.h#L105{getTypeIfDerivedFrom}]]]
{static} +importModule(const char * TypeName) : void [[[https://github.com/FreeCAD/FreeCAD/blob/f6708547a9bb3f71a4aaade12109f511a72c207c/src/Base/Type.h#L93{importModule}]]]
{static} +init() : void [[[https://github.com/FreeCAD/FreeCAD/blob/f6708547a9bb3f71a4aaade12109f511a72c207c/src/Base/Type.h#L124{init}]]]
+isBad() const : bool [[[https://github.com/FreeCAD/FreeCAD/blob/f6708547a9bb3f71a4aaade12109f511a72c207c/src/Base/Type.h#L112{isBad}]]]
+isDerivedFrom(const Base::Type type) const : bool [[[https://github.com/FreeCAD/FreeCAD/blob/f6708547a9bb3f71a4aaade12109f511a72c207c/src/Base/Type.h#L101{isDerivedFrom}]]]
__
-index : unsigned int [[[https://github.com/FreeCAD/FreeCAD/blob/f6708547a9bb3f71a4aaade12109f511a72c207c/src/Base/Type.h#L134{index}]]]
{static} -loadModuleSet : std::set<std::string> [[[https://github.com/FreeCAD/FreeCAD/blob/f6708547a9bb3f71a4aaade12109f511a72c207c/src/Base/Type.h#L140{loadModuleSet}]]]
{static} -typedata : std::vector<TypeData *> [[[https://github.com/FreeCAD/FreeCAD/blob/f6708547a9bb3f71a4aaade12109f511a72c207c/src/Base/Type.h#L138{typedata}]]]
{static} -typemap : std::map<std::string,unsigned int> [[[https://github.com/FreeCAD/FreeCAD/blob/f6708547a9bb3f71a4aaade12109f511a72c207c/src/Base/Type.h#L137{typemap}]]]
}
}
package [App] as C_0002285326295477687690 {
class "PropertyData" as C_0001065140174462797402
class C_0001065140174462797402 [[https://github.com/FreeCAD/FreeCAD/blob/f6708547a9bb3f71a4aaade12109f511a72c207c/src/App/PropertyContainer.h#L56{PropertyData}]] {
+addProperty(App::PropertyData::OffsetBase offsetBase, const char * PropName, App::Property * Prop, const char * PropertyGroup = nullptr, App::PropertyType  = Prop_None, const char * PropertyDocu = nullptr) : void [[[https://github.com/FreeCAD/FreeCAD/blob/f6708547a9bb3f71a4aaade12109f511a72c207c/src/App/PropertyContainer.h#L116{addProperty}]]]
+findProperty(App::PropertyData::OffsetBase offsetBase, const char * PropName) const : const App::PropertyData::PropertySpec * [[[https://github.com/FreeCAD/FreeCAD/blob/f6708547a9bb3f71a4aaade12109f511a72c207c/src/App/PropertyContainer.h#L118{findProperty}]]]
+findProperty(App::PropertyData::OffsetBase offsetBase, const App::Property * prop) const : const App::PropertyData::PropertySpec * [[[https://github.com/FreeCAD/FreeCAD/blob/f6708547a9bb3f71a4aaade12109f511a72c207c/src/App/PropertyContainer.h#L119{findProperty}]]]
+getDocumentation(App::PropertyData::OffsetBase offsetBase, const char * name) const : const char * [[[https://github.com/FreeCAD/FreeCAD/blob/f6708547a9bb3f71a4aaade12109f511a72c207c/src/App/PropertyContainer.h#L126{getDocumentation}]]]
+getDocumentation(App::PropertyData::OffsetBase offsetBase, const App::Property * prop) const : const char * [[[https://github.com/FreeCAD/FreeCAD/blob/f6708547a9bb3f71a4aaade12109f511a72c207c/src/App/PropertyContainer.h#L127{getDocumentation}]]]
+getGroup(App::PropertyData::OffsetBase offsetBase, const char * name) const : const char * [[[https://github.com/FreeCAD/FreeCAD/blob/f6708547a9bb3f71a4aaade12109f511a72c207c/src/App/PropertyContainer.h#L124{getGroup}]]]
+getGroup(App::PropertyData::OffsetBase offsetBase, const App::Property * prop) const : const char * [[[https://github.com/FreeCAD/FreeCAD/blob/f6708547a9bb3f71a4aaade12109f511a72c207c/src/App/PropertyContainer.h#L125{getGroup}]]]
+getName(App::PropertyData::OffsetBase offsetBase, const App::Property * prop) const : const char * [[[https://github.com/FreeCAD/FreeCAD/blob/f6708547a9bb3f71a4aaade12109f511a72c207c/src/App/PropertyContainer.h#L121{getName}]]]
+getPropertyByName(App::PropertyData::OffsetBase offsetBase, const char * name) const : App::Property * [[[https://github.com/FreeCAD/FreeCAD/blob/f6708547a9bb3f71a4aaade12109f511a72c207c/src/App/PropertyContainer.h#L129{getPropertyByName}]]]
+getPropertyList(App::PropertyData::OffsetBase offsetBase, std::vector<Property *> & List) const : void [[[https://github.com/FreeCAD/FreeCAD/blob/f6708547a9bb3f71a4aaade12109f511a72c207c/src/App/PropertyContainer.h#L131{getPropertyList}]]]
+getPropertyMap(App::PropertyData::OffsetBase offsetBase, std::map<std::string,Property *> & Map) const : void [[[https://github.com/FreeCAD/FreeCAD/blob/f6708547a9bb3f71a4aaade12109f511a72c207c/src/App/PropertyContainer.h#L130{getPropertyMap}]]]
+getPropertyNamedList(App::PropertyData::OffsetBase offsetBase, std::vector<std::pair<const char *,Property *>> & List) const : void [[[https://github.com/FreeCAD/FreeCAD/blob/f6708547a9bb3f71a4aaade12109f511a72c207c/src/App/PropertyContainer.h#L132{getPropertyNamedList}]]]
+getType(App::PropertyData::OffsetBase offsetBase, const App::Property * prop) const : short [[[https://github.com/FreeCAD/FreeCAD/blob/f6708547a9bb3f71a4aaade12109f511a72c207c/src/App/PropertyContainer.h#L122{getType}]]]
+getType(App::PropertyData::OffsetBase offsetBase, const char * name) const : short [[[https://github.com/FreeCAD/FreeCAD/blob/f6708547a9bb3f71a4aaade12109f511a72c207c/src/App/PropertyContainer.h#L123{getType}]]]
+merge(App::PropertyData * other = nullptr) const : void [[[https://github.com/FreeCAD/FreeCAD/blob/f6708547a9bb3f71a4aaade12109f511a72c207c/src/App/PropertyContainer.h#L134{merge}]]]
+split(App::PropertyData * other) : void [[[https://github.com/FreeCAD/FreeCAD/blob/f6708547a9bb3f71a4aaade12109f511a72c207c/src/App/PropertyContainer.h#L135{split}]]]
__
+parentMerged : bool [[[https://github.com/FreeCAD/FreeCAD/blob/f6708547a9bb3f71a4aaade12109f511a72c207c/src/App/PropertyContainer.h#L112{parentMerged}]]]
+parentPropertyData : const App::PropertyData * [[[https://github.com/FreeCAD/FreeCAD/blob/f6708547a9bb3f71a4aaade12109f511a72c207c/src/App/PropertyContainer.h#L114{parentPropertyData}]]]
+propertyData : bmi::multi_index_container<PropertySpec,bmi::indexed_by<bmi::sequenced<>,bmi::hashed_unique<bmi::member<PropertySpec,const char *,&PropertySpec::Name>,CStringHasher,CStringHasher>,bmi::hashed_unique<bmi::member<PropertySpec,short,&PropertySpec::Offset>>>> [[[https://github.com/FreeCAD/FreeCAD/blob/f6708547a9bb3f71a4aaade12109f511a72c207c/src/App/PropertyContainer.h#L110{propertyData}]]]
}
class "PropertyString" as C_0002023401362294802921
class C_0002023401362294802921 [[https://github.com/FreeCAD/FreeCAD/blob/f6708547a9bb3f71a4aaade12109f511a72c207c/src/App/PropertyStandard.h#L677{PropertyString}]] {
+PropertyString() : void [[[https://github.com/FreeCAD/FreeCAD/blob/f6708547a9bb3f71a4aaade12109f511a72c207c/src/App/PropertyStandard.h#L687{PropertyString}]]]
+~PropertyString() : void [[[https://github.com/FreeCAD/FreeCAD/blob/f6708547a9bb3f71a4aaade12109f511a72c207c/src/App/PropertyStandard.h#L693{~PropertyString}]]]
..
+Copy() const : App::Property * [[[https://github.com/FreeCAD/FreeCAD/blob/f6708547a9bb3f71a4aaade12109f511a72c207c/src/App/PropertyStandard.h#L709{Copy}]]]
+Paste(const App::Property & from) : void [[[https://github.com/FreeCAD/FreeCAD/blob/f6708547a9bb3f71a4aaade12109f511a72c207c/src/App/PropertyStandard.h#L710{Paste}]]]
+Restore(Base::XMLReader & reader) : void [[[https://github.com/FreeCAD/FreeCAD/blob/f6708547a9bb3f71a4aaade12109f511a72c207c/src/App/PropertyStandard.h#L707{Restore}]]]
+Save(Base::Writer & writer) const : void [[[https://github.com/FreeCAD/FreeCAD/blob/f6708547a9bb3f71a4aaade12109f511a72c207c/src/App/PropertyStandard.h#L706{Save}]]]
{static} +create() : void * [[[https://github.com/FreeCAD/FreeCAD/blob/f6708547a9bb3f71a4aaade12109f511a72c207c/src/App/PropertyStandard.h#L679{create}]]]
{static} +getClassTypeId() : Base::Type [[[https://github.com/FreeCAD/FreeCAD/blob/f6708547a9bb3f71a4aaade12109f511a72c207c/src/App/PropertyStandard.h#L679{getClassTypeId}]]]
+getEditorName() const : const char * [[[https://github.com/FreeCAD/FreeCAD/blob/f6708547a9bb3f71a4aaade12109f511a72c207c/src/App/PropertyStandard.h#L702{getEditorName}]]]
+getMemSize() const : unsigned int [[[https://github.com/FreeCAD/FreeCAD/blob/f6708547a9bb3f71a4aaade12109f511a72c207c/src/App/PropertyStandard.h#L711{getMemSize}]]]
+getPathValue(const App::ObjectIdentifier & path) const : const boost::any [[[https://github.com/FreeCAD/FreeCAD/blob/f6708547a9bb3f71a4aaade12109f511a72c207c/src/App/PropertyStandard.h#L714{getPathValue}]]]
+getPyObject() : PyObject * [[[https://github.com/FreeCAD/FreeCAD/blob/f6708547a9bb3f71a4aaade12109f511a72c207c/src/App/PropertyStandard.h#L703{getPyObject}]]]
+getStrValue() const : const std::string & [[[https://github.com/FreeCAD/FreeCAD/blob/f6708547a9bb3f71a4aaade12109f511a72c207c/src/App/PropertyStandard.h#L698{getStrValue}]]]
+getTypeId() const : Base::Type [[[https://github.com/FreeCAD/FreeCAD/blob/f6708547a9bb3f71a4aaade12109f511a72c207c/src/App/PropertyStandard.h#L679{getTypeId}]]]
+getValue() const : const char * [[[https://github.com/FreeCAD/FreeCAD/blob/f6708547a9bb3f71a4aaade12109f511a72c207c/src/App/PropertyStandard.h#L697{getValue}]]]
{static} +init() : void [[[https://github.com/FreeCAD/FreeCAD/blob/f6708547a9bb3f71a4aaade12109f511a72c207c/src/App/PropertyStandard.h#L679{init}]]]
+isEmpty() : bool [[[https://github.com/FreeCAD/FreeCAD/blob/f6708547a9bb3f71a4aaade12109f511a72c207c/src/App/PropertyStandard.h#L700{isEmpty}]]]
+isSame(const App::Property & other) const : bool [[[https://github.com/FreeCAD/FreeCAD/blob/f6708547a9bb3f71a4aaade12109f511a72c207c/src/App/PropertyStandard.h#L716{isSame}]]]
+setPathValue(const App::ObjectIdentifier & path, const boost::any & value) : void [[[https://github.com/FreeCAD/FreeCAD/blob/f6708547a9bb3f71a4aaade12109f511a72c207c/src/App/PropertyStandard.h#L713{setPathValue}]]]
+setPyObject(PyObject *) : void [[[https://github.com/FreeCAD/FreeCAD/blob/f6708547a9bb3f71a4aaade12109f511a72c207c/src/App/PropertyStandard.h#L704{setPyObject}]]]
+setValue(const std::string & sString) : void [[[https://github.com/FreeCAD/FreeCAD/blob/f6708547a9bb3f71a4aaade12109f511a72c207c/src/App/PropertyStandard.h#L696{setValue}]]]
+setValue(const char * sString) : void [[[https://github.com/FreeCAD/FreeCAD/blob/f6708547a9bb3f71a4aaade12109f511a72c207c/src/App/PropertyStandard.h#L695{setValue}]]]
__
#_cValue : std::string [[[https://github.com/FreeCAD/FreeCAD/blob/f6708547a9bb3f71a4aaade12109f511a72c207c/src/App/PropertyStandard.h#L724{_cValue}]]]
{static} -classTypeId : Base::Type [[[https://github.com/FreeCAD/FreeCAD/blob/f6708547a9bb3f71a4aaade12109f511a72c207c/src/App/PropertyStandard.h#L679{classTypeId}]]]
}
class "GeoFeature" as C_0000022916349536371088
class C_0000022916349536371088 [[https://github.com/FreeCAD/FreeCAD/blob/f6708547a9bb3f71a4aaade12109f511a72c207c/src/App/GeoFeature.h#L37{GeoFeature}]] {
+GeoFeature() : void [[[https://github.com/FreeCAD/FreeCAD/blob/f6708547a9bb3f71a4aaade12109f511a72c207c/src/App/GeoFeature.h#L45{GeoFeature}]]]
+~GeoFeature() : void [[[https://github.com/FreeCAD/FreeCAD/blob/f6708547a9bb3f71a4aaade12109f511a72c207c/src/App/GeoFeature.h#L46{~GeoFeature}]]]
..
{static} +create() : void * [[[https://github.com/FreeCAD/FreeCAD/blob/f6708547a9bb3f71a4aaade12109f511a72c207c/src/App/GeoFeature.h#L39{create}]]]
{static} +getClassTypeId() : Base::Type [[[https://github.com/FreeCAD/FreeCAD/blob/f6708547a9bb3f71a4aaade12109f511a72c207c/src/App/GeoFeature.h#L39{getClassTypeId}]]]
+getElementName(const char * name, App::GeoFeature::ElementNameType type = Normal) const : std::pair<std::string,std::string> [[[https://github.com/FreeCAD/FreeCAD/blob/f6708547a9bb3f71a4aaade12109f511a72c207c/src/App/GeoFeature.h#L88{getElementName}]]]
#getPropertyData() const : const App::PropertyData & [[[https://github.com/FreeCAD/FreeCAD/blob/f6708547a9bb3f71a4aaade12109f511a72c207c/src/App/GeoFeature.h#L39{getPropertyData}]]]
{static} #getPropertyDataPtr() : const App::PropertyData * [[[https://github.com/FreeCAD/FreeCAD/blob/f6708547a9bb3f71a4aaade12109f511a72c207c/src/App/GeoFeature.h#L39{getPropertyDataPtr}]]]
+getPropertyOfGeometry() const : const App::PropertyComplexGeoData * [[[https://github.com/FreeCAD/FreeCAD/blob/f6708547a9bb3f71a4aaade12109f511a72c207c/src/App/GeoFeature.h#L62{getPropertyOfGeometry}]]]
+getPyObject() : PyObject * [[[https://github.com/FreeCAD/FreeCAD/blob/f6708547a9bb3f71a4aaade12109f511a72c207c/src/App/GeoFeature.h#L67{getPyObject}]]]
+getTypeId() const : Base::Type [[[https://github.com/FreeCAD/FreeCAD/blob/f6708547a9bb3f71a4aaade12109f511a72c207c/src/App/GeoFeature.h#L39{getTypeId}]]]
+globalPlacement() const : Base::Placement [[[https://github.com/FreeCAD/FreeCAD/blob/f6708547a9bb3f71a4aaade12109f511a72c207c/src/App/GeoFeature.h#L122{globalPlacement}]]]
{static} +init() : void [[[https://github.com/FreeCAD/FreeCAD/blob/f6708547a9bb3f71a4aaade12109f511a72c207c/src/App/GeoFeature.h#L39{init}]]]
{static} +resolveElement(App::DocumentObject * obj, const char * subname, std::pair<std::string,std::string> & elementName, bool append = false, App::GeoFeature::ElementNameType type = Normal, const App::DocumentObject * filter = nullptr, const char ** element = nullptr, App::GeoFeature ** geo = nullptr) : App::DocumentObject * [[[https://github.com/FreeCAD/FreeCAD/blob/f6708547a9bb3f71a4aaade12109f511a72c207c/src/App/GeoFeature.h#L105{resolveElement}]]]
+transformPlacement(const Base::Placement & transform) : void [[[https://github.com/FreeCAD/FreeCAD/blob/f6708547a9bb3f71a4aaade12109f511a72c207c/src/App/GeoFeature.h#L55{transformPlacement}]]]
__
+Placement : App::PropertyPlacement [[[https://github.com/FreeCAD/FreeCAD/blob/f6708547a9bb3f71a4aaade12109f511a72c207c/src/App/GeoFeature.h#L42{Placement}]]]
{static} -classTypeId : Base::Type [[[https://github.com/FreeCAD/FreeCAD/blob/f6708547a9bb3f71a4aaade12109f511a72c207c/src/App/GeoFeature.h#L39{classTypeId}]]]
{static} -propertyData : App::PropertyData [[[https://github.com/FreeCAD/FreeCAD/blob/f6708547a9bb3f71a4aaade12109f511a72c207c/src/App/GeoFeature.h#L39{propertyData}]]]
}
package [ExpressionParser] as C_0000905861183269213715 {
}
package [Meta] as C_0002283864520314866053 {
}
class "InventorObject" as C_0001989160450516017963
class C_0001989160450516017963 [[https://github.com/FreeCAD/FreeCAD/blob/f6708547a9bb3f71a4aaade12109f511a72c207c/src/App/InventorObject.h#L34{InventorObject}]] {
+InventorObject() : void [[[https://github.com/FreeCAD/FreeCAD/blob/f6708547a9bb3f71a4aaade12109f511a72c207c/src/App/InventorObject.h#L40{InventorObject}]]]
+~InventorObject() : void [[[https://github.com/FreeCAD/FreeCAD/blob/f6708547a9bb3f71a4aaade12109f511a72c207c/src/App/InventorObject.h#L41{~InventorObject}]]]
..
{static} +create() : void * [[[https://github.com/FreeCAD/FreeCAD/blob/f6708547a9bb3f71a4aaade12109f511a72c207c/src/App/InventorObject.h#L36{create}]]]
+execute() : App::DocumentObjectExecReturn * [[[https://github.com/FreeCAD/FreeCAD/blob/f6708547a9bb3f71a4aaade12109f511a72c207c/src/App/InventorObject.h#L47{execute}]]]
{static} +getClassTypeId() : Base::Type [[[https://github.com/FreeCAD/FreeCAD/blob/f6708547a9bb3f71a4aaade12109f511a72c207c/src/App/InventorObject.h#L36{getClassTypeId}]]]
#getPropertyData() const : const App::PropertyData & [[[https://github.com/FreeCAD/FreeCAD/blob/f6708547a9bb3f71a4aaade12109f511a72c207c/src/App/InventorObject.h#L36{getPropertyData}]]]
{static} #getPropertyDataPtr() : const App::PropertyData * [[[https://github.com/FreeCAD/FreeCAD/blob/f6708547a9bb3f71a4aaade12109f511a72c207c/src/App/InventorObject.h#L36{getPropertyDataPtr}]]]
+getPyObject() : PyObject * [[[https://github.com/FreeCAD/FreeCAD/blob/f6708547a9bb3f71a4aaade12109f511a72c207c/src/App/InventorObject.h#L51{getPyObject}]]]
+getTypeId() const : Base::Type [[[https://github.com/FreeCAD/FreeCAD/blob/f6708547a9bb3f71a4aaade12109f511a72c207c/src/App/InventorObject.h#L36{getTypeId}]]]
+getViewProviderName() const : const char * [[[https://github.com/FreeCAD/FreeCAD/blob/f6708547a9bb3f71a4aaade12109f511a72c207c/src/App/InventorObject.h#L44{getViewProviderName}]]]
{static} +init() : void [[[https://github.com/FreeCAD/FreeCAD/blob/f6708547a9bb3f71a4aaade12109f511a72c207c/src/App/InventorObject.h#L36{init}]]]
+mustExecute() const : short [[[https://github.com/FreeCAD/FreeCAD/blob/f6708547a9bb3f71a4aaade12109f511a72c207c/src/App/InventorObject.h#L50{mustExecute}]]]
__
+Buffer : App::PropertyString [[[https://github.com/FreeCAD/FreeCAD/blob/f6708547a9bb3f71a4aaade12109f511a72c207c/src/App/InventorObject.h#L53{Buffer}]]]
+FileName : App::PropertyString [[[https://github.com/FreeCAD/FreeCAD/blob/f6708547a9bb3f71a4aaade12109f511a72c207c/src/App/InventorObject.h#L54{FileName}]]]
{static} -classTypeId : Base::Type [[[https://github.com/FreeCAD/FreeCAD/blob/f6708547a9bb3f71a4aaade12109f511a72c207c/src/App/InventorObject.h#L36{classTypeId}]]]
{static} -propertyData : App::PropertyData [[[https://github.com/FreeCAD/FreeCAD/blob/f6708547a9bb3f71a4aaade12109f511a72c207c/src/App/InventorObject.h#L36{propertyData}]]]
}
}
C_0001065140174462797402 --> C_0001065140174462797402 : +parentPropertyData
C_0002023401362294802921 --> C_0001299587473968259399 : -classTypeId
C_0000022916349536371088 --> C_0001299587473968259399 : -classTypeId
C_0000022916349536371088 --> C_0001065140174462797402 : -propertyData
C_0001989160450516017963 o-- C_0002023401362294802921 : +Buffer
C_0001989160450516017963 o-- C_0002023401362294802921 : +FileName
C_0001989160450516017963 --> C_0001299587473968259399 : -classTypeId
C_0001989160450516017963 --> C_0001065140174462797402 : -propertyData
C_0000022916349536371088 <|-- C_0001989160450516017963

'Generated with clang-uml, version 0.4.0-14-g26abb71
'LLVM version Ubuntu clang version 15.0.7
@enduml
