@startuml
title NodeItem class hierarchy
left to right direction
package [Base] as C_0000701777446892506059 {
class "NodeItem" as C_0000392862032974654098
class C_0000392862032974654098 [[https://github.com/FreeCAD/FreeCAD/blob/f6708547a9bb3f71a4aaade12109f511a72c207c/src/Base/Builder3D.h#L189{NodeItem}]] {
__
}
class "LabelItem" as C_0000903091460998659221
class C_0000903091460998659221 [[https://github.com/FreeCAD/FreeCAD/blob/f6708547a9bb3f71a4aaade12109f511a72c207c/src/Base/Builder3D.h#L199{LabelItem}]] {
__
}
class "InfoItem" as C_0002189248782999240308
class C_0002189248782999240308 [[https://github.com/FreeCAD/FreeCAD/blob/f6708547a9bb3f71a4aaade12109f511a72c207c/src/Base/Builder3D.h#L212{InfoItem}]] {
__
}
class "BaseColorItem" as C_0000831070560336043819
class C_0000831070560336043819 [[https://github.com/FreeCAD/FreeCAD/blob/f6708547a9bb3f71a4aaade12109f511a72c207c/src/Base/Builder3D.h#L225{BaseColorItem}]] {
__
}
class "PointItem" as C_0001600814779994844389
class C_0001600814779994844389 [[https://github.com/FreeCAD/FreeCAD/blob/f6708547a9bb3f71a4aaade12109f511a72c207c/src/Base/Builder3D.h#L235{PointItem}]] {
__
}
class "LineItem" as C_0001352642554194400507
class C_0001352642554194400507 [[https://github.com/FreeCAD/FreeCAD/blob/f6708547a9bb3f71a4aaade12109f511a72c207c/src/Base/Builder3D.h#L247{LineItem}]] {
__
}
class "MultiLineItem" as C_0001045270795214265415
class C_0001045270795214265415 [[https://github.com/FreeCAD/FreeCAD/blob/f6708547a9bb3f71a4aaade12109f511a72c207c/src/Base/Builder3D.h#L259{MultiLineItem}]] {
__
}
class "ArrowItem" as C_0002070421279938882370
class C_0002070421279938882370 [[https://github.com/FreeCAD/FreeCAD/blob/f6708547a9bb3f71a4aaade12109f511a72c207c/src/Base/Builder3D.h#L272{ArrowItem}]] {
__
}
class "BoundingBoxItem" as C_0000528698986001835798
class C_0000528698986001835798 [[https://github.com/FreeCAD/FreeCAD/blob/f6708547a9bb3f71a4aaade12109f511a72c207c/src/Base/Builder3D.h#L284{BoundingBoxItem}]] {
__
}
class "MaterialItem" as C_0000471352705435558371
class C_0000471352705435558371 [[https://github.com/FreeCAD/FreeCAD/blob/f6708547a9bb3f71a4aaade12109f511a72c207c/src/Base/Builder3D.h#L300{MaterialItem}]] {
__
}
class "MaterialBindingItem" as C_0000922727842718558814
class C_0000922727842718558814 [[https://github.com/FreeCAD/FreeCAD/blob/f6708547a9bb3f71a4aaade12109f511a72c207c/src/Base/Builder3D.h#L333{MaterialBindingItem}]] {
__
}
class "DrawStyleItem" as C_0001230790407336353989
class C_0001230790407336353989 [[https://github.com/FreeCAD/FreeCAD/blob/f6708547a9bb3f71a4aaade12109f511a72c207c/src/Base/Builder3D.h#L348{DrawStyleItem}]] {
__
}
class "ShapeHintsItem" as C_0000788517467873905118
class C_0000788517467873905118 [[https://github.com/FreeCAD/FreeCAD/blob/f6708547a9bb3f71a4aaade12109f511a72c207c/src/Base/Builder3D.h#L363{ShapeHintsItem}]] {
__
}
class "PolygonOffsetItem" as C_0001175151310048138861
class C_0001175151310048138861 [[https://github.com/FreeCAD/FreeCAD/blob/f6708547a9bb3f71a4aaade12109f511a72c207c/src/Base/Builder3D.h#L376{PolygonOffsetItem}]] {
__
}
class "Coordinate3Item" as C_0002178045489170058002
class C_0002178045489170058002 [[https://github.com/FreeCAD/FreeCAD/blob/f6708547a9bb3f71a4aaade12109f511a72c207c/src/Base/Builder3D.h#L389{Coordinate3Item}]] {
__
}
class "PointSetItem" as C_0000904582760352443078
class C_0000904582760352443078 [[https://github.com/FreeCAD/FreeCAD/blob/f6708547a9bb3f71a4aaade12109f511a72c207c/src/Base/Builder3D.h#L404{PointSetItem}]] {
__
}
class "LineSetItem" as C_0001160312293471555140
class C_0001160312293471555140 [[https://github.com/FreeCAD/FreeCAD/blob/f6708547a9bb3f71a4aaade12109f511a72c207c/src/Base/Builder3D.h#L413{LineSetItem}]] {
__
}
class "FaceSetItem" as C_0000520707325598526311
class C_0000520707325598526311 [[https://github.com/FreeCAD/FreeCAD/blob/f6708547a9bb3f71a4aaade12109f511a72c207c/src/Base/Builder3D.h#L422{FaceSetItem}]] {
__
}
class "IndexedLineSetItem" as C_0000601759831372743988
class C_0000601759831372743988 [[https://github.com/FreeCAD/FreeCAD/blob/f6708547a9bb3f71a4aaade12109f511a72c207c/src/Base/Builder3D.h#L435{IndexedLineSetItem}]] {
__
}
class "IndexedFaceSetItem" as C_0001051935914579673457
class C_0001051935914579673457 [[https://github.com/FreeCAD/FreeCAD/blob/f6708547a9bb3f71a4aaade12109f511a72c207c/src/Base/Builder3D.h#L448{IndexedFaceSetItem}]] {
__
}
class "NormalItem" as C_0001954273351301128465
class C_0001954273351301128465 [[https://github.com/FreeCAD/FreeCAD/blob/f6708547a9bb3f71a4aaade12109f511a72c207c/src/Base/Builder3D.h#L461{NormalItem}]] {
__
}
class "NormalBindingItem" as C_0001123919021104186996
class C_0001123919021104186996 [[https://github.com/FreeCAD/FreeCAD/blob/f6708547a9bb3f71a4aaade12109f511a72c207c/src/Base/Builder3D.h#L476{NormalBindingItem}]] {
__
}
class "CylinderItem" as C_0000200837957902500577
class C_0000200837957902500577 [[https://github.com/FreeCAD/FreeCAD/blob/f6708547a9bb3f71a4aaade12109f511a72c207c/src/Base/Builder3D.h#L490{CylinderItem}]] {
__
}
class "ConeItem" as C_0001404888199193491303
class C_0001404888199193491303 [[https://github.com/FreeCAD/FreeCAD/blob/f6708547a9bb3f71a4aaade12109f511a72c207c/src/Base/Builder3D.h#L505{ConeItem}]] {
__
}
class "SphereItem" as C_0000723824906182069439
class C_0000723824906182069439 [[https://github.com/FreeCAD/FreeCAD/blob/f6708547a9bb3f71a4aaade12109f511a72c207c/src/Base/Builder3D.h#L520{SphereItem}]] {
__
}
class "NurbsSurfaceItem" as C_0000715198885521255199
class C_0000715198885521255199 [[https://github.com/FreeCAD/FreeCAD/blob/f6708547a9bb3f71a4aaade12109f511a72c207c/src/Base/Builder3D.h#L533{NurbsSurfaceItem}]] {
__
}
class "Text2Item" as C_0001043558538217339860
class C_0001043558538217339860 [[https://github.com/FreeCAD/FreeCAD/blob/f6708547a9bb3f71a4aaade12109f511a72c207c/src/Base/Builder3D.h#L550{Text2Item}]] {
__
}
class "TransformItem" as C_0001575466569642291511
class C_0001575466569642291511 [[https://github.com/FreeCAD/FreeCAD/blob/f6708547a9bb3f71a4aaade12109f511a72c207c/src/Base/Builder3D.h#L563{TransformItem}]] {
__
}
}
C_0000392862032974654098 <|-- C_0000903091460998659221
C_0000392862032974654098 <|-- C_0002189248782999240308
C_0000392862032974654098 <|-- C_0000831070560336043819
C_0000392862032974654098 <|-- C_0001600814779994844389
C_0000392862032974654098 <|-- C_0001352642554194400507
C_0000392862032974654098 <|-- C_0001045270795214265415
C_0000392862032974654098 <|-- C_0002070421279938882370
C_0000392862032974654098 <|-- C_0000528698986001835798
C_0000392862032974654098 <|-- C_0000471352705435558371
C_0000392862032974654098 <|-- C_0000922727842718558814
C_0000392862032974654098 <|-- C_0001230790407336353989
C_0000392862032974654098 <|-- C_0000788517467873905118
C_0000392862032974654098 <|-- C_0001175151310048138861
C_0000392862032974654098 <|-- C_0002178045489170058002
C_0000392862032974654098 <|-- C_0000904582760352443078
C_0000392862032974654098 <|-- C_0001160312293471555140
C_0000392862032974654098 <|-- C_0000520707325598526311
C_0000392862032974654098 <|-- C_0000601759831372743988
C_0000392862032974654098 <|-- C_0001051935914579673457
C_0000392862032974654098 <|-- C_0001954273351301128465
C_0000392862032974654098 <|-- C_0001123919021104186996
C_0000392862032974654098 <|-- C_0000200837957902500577
C_0000392862032974654098 <|-- C_0001404888199193491303
C_0000392862032974654098 <|-- C_0000723824906182069439
C_0000392862032974654098 <|-- C_0000715198885521255199
C_0000392862032974654098 <|-- C_0001043558538217339860
C_0000392862032974654098 <|-- C_0001575466569642291511

'Generated with clang-uml, version 0.4.0-14-g26abb71
'LLVM version Ubuntu clang version 15.0.7
@enduml
