@startuml
title clang-uml diagram element class inheritance model
package [common] as C_0000316605034920222648 {
package [model] as C_0000083721806430512831 {
class "decorated_element" as C_0001117102382624673118
class C_0001117102382624673118 [[https://github.com/bkryza/clang-uml/blob/3d8a0ce428ce6b5e1e0585247ac90a82960dee8e/src/common/model/decorated_element.h#L37{decorated_element}]] {
__
}
class "relationship" as C_0002046336758797367926
class C_0002046336758797367926 [[https://github.com/bkryza/clang-uml/blob/3d8a0ce428ce6b5e1e0585247ac90a82960dee8e/src/common/model/relationship.h#L28{relationship}]] {
__
}
class "source_location" as C_0000895261582183440230
class C_0000895261582183440230 [[https://github.com/bkryza/clang-uml/blob/3d8a0ce428ce6b5e1e0585247ac90a82960dee8e/src/common/model/source_location.h#L25{source_location}]] {
__
}
class "diagram_element" as C_0001073500714379115414
class C_0001073500714379115414 [[https://github.com/bkryza/clang-uml/blob/3d8a0ce428ce6b5e1e0585247ac90a82960dee8e/src/common/model/diagram_element.h#L34{diagram_element}]] {
__
}
class "element" as C_0002069520381434407937
class C_0002069520381434407937 [[https://github.com/bkryza/clang-uml/blob/3d8a0ce428ce6b5e1e0585247ac90a82960dee8e/src/common/model/element.h#L35{element}]] {
__
}
class "source_file" as C_0000785714713072053129
class C_0000785714713072053129 [[https://github.com/bkryza/clang-uml/blob/3d8a0ce428ce6b5e1e0585247ac90a82960dee8e/src/common/model/source_file.h#L51{source_file}]] {
__
}
class "package" as C_0002143286684830686854
class C_0002143286684830686854 [[https://github.com/bkryza/clang-uml/blob/3d8a0ce428ce6b5e1e0585247ac90a82960dee8e/src/common/model/package.h#L35{package}]] {
__
}
}
}
package [sequence_diagram] as C_0001521862840957629236 {
package [model] as C_0002206969880830639264 {
class "participant" as C_0001400215772842495226
class C_0001400215772842495226 [[https://github.com/bkryza/clang-uml/blob/3d8a0ce428ce6b5e1e0585247ac90a82960dee8e/src/sequence_diagram/model/participant.h#L31{participant}]] {
__
}
class "class_" as C_0000885514871619471610
class C_0000885514871619471610 [[https://github.com/bkryza/clang-uml/blob/3d8a0ce428ce6b5e1e0585247ac90a82960dee8e/src/sequence_diagram/model/participant.h#L58{class_}]] {
__
}
class "lambda" as C_0001701531547288995691
class C_0001701531547288995691 [[https://github.com/bkryza/clang-uml/blob/3d8a0ce428ce6b5e1e0585247ac90a82960dee8e/src/sequence_diagram/model/participant.h#L104{lambda}]] {
__
}
class "function" as C_0000232638456031681828
class C_0000232638456031681828 [[https://github.com/bkryza/clang-uml/blob/3d8a0ce428ce6b5e1e0585247ac90a82960dee8e/src/sequence_diagram/model/participant.h#L110{function}]] {
__
}
class "method" as C_0000817665972547784504
class C_0000817665972547784504 [[https://github.com/bkryza/clang-uml/blob/3d8a0ce428ce6b5e1e0585247ac90a82960dee8e/src/sequence_diagram/model/participant.h#L151{method}]] {
__
}
class "function_template" as C_0002280191967493310558
class C_0002280191967493310558 [[https://github.com/bkryza/clang-uml/blob/3d8a0ce428ce6b5e1e0585247ac90a82960dee8e/src/sequence_diagram/model/participant.h#L187{function_template}]] {
__
}
class "message" as C_0002228653068706235818
class C_0002228653068706235818 [[https://github.com/bkryza/clang-uml/blob/3d8a0ce428ce6b5e1e0585247ac90a82960dee8e/src/sequence_diagram/model/message.h#L28{message}]] {
__
}
}
}
package [class_diagram] as C_0002240167036201725606 {
package [model] as C_0000897124234964432620 {
class "class_element" as C_0000605866861866358037
class C_0000605866861866358037 [[https://github.com/bkryza/clang-uml/blob/3d8a0ce428ce6b5e1e0585247ac90a82960dee8e/src/class_diagram/model/class_element.h#L29{class_element}]] {
__
}
class "class_member" as C_0001796282762108527255
class C_0001796282762108527255 [[https://github.com/bkryza/clang-uml/blob/3d8a0ce428ce6b5e1e0585247ac90a82960dee8e/src/class_diagram/model/class_member.h#L26{class_member}]] {
__
}
class "method_parameter" as C_0000605669033368926050
class C_0000605669033368926050 [[https://github.com/bkryza/clang-uml/blob/3d8a0ce428ce6b5e1e0585247ac90a82960dee8e/src/class_diagram/model/method_parameter.h#L28{method_parameter}]] {
__
}
class "class_method" as C_0000204145716468348671
class C_0000204145716468348671 [[https://github.com/bkryza/clang-uml/blob/3d8a0ce428ce6b5e1e0585247ac90a82960dee8e/src/class_diagram/model/class_method.h#L32{class_method}]] {
__
}
class "class_" as C_0001292034357466653182
class C_0001292034357466653182 [[https://github.com/bkryza/clang-uml/blob/3d8a0ce428ce6b5e1e0585247ac90a82960dee8e/src/class_diagram/model/class.h#L35{class_}]] {
__
}
class "concept_" as C_0001374849051752224500
class C_0001374849051752224500 [[https://github.com/bkryza/clang-uml/blob/3d8a0ce428ce6b5e1e0585247ac90a82960dee8e/src/class_diagram/model/concept.h#L37{concept_}]] {
__
}
class "enum_" as C_0000724392977093650506
class C_0000724392977093650506 [[https://github.com/bkryza/clang-uml/blob/3d8a0ce428ce6b5e1e0585247ac90a82960dee8e/src/class_diagram/model/enum.h#L27{enum_}]] {
__
}
}
}
C_0001117102382624673118 <|-- C_0002046336758797367926
C_0001073500714379115414 o-- C_0002046336758797367926 : -relationships_
C_0001117102382624673118 <|-- C_0001073500714379115414
C_0000895261582183440230 <|-- C_0001073500714379115414
C_0001073500714379115414 <|-- C_0002069520381434407937
C_0001073500714379115414 <|-- C_0000785714713072053129
C_0002069520381434407937 <|-- C_0002143286684830686854
C_0002069520381434407937 <|-- C_0001400215772842495226
C_0001400215772842495226 <|-- C_0000885514871619471610
C_0000885514871619471610 <|-- C_0001701531547288995691
C_0001400215772842495226 <|-- C_0000232638456031681828
C_0000232638456031681828 <|-- C_0000817665972547784504
C_0000232638456031681828 <|-- C_0002280191967493310558
C_0001073500714379115414 <|-- C_0002228653068706235818
C_0001117102382624673118 <|-- C_0000605866861866358037
C_0000895261582183440230 <|-- C_0000605866861866358037
C_0000605866861866358037 <|-- C_0001796282762108527255
C_0001117102382624673118 <|-- C_0000605669033368926050
C_0000204145716468348671 o-- C_0000605669033368926050 : -parameters_
C_0000605866861866358037 <|-- C_0000204145716468348671
C_0001292034357466653182 o-- C_0001796282762108527255 : -members_
C_0001292034357466653182 o-- C_0000204145716468348671 : -methods_
C_0002069520381434407937 <|-- C_0001292034357466653182
C_0001374849051752224500 o-- C_0000605669033368926050 : -requires_parameters_
C_0002069520381434407937 <|-- C_0001374849051752224500
C_0002069520381434407937 <|-- C_0000724392977093650506

'Generated with clang-uml, version 0.3.7-36-g13ea67c
'LLVM version Ubuntu clang version 15.0.6
@enduml
