@startuml
title Diagram filter visitor class hierarchy
left to right direction
package [common] as C_0000316605034920222648 {
package [model] as C_0000083721806430512831 {
class "filter_visitor" as C_0000469458052685692314
class C_0000469458052685692314 [[classclanguml_1_1common_1_1model_1_1filter__visitor.html{Base class for any diagram filter.}]] {
__
}
class "anyof_filter" as C_0000605829206649563575
class C_0000605829206649563575 [[structclanguml_1_1common_1_1model_1_1anyof__filter.html{anyof_filter}]] {
__
}
class "namespace_filter" as C_0001816240256470820189
class C_0001816240256470820189 [[structclanguml_1_1common_1_1model_1_1namespace__filter.html{namespace_filter}]] {
__
}
class "element_filter" as C_0000690341236618660423
class C_0000690341236618660423 [[structclanguml_1_1common_1_1model_1_1element__filter.html{element_filter}]] {
__
}
class "element_type_filter" as C_0002051668456717902300
class C_0002051668456717902300 [[structclanguml_1_1common_1_1model_1_1element__type__filter.html{element_type_filter}]] {
__
}
class "method_type_filter" as C_0001897369211795036987
class C_0001897369211795036987 [[structclanguml_1_1common_1_1model_1_1method__type__filter.html{method_type_filter}]] {
__
}
class "callee_filter" as C_0001198341195117879139
class C_0001198341195117879139 [[structclanguml_1_1common_1_1model_1_1callee__filter.html{callee_filter}]] {
__
}
class "subclass_filter" as C_0001389919526184251760
class C_0001389919526184251760 [[structclanguml_1_1common_1_1model_1_1subclass__filter.html{subclass_filter}]] {
__
}
class "parents_filter" as C_0001773753487119877542
class C_0001773753487119877542 [[structclanguml_1_1common_1_1model_1_1parents__filter.html{parents_filter}]] {
__
}
class "edge_traversal_filter<DiagramT,ElementT,ConfigEntryT=std::string,MatchOverrideT=common::model::element>" as C_0001497352705437766113
class C_0001497352705437766113 [[structclanguml_1_1common_1_1model_1_1edge__traversal__filter.html{Common template for filters involving traversing relationship graph.}]] {
__
}
class "relationship_filter" as C_0001195713008101262477
class C_0001195713008101262477 [[structclanguml_1_1common_1_1model_1_1relationship__filter.html{relationship_filter}]] {
__
}
class "access_filter" as C_0001098184343448999590
class C_0001098184343448999590 [[structclanguml_1_1common_1_1model_1_1access__filter.html{access_filter}]] {
__
}
class "context_filter" as C_0002078668697238559556
class C_0002078668697238559556 [[structclanguml_1_1common_1_1model_1_1context__filter.html{context_filter}]] {
__
}
class "paths_filter" as C_0000831536458766184760
class C_0000831536458766184760 [[structclanguml_1_1common_1_1model_1_1paths__filter.html{paths_filter}]] {
__
}
class "class_method_filter" as C_0001578839365087446026
class C_0001578839365087446026 [[structclanguml_1_1common_1_1model_1_1class__method__filter.html{class_method_filter}]] {
__
}
class "class_member_filter" as C_0000676683242499586467
class C_0000676683242499586467 [[structclanguml_1_1common_1_1model_1_1class__member__filter.html{class_member_filter}]] {
__
}
}
}
C_0000605829206649563575 o-- C_0000469458052685692314 : -filters_
C_0000469458052685692314 <|-- C_0000605829206649563575
C_0000469458052685692314 <|-- C_0001816240256470820189
C_0000469458052685692314 <|-- C_0000690341236618660423
C_0000469458052685692314 <|-- C_0002051668456717902300
C_0000469458052685692314 <|-- C_0001897369211795036987
C_0000469458052685692314 <|-- C_0001198341195117879139
C_0000469458052685692314 <|-- C_0001389919526184251760
C_0000469458052685692314 <|-- C_0001773753487119877542
C_0000469458052685692314 <|-- C_0001497352705437766113
C_0000469458052685692314 <|-- C_0001195713008101262477
C_0000469458052685692314 <|-- C_0001098184343448999590
C_0000469458052685692314 <|-- C_0002078668697238559556
C_0000469458052685692314 <|-- C_0000831536458766184760
C_0001578839365087446026 o-- C_0001098184343448999590 : -access_filter_
C_0001578839365087446026 o-- C_0001897369211795036987 : -method_type_filter_
C_0000469458052685692314 <|-- C_0001578839365087446026
C_0000676683242499586467 o-- C_0001098184343448999590 : -access_filter_
C_0000469458052685692314 <|-- C_0000676683242499586467

'Generated with clang-uml, version 0.4.0-7-g8a6b497
'LLVM version Ubuntu clang version 16.0.6 (++20230710042027+7cbf1a259152-1~exp1~20230710162048.105)
@enduml
