@startuml
title ui/ozone class diagram
package [ui] as C_0006015631303731670575 {
package [gfx] as C_0002709692398415303095 {
class "Event" as C_0001560354530899298516
class C_0001560354530899298516 [[https://github.com/chromium/chromium/blob/83a7a90b87f5e2e225d9d1127dc12e20e33b7eca/ui/gfx/native_widget_types.h#L66{Event}]] {
__
}
class "Cursor" as C_0009501811314072780178
class C_0009501811314072780178 [[https://github.com/chromium/chromium/blob/83a7a90b87f5e2e225d9d1127dc12e20e33b7eca/ui/gfx/native_widget_types.h#L65{Cursor}]] {
__
}
}
package [ozone] as C_0007976996443577571291 {
package [public] as C_0017102545715229744032 {
class "OverlayManagerOzone" as C_0006720170255713995651
class C_0006720170255713995651 [[https://github.com/chromium/chromium/blob/83a7a90b87f5e2e225d9d1127dc12e20e33b7eca/ui/ozone/public/overlay_manager_ozone.h#L18{OverlayManagerOzone}]] {
__
}
class "HardwareCapabilities" as C_0009574020987207465619
class C_0009574020987207465619 [[https://github.com/chromium/chromium/blob/83a7a90b87f5e2e225d9d1127dc12e20e33b7eca/ui/ozone/public/hardware_capabilities.h#L15{HardwareCapabilities}]] {
__
}
class "OverlaySurfaceCandidate" as C_0017083114184707118528
class C_0017083114184707118528 [[https://github.com/chromium/chromium/blob/83a7a90b87f5e2e225d9d1127dc12e20e33b7eca/ui/ozone/public/overlay_surface_candidate.h#L35{OverlaySurfaceCandidate}]] {
__
}
class "OverlayCandidatesOzone" as C_0008617445172713084942
class C_0008617445172713084942 [[https://github.com/chromium/chromium/blob/83a7a90b87f5e2e225d9d1127dc12e20e33b7eca/ui/ozone/public/overlay_candidates_ozone.h#L20{OverlayCandidatesOzone}]] {
__
}
class "PlatformKeyboardHook" as C_0007124981607034438186
class C_0007124981607034438186 [[https://github.com/chromium/chromium/blob/83a7a90b87f5e2e225d9d1127dc12e20e33b7eca/ui/ozone/public/platform_keyboard_hook.h#L20{PlatformKeyboardHook}]] {
__
}
class "KeyEvent" as C_0016586209028957398243
class C_0016586209028957398243 [[https://github.com/chromium/chromium/blob/83a7a90b87f5e2e225d9d1127dc12e20e33b7eca/ui/ozone/public/platform_keyboard_hook.h#L14{KeyEvent}]] {
__
}
class "OzoneGpuTestHelper" as C_0009354159824477331647
class C_0009354159824477331647 [[https://github.com/chromium/chromium/blob/83a7a90b87f5e2e225d9d1127dc12e20e33b7eca/ui/ozone/public/ozone_gpu_test_helper.h#L20{OzoneGpuTestHelper}]] {
__
}
class "GpuPlatformSupportHost" as C_0007869609647831050120
class C_0007869609647831050120 [[https://github.com/chromium/chromium/blob/83a7a90b87f5e2e225d9d1127dc12e20e33b7eca/ui/ozone/public/gpu_platform_support_host.h#L25{GpuPlatformSupportHost}]] {
__
}
class "OzonePlatform" as C_0013974542628630100263
class C_0013974542628630100263 [[https://github.com/chromium/chromium/blob/83a7a90b87f5e2e225d9d1127dc12e20e33b7eca/ui/ozone/public/ozone_platform.h#L67{OzonePlatform}]] {
__
}
class "OzonePlatform::InitParams" as C_0013385087830880456010
class C_0013385087830880456010 [[https://github.com/chromium/chromium/blob/83a7a90b87f5e2e225d9d1127dc12e20e33b7eca/ui/ozone/public/ozone_platform.h#L78{OzonePlatform##InitParams}]] {
__
}
class "OzonePlatform::PlatformProperties" as C_0008471186767549319871
class C_0008471186767549319871 [[https://github.com/chromium/chromium/blob/83a7a90b87f5e2e225d9d1127dc12e20e33b7eca/ui/ozone/public/ozone_platform.h#L105{OzonePlatform##PlatformProperties}]] {
__
}
class "OzonePlatform::PlatformRuntimeProperties" as C_0007383831120096252829
class C_0007383831120096252829 [[https://github.com/chromium/chromium/blob/83a7a90b87f5e2e225d9d1127dc12e20e33b7eca/ui/ozone/public/ozone_platform.h#L160{OzonePlatform##PlatformRuntimeProperties}]] {
__
}
class "FakeGpuConnection" as C_0003880267428062035235
class C_0003880267428062035235 [[https://github.com/chromium/chromium/blob/83a7a90b87f5e2e225d9d1127dc12e20e33b7eca/ui/ozone/public/ozone_gpu_test_helper.cc#L19{FakeGpuConnection}]] {
__
}
class "InputMethod" as C_0001349756934800766011
class C_0001349756934800766011 [[https://github.com/chromium/chromium/blob/83a7a90b87f5e2e225d9d1127dc12e20e33b7eca/ui/ozone/public/ozone_platform.h#L35{InputMethod}]] {
__
}
class "SystemInputInjector" as C_0003744671689002308611
class C_0003744671689002308611 [[https://github.com/chromium/chromium/blob/83a7a90b87f5e2e225d9d1127dc12e20e33b7eca/ui/ozone/public/ozone_platform.h#L49{SystemInputInjector}]] {
__
}
class "PlatformClipboard" as C_0003850891060952606538
class C_0003850891060952606538 [[https://github.com/chromium/chromium/blob/83a7a90b87f5e2e225d9d1127dc12e20e33b7eca/ui/ozone/public/ozone_platform.h#L39{PlatformClipboard}]] {
__
}
class "PlatformGLEGLUtility" as C_0006623944193520312987
class C_0006623944193520312987 [[https://github.com/chromium/chromium/blob/83a7a90b87f5e2e225d9d1127dc12e20e33b7eca/ui/ozone/public/ozone_platform.h#L40{PlatformGLEGLUtility}]] {
__
}
class "PlatformWindowInitProperties" as C_0007048084360952612282
class C_0007048084360952612282 [[https://github.com/chromium/chromium/blob/83a7a90b87f5e2e225d9d1127dc12e20e33b7eca/ui/ozone/public/ozone_platform.h#L51{PlatformWindowInitProperties}]] {
__
}
class "OzonePlatformTest" as C_0008620988916758919092
class C_0008620988916758919092 [[https://github.com/chromium/chromium/blob/83a7a90b87f5e2e225d9d1127dc12e20e33b7eca/ui/ozone/public/ozone_platform.h#L386{OzonePlatformTest}]] {
__
}
class "PlatformScreen" as C_0009922659369882718912
class C_0009922659369882718912 [[https://github.com/chromium/chromium/blob/83a7a90b87f5e2e225d9d1127dc12e20e33b7eca/ui/ozone/public/ozone_platform.h#L45{PlatformScreen}]] {
__
}
class "PlatformGlobalShortcutListenerDelegate" as C_0010316498341824830597
class C_0010316498341824830597 [[https://github.com/chromium/chromium/blob/83a7a90b87f5e2e225d9d1127dc12e20e33b7eca/ui/ozone/public/ozone_platform.h#L42{PlatformGlobalShortcutListenerDelegate}]] {
__
}
class "CursorFactory" as C_0010521917352373308079
class C_0010521917352373308079 [[https://github.com/chromium/chromium/blob/83a7a90b87f5e2e225d9d1127dc12e20e33b7eca/ui/ozone/public/ozone_platform.h#L32{CursorFactory}]] {
__
}
class "InputController" as C_0010663384974284926767
class C_0010663384974284926767 [[https://github.com/chromium/chromium/blob/83a7a90b87f5e2e225d9d1127dc12e20e33b7eca/ui/ozone/public/ozone_platform.h#L36{InputController}]] {
__
}
class "PlatformGlobalShortcutListener" as C_0014901639968491703656
class C_0014901639968491703656 [[https://github.com/chromium/chromium/blob/83a7a90b87f5e2e225d9d1127dc12e20e33b7eca/ui/ozone/public/ozone_platform.h#L41{PlatformGlobalShortcutListener}]] {
__
}
class "PlatformMenuUtils" as C_0015826754122195187871
class C_0015826754122195187871 [[https://github.com/chromium/chromium/blob/83a7a90b87f5e2e225d9d1127dc12e20e33b7eca/ui/ozone/public/ozone_platform.h#L44{PlatformMenuUtils}]] {
__
}
class "PlatformUtils" as C_0015876664310856567257
class C_0015876664310856567257 [[https://github.com/chromium/chromium/blob/83a7a90b87f5e2e225d9d1127dc12e20e33b7eca/ui/ozone/public/ozone_platform.h#L47{PlatformUtils}]] {
__
}
class "ImeKeyEventDispatcher" as C_0016648064370675956985
class C_0016648064370675956985 [[https://github.com/chromium/chromium/blob/83a7a90b87f5e2e225d9d1127dc12e20e33b7eca/ui/ozone/public/ozone_platform.h#L34{ImeKeyEventDispatcher}]] {
__
}
class "SurfaceFactoryOzone" as C_0017173259636865863392
class C_0017173259636865863392 [[https://github.com/chromium/chromium/blob/83a7a90b87f5e2e225d9d1127dc12e20e33b7eca/ui/ozone/public/ozone_platform.h#L48{SurfaceFactoryOzone}]] {
__
}
class "PlatformUserInputMonitor" as C_0017405322511774503942
class C_0017405322511774503942 [[https://github.com/chromium/chromium/blob/83a7a90b87f5e2e225d9d1127dc12e20e33b7eca/ui/ozone/public/ozone_platform.h#L46{PlatformUserInputMonitor}]] {
__
}
class "OverlayPlane" as C_0002695608960268268717
class C_0002695608960268268717 [[https://github.com/chromium/chromium/blob/83a7a90b87f5e2e225d9d1127dc12e20e33b7eca/ui/ozone/public/overlay_plane.h#L24{OverlayPlane}]] {
__
}
class "PlatformScreen::PlatformScreenSaverSuspender" as C_0015850668557981728063
class C_0015850668557981728063 [[https://github.com/chromium/chromium/blob/83a7a90b87f5e2e225d9d1127dc12e20e33b7eca/ui/ozone/public/platform_screen.h#L97{PlatformScreen##PlatformScreenSaverSuspender}]] {
__
}
class "NativePixmapGLBinding" as C_0012080075042236977593
class C_0012080075042236977593 [[https://github.com/chromium/chromium/blob/83a7a90b87f5e2e225d9d1127dc12e20e33b7eca/ui/ozone/public/native_pixmap_gl_binding.h#L17{NativePixmapGLBinding}]] {
__
}
class "GLOzone" as C_0017519096374626853001
class C_0017519096374626853001 [[https://github.com/chromium/chromium/blob/83a7a90b87f5e2e225d9d1127dc12e20e33b7eca/ui/ozone/public/gl_ozone.h#L39{GLOzone}]] {
__
}
class "DrmModifiersFilter" as C_0013651421583161468342
class C_0013651421583161468342 [[https://github.com/chromium/chromium/blob/83a7a90b87f5e2e225d9d1127dc12e20e33b7eca/ui/ozone/public/drm_modifiers_filter.h#L27{DrmModifiersFilter}]] {
__
}
class "OverlaySurface" as C_0013223476182090393593
class C_0013223476182090393593 [[https://github.com/chromium/chromium/blob/83a7a90b87f5e2e225d9d1127dc12e20e33b7eca/ui/ozone/public/overlay_surface.h#L24{OverlaySurface}]] {
__
}
class "PlatformWindowSurface" as C_0004958246259739647958
class C_0004958246259739647958 [[https://github.com/chromium/chromium/blob/83a7a90b87f5e2e225d9d1127dc12e20e33b7eca/ui/ozone/public/platform_window_surface.h#L41{PlatformWindowSurface}]] {
__
}
class "SurfaceOzoneCanvas" as C_0011792440492911717934
class C_0011792440492911717934 [[https://github.com/chromium/chromium/blob/83a7a90b87f5e2e225d9d1127dc12e20e33b7eca/ui/ozone/public/surface_ozone_canvas.h#L29{SurfaceOzoneCanvas}]] {
__
}
class "StubGpuPlatformSupportHost" as C_0012728583447254431301
class C_0012728583447254431301 [[https://github.com/chromium/chromium/blob/83a7a90b87f5e2e225d9d1127dc12e20e33b7eca/ui/ozone/public/gpu_platform_support_host.cc#L14{StubGpuPlatformSupportHost}]] {
__
}
class "ScopedDisableInputDevices" as C_0017685940239464133456
class C_0017685940239464133456 [[https://github.com/chromium/chromium/blob/83a7a90b87f5e2e225d9d1127dc12e20e33b7eca/ui/ozone/public/input_controller.h#L37{ScopedDisableInputDevices}]] {
__
}
class "StubInputController" as C_0006428116923036012840
class C_0006428116923036012840 [[https://github.com/chromium/chromium/blob/83a7a90b87f5e2e225d9d1127dc12e20e33b7eca/ui/ozone/public/input_controller.cc#L18{StubInputController}]] {
__
}
class "StubInputController::ScopedDisableInputDevicesImpl" as C_0015154652690739286254
class C_0015154652690739286254 [[https://github.com/chromium/chromium/blob/83a7a90b87f5e2e225d9d1127dc12e20e33b7eca/ui/ozone/public/input_controller.cc#L27{StubInputController##ScopedDisableInputDevicesImpl}]] {
__
}
class "OzoneUIControlsTestHelper" as C_0015498267586062665470
class C_0015498267586062665470 [[https://github.com/chromium/chromium/blob/83a7a90b87f5e2e225d9d1127dc12e20e33b7eca/ui/ozone/public/ozone_ui_controls_test_helper.h#L22{OzoneUIControlsTestHelper}]] {
__
}
}
package [common] as C_0013185361882790657184 {
class "StubOverlayManager" as C_0002558788374252750499
class C_0002558788374252750499 [[https://github.com/chromium/chromium/blob/83a7a90b87f5e2e225d9d1127dc12e20e33b7eca/ui/ozone/common/stub_overlay_manager.h#L14{StubOverlayManager}]] {
__
}
class "GLSurfaceEglReadback" as C_0003296534946636888290
class C_0003296534946636888290 [[https://github.com/chromium/chromium/blob/83a7a90b87f5e2e225d9d1127dc12e20e33b7eca/ui/ozone/common/gl_surface_egl_readback.h#L23{GLSurfaceEglReadback}]] {
__
}
class "StubClientNativePixmapFactory" as C_0017601494408334880352
class C_0017601494408334880352 [[https://github.com/chromium/chromium/blob/83a7a90b87f5e2e225d9d1127dc12e20e33b7eca/ui/ozone/common/stub_client_native_pixmap_factory.cc#L15{StubClientNativePixmapFactory}]] {
__
}
class "BitmapCursor" as C_0005329650389765393926
class C_0005329650389765393926 [[https://github.com/chromium/chromium/blob/83a7a90b87f5e2e225d9d1127dc12e20e33b7eca/ui/ozone/common/bitmap_cursor.h#L21{BitmapCursor}]] {
__
}
class "NativePixmapEGLBinding" as C_0017766811922860949597
class C_0017766811922860949597 [[https://github.com/chromium/chromium/blob/83a7a90b87f5e2e225d9d1127dc12e20e33b7eca/ui/ozone/common/native_pixmap_egl_binding.h#L19{NativePixmapEGLBinding}]] {
__
}
class "GLOzoneEGL" as C_0012874263326248187156
class C_0012874263326248187156 [[https://github.com/chromium/chromium/blob/83a7a90b87f5e2e225d9d1127dc12e20e33b7eca/ui/ozone/common/gl_ozone_egl.h#L17{GLOzoneEGL}]] {
__
}
class "BitmapCursorFactory" as C_0017768118555356563073
class C_0017768118555356563073 [[https://github.com/chromium/chromium/blob/83a7a90b87f5e2e225d9d1127dc12e20e33b7eca/ui/ozone/common/bitmap_cursor_factory.h#L21{BitmapCursorFactory}]] {
__
}
class "BaseKeyboardHook" as C_0014649883925297808529
class C_0014649883925297808529 [[https://github.com/chromium/chromium/blob/83a7a90b87f5e2e225d9d1127dc12e20e33b7eca/ui/ozone/common/base_keyboard_hook.h#L27{BaseKeyboardHook}]] {
__
}
}
class "PlatformObject<T>" as C_0001894811749768487895
class C_0001894811749768487895 [[https://github.com/chromium/chromium/blob/83a7a90b87f5e2e225d9d1127dc12e20e33b7eca/ui/ozone/platform_object.h#L27{PlatformObject}]] {
__
}
}
package [gl] as C_0018131399912347487953 {
class "GpuSwitchingObserver" as C_0010956225762990155147
class C_0010956225762990155147 [[https://github.com/chromium/chromium/blob/83a7a90b87f5e2e225d9d1127dc12e20e33b7eca/ui/gl/gpu_switching_observer.h#L13{GpuSwitchingObserver}]] {
__
}
class "GpuSwitchingManager" as C_0009016591464487851919
class C_0009016591464487851919 [[https://github.com/chromium/chromium/blob/83a7a90b87f5e2e225d9d1127dc12e20e33b7eca/ui/gl/gpu_switching_manager.h#L18{GpuSwitchingManager}]] {
__
}
class "CARendererLayerParams" as C_0012004552395925891897
class C_0012004552395925891897 [[https://github.com/chromium/chromium/blob/83a7a90b87f5e2e225d9d1127dc12e20e33b7eca/ui/gl/presenter.h#L47{CARendererLayerParams}]] {
__
}
}
package [events] as C_0000293179048903622679 {
package [devices] as C_0017055969350007367643 {
class "DeviceHotplugEventObserver" as C_0012910572074566781752
class C_0012910572074566781752 [[https://github.com/chromium/chromium/blob/83a7a90b87f5e2e225d9d1127dc12e20e33b7eca/ui/events/devices/device_hotplug_event_observer.h#L21{DeviceHotplugEventObserver}]] {
__
}
class "InputDevice" as C_0003285825569743126134
class C_0003285825569743126134 [[https://github.com/chromium/chromium/blob/83a7a90b87f5e2e225d9d1127dc12e20e33b7eca/ui/events/devices/input_device.h#L29{InputDevice}]] {
__
}
class "KeyboardDevice" as C_0010294661706910233546
class C_0010294661706910233546 [[https://github.com/chromium/chromium/blob/83a7a90b87f5e2e225d9d1127dc12e20e33b7eca/ui/events/devices/keyboard_device.h#L14{KeyboardDevice}]] {
__
}
class "TouchDeviceTransform" as C_0009913461007170510645
class C_0009913461007170510645 [[https://github.com/chromium/chromium/blob/83a7a90b87f5e2e225d9d1127dc12e20e33b7eca/ui/events/devices/touch_device_transform.h#L17{TouchDeviceTransform}]] {
__
}
class "TouchpadDevice" as C_0016454917461454861817
class C_0016454917461454861817 [[https://github.com/chromium/chromium/blob/83a7a90b87f5e2e225d9d1127dc12e20e33b7eca/ui/events/devices/touchpad_device.h#L14{TouchpadDevice}]] {
__
}
class "TouchscreenDevice" as C_0014426838772373714641
class C_0014426838772373714641 [[https://github.com/chromium/chromium/blob/83a7a90b87f5e2e225d9d1127dc12e20e33b7eca/ui/events/devices/touchscreen_device.h#L21{TouchscreenDevice}]] {
__
}
class "DeviceDataManager" as C_0010460474119405655428
class C_0010460474119405655428 [[https://github.com/chromium/chromium/blob/83a7a90b87f5e2e225d9d1127dc12e20e33b7eca/ui/events/devices/device_data_manager.h#L29{DeviceDataManager}]] {
__
}
class "InputDeviceEventObserver" as C_0000026050749658760651
class C_0000026050749658760651 [[https://github.com/chromium/chromium/blob/83a7a90b87f5e2e225d9d1127dc12e20e33b7eca/ui/events/devices/device_data_manager.h#L26{InputDeviceEventObserver}]] {
__
}
class "DeviceDataManagerTestApi" as C_0006046734638742973573
class C_0006046734638742973573 [[https://github.com/chromium/chromium/blob/83a7a90b87f5e2e225d9d1127dc12e20e33b7eca/ui/events/devices/device_data_manager.h#L107{DeviceDataManagerTestApi}]] {
__
}
class "DeviceDataManagerTest" as C_0006441632320652867863
class C_0006441632320652867863 [[https://github.com/chromium/chromium/blob/83a7a90b87f5e2e225d9d1127dc12e20e33b7eca/ui/events/devices/device_data_manager.h#L25{DeviceDataManagerTest}]] {
__
}
}
}
package [base] as C_0008075717290354590995 {
class "WindowTiledEdges" as C_0014438071014349296623
class C_0014438071014349296623 [[https://github.com/chromium/chromium/blob/83a7a90b87f5e2e225d9d1127dc12e20e33b7eca/ui/base/ui_base_types.h#L37{WindowTiledEdges}]] {
__
}
class "ClassProperty<T>" as C_0003560248179536117537
class C_0003560248179536117537 [[https://github.com/chromium/chromium/blob/83a7a90b87f5e2e225d9d1127dc12e20e33b7eca/ui/base/class_property.h#L70{ClassProperty}]] {
__
}
class "PropertyHandler" as C_0014123125489500529321
class C_0014123125489500529321 [[https://github.com/chromium/chromium/blob/83a7a90b87f5e2e225d9d1127dc12e20e33b7eca/ui/base/class_property.h#L83{PropertyHandler}]] {
__
}
class "PropertyHandler::Value" as C_0002029433289759059245
class C_0002029433289759059245 [[https://github.com/chromium/chromium/blob/83a7a90b87f5e2e225d9d1127dc12e20e33b7eca/ui/base/class_property.h#L167{PropertyHandler##Value}]] {
__
}
class "ClassPropertyCaster<T>" as C_0008442087935316007712
class C_0008442087935316007712 [[https://github.com/chromium/chromium/blob/83a7a90b87f5e2e225d9d1127dc12e20e33b7eca/ui/base/class_property.h#L179{ClassPropertyCaster}]] {
__
}
class "ClassPropertyCaster<T *>" as C_0013409359212391051007
class C_0013409359212391051007 [[https://github.com/chromium/chromium/blob/83a7a90b87f5e2e225d9d1127dc12e20e33b7eca/ui/base/class_property.h#L185{ClassPropertyCaster}]] {
__
}
class "ClassPropertyCaster<base::TimeDelta>" as C_0009921427787891976245
class C_0009921427787891976245 [[https://github.com/chromium/chromium/blob/83a7a90b87f5e2e225d9d1127dc12e20e33b7eca/ui/base/class_property.h#L191{ClassPropertyCaster}]] {
__
}
class "ClassPropertyCaster<float>" as C_0001432030145703948330
class C_0001432030145703948330 [[https://github.com/chromium/chromium/blob/83a7a90b87f5e2e225d9d1127dc12e20e33b7eca/ui/base/class_property.h#L197{ClassPropertyCaster}]] {
__
}
class "PropertyHelper" as C_0010720617258079439186
class C_0010720617258079439186 [[https://github.com/chromium/chromium/blob/83a7a90b87f5e2e225d9d1127dc12e20e33b7eca/ui/base/class_property.h#L215{PropertyHelper}]] {
__
}
package [cursor] as C_0015354997639924044815 {
class "PlatformCursor" as C_0017737036712140491157
class C_0017737036712140491157 [[https://github.com/chromium/chromium/blob/83a7a90b87f5e2e225d9d1127dc12e20e33b7eca/ui/base/cursor/platform_cursor.h#L24{PlatformCursor}]] {
__
}
class "CursorFactoryObserver" as C_0009027314497349000928
class C_0009027314497349000928 [[https://github.com/chromium/chromium/blob/83a7a90b87f5e2e225d9d1127dc12e20e33b7eca/ui/base/cursor/cursor_factory.h#L34{CursorFactoryObserver}]] {
__
}
class "CursorFactory" as C_0010521917352373308079
class C_0010521917352373308079 [[https://github.com/chromium/chromium/blob/83a7a90b87f5e2e225d9d1127dc12e20e33b7eca/ui/base/cursor/cursor_factory.h#L42{CursorFactory}]] {
__
}
class "CursorData" as C_0000428207514429900038
class C_0000428207514429900038 [[https://github.com/chromium/chromium/blob/83a7a90b87f5e2e225d9d1127dc12e20e33b7eca/ui/base/cursor/cursor_factory.h#L32{CursorData}]] {
__
}
}
}
package [platform_window] as C_0014170237458596549576 {
class "PlatformWindowDelegate" as C_0004133948817376201184
class C_0004133948817376201184 [[https://github.com/chromium/chromium/blob/83a7a90b87f5e2e225d9d1127dc12e20e33b7eca/ui/platform_window/platform_window_delegate.h#L80{PlatformWindowDelegate}]] {
__
}
class "PlatformWindowDelegate::BoundsChange" as C_0001578780003290312319
class C_0001578780003290312319 [[https://github.com/chromium/chromium/blob/83a7a90b87f5e2e225d9d1127dc12e20e33b7eca/ui/platform_window/platform_window_delegate.h#L82{PlatformWindowDelegate##BoundsChange}]] {
__
}
class "PlatformWindowDelegate::State" as C_0004818591307195361075
class C_0004818591307195361075 [[https://github.com/chromium/chromium/blob/83a7a90b87f5e2e225d9d1127dc12e20e33b7eca/ui/platform_window/platform_window_delegate.h#L114{PlatformWindowDelegate##State}]] {
__
}
class "PlatformWindow" as C_0014641466677610233161
class C_0014641466677610233161 [[https://github.com/chromium/chromium/blob/83a7a90b87f5e2e225d9d1127dc12e20e33b7eca/ui/platform_window/platform_window.h#L33{PlatformWindow}]] {
__
}
class "OwnedWindowAnchor" as C_0003617341143175913478
class C_0003617341143175913478 [[https://github.com/chromium/chromium/blob/83a7a90b87f5e2e225d9d1127dc12e20e33b7eca/ui/platform_window/platform_window_delegate.h#L29{OwnedWindowAnchor}]] {
__
}
class "PlatformCursor" as C_0017737036712140491157
class C_0017737036712140491157 [[https://github.com/chromium/chromium/blob/83a7a90b87f5e2e225d9d1127dc12e20e33b7eca/ui/platform_window/platform_window.h#L30{PlatformCursor}]] {
__
}
}
}
package [base] as C_0004833921248397714067 {
package [memory] as C_0002228852557483983698 {
class "MenuModel" as C_0012415020901837511953
class C_0012415020901837511953 [[https://github.com/chromium/chromium/blob/83a7a90b87f5e2e225d9d1127dc12e20e33b7eca/base/memory/weak_ptr.h#L99{MenuModel}]] {
__
}
class "TextInputClient" as C_0018263060761883512488
class C_0018263060761883512488 [[https://github.com/chromium/chromium/blob/83a7a90b87f5e2e225d9d1127dc12e20e33b7eca/base/memory/weak_ptr.h#L100{TextInputClient}]] {
__
}
}
package [threading] as C_0006481933066944110066 {
class "DrmThreadProxy" as C_0003774458477938054078
class C_0003774458477938054078 [[https://github.com/chromium/chromium/blob/83a7a90b87f5e2e225d9d1127dc12e20e33b7eca/base/threading/thread_restrictions.h#L427{DrmThreadProxy}]] {
__
}
class "WindowResizeHelperMac" as C_0004059382828145806950
class C_0004059382828145806950 [[https://github.com/chromium/chromium/blob/83a7a90b87f5e2e225d9d1127dc12e20e33b7eca/base/threading/thread_restrictions.h#L431{WindowResizeHelperMac}]] {
__
}
class "DrmDisplayHostManager" as C_0013126539894903363415
class C_0013126539894903363415 [[https://github.com/chromium/chromium/blob/83a7a90b87f5e2e225d9d1127dc12e20e33b7eca/base/threading/thread_restrictions.h#L428{DrmDisplayHostManager}]] {
__
}
class "ScopedAllowBlockingForGbmSurface" as C_0016480309411675828237
class C_0016480309411675828237 [[https://github.com/chromium/chromium/blob/83a7a90b87f5e2e225d9d1127dc12e20e33b7eca/base/threading/thread_restrictions.h#L429{ScopedAllowBlockingForGbmSurface}]] {
__
}
class "SelectFileDialogLinux" as C_0018041814881952684915
class C_0018041814881952684915 [[https://github.com/chromium/chromium/blob/83a7a90b87f5e2e225d9d1127dc12e20e33b7eca/base/threading/thread_restrictions.h#L430{SelectFileDialogLinux}]] {
__
}
}
}
package [out] as C_0000470894893395316877 {
package [Default] as C_0002154666476228191678 {
package [gen] as C_0002051778635408264036 {
package [ui] as C_0009548242862178299299 {
package [ozone] as C_0012253392169849670637 {
package [public] as C_0000941302366851966138 {
package [mojom] as C_0004116195331134396292 {
class "GesturePropertiesServiceStub<ImplRefTraits>" as C_0009212893232020286744
class C_0009212893232020286744 [[https://github.com/chromium/chromium/blob/83a7a90b87f5e2e225d9d1127dc12e20e33b7eca/out/Default/gen/ui/ozone/public/mojom/gesture_properties_service.mojom.h#L47{GesturePropertiesServiceStub}]] {
__
}
class "GesturePropValueDataView" as C_0013448547815867481135
class C_0013448547815867481135 [[https://github.com/chromium/chromium/blob/83a7a90b87f5e2e225d9d1127dc12e20e33b7eca/out/Default/gen/ui/ozone/public/mojom/gesture_properties_service.mojom-forward.h#L24{GesturePropValueDataView}]] {
__
}
}
}
}
}
}
}
}
C_0009354159824477331647 o-- C_0003880267428062035235 : -fake_gpu_connection_
C_0013974542628630100263 <.. C_0008620988916758919092 : +<<friend>>
C_0013385087830880456010 --+ C_0013974542628630100263
C_0008471186767549319871 --+ C_0013974542628630100263
C_0007383831120096252829 --+ C_0013974542628630100263
C_0010521917352373308079 o-- C_0009027314497349000928 : -observers_
C_0014901639968491703656 o-- C_0010316498341824830597 : -delegate_
C_0015850668557981728063 --+ C_0009922659369882718912
C_0007869609647831050120 <|-- C_0012728583447254431301
C_0010663384974284926767 <|-- C_0006428116923036012840
C_0015154652690739286254 --+ C_0006428116923036012840
C_0017685940239464133456 <|-- C_0015154652690739286254
C_0006720170255713995651 <|-- C_0002558788374252750499
C_0017737036712140491157 <|-- C_0005329650389765393926
C_0012080075042236977593 <|-- C_0017766811922860949597
C_0017519096374626853001 <|-- C_0012874263326248187156
C_0017768118555356563073 o-- C_0005329650389765393926 : -default_cursors_
C_0010521917352373308079 <|-- C_0017768118555356563073
C_0014649883925297808529 --> C_0016586209028957398243 : -key_event_callback_
C_0007124981607034438186 <|-- C_0014649883925297808529
C_0009016591464487851919 o-- C_0010956225762990155147 : -observer_list_
C_0003285825569743126134 <|-- C_0010294661706910233546
C_0003285825569743126134 <|-- C_0016454917461454861817
C_0003285825569743126134 <|-- C_0014426838772373714641
C_0010460474119405655428 o-- C_0014426838772373714641 : -touchscreen_devices_
C_0010460474119405655428 o-- C_0010294661706910233546 : -keyboard_devices_
C_0010460474119405655428 o-- C_0003285825569743126134 : -mouse_devices_
C_0010460474119405655428 o-- C_0003285825569743126134 : -pointing_stick_devices_
C_0010460474119405655428 o-- C_0016454917461454861817 : -touchpad_devices_
C_0010460474119405655428 o-- C_0003285825569743126134 : -graphics_tablet_devices_
C_0010460474119405655428 o-- C_0003285825569743126134 : -uncategorized_devices_
C_0010460474119405655428 o-- C_0000026050749658760651 : -observers_
C_0010460474119405655428 o-- C_0009913461007170510645 : -touch_map_
C_0010460474119405655428 --> C_0010460474119405655428 : -instance_
C_0010460474119405655428 <.. C_0006046734638742973573 : +<<friend>>
C_0010460474119405655428 <.. C_0006441632320652867863 : +<<friend>>
C_0012910572074566781752 <|-- C_0010460474119405655428
C_0014123125489500529321 <.. C_0010720617258079439186 : +<<friend>>
C_0002029433289759059245 --+ C_0014123125489500529321
C_0013409359212391051007 ..|> C_0008442087935316007712
C_0009921427787891976245 ..|> C_0008442087935316007712
C_0001432030145703948330 ..|> C_0008442087935316007712
C_0001578780003290312319 --+ C_0004133948817376201184
C_0004818591307195361075 --+ C_0004133948817376201184
C_0014123125489500529321 <|-- C_0014641466677610233161

'Generated with clang-uml, version 0.5.3-16-gf97d420
'LLVM version Ubuntu clang version 18.1.8 (++20240731024944+3b5b5c1ec4a3-1~exp1~20240731145000.144)
@enduml
