@startuml
title trantor class diagram
class "utils::Hash128" as C_0001166594284895168875
class C_0001166594284895168875 {
__
+bytes : unsigned char[16]
}
class "utils::Hash160" as C_0001016092423778930091
class C_0001016092423778930091 {
__
+bytes : unsigned char[20]
}
class "utils::Hash256" as C_0000080756732781028581
class C_0000080756732781028581 {
__
+bytes : unsigned char[32]
}
class "utils::RngState" as C_0000195316585713148470
class C_0000195316585713148470 {
__
+counter : uint64_t
+prev : utils::Hash256
+secret : utils::Hash256
+time : int64_t
}
class "NonCopyable" as C_0001159823987743494688
class C_0001159823987743494688 {
__
}
class "Date" as C_0002032009232244826154
class C_0002032009232244826154 {
+Date() : void
+Date(int64_t microSec) : void
+Date(unsigned int year, unsigned int month, unsigned int day, unsigned int hour = 0, unsigned int minute = 0, unsigned int second = 0, unsigned int microSecond = 0) : void
+~Date() : void
..
+operator!=(const Date & date) const : bool
+operator<(const Date & date) const : bool
+operator<=(const Date & date) const : bool
+operator==(const Date & date) const : bool
+operator>(const Date & date) const : bool
+operator>=(const Date & date) const : bool
..
+after(double second) const : const Date
{static} +date() : const Date
{static} +fromDbString(const std::string & datetime) : Date
{static} +fromDbStringLocal(const std::string & datetime) : Date
+isSameSecond(const Date & date) const : bool
+microSecondsSinceEpoch() const : int64_t
{static} +now() : const Date
+roundDay() const : const Date
+roundSecond() const : const Date
+secondsSinceEpoch() const : int64_t
+swap(Date & that) : void
{static} +timezoneOffset() : int64_t
+tmStruct() const : struct tm
+toCustomedFormattedString(const std::string & fmtStr, bool showMicroseconds = false) const : std::string
+toCustomedFormattedString(const std::string & fmtStr, char * str, size_t len) const : void
+toCustomedFormattedStringLocal(const std::string & fmtStr, bool showMicroseconds = false) const : std::string
+toDbString() const : std::string
+toDbStringLocal() const : std::string
+toFormattedString(bool showMicroseconds) const : std::string
+toFormattedStringLocal(bool showMicroseconds) const : std::string
__
}
class "detail::FixedBuffer<int SIZE>" as C_0000111393647775817392
class C_0000111393647775817392 {
+FixedBuffer() : void
+~FixedBuffer() : void
..
+add(size_t len) : void
+append(const char * buf, size_t len) : bool
+avail() const : int
+current() : char *
+data() const : const char *
+debugString() : const char *
+length() const : int
+reset() : void
+setCookie(void (*)() cookie) : void
+toString() const : std::string
+zeroBuffer() : void
__
}
class "detail::FixedBuffer<detail::kSmallBuffer>" as C_0000510041652600390686
class C_0000510041652600390686 {
__
}
class "detail::FixedBuffer<4000>" as C_0001754247125147083756
class C_0001754247125147083756 {
+FixedBuffer() : void
+~FixedBuffer() : void
..
+add(size_t len) : void
+append(const char * buf, size_t len) : bool
+avail() const : int
+current() : char *
+data() const : const char *
+debugString() : const char *
+length() const : int
+reset() : void
+setCookie(void (*)() cookie) : void
+toString() const : std::string
+zeroBuffer() : void
__
}
class "detail::FixedBuffer<4000000>" as C_0001042478360162272930
class C_0001042478360162272930 {
+FixedBuffer() : void
+~FixedBuffer() : void
..
+add(size_t len) : void
+append(const char * buf, size_t len) : bool
+avail() const : int
+current() : char *
+data() const : const char *
+debugString() : const char *
+length() const : int
+reset() : void
+setCookie(void (*)() cookie) : void
+toString() const : std::string
+zeroBuffer() : void
__
}
class "LogStream" as C_0001930690020065325250
class C_0001930690020065325250 {
+operator<<(const void *) : LogStream::self &
+operator<<<int N>(const char (&)[N] buf) : LogStream::self &
+operator<<(const std::string & v) : LogStream::self &
+operator<<(const unsigned char * str) : LogStream::self &
+operator<<(const char * str) : LogStream::self &
+operator<<(char * str) : LogStream::self &
+operator<<(char v) : LogStream::self &
+operator<<(const long double & v) : LogStream::self &
+operator<<(const double &) : LogStream::self &
+operator<<(float & v) : LogStream::self &
+operator<<(bool v) : LogStream::self &
+operator<<(const unsigned long long &) : LogStream::self &
+operator<<(const long long &) : LogStream::self &
+operator<<(unsigned long) : LogStream::self &
+operator<<(long) : LogStream::self &
+operator<<(unsigned int) : LogStream::self &
+operator<<(int) : LogStream::self &
+operator<<(unsigned short) : LogStream::self &
+operator<<(short) : LogStream::self &
..
+append(const char * data, size_t len) : void
+bufferData() const : const char *
+bufferLength() const : size_t
+resetBuffer() : void
__
}
class "Fmt" as C_0002131890502232898697
class C_0002131890502232898697 {
+Fmt<T>(const char * fmt, T val) : void
..
+data() const : const char *
+length() const : int
__
}
class "Logger" as C_0002053752992472264214
class C_0002053752992472264214 {
+Logger(Logger::SourceFile file, int line) : void
+Logger(Logger::SourceFile file, int line, Logger::LogLevel level) : void
+Logger(Logger::SourceFile file, int line, bool isSysErr) : void
+Logger(Logger::SourceFile file, int line, Logger::LogLevel level, const char * func) : void
+Logger() : void
+Logger(Logger::LogLevel level) : void
+Logger(bool isSysErr) : void
+~Logger() : void
..
{static} +displayLocalTime() : bool
{static} +logLevel() : Logger::LogLevel
{static} +setDisplayLocalTime(bool showLocalTime) : void
+setIndex(int index) : Logger &
{static} +setLogLevel(Logger::LogLevel level) : void
{static} +setOutputFunction(std::function<void (const char *,const uint64_t)> outputFunc, std::function<void ()> flushFunc, int index = -1) : void
+stream() : LogStream &
__
}
enum "Logger::LogLevel" as C_0002131283840621188296
enum C_0002131283840621188296 {
kTrace
kDebug
kInfo
kWarn
kError
kFatal
kNumberOfLogLevels
}
class "Logger::SourceFile" as C_0000979080797342806546
class C_0000979080797342806546 {
+SourceFile(const char * filename = nullptr) : void
+SourceFile<int N>(const char (&)[N] arr) : void
__
+data_ : const char *
+size_ : int
}
class "RawLogger" as C_0000716430590791918928
class C_0000716430590791918928 {
+~RawLogger() : void
..
+setIndex(int index) : RawLogger &
+stream() : LogStream &
__
}
class "MsgBuffer" as C_0001289495020269537351
class C_0001289495020269537351 {
+MsgBuffer(size_t len = kBufferDefaultLength) : void
..
+operator[](size_t offset) const : const char &
+operator[](size_t offset) : char &
..
+addInFront(const char * buf, size_t len) : void
+addInFrontInt16(const uint16_t s) : void
+addInFrontInt32(const uint32_t i) : void
+addInFrontInt64(const uint64_t l) : void
+addInFrontInt8(const uint8_t b) : void
+append<int N>(const char (&)[N] buf) : void
+append(const std::string & buf) : void
+append(const char * buf, size_t len) : void
+append(const MsgBuffer & buf) : void
+appendInt16(const uint16_t s) : void
+appendInt32(const uint32_t i) : void
+appendInt64(const uint64_t l) : void
+appendInt8(const uint8_t b) : void
+beginWrite() const : const char *
+beginWrite() : char *
+ensureWritableBytes(size_t len) : void
+findCRLF() const : const char *
+hasWritten(size_t len) : void
+peek() const : const char *
+peekInt16() const : uint16_t
+peekInt32() const : uint32_t
+peekInt64() const : uint64_t
+peekInt8() const : uint8_t
+read(size_t len) : std::string
+readFd(int fd, int * retErrno) : ssize_t
+readInt16() : uint16_t
+readInt32() : uint32_t
+readInt64() : uint64_t
+readInt8() : uint8_t
+readableBytes() const : size_t
+retrieve(size_t len) : void
+retrieveAll() : void
+retrieveUntil(const char * end) : void
+swap(MsgBuffer & buf) noexcept : void
+unwrite(size_t offset) : void
+writableBytes() const : size_t
__
}
abstract "TaskQueue" as C_0000684873245997977544
abstract C_0000684873245997977544 {
+~TaskQueue() : void
..
+getName() const : std::string
{abstract} +runTaskInQueue(const std::function<void ()> & task) = 0 : void
{abstract} +runTaskInQueue(std::function<void ()> && task) = 0 : void
+syncTaskInQueue(const std::function<void ()> & task) : void
__
}
class "MpscQueue<T>" as C_0000912667184903365399
class C_0000912667184903365399 {
+MpscQueue() : void
+~MpscQueue() : void
..
+dequeue(T & output) : bool
+empty() : bool
+enqueue(T && input) : void
+enqueue(const T & input) : void
__
}
class "MpscQueue::BufferNode" as C_0000223701637084171141
class C_0000223701637084171141 {
+BufferNode() = default : void
+BufferNode(const T & data) : void
+BufferNode(T && data) : void
__
+dataPtr_ : T *
+next_ : std::atomic<BufferNode *>
}
class "MpscQueue<std::function<void()>>" as C_0002185746167032660910
class C_0002185746167032660910 {
__
}
class "EventLoop" as C_0001390130774830223499
class C_0001390130774830223499 {
+EventLoop() : void
+~EventLoop() : void
..
+assertInLoopThread() : void
{static} +getEventLoopOfCurrentThread() : EventLoop *
+index() : size_t
+invalidateTimer(TimerId id) : void
+isCallingFunctions() : bool
+isInLoopThread() const : bool
+isRunning() : bool
+loop() : void
+moveToCurrentThread() : void
+queueInLoop(const Func & f) : void
+queueInLoop(Func && f) : void
+quit() : void
+removeChannel(Channel * chl) : void
+resetAfterFork() : void
+resetTimerQueue() : void
+runAfter(const std::chrono::duration<double> & delay, const Func & cb) : TimerId
+runAfter(const std::chrono::duration<double> & delay, Func && cb) : TimerId
+runAfter(double delay, Func && cb) : TimerId
+runAfter(double delay, const Func & cb) : TimerId
+runAt(const Date & time, Func && cb) : TimerId
+runAt(const Date & time, const Func & cb) : TimerId
+runEvery(double interval, const Func & cb) : TimerId
+runEvery(const std::chrono::duration<double> & interval, Func && cb) : TimerId
+runEvery(const std::chrono::duration<double> & interval, const Func & cb) : TimerId
+runEvery(double interval, Func && cb) : TimerId
+runInLoop<Functor>(Functor && f) : void
+runOnQuit(Func && cb) : void
+runOnQuit(const Func & cb) : void
+setIndex(size_t index) : void
+updateChannel(Channel * chl) : void
__
}
class "EventLoopThread" as C_0001280612521485369958
class C_0001280612521485369958 {
+EventLoopThread(const std::string & threadName = "EventLoopThread") : void
+~EventLoopThread() : void
..
+getLoop() const : EventLoop *
+run() : void
+wait() : void
__
}
class "SerialTaskQueue" as C_0000634031134969193198
class C_0000634031134969193198 {
+SerialTaskQueue() = deleted : void
+SerialTaskQueue(const std::string & name) : void
+~SerialTaskQueue() : void
..
+getName() const : std::string
+getTaskCount() : size_t
+isRuningTask() : bool
+runTaskInQueue(const std::function<void ()> & task) : void
+runTaskInQueue(std::function<void ()> && task) : void
+stop() : void
+waitAllTasksFinished() : void
__
}
abstract "Poller" as C_0000300034150397884642
abstract C_0000300034150397884642 {
+Poller(EventLoop * loop) : void
+~Poller() : void
..
+assertInLoopThread() : void
{static} +newPoller(EventLoop * loop) : Poller *
{abstract} +poll(int timeoutMs, ChannelList * activeChannels) = 0 : void
{abstract} +removeChannel(Channel * channel) = 0 : void
+resetAfterFork() : void
{abstract} +updateChannel(Channel * channel) = 0 : void
__
}
class "TimerQueue" as C_0000607400095182694101
class C_0000607400095182694101 {
+TimerQueue(EventLoop * loop) : void
+~TimerQueue() : void
..
+addTimer(const TimerCallback & cb, const TimePoint & when, const TimeInterval & interval) : TimerId
+addTimer(TimerCallback && cb, const TimePoint & when, const TimeInterval & interval) : TimerId
+addTimerInLoop(const TimerPtr & timer) : void
+invalidateTimer(TimerId id) : void
+reset() : void
__
}
class "Channel" as C_0000764690828649606524
class C_0000764690828649606524 {
+Channel(EventLoop * loop, int fd) : void
..
+disableAll() : void
+disableReading() : void
+disableWriting() : void
+enableReading() : void
+enableWriting() : void
+events() const : int
+fd() const : int
+isNoneEvent() const : bool
+isReading() const : bool
+isWriting() const : bool
+ownerLoop() : EventLoop *
+remove() : void
+revents() const : int
+setCloseCallback(Channel::EventCallback && cb) : void
+setCloseCallback(const Channel::EventCallback & cb) : void
+setErrorCallback(Channel::EventCallback && cb) : void
+setErrorCallback(const Channel::EventCallback & cb) : void
+setEventCallback(const Channel::EventCallback & cb) : void
+setEventCallback(Channel::EventCallback && cb) : void
+setReadCallback(Channel::EventCallback && cb) : void
+setReadCallback(const Channel::EventCallback & cb) : void
+setWriteCallback(Channel::EventCallback && cb) : void
+setWriteCallback(const Channel::EventCallback & cb) : void
+tie(const std::shared_ptr<void> & obj) : void
+updateEvents(int events) : void
__
{static} +kNoneEvent : const int
{static} +kReadEvent : const int
{static} +kWriteEvent : const int
}
class "ConcurrentTaskQueue" as C_0000295101274428145462
class C_0000295101274428145462 {
+ConcurrentTaskQueue(size_t threadNum, const std::string & name) : void
+~ConcurrentTaskQueue() : void
..
+getName() const : std::string
+getTaskCount() : size_t
+runTaskInQueue(const std::function<void ()> & task) : void
+runTaskInQueue(std::function<void ()> && task) : void
+stop() : void
__
}
class "InetAddress" as C_0001897340460211641725
class C_0001897340460211641725 {
+InetAddress(uint16_t port = 0, bool loopbackOnly = false, bool ipv6 = false) : void
+InetAddress(const std::string & ip, uint16_t port, bool ipv6 = false) : void
+InetAddress(const struct sockaddr_in & addr) : void
+InetAddress(const struct sockaddr_in6 & addr) : void
..
+family() const : sa_family_t
+getSockAddr() const : const struct sockaddr *
+ip6NetEndian() const : const uint32_t *
+ipNetEndian() const : uint32_t
+isIntranetIp() const : bool
+isIpV6() const : bool
+isLoopbackIp() const : bool
+isUnspecified() const : bool
+portNetEndian() const : uint16_t
+setPortNetEndian(uint16_t port) : void
+setSockAddrInet6(const struct sockaddr_in6 & addr6) : void
+toIp() const : std::string
+toIpNetEndian() const : std::string
+toIpPort() const : std::string
+toIpPortNetEndian() const : std::string
+toPort() const : uint16_t
__
}
class "InetAddress::()" as C_0000673025168912921705
class C_0000673025168912921705 {
__
+addr6_ : struct sockaddr_in6
+addr_ : struct sockaddr_in
}
enum "SSLError" as C_0000434245188016003403
enum C_0000434245188016003403 {
kSSLHandshakeError
kSSLInvalidCertificate
kSSLProtocolError
}
abstract "Certificate" as C_0001660397537883119469
abstract C_0001660397537883119469 {
+~Certificate() = default : void
..
{abstract} +pem() const = 0 : std::string
{abstract} +sha1Fingerprint() const = 0 : std::string
{abstract} +sha256Fingerprint() const = 0 : std::string
__
}
class "TLSPolicy" as C_0002100370281243872283
class C_0002100370281243872283 {
{static} +defaultClientPolicy(const std::string & hostname = "") : std::shared_ptr<TLSPolicy>
{static} +defaultServerPolicy(const std::string & certPath, const std::string & keyPath) : std::shared_ptr<TLSPolicy>
+getAllowBrokenChain() const : bool
+getAlpnProtocols() : const std::vector<std::string> &
+getAlpnProtocols() const : const std::vector<std::string> &
+getCaPath() const : const std::string &
+getCertPath() const : const std::string &
+getConfCmds() const : const std::vector<std::pair<std::string,std::string>> &
+getHostname() const : const std::string &
+getKeyPath() const : const std::string &
+getUseOldTLS() const : bool
+getUseSystemCertStore() const : bool
+getValidate() const : bool
+setAllowBrokenChain(bool allow) : TLSPolicy &
+setAlpnProtocols(std::vector<std::string> && alpnProtocols) : TLSPolicy &
+setAlpnProtocols(const std::vector<std::string> & alpnProtocols) : TLSPolicy &
+setCaPath(const std::string & caPath) : TLSPolicy &
+setCertPath(const std::string & certPath) : TLSPolicy &
+setConfCmds(const std::vector<std::pair<std::string,std::string>> & sslConfCmds) : TLSPolicy &
+setHostname(const std::string & hostname) : TLSPolicy &
+setKeyPath(const std::string & keyPath) : TLSPolicy &
+setUseOldTLS(bool useOldTLS) : TLSPolicy &
+setUseSystemCertStore(bool useSystemCertStore) : TLSPolicy &
+setValidate(bool enable) : TLSPolicy &
__
}
abstract "TcpConnection" as C_0002230624932100089526
abstract C_0002230624932100089526 {
+TcpConnection() = default : void
+~TcpConnection() : void
..
{abstract} +applicationProtocol() const = 0 : std::string
{abstract} +bytesReceived() const = 0 : size_t
{abstract} +bytesSent() const = 0 : size_t
+clearContext() : void
{abstract} +connectDestroyed() = 0 : void
{abstract} +connectEstablished() = 0 : void
{abstract} +connected() const = 0 : bool
{abstract} +disconnected() const = 0 : bool
{abstract} +enableKickingOff(size_t timeout, const std::shared_ptr<TimingWheel> & timingWheel) = 0 : void
{abstract} +forceClose() = 0 : void
+getContext<T>() const : std::shared_ptr<T>
{abstract} +getLoop() = 0 : EventLoop *
{abstract} +getRecvBuffer() = 0 : MsgBuffer *
+hasContext() const : bool
{abstract} +isKeepAlive() = 0 : bool
{abstract} +isSSLConnection() const = 0 : bool
{abstract} +keepAlive() = 0 : void
{abstract} +localAddr() const = 0 : const InetAddress &
{abstract} +peerAddr() const = 0 : const InetAddress &
{abstract} +peerCertificate() const = 0 : CertificatePtr
{abstract} +send(const void * msg, size_t len) = 0 : void
{abstract} +send(const MsgBuffer & buffer) = 0 : void
{abstract} +send(std::string && msg) = 0 : void
{abstract} +send(const std::string & msg) = 0 : void
{abstract} +send(MsgBuffer && buffer) = 0 : void
{abstract} +send(const std::shared_ptr<std::string> & msgPtr) = 0 : void
{abstract} +send(const std::shared_ptr<MsgBuffer> & msgPtr) = 0 : void
{abstract} +send(const char * msg, size_t len) = 0 : void
{abstract} +sendFile(const char * fileName, size_t offset = 0, size_t length = 0) = 0 : void
{abstract} +sendFile(const wchar_t * fileName, size_t offset = 0, size_t length = 0) = 0 : void
{abstract} +sendStream(std::function<std::size_t (char *,std::size_t)> callback) = 0 : void
+setCloseCallback(CloseCallback && cb) : void
+setCloseCallback(const CloseCallback & cb) : void
+setConnectionCallback(const ConnectionCallback & cb) : void
+setConnectionCallback(ConnectionCallback && cb) : void
+setContext(std::shared_ptr<void> && context) : void
+setContext(const std::shared_ptr<void> & context) : void
{abstract} +setHighWaterMarkCallback(const HighWaterMarkCallback & cb, size_t markLen) = 0 : void
+setRecvMsgCallback(const RecvMessageCallback & cb) : void
+setRecvMsgCallback(RecvMessageCallback && cb) : void
+setSSLErrorCallback(SSLErrorCallback && cb) : void
+setSSLErrorCallback(const SSLErrorCallback & cb) : void
{abstract} +setTcpNoDelay(bool on) = 0 : void
+setValidationPolicy(TLSPolicy && policy) : void
+setWriteCompleteCallback(WriteCompleteCallback && cb) : void
+setWriteCompleteCallback(const WriteCompleteCallback & cb) : void
{abstract} +shutdown() = 0 : void
{abstract} +sniName() const = 0 : std::string
+startClientEncryption(std::function<void (const TcpConnectionPtr &)> && callback, bool useOldTLS = false, bool validateCert = true, const std::string & hostname = "", const std::vector<std::pair<std::string,std::string>> & sslConfCmds = =
            {}) : void
{abstract} +startEncryption(TLSPolicyPtr policy, bool isServer, std::function<void (const TcpConnectionPtr &)> upgradeCallback = nullptr) = 0 : void
__
}
class "TcpClient" as C_0001156367011091191681
class C_0001156367011091191681 {
+TcpClient(EventLoop * loop, const InetAddress & serverAddr, const std::string & nameArg) : void
+~TcpClient() : void
..
+connect() : void
+connection() const : TcpConnectionPtr
+disconnect() : void
+enableRetry() : void
+enableSSL(TLSPolicyPtr policy) : void
+enableSSL(bool useOldTLS = false, bool validateCert = true, std::string hostname = "", const std::vector<std::pair<std::string,std::string>> & sslConfCmds = =
            {}, const std::string & certPath = "", const std::string & keyPath = "", const std::string & caPath = "") : void
+getLoop() const : EventLoop *
+name() const : const std::string &
+retry() const : bool
+setConnectionCallback(const ConnectionCallback & cb) : void
+setConnectionCallback(ConnectionCallback && cb) : void
+setConnectionErrorCallback(const ConnectionErrorCallback & cb) : void
+setMessageCallback(const RecvMessageCallback & cb) : void
+setMessageCallback(RecvMessageCallback && cb) : void
+setSSLErrorCallback(const SSLErrorCallback & cb) : void
+setSSLErrorCallback(SSLErrorCallback && cb) : void
+setSockOptCallback(const SockOptCallback & cb) : void
+setSockOptCallback(SockOptCallback && cb) : void
+setWriteCompleteCallback(const WriteCompleteCallback & cb) : void
+setWriteCompleteCallback(WriteCompleteCallback && cb) : void
+stop() : void
__
}
class "TcpClient::IgnoreSigPipe" as C_0001278908569830571044
class C_0001278908569830571044 {
+IgnoreSigPipe() : void
__
}
abstract "TLSProvider" as C_0000464040622375950341
abstract C_0000464040622375950341 {
+TLSProvider(TcpConnection * conn, TLSPolicyPtr policy, SSLContextPtr ctx) : void
+~TLSProvider() = default : void
..
+appendToWriteBuffer(const char * ptr, size_t size) : void
+applicationProtocol() const : const std::string &
{abstract} +close() = 0 : void
+getBufferedData() : MsgBuffer &
+getRecvBuffer() : MsgBuffer &
+peerCertificate() const : const CertificatePtr &
{abstract} +recvData(MsgBuffer * buffer) = 0 : void
+sendBufferedData() : bool
{abstract} +sendData(const char * ptr, size_t size) = 0 : ssize_t
+setCloseCallback(TLSProvider::CloseCallback cb) : void
+setErrorCallback(TLSProvider::ErrorCallback cb) : void
+setHandshakeCallback(TLSProvider::HandshakeCallback cb) : void
+setMessageCallback(TLSProvider::MessageCallback cb) : void
+setWriteCallback(TLSProvider::WriteCallback cb) : void
+sniName() const : const std::string &
{abstract} +startEncryption() = 0 : void
__
}
class "Connector" as C_0001706043459252151324
class C_0001706043459252151324 {
+Connector(EventLoop * loop, const InetAddress & addr, bool retry = true) : void
+Connector(EventLoop * loop, InetAddress && addr, bool retry = true) : void
+~Connector() : void
..
+restart() : void
+serverAddress() const : const InetAddress &
+setErrorCallback(const Connector::ConnectionErrorCallback & cb) : void
+setErrorCallback(Connector::ConnectionErrorCallback && cb) : void
+setNewConnectionCallback(const Connector::NewConnectionCallback & cb) : void
+setNewConnectionCallback(Connector::NewConnectionCallback && cb) : void
+setSockOptCallback(const Connector::SockOptCallback & cb) : void
+setSockOptCallback(Connector::SockOptCallback && cb) : void
+start() : void
+stop() : void
__
}
enum "Connector::Status" as C_0000000982196670174162
enum C_0000000982196670174162 {
Disconnected
Connecting
Connected
}
class "TimingWheel" as C_0000964465843177067305
class C_0000964465843177067305 {
+TimingWheel(EventLoop * loop, size_t maxTimeout, float ticksInterval = 1.0, size_t bucketsNumPerWheel = 100) : void
+~TimingWheel() : void
..
+getLoop() : EventLoop *
+insertEntry(size_t delay, EntryPtr entryPtr) : void
+insertEntryInloop(size_t delay, EntryPtr entryPtr) : void
__
}
class "TimingWheel::CallbackEntry" as C_0002013739811805694444
class C_0002013739811805694444 {
+CallbackEntry(std::function<void ()> cb) : void
+~CallbackEntry() : void
__
}
class "TcpConnectionImpl" as C_0000920759514274339356
class C_0000920759514274339356 {
+TcpConnectionImpl(EventLoop * loop, int socketfd, const InetAddress & localAddr, const InetAddress & peerAddr, TLSPolicyPtr policy = nullptr, SSLContextPtr ctx = nullptr) : void
+~TcpConnectionImpl() : void
..
+applicationProtocol() const : std::string
+bytesReceived() const : size_t
+bytesSent() const : size_t
+connectDestroyed() : void
+connectEstablished() : void
+connected() const : bool
+disconnected() const : bool
+enableKickingOff(size_t timeout, const std::shared_ptr<TimingWheel> & timingWheel) : void
+forceClose() : void
+getLoop() : EventLoop *
+getRecvBuffer() : MsgBuffer *
+isKeepAlive() : bool
+isSSLConnection() const : bool
+keepAlive() : void
+localAddr() const : const InetAddress &
+peerAddr() const : const InetAddress &
+peerCertificate() const : CertificatePtr
+send(const std::shared_ptr<MsgBuffer> & msgPtr) : void
+send(const void * msg, size_t len) : void
+send(const std::string & msg) : void
+send(std::string && msg) : void
+send(const MsgBuffer & buffer) : void
+send(MsgBuffer && buffer) : void
+send(const std::shared_ptr<std::string> & msgPtr) : void
+send(const char * msg, size_t len) : void
+sendFile(const char * fileName, size_t offset = 0, size_t length = 0) : void
+sendFile(const wchar_t * fileName, size_t offset = 0, size_t length = 0) : void
+sendStream(std::function<std::size_t (char *,std::size_t)> callback) : void
+setHighWaterMarkCallback(const HighWaterMarkCallback & cb, size_t markLen) : void
+setTcpNoDelay(bool on) : void
+shutdown() : void
+sniName() const : std::string
+startEncryption(TLSPolicyPtr policy, bool isServer, std::function<void (const TcpConnectionPtr &)> upgradeCallback = nullptr) : void
__
}
class "TcpConnectionImpl::KickoffEntry" as C_0002266895444343633259
class C_0002266895444343633259 {
+KickoffEntry(const std::weak_ptr<TcpConnection> & conn) : void
+reset() : void
+~KickoffEntry() : void
__
}
class "TcpConnectionImpl::BufferNode" as C_0001029063960859366412
class C_0001029063960859366412 {
+isFile() const : bool
+~BufferNode() : void
__
+closeConnection_ : bool
+fileBytesToSend_ : ssize_t
+msgBuffer_ : std::shared_ptr<MsgBuffer>
+nDataWritten_ : std::size_t
+offset_ : off_t
+sendFd_ : int
+streamCallback_ : std::function<std::size_t (char *,std::size_t)>
}
enum "TcpConnectionImpl::ConnStatus" as C_0001727349338344491225
enum C_0001727349338344491225 {
Disconnected
Connecting
Connected
Disconnecting
}
class "Socket" as C_0000971024972307079851
class C_0000971024972307079851 {
+Socket(int sockfd) : void
+~Socket() : void
..
+accept(InetAddress * peeraddr) : int
+bindAddress(const InetAddress & localaddr) : void
+closeWrite() : void
{static} +connect(int sockfd, const InetAddress & addr) : int
{static} +createNonblockingSocketOrDie(int family) : int
+fd() : int
{static} +getLocalAddr(int sockfd) : struct sockaddr_in6
{static} +getPeerAddr(int sockfd) : struct sockaddr_in6
{static} +getSocketError(int sockfd) : int
+getSocketError() : int
{static} +isSelfConnect(int sockfd) : bool
+listen() : void
+read(char * buffer, uint64_t len) : int
+setKeepAlive(bool on) : void
{static} +setNonBlockAndCloseOnExec(int sockfd) : void
+setReuseAddr(bool on) : void
+setReusePort(bool on) : void
+setTcpNoDelay(bool on) : void
__
}
class "SSLContext" as C_0000626107303889580949
class C_0000626107303889580949 {
__
}
class "TcpServer" as C_0001423170502760786790
class C_0001423170502760786790 {
+TcpServer(EventLoop * loop, const InetAddress & address, std::string name, bool reUseAddr = true, bool reUsePort = true) : void
+~TcpServer() : void
..
+address() const : const InetAddress &
+enableSSL(TLSPolicyPtr policy) : void
+enableSSL(const std::string & certPath, const std::string & keyPath, bool useOldTLS = false, const std::vector<std::pair<std::string,std::string>> & sslConfCmds = =
            {}, const std::string & caPath = "") : void
+getIoLoops() const : std::vector<EventLoop *>
+getLoop() const : EventLoop *
+ipPort() const : std::string
+kickoffIdleConnections(size_t timeout) : void
+name() const : const std::string &
+setAfterAcceptSockOptCallback(SockOptCallback cb) : void
+setBeforeListenSockOptCallback(SockOptCallback cb) : void
+setConnectionCallback(const ConnectionCallback & cb) : void
+setConnectionCallback(ConnectionCallback && cb) : void
+setIoLoopNum(size_t num) : void
+setIoLoopThreadPool(const std::shared_ptr<EventLoopThreadPool> & pool) : void
+setIoLoops(const std::vector<EventLoop *> & ioLoops) : void
+setRecvMessageCallback(const RecvMessageCallback & cb) : void
+setRecvMessageCallback(RecvMessageCallback && cb) : void
+setWriteCompleteCallback(WriteCompleteCallback && cb) : void
+setWriteCompleteCallback(const WriteCompleteCallback & cb) : void
+start() : void
+stop() : void
__
}
class "EventLoopThreadPool" as C_0002061035340998974559
class C_0002061035340998974559 {
+EventLoopThreadPool() = deleted : void
+EventLoopThreadPool(size_t threadNum, const std::string & name = "EventLoopThreadPool") : void
..
+getLoop(size_t id) : EventLoop *
+getLoops() const : std::vector<EventLoop *>
+getNextLoop() : EventLoop *
+size() : size_t
+start() : void
+wait() : void
__
}
class "InetAddress::(anonymous_2591690)" as C_0000051485486938383234
class C_0000051485486938383234 {
__
+addr6_ : struct sockaddr_in6
+addr_ : struct sockaddr_in
}
class "TcpServer::IgnoreSigPipe" as C_0001489562721151066050
class C_0001489562721151066050 {
+IgnoreSigPipe() : void
__
}
class "Acceptor" as C_0000184886692180276257
class C_0000184886692180276257 {
+Acceptor(EventLoop * loop, const InetAddress & addr, bool reUseAddr = true, bool reUsePort = true) : void
+~Acceptor() : void
..
+addr() const : const InetAddress &
+listen() : void
+setAfterAcceptSockOptCallback(AcceptorSockOptCallback cb) : void
+setBeforeListenSockOptCallback(AcceptorSockOptCallback cb) : void
+setNewConnectionCallback(const NewConnectionCallback & cb) : void
__
}
class "T" as C_0000394452884449343416
class C_0000394452884449343416 {
+T(const char * str, unsigned int len) : void
__
+len_ : const unsigned int
+str_ : const char *
}
class "InetAddress::(anonymous_1207742)" as C_0001331044972460795182
class C_0001331044972460795182 {
__
+addr6_ : struct sockaddr_in6
+addr_ : struct sockaddr_in
}
class "Timer" as C_0002026475275429760163
class C_0002026475275429760163 {
+Timer(const TimerCallback & cb, const TimePoint & when, const TimeInterval & interval) : void
+Timer(TimerCallback && cb, const TimePoint & when, const TimeInterval & interval) : void
+~Timer() : void
..
+operator<(const Timer & t) const : bool
+operator>(const Timer & t) const : bool
..
+id() : TimerId
+isRepeat() : bool
+restart(const TimePoint & now) : void
+run() const : void
+when() const : const TimePoint &
__
}
class "TimerPtrComparer" as C_0000157340721173102239
class C_0000157340721173102239 {
+operator()(const TimerPtr & x, const TimerPtr & y) const : bool
__
}
class "ScopeExit<F>" as C_0000026148367911088234
class C_0000026148367911088234 {
+ScopeExit(F && f) : void
+~ScopeExit() : void
__
+f_ : F
}
class "AsyncFileLogger" as C_0000630185754256426097
class C_0000630185754256426097 {
+AsyncFileLogger() : void
+~AsyncFileLogger() : void
..
+flush() : void
+output(const char * msg, const uint64_t len) : void
+setFileName(const std::string & baseName, const std::string & extName = ".log", const std::string & path = "./") : void
+setFileSizeLimit(uint64_t limit) : void
+setMaxFiles(size_t maxFiles) : void
+setSwitchOnLimitOnly(bool flag = true) : void
+startLogging() : void
__
}
class "AsyncFileLogger::LoggerFile" as C_0001453238540802541239
class C_0001453238540802541239 {
+LoggerFile(const std::string & filePath, const std::string & fileBaseName, const std::string & fileExtName, bool switchOnLimitOnly = false, size_t maxFiles = 0) : void
+flush() : void
+getLength() : uint64_t
+open() : void
+operator bool() const : bool
+switchLog(bool openNewOne) : void
+writeLog(const StringPtr buf) : void
+~LoggerFile() : void
__
}
C_0000195316585713148470 o-- C_0000080756732781028581 : +secret
C_0000195316585713148470 o-- C_0000080756732781028581 : +prev
C_0001159823987743494688 <|-- C_0000111393647775817392
C_0000510041652600390686 ..|> C_0000111393647775817392
C_0001754247125147083756 ..|> C_0000111393647775817392
C_0001159823987743494688 <|-- C_0001754247125147083756
C_0001042478360162272930 ..|> C_0000111393647775817392
C_0001159823987743494688 <|-- C_0001042478360162272930
C_0001930690020065325250 o-- C_0000510041652600390686 : -buffer_
C_0001159823987743494688 <|-- C_0001930690020065325250
C_0002053752992472264214 o-- C_0001930690020065325250 : #logStream_
C_0002053752992472264214 o-- C_0002032009232244826154 : #date_
C_0002053752992472264214 <.. C_0000716430590791918928 : +<<friend>>
C_0001159823987743494688 <|-- C_0002053752992472264214
C_0002131283840621188296 --+ C_0002053752992472264214
C_0000979080797342806546 --+ C_0002053752992472264214
C_0000716430590791918928 o-- C_0001930690020065325250 : -logStream_
C_0001159823987743494688 <|-- C_0000716430590791918928
C_0001159823987743494688 <|-- C_0000684873245997977544
C_0001159823987743494688 <|-- C_0000912667184903365399
C_0000223701637084171141 --+ C_0000912667184903365399
C_0002185746167032660910 ..|> C_0000912667184903365399
C_0001390130774830223499 ..> C_0002032009232244826154
C_0001390130774830223499 o-- C_0000300034150397884642 : -poller_
C_0001390130774830223499 --> C_0000764690828649606524 : -activeChannels_
C_0001390130774830223499 --> C_0000764690828649606524 : -currentActiveChannel_
C_0001390130774830223499 o-- C_0002185746167032660910 : -funcs_
C_0001390130774830223499 o-- C_0000607400095182694101 : -timerQueue_
C_0001390130774830223499 o-- C_0002185746167032660910 : -funcsOnQuit_
C_0001390130774830223499 o-- C_0000764690828649606524 : -wakeupChannelPtr_
C_0001390130774830223499 --> C_0001390130774830223499 : -threadLocalLoopPtr_
C_0001159823987743494688 <|-- C_0001390130774830223499
C_0001280612521485369958 --> C_0001390130774830223499 : -loop_
C_0001280612521485369958 o-- C_0001390130774830223499 : -promiseForLoopPointer_
C_0001159823987743494688 <|-- C_0001280612521485369958
C_0000634031134969193198 o-- C_0001280612521485369958 : #loopThread_
C_0000684873245997977544 <|-- C_0000634031134969193198
C_0000300034150397884642 ..> C_0000764690828649606524
C_0000300034150397884642 --> C_0001390130774830223499 : -ownerLoop_
C_0001159823987743494688 <|-- C_0000300034150397884642
C_0000607400095182694101 --> C_0001390130774830223499 : #loop_
C_0000607400095182694101 --> C_0000764690828649606524 : #timerfdChannelPtr_
C_0000607400095182694101 o-- C_0002026475275429760163 : #timers_
C_0001159823987743494688 <|-- C_0000607400095182694101
C_0000764690828649606524 --> C_0001390130774830223499 : -loop_
C_0000764690828649606524 <.. C_0001390130774830223499 : +<<friend>>
C_0001159823987743494688 <|-- C_0000764690828649606524
C_0000684873245997977544 <|-- C_0000295101274428145462
C_0001897340460211641725 o-- C_0000673025168912921705
C_0002230624932100089526 ..> C_0001897340460211641725
C_0002230624932100089526 ..> C_0001390130774830223499
C_0002230624932100089526 ..> C_0001660397537883119469
C_0002230624932100089526 ..> C_0000964465843177067305
C_0002230624932100089526 o-- C_0002230624932100089526 : #recvMsgCallback_
C_0002230624932100089526 --> C_0001289495020269537351 : #recvMsgCallback_
C_0002230624932100089526 --> C_0002230624932100089526 : #recvMsgCallback_
C_0002230624932100089526 o-- C_0002230624932100089526 : #connectionCallback_
C_0002230624932100089526 o-- C_0002230624932100089526 : #closeCallback_
C_0002230624932100089526 o-- C_0002230624932100089526 : #writeCompleteCallback_
C_0002230624932100089526 o-- C_0002230624932100089526 : #highWaterMarkCallback_
C_0002230624932100089526 --> C_0002230624932100089526 : #highWaterMarkCallback_
C_0002230624932100089526 o-- C_0000434245188016003403 : #sslErrorCallback_
C_0002230624932100089526 o-- C_0002100370281243872283 : #tlsPolicy_
C_0002230624932100089526 <.. C_0001156367011091191681 : +<<friend>>
C_0002230624932100089526 <.. C_0000920759514274339356 : +<<friend>>
C_0002230624932100089526 <.. C_0001423170502760786790 : +<<friend>>
C_0001156367011091191681 ..> C_0001897340460211641725
C_0001156367011091191681 --> C_0001390130774830223499 : -loop_
C_0001156367011091191681 o-- C_0001706043459252151324 : -connector_
C_0001156367011091191681 o-- C_0002230624932100089526 : -connectionCallback_
C_0001156367011091191681 o-- C_0002230624932100089526 : -messageCallback_
C_0001156367011091191681 --> C_0001289495020269537351 : -messageCallback_
C_0001156367011091191681 --> C_0002230624932100089526 : -messageCallback_
C_0001156367011091191681 o-- C_0002230624932100089526 : -writeCompleteCallback_
C_0001156367011091191681 o-- C_0000434245188016003403 : -sslErrorCallback_
C_0001156367011091191681 o-- C_0002230624932100089526 : -connection_
C_0001156367011091191681 o-- C_0002100370281243872283 : -tlsPolicyPtr_
C_0001156367011091191681 o-- C_0000626107303889580949 : -sslContextPtr_
C_0001159823987743494688 <|-- C_0001156367011091191681
C_0001278908569830571044 --+ C_0001156367011091191681
C_0000464040622375950341 --> C_0002230624932100089526 : #conn_
C_0000464040622375950341 o-- C_0002100370281243872283 : #policyPtr_
C_0000464040622375950341 o-- C_0000626107303889580949 : #contextPtr_
C_0000464040622375950341 o-- C_0001289495020269537351 : #recvBuffer_
C_0000464040622375950341 --> C_0001390130774830223499 : #loop_
C_0000464040622375950341 o-- C_0001660397537883119469 : #peerCertificate_
C_0000464040622375950341 o-- C_0001289495020269537351 : #writeBuffer_
C_0001706043459252151324 --> C_0000764690828649606524 : -channelPtr_
C_0001706043459252151324 --> C_0001390130774830223499 : -loop_
C_0001706043459252151324 o-- C_0001897340460211641725 : -serverAddr_
C_0001159823987743494688 <|-- C_0001706043459252151324
C_0000000982196670174162 --+ C_0001706043459252151324
C_0000964465843177067305 --> C_0001390130774830223499 : -loop_
C_0002013739811805694444 --+ C_0000964465843177067305
C_0000920759514274339356 ..> C_0002100370281243872283
C_0000920759514274339356 ..> C_0000626107303889580949
C_0000920759514274339356 ..> C_0001660397537883119469
C_0000920759514274339356 ..> C_0000434245188016003403
C_0000920759514274339356 --> C_0000964465843177067305 : -timingWheelWeakPtr_
C_0000920759514274339356 o-- C_0002032009232244826154 : -lastTimingWheelUpdateTime_
C_0000920759514274339356 --> C_0001390130774830223499 : #loop_
C_0000920759514274339356 o-- C_0000764690828649606524 : #ioChannelPtr_
C_0000920759514274339356 o-- C_0000971024972307079851 : #socketPtr_
C_0000920759514274339356 o-- C_0001289495020269537351 : #readBuffer_
C_0000920759514274339356 o-- C_0001897340460211641725 : #localAddr_
C_0000920759514274339356 o-- C_0001897340460211641725 : #peerAddr_
C_0000920759514274339356 --> C_0000464040622375950341 : #tlsProviderPtr_
C_0000920759514274339356 o-- C_0002230624932100089526 : #upgradeCallback_
C_0000920759514274339356 <.. C_0001156367011091191681 : +<<friend>>
C_0000920759514274339356 <.. C_0001423170502760786790 : +<<friend>>
C_0002230624932100089526 <|-- C_0000920759514274339356
C_0001159823987743494688 <|-- C_0000920759514274339356
C_0002266895444343633259 --+ C_0000920759514274339356
C_0002266895444343633259 --> C_0002230624932100089526 : -conn_
C_0001029063960859366412 --+ C_0000920759514274339356
C_0001029063960859366412 --> C_0001289495020269537351 : +msgBuffer_
C_0001727349338344491225 --+ C_0000920759514274339356
C_0000971024972307079851 ..> C_0001897340460211641725
C_0001159823987743494688 <|-- C_0000971024972307079851
C_0001423170502760786790 ..> C_0001897340460211641725
C_0001423170502760786790 --> C_0001390130774830223499 : -loop_
C_0001423170502760786790 o-- C_0000184886692180276257 : -acceptorPtr_
C_0001423170502760786790 o-- C_0002230624932100089526 : -connSet_
C_0001423170502760786790 o-- C_0002230624932100089526 : -recvMessageCallback_
C_0001423170502760786790 --> C_0001289495020269537351 : -recvMessageCallback_
C_0001423170502760786790 --> C_0002230624932100089526 : -recvMessageCallback_
C_0001423170502760786790 o-- C_0002230624932100089526 : -connectionCallback_
C_0001423170502760786790 o-- C_0002230624932100089526 : -writeCompleteCallback_
C_0001423170502760786790 --> C_0001390130774830223499 : -timingWheelMap_
C_0001423170502760786790 o-- C_0000964465843177067305 : -timingWheelMap_
C_0001423170502760786790 --> C_0002061035340998974559 : -loopPoolPtr_
C_0001423170502760786790 --> C_0001390130774830223499 : -ioLoops_
C_0001423170502760786790 o-- C_0002100370281243872283 : -policyPtr_
C_0001423170502760786790 o-- C_0000626107303889580949 : -sslContextPtr_
C_0001159823987743494688 <|-- C_0001423170502760786790
C_0002061035340998974559 ..> C_0001390130774830223499
C_0002061035340998974559 o-- C_0001280612521485369958 : -loopThreadVector_
C_0001159823987743494688 <|-- C_0002061035340998974559
C_0001489562721151066050 --+ C_0001423170502760786790
C_0000184886692180276257 o-- C_0000971024972307079851 : #sock_
C_0000184886692180276257 o-- C_0001897340460211641725 : #addr_
C_0000184886692180276257 --> C_0001390130774830223499 : #loop_
C_0000184886692180276257 --> C_0001897340460211641725 : #newConnectionCallback_
C_0000184886692180276257 o-- C_0000764690828649606524 : #acceptChannel_
C_0001159823987743494688 <|-- C_0000184886692180276257
C_0001159823987743494688 <|-- C_0002026475275429760163
C_0000157340721173102239 ..> C_0002026475275429760163
C_0001159823987743494688 <|-- C_0000630185754256426097
C_0001453238540802541239 --+ C_0000630185754256426097
C_0001453238540802541239 o-- C_0002032009232244826154 : #creationDate_
C_0001159823987743494688 <|-- C_0001453238540802541239

'Generated with clang-uml, version 0.4.0-9-gc398c6f
'LLVM version Ubuntu clang version 15.0.7
@enduml
