@startuml
title std::vector context class diagram
class "iterator<_Category,_Tp,_Distance=ptrdiff_t,_Pointer=_Tp *,_Reference=_Tp &>" as C_0016384363037466094568
class C_0016384363037466094568 {
__
}
class "reverse_iterator<_Iter>" as C_0014172594989642843197
class C_0014172594989642843197 {
__
}
class "iterator<typename iterator_traits<_Iterator>::iterator_category,typename iterator_traits<_Iterator>::value_type,typename iterator_traits<_Iterator>::difference_type,typename iterator_traits<_Iterator>::pointer,typename iterator_traits<_Iterator>::reference>" as C_0012471832686357493722
class C_0012471832686357493722 {
__
}
class "reverse_iterator<_Iterator>" as C_0003742820890603540341
class C_0003742820890603540341 {
__
}
class "iterator<output_iterator_tag,void,void,void,void>" as C_0014653995113384390955
class C_0014653995113384390955 {
__
}
class "back_insert_iterator<_Container>" as C_0018446524956631938981
class C_0018446524956631938981 {
__
}
class "front_insert_iterator<_Container>" as C_0009870417718487041983
class C_0009870417718487041983 {
__
}
class "insert_iterator<_Container>" as C_0003857731205391224987
class C_0003857731205391224987 {
__
}
class "_Vector_base<_Tp,_Alloc>" as C_0000997856561152181668
class C_0000997856561152181668 {
__
}
class "_Vector_base::_Vector_impl_data" as C_0018039370053612920865
class C_0018039370053612920865 {
__
}
class "_Vector_base::_Vector_impl" as C_0018207793148199959866
class C_0018207793148199959866 {
__
}
class "reverse_iterator<__gnu_cxx::__normal_iterator<vector::pointer,vector<_Tp,_Alloc>>>" as C_0007946380561791240729
class C_0007946380561791240729 {
__
}
class "reverse_iterator<__gnu_cxx::__normal_iterator<vector::const_pointer,vector<_Tp,_Alloc>>>" as C_0011328800956802955955
class C_0011328800956802955955 {
__
}
class "vector<_Tp,_Alloc=allocator<_Tp>>" as C_0005805017087195686008
class C_0005805017087195686008 {
__
}
class "vector::_Temporary_value" as C_0011374935455579958805
class C_0011374935455579958805 {
__
}
class "vector::_Temporary_value::_Storage" as C_0003028152696443724275
class C_0003028152696443724275 {
__
}
class "vector<_Tp,_Alloc>" as C_0009918787256737058051
class C_0009918787256737058051 {
__
}
class "iterator<random_access_iterator_tag,bool>" as C_0015444170014271291982
class C_0015444170014271291982 {
__
}
class "_Bit_iterator_base" as C_0015581221495297226107
class C_0015581221495297226107 {
__
}
class "_Bit_iterator" as C_0018068942244072229765
class C_0018068942244072229765 {
__
}
class "_Bit_const_iterator" as C_0015730135622629662599
class C_0015730135622629662599 {
__
}
class "_Bvector_base<_Alloc>" as C_0012020207555608092007
class C_0012020207555608092007 {
__
}
class "_Bvector_base::_Bvector_impl_data" as C_0003860519816965633390
class C_0003860519816965633390 {
__
}
class "_Bvector_base::_Bvector_impl" as C_0010744634881075136595
class C_0010744634881075136595 {
__
}
class "reverse_iterator<iterator>" as C_0016172396674571732333
class C_0016172396674571732333 {
__
}
class "reverse_iterator<const_iterator>" as C_0006440291576529819714
class C_0006440291576529819714 {
__
}
class "vector<bool,_Alloc>" as C_0002261458041236941641
class C_0002261458041236941641 {
__
}
class "vector<_Tp,pmr::polymorphic_allocator<_Tp>>" as C_0009937165181912686464
class C_0009937165181912686464 {
__
}
C_0014172594989642843197 ..|> C_0003742820890603540341
C_0012471832686357493722 ..|> C_0016384363037466094568
C_0012471832686357493722 <|-- C_0003742820890603540341
C_0014653995113384390955 ..|> C_0016384363037466094568
C_0014653995113384390955 <|-- C_0018446524956631938981
C_0014653995113384390955 <|-- C_0009870417718487041983
C_0014653995113384390955 <|-- C_0003857731205391224987
C_0000997856561152181668 o-- C_0018207793148199959866 : +_M_impl
C_0018039370053612920865 --+ C_0000997856561152181668
C_0018207793148199959866 --+ C_0000997856561152181668
C_0007946380561791240729 ..|> C_0014172594989642843197
C_0011328800956802955955 ..|> C_0014172594989642843197
C_0000997856561152181668 <|-- C_0005805017087195686008
C_0011374935455579958805 --+ C_0005805017087195686008
C_0011374935455579958805 o-- C_0003028152696443724275 : -_M_storage
C_0003028152696443724275 --+ C_0011374935455579958805
C_0009918787256737058051 ..|> C_0005805017087195686008
C_0015444170014271291982 ..|> C_0016384363037466094568
C_0015444170014271291982 <|-- C_0015581221495297226107
C_0015581221495297226107 <|-- C_0018068942244072229765
C_0015581221495297226107 <|-- C_0015730135622629662599
C_0012020207555608092007 o-- C_0010744634881075136595 : #_M_impl
C_0003860519816965633390 --+ C_0012020207555608092007
C_0003860519816965633390 o-- C_0018068942244072229765 : +_M_start
C_0003860519816965633390 o-- C_0018068942244072229765 : +_M_finish
C_0010744634881075136595 --+ C_0012020207555608092007
C_0016172396674571732333 ..|> C_0014172594989642843197
C_0006440291576529819714 ..|> C_0014172594989642843197
C_0002261458041236941641 ..|> C_0005805017087195686008
C_0012020207555608092007 <|-- C_0002261458041236941641
C_0009937165181912686464 ..|> C_0005805017087195686008
   note top of C_0016384363037466094568
    This class does nothing but define nested typedefs.  %Iterator classes
  can inherit from this cl...
end note
         note top of C_0003742820890603540341
    24.4.1 Reverse iterators

  Bidirectional and random access iterators have corresponding reverse
...
end note
       note top of C_0018446524956631938981
    24.4.2.2.1 back_insert_iterator

  

  These are output iterators, constructed from a container-o...
end note
     note top of C_0009870417718487041983
    These are output iterators, constructed from a container-of-T.
  Assigning a T to the iterator pr...
end note
     note top of C_0003857731205391224987
    These are output iterators, constructed from a container-of-T.
  Assigning a T to the iterator in...
end note
     note top of C_0000997856561152181668
    See bits/stl_deque.h's _Deque_base for an explanation.
end note
             note top of C_0005805017087195686008
    Meets the requirements of a 
container
, a
  
reversible container
, and a
  
sequence
, includin...
end note
     note top of C_0011374935455579958805
    A value_type object constructed with _Alloc_traits::construct()
 and destroyed with _Alloc_traits...
end note
                           note top of C_0002261458041236941641
    Note that vector
<bool
> does not actually meet the requirements for being
  a container.  This i...
end note
    


'Generated with clang-uml, version 0.6.1
'LLVM version Ubuntu clang version 19.1.1 (1ubuntu1)
@enduml
