@startuml
title Godot Node2D class context
left to right direction
class "Vector2" as C_0000053309527800613276
class C_0000053309527800613276 [[https://github.com/godotengine/godot/blob/faf3f883d1a25ec8a2b7a31ecc9e3363613b2478/./core/math/vector2.h#L39{Vector2}]] {
__
}
class "Transform2D" as C_0001296138246691404804
class C_0001296138246691404804 [[https://github.com/godotengine/godot/blob/faf3f883d1a25ec8a2b7a31ecc9e3363613b2478/./core/math/transform_2d.h#L37{Transform2D}]] {
__
}
class "StringName" as C_0001858199404643284193
class C_0001858199404643284193 [[https://github.com/godotengine/godot/blob/faf3f883d1a25ec8a2b7a31ecc9e3363613b2478/./core/string_name.h#L44{StringName}]] {
__
}
class "ClassDB" as C_0000104564426296396960
class C_0000104564426296396960 [[https://github.com/godotengine/godot/blob/faf3f883d1a25ec8a2b7a31ecc9e3363613b2478/./core/class_db.h#L94{ClassDB}]] {
__
}
class "CanvasItem" as C_0002074383603489565895
class C_0002074383603489565895 [[https://github.com/godotengine/godot/blob/faf3f883d1a25ec8a2b7a31ecc9e3363613b2478/./scene/2d/canvas_item.h#L165{CanvasItem}]] {
__
}
class "Node2D" as C_0002289363354048605759
class C_0002289363354048605759 [[https://github.com/godotengine/godot/blob/faf3f883d1a25ec8a2b7a31ecc9e3363613b2478/scene/2d/node_2d.h#L36{Node2D}]] {
__
}
C_0001296138246691404804 o-- C_0000053309527800613276 : +elements
C_0000104564426296396960 --> C_0001858199404643284193 : +classes
C_0000104564426296396960 --> C_0001858199404643284193 : +resource_base_extensions
C_0000104564426296396960 --> C_0001858199404643284193 : +compat_classes
C_0000104564426296396960 --> C_0001858199404643284193 : +default_values
C_0000104564426296396960 --> C_0001858199404643284193 : +default_values_cached
C_0002074383603489565895 o-- C_0001858199404643284193 : -_class_name
C_0002074383603489565895 o-- C_0001296138246691404804 : -global_transform
C_0002074383603489565895 --> C_0002074383603489565895 : -current_item_drawn
C_0002074383603489565895 <.. C_0000104564426296396960 : +<<friend>>
C_0002289363354048605759 o-- C_0001858199404643284193 : -_class_name
C_0002289363354048605759 o-- C_0000053309527800613276 : -pos
C_0002289363354048605759 o-- C_0000053309527800613276 : -_scale
C_0002289363354048605759 o-- C_0001296138246691404804 : -_mat
C_0002289363354048605759 <.. C_0000104564426296396960 : +<<friend>>
C_0002074383603489565895 <|-- C_0002289363354048605759

'Generated with clang-uml, version 0.4.0-9-gc398c6f
'LLVM version Ubuntu clang version 15.0.7
@enduml
