@startuml
title Godot Resource class hierarchy
left to right direction
package [core] as C_0001135303388636126337 {
package [os] as C_0000971228303667196130 {
class "InputEvent" as C_0000826642441440633506
class C_0000826642441440633506 [[https://github.com/godotengine/godot/blob/faf3f883d1a25ec8a2b7a31ecc9e3363613b2478/./core/os/input_event.h#L187{InputEvent}]] {
__
}
class "InputEventWithModifiers" as C_0001643690477901780535
class C_0001643690477901780535 [[https://github.com/godotengine/godot/blob/faf3f883d1a25ec8a2b7a31ecc9e3363613b2478/./core/os/input_event.h#L224{InputEventWithModifiers}]] {
__
}
class "InputEventKey" as C_0000005346252496229381
class C_0000005346252496229381 [[https://github.com/godotengine/godot/blob/faf3f883d1a25ec8a2b7a31ecc9e3363613b2478/./core/os/input_event.h#L269{InputEventKey}]] {
__
}
class "InputEventMouse" as C_0000508669583629270248
class C_0000508669583629270248 [[https://github.com/godotengine/godot/blob/faf3f883d1a25ec8a2b7a31ecc9e3363613b2478/./core/os/input_event.h#L308{InputEventMouse}]] {
__
}
class "InputEventMouseButton" as C_0001609811636033675562
class C_0001609811636033675562 [[https://github.com/godotengine/godot/blob/faf3f883d1a25ec8a2b7a31ecc9e3363613b2478/./core/os/input_event.h#L333{InputEventMouseButton}]] {
__
}
class "InputEventMouseMotion" as C_0001449155408194946072
class C_0001449155408194946072 [[https://github.com/godotengine/godot/blob/faf3f883d1a25ec8a2b7a31ecc9e3363613b2478/./core/os/input_event.h#L367{InputEventMouseMotion}]] {
__
}
class "InputEventJoypadMotion" as C_0000545233917368839369
class C_0000545233917368839369 [[https://github.com/godotengine/godot/blob/faf3f883d1a25ec8a2b7a31ecc9e3363613b2478/./core/os/input_event.h#L400{InputEventJoypadMotion}]] {
__
}
class "InputEventJoypadButton" as C_0000879206998663772909
class C_0000879206998663772909 [[https://github.com/godotengine/godot/blob/faf3f883d1a25ec8a2b7a31ecc9e3363613b2478/./core/os/input_event.h#L426{InputEventJoypadButton}]] {
__
}
class "InputEventScreenTouch" as C_0000424955783958123814
class C_0000424955783958123814 [[https://github.com/godotengine/godot/blob/faf3f883d1a25ec8a2b7a31ecc9e3363613b2478/./core/os/input_event.h#L454{InputEventScreenTouch}]] {
__
}
class "InputEventScreenDrag" as C_0000181579490489051672
class C_0000181579490489051672 [[https://github.com/godotengine/godot/blob/faf3f883d1a25ec8a2b7a31ecc9e3363613b2478/./core/os/input_event.h#L479{InputEventScreenDrag}]] {
__
}
class "InputEventAction" as C_0000771113246620413802
class C_0000771113246620413802 [[https://github.com/godotengine/godot/blob/faf3f883d1a25ec8a2b7a31ecc9e3363613b2478/./core/os/input_event.h#L509{InputEventAction}]] {
__
}
class "InputEventGesture" as C_0002273725611005372274
class C_0002273725611005372274 [[https://github.com/godotengine/godot/blob/faf3f883d1a25ec8a2b7a31ecc9e3363613b2478/./core/os/input_event.h#L541{InputEventGesture}]] {
__
}
class "InputEventMagnifyGesture" as C_0001081009511705756716
class C_0001081009511705756716 [[https://github.com/godotengine/godot/blob/faf3f883d1a25ec8a2b7a31ecc9e3363613b2478/./core/os/input_event.h#L555{InputEventMagnifyGesture}]] {
__
}
class "InputEventPanGesture" as C_0000785094287144192783
class C_0000785094287144192783 [[https://github.com/godotengine/godot/blob/faf3f883d1a25ec8a2b7a31ecc9e3363613b2478/./core/os/input_event.h#L573{InputEventPanGesture}]] {
__
}
class "InputEventMIDI" as C_0000421706308116149067
class C_0000421706308116149067 [[https://github.com/godotengine/godot/blob/faf3f883d1a25ec8a2b7a31ecc9e3363613b2478/./core/os/input_event.h#L591{InputEventMIDI}]] {
__
}
}
package [math] as C_0001290567961039012027 {
}
package [io] as C_0000800808595394760973 {
}
class "Resource" as C_0001951177692366602790
class C_0001951177692366602790 [[https://github.com/godotengine/godot/blob/faf3f883d1a25ec8a2b7a31ecc9e3363613b2478/./core/resource.h#L48{Resource}]] {
__
}
class "Script" as C_0001608678623693693822
class C_0001608678623693693822 [[https://github.com/godotengine/godot/blob/faf3f883d1a25ec8a2b7a31ecc9e3363613b2478/./core/script_language.h#L99{Script}]] {
__
}
class "Image" as C_0001347373196389223918
class C_0001347373196389223918 [[https://github.com/godotengine/godot/blob/faf3f883d1a25ec8a2b7a31ecc9e3363613b2478/./core/image.h#L55{Image}]] {
__
}
class "Translation" as C_0002175195378041774254
class C_0002175195378041774254 [[https://github.com/godotengine/godot/blob/faf3f883d1a25ec8a2b7a31ecc9e3363613b2478/./core/translation.h#L36{Translation}]] {
__
}
package [crypto] as C_0000143100313963892417 {
class "CryptoKey" as C_0000209170473243207631
class C_0000209170473243207631 [[https://github.com/godotengine/godot/blob/faf3f883d1a25ec8a2b7a31ecc9e3363613b2478/./core/crypto/crypto.h#L40{CryptoKey}]] {
__
}
class "X509Certificate" as C_0002250383059923974472
class C_0002250383059923974472 [[https://github.com/godotengine/godot/blob/faf3f883d1a25ec8a2b7a31ecc9e3363613b2478/./core/crypto/crypto.h#L53{X509Certificate}]] {
__
}
}
class "PackedDataContainer" as C_0001635565080070667323
class C_0001635565080070667323 [[https://github.com/godotengine/godot/blob/faf3f883d1a25ec8a2b7a31ecc9e3363613b2478/core/packed_data_container.h#L36{PackedDataContainer}]] {
__
}
package [bind] as C_0002118555885060719094 {
}
class "PHashTranslation" as C_0001000982088367490313
class C_0001000982088367490313 [[https://github.com/godotengine/godot/blob/faf3f883d1a25ec8a2b7a31ecc9e3363613b2478/core/compressed_translation.h#L36{PHashTranslation}]] {
__
}
}
package [scene] as C_0000159240983285943022 {
package [resources] as C_0001908747512608143025 {
class "Curve" as C_0001163921931966275471
class C_0001163921931966275471 [[https://github.com/godotengine/godot/blob/faf3f883d1a25ec8a2b7a31ecc9e3363613b2478/./scene/resources/curve.h#L37{Curve}]] {
__
}
class "Curve2D" as C_0000583453570386694974
class C_0000583453570386694974 [[https://github.com/godotengine/godot/blob/faf3f883d1a25ec8a2b7a31ecc9e3363613b2478/./scene/resources/curve.h#L151{Curve2D}]] {
__
}
class "Curve3D" as C_0001996211114461908095
class C_0001996211114461908095 [[https://github.com/godotengine/godot/blob/faf3f883d1a25ec8a2b7a31ecc9e3363613b2478/./scene/resources/curve.h#L214{Curve3D}]] {
__
}
class "Gradient" as C_0001515896569718711140
class C_0001515896569718711140 [[https://github.com/godotengine/godot/blob/faf3f883d1a25ec8a2b7a31ecc9e3363613b2478/./scene/resources/gradient.h#L36{Gradient}]] {
__
}
class "Texture" as C_0001367871067587158636
class C_0001367871067587158636 [[https://github.com/godotengine/godot/blob/faf3f883d1a25ec8a2b7a31ecc9e3363613b2478/./scene/resources/texture.h#L45{Texture}]] {
__
}
class "ImageTexture" as C_0000798383873302476750
class C_0000798383873302476750 [[https://github.com/godotengine/godot/blob/faf3f883d1a25ec8a2b7a31ecc9e3363613b2478/./scene/resources/texture.h#L91{ImageTexture}]] {
__
}
class "StreamTexture" as C_0000486991884140911232
class C_0000486991884140911232 [[https://github.com/godotengine/godot/blob/faf3f883d1a25ec8a2b7a31ecc9e3363613b2478/./scene/resources/texture.h#L165{StreamTexture}]] {
__
}
class "AtlasTexture" as C_0001637279102233248180
class C_0001637279102233248180 [[https://github.com/godotengine/godot/blob/faf3f883d1a25ec8a2b7a31ecc9e3363613b2478/./scene/resources/texture.h#L248{AtlasTexture}]] {
__
}
class "MeshTexture" as C_0001430074170771569724
class C_0001430074170771569724 [[https://github.com/godotengine/godot/blob/faf3f883d1a25ec8a2b7a31ecc9e3363613b2478/./scene/resources/texture.h#L295{MeshTexture}]] {
__
}
class "LargeTexture" as C_0000865137412866175601
class C_0000865137412866175601 [[https://github.com/godotengine/godot/blob/faf3f883d1a25ec8a2b7a31ecc9e3363613b2478/./scene/resources/texture.h#L336{LargeTexture}]] {
__
}
class "CubeMap" as C_0000868947797365640613
class C_0000868947797365640613 [[https://github.com/godotengine/godot/blob/faf3f883d1a25ec8a2b7a31ecc9e3363613b2478/./scene/resources/texture.h#L386{CubeMap}]] {
__
}
class "TextureLayered" as C_0001581103179488457373
class C_0001581103179488457373 [[https://github.com/godotengine/godot/blob/faf3f883d1a25ec8a2b7a31ecc9e3363613b2478/./scene/resources/texture.h#L467{TextureLayered}]] {
__
}
class "Texture3D" as C_0001544358461463390852
class C_0001544358461463390852 [[https://github.com/godotengine/godot/blob/faf3f883d1a25ec8a2b7a31ecc9e3363613b2478/./scene/resources/texture.h#L531{Texture3D}]] {
__
}
class "TextureArray" as C_0001404587360588661178
class C_0001404587360588661178 [[https://github.com/godotengine/godot/blob/faf3f883d1a25ec8a2b7a31ecc9e3363613b2478/./scene/resources/texture.h#L540{TextureArray}]] {
__
}
class "CurveTexture" as C_0000496374853566997945
class C_0000496374853566997945 [[https://github.com/godotengine/godot/blob/faf3f883d1a25ec8a2b7a31ecc9e3363613b2478/./scene/resources/texture.h#L557{CurveTexture}]] {
__
}
class "GradientTexture" as C_0000093237254261317379
class C_0000093237254261317379 [[https://github.com/godotengine/godot/blob/faf3f883d1a25ec8a2b7a31ecc9e3363613b2478/./scene/resources/texture.h#L606{GradientTexture}]] {
__
}
class "ProxyTexture" as C_0001958159253311530745
class C_0001958159253311530745 [[https://github.com/godotengine/godot/blob/faf3f883d1a25ec8a2b7a31ecc9e3363613b2478/./scene/resources/texture.h#L651{ProxyTexture}]] {
__
}
class "AnimatedTexture" as C_0002139700944454124435
class C_0002139700944454124435 [[https://github.com/godotengine/godot/blob/faf3f883d1a25ec8a2b7a31ecc9e3363613b2478/./scene/resources/texture.h#L678{AnimatedTexture}]] {
__
}
class "CameraTexture" as C_0002176748275886758573
class C_0002176748275886758573 [[https://github.com/godotengine/godot/blob/faf3f883d1a25ec8a2b7a31ecc9e3363613b2478/./scene/resources/texture.h#L758{CameraTexture}]] {
__
}
class "ExternalTexture" as C_0001681920172986601183
class C_0001681920172986601183 [[https://github.com/godotengine/godot/blob/faf3f883d1a25ec8a2b7a31ecc9e3363613b2478/./scene/resources/texture.h#L793{ExternalTexture}]] {
__
}
class "Shader" as C_0001862491237042062945
class C_0001862491237042062945 [[https://github.com/godotengine/godot/blob/faf3f883d1a25ec8a2b7a31ecc9e3363613b2478/./scene/resources/shader.h#L39{Shader}]] {
__
}
class "Material" as C_0002216485283797399225
class C_0002216485283797399225 [[https://github.com/godotengine/godot/blob/faf3f883d1a25ec8a2b7a31ecc9e3363613b2478/./scene/resources/material.h#L41{Material}]] {
__
}
class "ShaderMaterial" as C_0001706220248564978422
class C_0001706220248564978422 [[https://github.com/godotengine/godot/blob/faf3f883d1a25ec8a2b7a31ecc9e3363613b2478/./scene/resources/material.h#L76{ShaderMaterial}]] {
__
}
class "SpatialMaterial" as C_0000001963724432077621
class C_0000001963724432077621 [[https://github.com/godotengine/godot/blob/faf3f883d1a25ec8a2b7a31ecc9e3363613b2478/./scene/resources/material.h#L109{SpatialMaterial}]] {
__
}
class "Shape" as C_0001672291103657734280
class C_0001672291103657734280 [[https://github.com/godotengine/godot/blob/faf3f883d1a25ec8a2b7a31ecc9e3363613b2478/./scene/resources/shape.h#L37{Shape}]] {
__
}
class "Mesh" as C_0001733195975248453909
class C_0001733195975248453909 [[https://github.com/godotengine/godot/blob/faf3f883d1a25ec8a2b7a31ecc9e3363613b2478/./scene/resources/mesh.h#L41{Mesh}]] {
__
}
class "ArrayMesh" as C_0001532490567718443177
class C_0001532490567718443177 [[https://github.com/godotengine/godot/blob/faf3f883d1a25ec8a2b7a31ecc9e3363613b2478/./scene/resources/mesh.h#L158{ArrayMesh}]] {
__
}
class "Sky" as C_0000116528474292236882
class C_0000116528474292236882 [[https://github.com/godotengine/godot/blob/faf3f883d1a25ec8a2b7a31ecc9e3363613b2478/./scene/resources/sky.h#L37{Sky}]] {
__
}
class "PanoramaSky" as C_0000648215409631414149
class C_0000648215409631414149 [[https://github.com/godotengine/godot/blob/faf3f883d1a25ec8a2b7a31ecc9e3363613b2478/./scene/resources/sky.h#L67{PanoramaSky}]] {
__
}
class "ProceduralSky" as C_0001250686154751320195
class C_0001250686154751320195 [[https://github.com/godotengine/godot/blob/faf3f883d1a25ec8a2b7a31ecc9e3363613b2478/./scene/resources/sky.h#L88{ProceduralSky}]] {
__
}
class "Environment" as C_0001807798357493001327
class C_0001807798357493001327 [[https://github.com/godotengine/godot/blob/faf3f883d1a25ec8a2b7a31ecc9e3363613b2478/./scene/resources/environment.h#L39{Environment}]] {
__
}
class "World" as C_0002268909104966341925
class C_0002268909104966341925 [[https://github.com/godotengine/godot/blob/faf3f883d1a25ec8a2b7a31ecc9e3363613b2478/./scene/resources/world.h#L43{World}]] {
__
}
class "World2D" as C_0001698058622807192888
class C_0001698058622807192888 [[https://github.com/godotengine/godot/blob/faf3f883d1a25ec8a2b7a31ecc9e3363613b2478/./scene/resources/world_2d.h#L42{World2D}]] {
__
}
class "MultiMesh" as C_0000096587815980107455
class C_0000096587815980107455 [[https://github.com/godotengine/godot/blob/faf3f883d1a25ec8a2b7a31ecc9e3363613b2478/./scene/resources/multimesh.h#L37{MultiMesh}]] {
__
}
class "Font" as C_0000054107906042594907
class C_0000054107906042594907 [[https://github.com/godotengine/godot/blob/faf3f883d1a25ec8a2b7a31ecc9e3363613b2478/./scene/resources/font.h#L38{Font}]] {
__
}
class "BitmapFont" as C_0000732540472499227446
class C_0000732540472499227446 [[https://github.com/godotengine/godot/blob/faf3f883d1a25ec8a2b7a31ecc9e3363613b2478/./scene/resources/font.h#L106{BitmapFont}]] {
__
}
class "StyleBox" as C_0000636726652931404765
class C_0000636726652931404765 [[https://github.com/godotengine/godot/blob/faf3f883d1a25ec8a2b7a31ecc9e3363613b2478/./scene/resources/style_box.h#L40{StyleBox}]] {
__
}
class "StyleBoxEmpty" as C_0000259224014912534733
class C_0000259224014912534733 [[https://github.com/godotengine/godot/blob/faf3f883d1a25ec8a2b7a31ecc9e3363613b2478/./scene/resources/style_box.h#L70{StyleBoxEmpty}]] {
__
}
class "StyleBoxTexture" as C_0001721162396461278621
class C_0001721162396461278621 [[https://github.com/godotengine/godot/blob/faf3f883d1a25ec8a2b7a31ecc9e3363613b2478/./scene/resources/style_box.h#L80{StyleBoxTexture}]] {
__
}
class "StyleBoxFlat" as C_0002269836518882757108
class C_0002269836518882757108 [[https://github.com/godotengine/godot/blob/faf3f883d1a25ec8a2b7a31ecc9e3363613b2478/./scene/resources/style_box.h#L146{StyleBoxFlat}]] {
__
}
class "StyleBoxLine" as C_0000728889196933964519
class C_0000728889196933964519 [[https://github.com/godotengine/godot/blob/faf3f883d1a25ec8a2b7a31ecc9e3363613b2478/./scene/resources/style_box.h#L240{StyleBoxLine}]] {
__
}
class "Theme" as C_0000993567374411090062
class C_0000993567374411090062 [[https://github.com/godotengine/godot/blob/faf3f883d1a25ec8a2b7a31ecc9e3363613b2478/./scene/resources/theme.h#L41{Theme}]] {
__
}
}
package [main] as C_0000712285719116385287 {
class "Mesh" as C_0001733195975248453909
class C_0001733195975248453909 [[https://github.com/godotengine/godot/blob/faf3f883d1a25ec8a2b7a31ecc9e3363613b2478/./scene/main/scene_tree.h#L46{Mesh}]] {
__
}
class "Material" as C_0002216485283797399225
class C_0002216485283797399225 [[https://github.com/godotengine/godot/blob/faf3f883d1a25ec8a2b7a31ecc9e3363613b2478/./scene/main/scene_tree.h#L45{Material}]] {
__
}
}
package [2d] as C_0001702441167006166314 {
class "CanvasItemMaterial" as C_0000484561506113559349
class C_0000484561506113559349 [[https://github.com/godotengine/godot/blob/faf3f883d1a25ec8a2b7a31ecc9e3363613b2478/./scene/2d/canvas_item.h#L47{CanvasItemMaterial}]] {
__
}
}
package [gui] as C_0002199462842849286237 {
class "ShortCut" as C_0000927016956309081505
class C_0000927016956309081505 [[https://github.com/godotengine/godot/blob/faf3f883d1a25ec8a2b7a31ecc9e3363613b2478/./scene/gui/shortcut.h#L37{ShortCut}]] {
__
}
}
}
package [servers] as C_0002144003061314495847 {
package [visual] as C_0001629784819027334179 {
}
package [audio] as C_0001274660134554969367 {
class "AudioEffect" as C_0001135869814642263160
class C_0001135869814642263160 [[https://github.com/godotengine/godot/blob/faf3f883d1a25ec8a2b7a31ecc9e3363613b2478/./servers/audio/audio_effect.h#L45{AudioEffect}]] {
__
}
}
class "AudioBusLayout" as C_0001456847428901597356
class C_0001456847428901597356 [[https://github.com/godotengine/godot/blob/faf3f883d1a25ec8a2b7a31ecc9e3363613b2478/./servers/audio_server.h#L382{AudioBusLayout}]] {
__
}
}
package [editor] as C_0001379057708579141781 {
class "EditorSettings" as C_0000112336399891508100
class C_0000112336399891508100 [[https://github.com/godotengine/godot/blob/faf3f883d1a25ec8a2b7a31ecc9e3363613b2478/./editor/editor_settings.h#L44{EditorSettings}]] {
__
}
}
C_0001951177692366602790 <|-- C_0000826642441440633506
C_0000826642441440633506 <|-- C_0001643690477901780535
C_0001643690477901780535 <|-- C_0000005346252496229381
C_0001643690477901780535 <|-- C_0000508669583629270248
C_0000508669583629270248 <|-- C_0001609811636033675562
C_0000508669583629270248 <|-- C_0001449155408194946072
C_0000826642441440633506 <|-- C_0000545233917368839369
C_0000826642441440633506 <|-- C_0000879206998663772909
C_0000826642441440633506 <|-- C_0000424955783958123814
C_0000826642441440633506 <|-- C_0000181579490489051672
C_0000826642441440633506 <|-- C_0000771113246620413802
C_0001643690477901780535 <|-- C_0002273725611005372274
C_0002273725611005372274 <|-- C_0001081009511705756716
C_0002273725611005372274 <|-- C_0000785094287144192783
C_0000826642441440633506 <|-- C_0000421706308116149067
C_0001951177692366602790 <|-- C_0001608678623693693822
C_0001951177692366602790 <|-- C_0001347373196389223918
C_0001951177692366602790 <|-- C_0002175195378041774254
C_0001951177692366602790 <|-- C_0000209170473243207631
C_0001951177692366602790 <|-- C_0002250383059923974472
C_0001951177692366602790 <|-- C_0001635565080070667323
C_0002175195378041774254 <|-- C_0001000982088367490313
C_0001951177692366602790 <|-- C_0001163921931966275471
C_0001951177692366602790 <|-- C_0000583453570386694974
C_0001951177692366602790 <|-- C_0001996211114461908095
C_0001951177692366602790 <|-- C_0001515896569718711140
C_0001951177692366602790 <|-- C_0001367871067587158636
C_0001367871067587158636 <|-- C_0000798383873302476750
C_0001367871067587158636 <|-- C_0000486991884140911232
C_0001367871067587158636 <|-- C_0001637279102233248180
C_0001367871067587158636 <|-- C_0001430074170771569724
C_0001367871067587158636 <|-- C_0000865137412866175601
C_0001951177692366602790 <|-- C_0000868947797365640613
C_0001951177692366602790 <|-- C_0001581103179488457373
C_0001581103179488457373 <|-- C_0001544358461463390852
C_0001581103179488457373 <|-- C_0001404587360588661178
C_0001367871067587158636 <|-- C_0000496374853566997945
C_0001367871067587158636 <|-- C_0000093237254261317379
C_0001367871067587158636 <|-- C_0001958159253311530745
C_0001367871067587158636 <|-- C_0002139700944454124435
C_0001367871067587158636 <|-- C_0002176748275886758573
C_0001367871067587158636 <|-- C_0001681920172986601183
C_0001951177692366602790 <|-- C_0001862491237042062945
C_0001951177692366602790 <|-- C_0002216485283797399225
C_0002216485283797399225 <|-- C_0001706220248564978422
C_0002216485283797399225 <|-- C_0000001963724432077621
C_0001951177692366602790 <|-- C_0001672291103657734280
C_0001951177692366602790 <|-- C_0001733195975248453909
C_0001733195975248453909 <|-- C_0001532490567718443177
C_0001951177692366602790 <|-- C_0000116528474292236882
C_0000116528474292236882 <|-- C_0000648215409631414149
C_0000116528474292236882 <|-- C_0001250686154751320195
C_0001951177692366602790 <|-- C_0001807798357493001327
C_0001951177692366602790 <|-- C_0002268909104966341925
C_0001951177692366602790 <|-- C_0001698058622807192888
C_0001951177692366602790 <|-- C_0000096587815980107455
C_0001951177692366602790 <|-- C_0000054107906042594907
C_0000054107906042594907 <|-- C_0000732540472499227446
C_0001951177692366602790 <|-- C_0000636726652931404765
C_0000636726652931404765 <|-- C_0000259224014912534733
C_0000636726652931404765 <|-- C_0001721162396461278621
C_0000636726652931404765 <|-- C_0002269836518882757108
C_0000636726652931404765 <|-- C_0000728889196933964519
C_0001951177692366602790 <|-- C_0000993567374411090062
C_0002216485283797399225 <|-- C_0000484561506113559349
C_0001951177692366602790 <|-- C_0000927016956309081505
C_0001951177692366602790 <|-- C_0001135869814642263160
C_0001951177692366602790 <|-- C_0001456847428901597356
C_0001951177692366602790 <|-- C_0000112336399891508100

'Generated with clang-uml, version 0.4.0-9-gc398c6f
'LLVM version Ubuntu clang version 15.0.7
@enduml
