@startuml
title 'Dynamic' class diagram
left to right direction
package [Dynamic] as C_0002281307121949168090 {
class "VarHolder" as C_0000820091630223006238
class C_0000820091630223006238 [[https://github.com/pocoproject/poco/blob/9fc117d585e552ae3327b56900df9cc40653d574/Foundation/include/Poco/Dynamic/VarHolder.h#L104{VarHolder}]] {
__
}
class "VarHolderImpl<T>" as C_0001112867090784569162
class C_0001112867090784569162 [[https://github.com/pocoproject/poco/blob/9fc117d585e552ae3327b56900df9cc40653d574/Foundation/include/Poco/Dynamic/VarHolder.h#L705{VarHolderImpl}]] {
__
}
class "VarHolderImpl<signed char>" as C_0002149165824584484566
class C_0002149165824584484566 [[https://github.com/pocoproject/poco/blob/9fc117d585e552ae3327b56900df9cc40653d574/Foundation/include/Poco/Dynamic/VarHolder.h#L759{VarHolderImpl}]] {
__
}
class "VarHolderImpl<short>" as C_0000198808093629002393
class C_0000198808093629002393 [[https://github.com/pocoproject/poco/blob/9fc117d585e552ae3327b56900df9cc40653d574/Foundation/include/Poco/Dynamic/VarHolder.h#L915{VarHolderImpl}]] {
__
}
class "VarHolderImpl<int>" as C_0000976768452323437983
class C_0000976768452323437983 [[https://github.com/pocoproject/poco/blob/9fc117d585e552ae3327b56900df9cc40653d574/Foundation/include/Poco/Dynamic/VarHolder.h#L1068{VarHolderImpl}]] {
__
}
class "VarHolderImpl<long>" as C_0001804431617899042426
class C_0001804431617899042426 [[https://github.com/pocoproject/poco/blob/9fc117d585e552ae3327b56900df9cc40653d574/Foundation/include/Poco/Dynamic/VarHolder.h#L1220{VarHolderImpl}]] {
__
}
class "VarHolderImpl<unsigned char>" as C_0001832009513687525374
class C_0001832009513687525374 [[https://github.com/pocoproject/poco/blob/9fc117d585e552ae3327b56900df9cc40653d574/Foundation/include/Poco/Dynamic/VarHolder.h#L1387{VarHolderImpl}]] {
__
}
class "VarHolderImpl<unsigned short>" as C_0000572186414558919480
class C_0000572186414558919480 [[https://github.com/pocoproject/poco/blob/9fc117d585e552ae3327b56900df9cc40653d574/Foundation/include/Poco/Dynamic/VarHolder.h#L1539{VarHolderImpl}]] {
__
}
class "VarHolderImpl<unsigned int>" as C_0000166253842255815357
class C_0000166253842255815357 [[https://github.com/pocoproject/poco/blob/9fc117d585e552ae3327b56900df9cc40653d574/Foundation/include/Poco/Dynamic/VarHolder.h#L1691{VarHolderImpl}]] {
__
}
class "VarHolderImpl<unsigned long>" as C_0001459401574844645109
class C_0001459401574844645109 [[https://github.com/pocoproject/poco/blob/9fc117d585e552ae3327b56900df9cc40653d574/Foundation/include/Poco/Dynamic/VarHolder.h#L1843{VarHolderImpl}]] {
__
}
class "VarHolderImpl<bool>" as C_0000599279109574326060
class C_0000599279109574326060 [[https://github.com/pocoproject/poco/blob/9fc117d585e552ae3327b56900df9cc40653d574/Foundation/include/Poco/Dynamic/VarHolder.h#L2016{VarHolderImpl}]] {
__
}
class "VarHolderImpl<float>" as C_0000384619052225252533
class C_0000384619052225252533 [[https://github.com/pocoproject/poco/blob/9fc117d585e552ae3327b56900df9cc40653d574/Foundation/include/Poco/Dynamic/VarHolder.h#L2166{VarHolderImpl}]] {
__
}
class "VarHolderImpl<double>" as C_0002242257052791493112
class C_0002242257052791493112 [[https://github.com/pocoproject/poco/blob/9fc117d585e552ae3327b56900df9cc40653d574/Foundation/include/Poco/Dynamic/VarHolder.h#L2319{VarHolderImpl}]] {
__
}
class "VarHolderImpl<char>" as C_0001942181379759217898
class C_0001942181379759217898 [[https://github.com/pocoproject/poco/blob/9fc117d585e552ae3327b56900df9cc40653d574/Foundation/include/Poco/Dynamic/VarHolder.h#L2478{VarHolderImpl}]] {
__
}
class "VarHolderImpl<std::string>" as C_0002291903337356664508
class C_0002291903337356664508 [[https://github.com/pocoproject/poco/blob/9fc117d585e552ae3327b56900df9cc40653d574/Foundation/include/Poco/Dynamic/VarHolder.h#L2628{VarHolderImpl}]] {
__
}
class "VarHolderImpl<std::basic_string<unsigned short>>" as C_0001370368867041199969
class C_0001370368867041199969 [[https://github.com/pocoproject/poco/blob/9fc117d585e552ae3327b56900df9cc40653d574/Foundation/include/Poco/Dynamic/VarHolder.h#L2825{VarHolderImpl}]] {
__
}
class "VarHolderImpl<long long>" as C_0001646173285346905617
class C_0001646173285346905617 [[https://github.com/pocoproject/poco/blob/9fc117d585e552ae3327b56900df9cc40653d574/Foundation/include/Poco/Dynamic/VarHolder.h#L3309{VarHolderImpl}]] {
__
}
class "VarHolderImpl<unsigned long long>" as C_0001583654034047392858
class C_0001583654034047392858 [[https://github.com/pocoproject/poco/blob/9fc117d585e552ae3327b56900df9cc40653d574/Foundation/include/Poco/Dynamic/VarHolder.h#L3457{VarHolderImpl}]] {
__
}
class "VarHolderImpl<std::vector<T>>" as C_0000910307965681926894
class C_0000910307965681926894 [[https://github.com/pocoproject/poco/blob/9fc117d585e552ae3327b56900df9cc40653d574/Foundation/include/Poco/Dynamic/VarHolder.h#L3608{VarHolderImpl}]] {
__
}
class "VarHolderImpl<std::list<T>>" as C_0000355772964752054032
class C_0000355772964752054032 [[https://github.com/pocoproject/poco/blob/9fc117d585e552ae3327b56900df9cc40653d574/Foundation/include/Poco/Dynamic/VarHolder.h#L3673{VarHolderImpl}]] {
__
}
class "VarHolderImpl<std::deque<T>>" as C_0001350084679139174053
class C_0001350084679139174053 [[https://github.com/pocoproject/poco/blob/9fc117d585e552ae3327b56900df9cc40653d574/Foundation/include/Poco/Dynamic/VarHolder.h#L3748{VarHolderImpl}]] {
__
}
class "VarHolderImpl<DateTime>" as C_0000699000175415913074
class C_0000699000175415913074 [[https://github.com/pocoproject/poco/blob/9fc117d585e552ae3327b56900df9cc40653d574/Foundation/include/Poco/Dynamic/VarHolder.h#L3813{VarHolderImpl}]] {
__
}
class "VarHolderImpl<LocalDateTime>" as C_0001850771625416044357
class C_0001850771625416044357 [[https://github.com/pocoproject/poco/blob/9fc117d585e552ae3327b56900df9cc40653d574/Foundation/include/Poco/Dynamic/VarHolder.h#L3963{VarHolderImpl}]] {
__
}
class "VarHolderImpl<Timestamp>" as C_0001458511670125196521
class C_0001458511670125196521 [[https://github.com/pocoproject/poco/blob/9fc117d585e552ae3327b56900df9cc40653d574/Foundation/include/Poco/Dynamic/VarHolder.h#L4098{VarHolderImpl}]] {
__
}
class "VarHolderImpl<UUID>" as C_0001286239480653274581
class C_0001286239480653274581 [[https://github.com/pocoproject/poco/blob/9fc117d585e552ae3327b56900df9cc40653d574/Foundation/include/Poco/Dynamic/VarHolder.h#L4233{VarHolderImpl}]] {
__
}
class "VarIterator" as C_0002237184725500898553
class C_0002237184725500898553 [[https://github.com/pocoproject/poco/blob/9fc117d585e552ae3327b56900df9cc40653d574/Foundation/include/Poco/Dynamic/VarIterator.h#L33{VarIterator}]] {
__
}
class "Var" as C_0001827593751126946500
class C_0001827593751126946500 [[https://github.com/pocoproject/poco/blob/9fc117d585e552ae3327b56900df9cc40653d574/Foundation/include/Poco/Dynamic/Var.h#L41{Var}]] {
__
}
class "Struct<K,M=std::map<K, Var>,S=std::set<K>>" as C_0000562679976742134348
class C_0000562679976742134348 [[https://github.com/pocoproject/poco/blob/9fc117d585e552ae3327b56900df9cc40653d574/Foundation/include/Poco/Dynamic/Struct.h#L36{Struct}]] {
__
}
class "Struct<std::string,std::map<std::string,Dynamic::Var>,std::set<std::string>>" as C_0000527346272489458655
class C_0000527346272489458655 [[https://github.com/pocoproject/poco/blob/9fc117d585e552ae3327b56900df9cc40653d574/Foundation/include/Poco/Dynamic/VarHolder.h#L705{Struct}]] {
__
}
class "VarHolderImpl<Dynamic::Struct<std::string,std::map<std::string,Dynamic::Var>,std::set<std::string>>>" as C_0000005959213735263804
class C_0000005959213735263804 [[https://github.com/pocoproject/poco/blob/9fc117d585e552ae3327b56900df9cc40653d574/Foundation/include/Poco/Dynamic/Struct.h#L252{VarHolderImpl}]] {
__
}
class "Struct<int,std::map<int,Dynamic::Var>,std::set<int>>" as C_0000234522456695339728
class C_0000234522456695339728 [[https://github.com/pocoproject/poco/blob/9fc117d585e552ae3327b56900df9cc40653d574/Foundation/include/Poco/Dynamic/VarHolder.h#L705{Struct}]] {
__
}
class "Struct<Dynamic::VarHolderImpl<Poco::Dynamic::Struct<int>>::KeyType,std::map<Dynamic::VarHolderImpl<Poco::Dynamic::Struct<int>>::KeyType,Dynamic::Var>,std::set<Dynamic::VarHolderImpl<Poco::Dynamic::Struct<int>>::KeyType>>" as C_0001212087958231445051
class C_0001212087958231445051 [[https://github.com/pocoproject/poco/blob/9fc117d585e552ae3327b56900df9cc40653d574/Foundation/include/Poco/Dynamic/Struct.h#L36{Struct}]] {
__
}
class "VarHolderImpl<Dynamic::Struct<int,std::map<int,Dynamic::Var>,std::set<int>>>" as C_0000337724165693095141
class C_0000337724165693095141 [[https://github.com/pocoproject/poco/blob/9fc117d585e552ae3327b56900df9cc40653d574/Foundation/include/Poco/Dynamic/Struct.h#L438{VarHolderImpl}]] {
__
}
class "Struct<std::string,tsl::ordered_map<std::string,Dynamic::Var>,tsl::ordered_set<std::string>>" as C_0001994773360593884629
class C_0001994773360593884629 [[https://github.com/pocoproject/poco/blob/9fc117d585e552ae3327b56900df9cc40653d574/Foundation/include/Poco/Dynamic/VarHolder.h#L705{Struct}]] {
__
}
class "Struct<std::string,OrderedMap<std::string,Dynamic::Var>,OrderedSet<std::string>>" as C_0000285075638289121010
class C_0000285075638289121010 [[https://github.com/pocoproject/poco/blob/9fc117d585e552ae3327b56900df9cc40653d574/Foundation/include/Poco/Dynamic/Struct.h#L36{Struct}]] {
__
}
class "VarHolderImpl<Dynamic::Struct<std::string,tsl::ordered_map<std::string,Dynamic::Var>,tsl::ordered_set<std::string>>>" as C_0000919753061206343041
class C_0000919753061206343041 [[https://github.com/pocoproject/poco/blob/9fc117d585e552ae3327b56900df9cc40653d574/Foundation/include/Poco/Dynamic/Struct.h#L624{VarHolderImpl}]] {
__
}
class "Struct<int,tsl::ordered_map<int,Dynamic::Var>,tsl::ordered_set<int>>" as C_0000976793773745790650
class C_0000976793773745790650 [[https://github.com/pocoproject/poco/blob/9fc117d585e552ae3327b56900df9cc40653d574/Foundation/include/Poco/Dynamic/VarHolder.h#L705{Struct}]] {
__
}
class "Struct<Dynamic::VarHolderImpl<Poco::Dynamic::Struct<int,tsl::ordered_map<int,Poco::Dynamic::Var>,tsl::ordered_set<int>>>::KeyType,OrderedMap<int,Dynamic::Var>,OrderedSet<int>>" as C_0001731737538524969332
class C_0001731737538524969332 [[https://github.com/pocoproject/poco/blob/9fc117d585e552ae3327b56900df9cc40653d574/Foundation/include/Poco/Dynamic/Struct.h#L36{Struct}]] {
__
}
class "VarHolderImpl<Dynamic::Struct<int,tsl::ordered_map<int,Dynamic::Var>,tsl::ordered_set<int>>>" as C_0000988703063712340439
class C_0000988703063712340439 [[https://github.com/pocoproject/poco/blob/9fc117d585e552ae3327b56900df9cc40653d574/Foundation/include/Poco/Dynamic/Struct.h#L810{VarHolderImpl}]] {
__
}
class "Struct<K,M,S>" as C_0000876644825045799418
class C_0000876644825045799418 [[https://github.com/pocoproject/poco/blob/9fc117d585e552ae3327b56900df9cc40653d574/Foundation/include/Poco/Dynamic/Var.h#L38{Struct}]] {
__
}
}
C_0000820091630223006238 <|-- C_0001112867090784569162
C_0002149165824584484566 ..|> C_0001112867090784569162
C_0000820091630223006238 <|-- C_0002149165824584484566
C_0000198808093629002393 ..|> C_0001112867090784569162
C_0000820091630223006238 <|-- C_0000198808093629002393
C_0000976768452323437983 ..|> C_0001112867090784569162
C_0000820091630223006238 <|-- C_0000976768452323437983
C_0001804431617899042426 ..|> C_0001112867090784569162
C_0000820091630223006238 <|-- C_0001804431617899042426
C_0001832009513687525374 ..|> C_0001112867090784569162
C_0000820091630223006238 <|-- C_0001832009513687525374
C_0000572186414558919480 ..|> C_0001112867090784569162
C_0000820091630223006238 <|-- C_0000572186414558919480
C_0000166253842255815357 ..|> C_0001112867090784569162
C_0000820091630223006238 <|-- C_0000166253842255815357
C_0001459401574844645109 ..|> C_0001112867090784569162
C_0000820091630223006238 <|-- C_0001459401574844645109
C_0000599279109574326060 ..|> C_0001112867090784569162
C_0000820091630223006238 <|-- C_0000599279109574326060
C_0000384619052225252533 ..|> C_0001112867090784569162
C_0000820091630223006238 <|-- C_0000384619052225252533
C_0002242257052791493112 ..|> C_0001112867090784569162
C_0000820091630223006238 <|-- C_0002242257052791493112
C_0001942181379759217898 ..|> C_0001112867090784569162
C_0000820091630223006238 <|-- C_0001942181379759217898
C_0002291903337356664508 ..|> C_0001112867090784569162
C_0000820091630223006238 <|-- C_0002291903337356664508
C_0001370368867041199969 ..|> C_0001112867090784569162
C_0000820091630223006238 <|-- C_0001370368867041199969
C_0001646173285346905617 ..|> C_0001112867090784569162
C_0000820091630223006238 <|-- C_0001646173285346905617
C_0001583654034047392858 ..|> C_0001112867090784569162
C_0000820091630223006238 <|-- C_0001583654034047392858
C_0000910307965681926894 ..|> C_0001112867090784569162
C_0000820091630223006238 <|-- C_0000910307965681926894
C_0000355772964752054032 ..|> C_0001112867090784569162
C_0000820091630223006238 <|-- C_0000355772964752054032
C_0001350084679139174053 ..|> C_0001112867090784569162
C_0000820091630223006238 <|-- C_0001350084679139174053
C_0000699000175415913074 ..|> C_0001112867090784569162
C_0000820091630223006238 <|-- C_0000699000175415913074
C_0001850771625416044357 ..|> C_0001112867090784569162
C_0000820091630223006238 <|-- C_0001850771625416044357
C_0001458511670125196521 ..|> C_0001112867090784569162
C_0000820091630223006238 <|-- C_0001458511670125196521
C_0001286239480653274581 ..|> C_0001112867090784569162
C_0000820091630223006238 <|-- C_0001286239480653274581
C_0002237184725500898553 --> C_0001827593751126946500 : -_pVar
C_0002237184725500898553 <.. C_0001827593751126946500 : +<<friend>>
C_0000527346272489458655 ..|> C_0000562679976742134348
C_0000005959213735263804 ..|> C_0000562679976742134348
C_0000005959213735263804 ..|> C_0001112867090784569162
C_0000005959213735263804 o-- C_0000527346272489458655 : -_val
C_0000820091630223006238 <|-- C_0000005959213735263804
C_0000234522456695339728 ..|> C_0000562679976742134348
C_0001212087958231445051 ..|> C_0000562679976742134348
C_0000337724165693095141 ..|> C_0000562679976742134348
C_0000337724165693095141 ..|> C_0001112867090784569162
C_0000337724165693095141 o-- C_0001212087958231445051 : -_val
C_0000820091630223006238 <|-- C_0000337724165693095141
C_0001994773360593884629 ..|> C_0000562679976742134348
C_0000285075638289121010 ..|> C_0000562679976742134348
C_0000919753061206343041 ..|> C_0000562679976742134348
C_0000919753061206343041 ..|> C_0001112867090784569162
C_0000919753061206343041 o-- C_0000285075638289121010 : -_val
C_0000820091630223006238 <|-- C_0000919753061206343041
C_0000976793773745790650 ..|> C_0000562679976742134348
C_0001731737538524969332 ..|> C_0000562679976742134348
C_0000988703063712340439 ..|> C_0000562679976742134348
C_0000988703063712340439 ..|> C_0001112867090784569162
C_0000988703063712340439 o-- C_0001731737538524969332 : -_val
C_0000820091630223006238 <|-- C_0000988703063712340439

'Generated with clang-uml, version 0.4.0-9-gc398c6f
'LLVM version Ubuntu clang version 15.0.7
@enduml
