@startuml
title Data::ElementMap context
package [std] as C_0009971158671206323968 {
class "map<const char *,Data::ElementMap::IndexedElements,Data::ElementMap::CStringComp>" as C_0012133235533454508371
class C_0012133235533454508371 [[https://github.com/FreeCAD/FreeCAD/blob/2fcc5317fe3aee96ca73475986a577719fc78e20/src/App/ElementMap.h#L292{map}]] {
__
}
class "map<Data::MappedName,Data::IndexedName,std::less>" as C_0007456261797851484619
class C_0007456261797851484619 [[https://github.com/FreeCAD/FreeCAD/blob/2fcc5317fe3aee96ca73475986a577719fc78e20/src/App/ElementMap.h#L294{map}]] {
__
}
class "enable_shared_from_this<Data::ElementMap>" as C_0000643324366187203980
class C_0000643324366187203980 [[https://github.com/FreeCAD/FreeCAD/blob/2fcc5317fe3aee96ca73475986a577719fc78e20/src/App/ElementMap.h#L71{enable_shared_from_this}]] {
__
}
}
package [Base] as C_0005614219575140048477 {
class "Reference<App::StringHasher>" as C_0010650550112233337169
class C_0010650550112233337169 [[https://github.com/FreeCAD/FreeCAD/blob/2fcc5317fe3aee96ca73475986a577719fc78e20/src/App/StringHasher.h#L166{Reference}]] {
__
}
}
package [Data] as C_0007944022382666682349 {
class "ElementMap" as C_0006510952662018626113
class C_0006510952662018626113 [[https://github.com/FreeCAD/FreeCAD/blob/2fcc5317fe3aee96ca73475986a577719fc78e20/src/App/ElementMap.h#L71{ElementMap}]] {
+ElementMap() : void [[[https://github.com/FreeCAD/FreeCAD/blob/2fcc5317fe3aee96ca73475986a577719fc78e20/src/App/ElementMap.h#L78{ElementMap}]]]
..
+addChildElements(long masterTag, const std::vector<MappedChildElements> & children) : void [[[https://github.com/FreeCAD/FreeCAD/blob/2fcc5317fe3aee96ca73475986a577719fc78e20/src/App/ElementMap.h#L193{addChildElements}]]]
-addName(MappedName & name, const IndexedName & idx, const ElementIDRefs & sids, bool overwrite, IndexedName * existing) : MappedName [[[https://github.com/FreeCAD/FreeCAD/blob/2fcc5317fe3aee96ca73475986a577719fc78e20/src/App/ElementMap.h#L240{addName}]]]
{static} -addPostfix(const QByteArray & postfix, std::map<QByteArray,int> & postfixMap, std::vector<QByteArray> & postfixes) : void [[[https://github.com/FreeCAD/FreeCAD/blob/2fcc5317fe3aee96ca73475986a577719fc78e20/src/App/ElementMap.h#L246{addPostfix}]]]
+beforeSave(const ::App::StringHasherRef & hasherRef) const : void [[[https://github.com/FreeCAD/FreeCAD/blob/2fcc5317fe3aee96ca73475986a577719fc78e20/src/App/ElementMap.h#L87{beforeSave}]]]
-collectChildMaps(std::map<const ElementMap *,int> & childMapSet, std::vector<const ElementMap *> & childMaps, std::map<QByteArray,int> & postfixMap, std::vector<QByteArray> & postfixes) const : void [[[https://github.com/FreeCAD/FreeCAD/blob/2fcc5317fe3aee96ca73475986a577719fc78e20/src/App/ElementMap.h#L272{collectChildMaps}]]]
-dehashElementName(const MappedName & name) const : MappedName [[[https://github.com/FreeCAD/FreeCAD/blob/2fcc5317fe3aee96ca73475986a577719fc78e20/src/App/ElementMap.h#L264{dehashElementName}]]]
+empty() const : bool [[[https://github.com/FreeCAD/FreeCAD/blob/2fcc5317fe3aee96ca73475986a577719fc78e20/src/App/ElementMap.h#L152{empty}]]]
+encodeElementName(char element_type, MappedName & name, std::ostringstream & ss, ElementIDRefs * sids, long masterTag, const char * postfix = nullptr, long tag = 0, bool forceTag = false) const : void [[[https://github.com/FreeCAD/FreeCAD/blob/2fcc5317fe3aee96ca73475986a577719fc78e20/src/App/ElementMap.h#L135{encodeElementName}]]]
+erase(const MappedName & name) : void [[[https://github.com/FreeCAD/FreeCAD/blob/2fcc5317fe3aee96ca73475986a577719fc78e20/src/App/ElementMap.h#L145{erase}]]]
+erase(const IndexedName & idx) : void [[[https://github.com/FreeCAD/FreeCAD/blob/2fcc5317fe3aee96ca73475986a577719fc78e20/src/App/ElementMap.h#L148{erase}]]]
+find(const MappedName & name, ElementIDRefs * sids = nullptr) const : IndexedName [[[https://github.com/FreeCAD/FreeCAD/blob/2fcc5317fe3aee96ca73475986a577719fc78e20/src/App/ElementMap.h#L154{find}]]]
+find(const IndexedName & idx, ElementIDRefs * sids = nullptr) const : MappedName [[[https://github.com/FreeCAD/FreeCAD/blob/2fcc5317fe3aee96ca73475986a577719fc78e20/src/App/ElementMap.h#L156{find}]]]
+findAll(const IndexedName & idx) const : std::vector<std::pair<MappedName,ElementIDRefs>> [[[https://github.com/FreeCAD/FreeCAD/blob/2fcc5317fe3aee96ca73475986a577719fc78e20/src/App/ElementMap.h#L158{findAll}]]]
-findMappedRef(const IndexedName & idx) const : const MappedNameRef * [[[https://github.com/FreeCAD/FreeCAD/blob/2fcc5317fe3aee96ca73475986a577719fc78e20/src/App/ElementMap.h#L267{findMappedRef}]]]
-findMappedRef(const IndexedName & idx) : MappedNameRef * [[[https://github.com/FreeCAD/FreeCAD/blob/2fcc5317fe3aee96ca73475986a577719fc78e20/src/App/ElementMap.h#L268{findMappedRef}]]]
+getAll() const : std::vector<MappedElement> [[[https://github.com/FreeCAD/FreeCAD/blob/2fcc5317fe3aee96ca73475986a577719fc78e20/src/App/ElementMap.h#L197{getAll}]]]
+getChildElements() const : std::vector<MappedChildElements> [[[https://github.com/FreeCAD/FreeCAD/blob/2fcc5317fe3aee96ca73475986a577719fc78e20/src/App/ElementMap.h#L195{getChildElements}]]]
+getElementHistory(const MappedName & name, long masterTag, MappedName * original = nullptr, std::vector<MappedName> * history = nullptr) const : long [[[https://github.com/FreeCAD/FreeCAD/blob/2fcc5317fe3aee96ca73475986a577719fc78e20/src/App/ElementMap.h#L199{getElementHistory}]]]
+hasChildElementMap() const : bool [[[https://github.com/FreeCAD/FreeCAD/blob/2fcc5317fe3aee96ca73475986a577719fc78e20/src/App/ElementMap.h#L168{hasChildElementMap}]]]
+hashChildMaps(long masterTag) : void [[[https://github.com/FreeCAD/FreeCAD/blob/2fcc5317fe3aee96ca73475986a577719fc78e20/src/App/ElementMap.h#L176{hashChildMaps}]]]
-hashElementName(const MappedName & name, ElementIDRefs & sids) const : MappedName [[[https://github.com/FreeCAD/FreeCAD/blob/2fcc5317fe3aee96ca73475986a577719fc78e20/src/App/ElementMap.h#L261{hashElementName}]]]
-init() : void [[[https://github.com/FreeCAD/FreeCAD/blob/2fcc5317fe3aee96ca73475986a577719fc78e20/src/App/ElementMap.h#L308{init}]]]
-mappedRef(const IndexedName & idx) : MappedNameRef & [[[https://github.com/FreeCAD/FreeCAD/blob/2fcc5317fe3aee96ca73475986a577719fc78e20/src/App/ElementMap.h#L270{mappedRef}]]]
-renameDuplicateElement(int index, const IndexedName & element, const IndexedName & element2, const MappedName & name, ElementIDRefs & sids, long masterTag) const : MappedName [[[https://github.com/FreeCAD/FreeCAD/blob/2fcc5317fe3aee96ca73475986a577719fc78e20/src/App/ElementMap.h#L251{renameDuplicateElement}]]]
-restore(App::StringHasherRef hasherRef, std::istream & stream, std::vector<ElementMapPtr> & childMaps, const std::vector<std::string> & postfixes) : ElementMapPtr [[[https://github.com/FreeCAD/FreeCAD/blob/2fcc5317fe3aee96ca73475986a577719fc78e20/src/App/ElementMap.h#L227{restore}]]]
+restore(App::StringHasherRef hasherRef, std::istream & stream) : ElementMapPtr [[[https://github.com/FreeCAD/FreeCAD/blob/2fcc5317fe3aee96ca73475986a577719fc78e20/src/App/ElementMap.h#L101{restore}]]]
-save(std::ostream & stream, int index, const std::map<const ElementMap *,int> & childMapSet, const std::map<QByteArray,int> & postfixMap) const : void [[[https://github.com/FreeCAD/FreeCAD/blob/2fcc5317fe3aee96ca73475986a577719fc78e20/src/App/ElementMap.h#L218{save}]]]
+save(std::ostream & stream) const : void [[[https://github.com/FreeCAD/FreeCAD/blob/2fcc5317fe3aee96ca73475986a577719fc78e20/src/App/ElementMap.h#L93{save}]]]
+setElementName(const IndexedName & element, const MappedName & name, long masterTag, const ElementIDRefs * sid = nullptr, bool overwrite = false) : MappedName [[[https://github.com/FreeCAD/FreeCAD/blob/2fcc5317fe3aee96ca73475986a577719fc78e20/src/App/ElementMap.h#L122{setElementName}]]]
+size() const : unsigned long [[[https://github.com/FreeCAD/FreeCAD/blob/2fcc5317fe3aee96ca73475986a577719fc78e20/src/App/ElementMap.h#L150{size}]]]
+traceElement(const MappedName & name, long masterTag, TraceCallback cb) const : void [[[https://github.com/FreeCAD/FreeCAD/blob/2fcc5317fe3aee96ca73475986a577719fc78e20/src/App/ElementMap.h#L209{traceElement}]]]
__
-_id : unsigned int [[[https://github.com/FreeCAD/FreeCAD/blob/2fcc5317fe3aee96ca73475986a577719fc78e20/src/App/ElementMap.h#L306{_id}]]]
-childElementSize : std::size_t [[[https://github.com/FreeCAD/FreeCAD/blob/2fcc5317fe3aee96ca73475986a577719fc78e20/src/App/ElementMap.h#L304{childElementSize}]]]
-childElements : QHash<QByteArray,ChildMapInfo> [[[https://github.com/FreeCAD/FreeCAD/blob/2fcc5317fe3aee96ca73475986a577719fc78e20/src/App/ElementMap.h#L303{childElements}]]]
+hasher : App::StringHasherRef [[[https://github.com/FreeCAD/FreeCAD/blob/2fcc5317fe3aee96ca73475986a577719fc78e20/src/App/ElementMap.h#L312{hasher}]]]
-indexedNames : std::map<const char *,IndexedElements,CStringComp> [[[https://github.com/FreeCAD/FreeCAD/blob/2fcc5317fe3aee96ca73475986a577719fc78e20/src/App/ElementMap.h#L292{indexedNames}]]]
-mappedNames : std::map<MappedName,IndexedName,std::less<>> [[[https://github.com/FreeCAD/FreeCAD/blob/2fcc5317fe3aee96ca73475986a577719fc78e20/src/App/ElementMap.h#L294{mappedNames}]]]
}
class "ElementMap::MappedChildElements" as C_0004786846721929822972
class C_0004786846721929822972 [[https://github.com/FreeCAD/FreeCAD/blob/2fcc5317fe3aee96ca73475986a577719fc78e20/src/App/ElementMap.h#L178{ElementMap::MappedChildElements}]] {
__
+count : int [[[https://github.com/FreeCAD/FreeCAD/blob/2fcc5317fe3aee96ca73475986a577719fc78e20/src/App/ElementMap.h#L181{count}]]]
+elementMap : ElementMapPtr [[[https://github.com/FreeCAD/FreeCAD/blob/2fcc5317fe3aee96ca73475986a577719fc78e20/src/App/ElementMap.h#L184{elementMap}]]]
+indexedName : IndexedName [[[https://github.com/FreeCAD/FreeCAD/blob/2fcc5317fe3aee96ca73475986a577719fc78e20/src/App/ElementMap.h#L180{indexedName}]]]
+offset : int [[[https://github.com/FreeCAD/FreeCAD/blob/2fcc5317fe3aee96ca73475986a577719fc78e20/src/App/ElementMap.h#L182{offset}]]]
+postfix : QByteArray [[[https://github.com/FreeCAD/FreeCAD/blob/2fcc5317fe3aee96ca73475986a577719fc78e20/src/App/ElementMap.h#L185{postfix}]]]
+sids : ElementIDRefs [[[https://github.com/FreeCAD/FreeCAD/blob/2fcc5317fe3aee96ca73475986a577719fc78e20/src/App/ElementMap.h#L186{sids}]]]
+tag : long [[[https://github.com/FreeCAD/FreeCAD/blob/2fcc5317fe3aee96ca73475986a577719fc78e20/src/App/ElementMap.h#L183{tag}]]]
}
class "ElementMap::CStringComp" as C_0005980506410661569829
class C_0005980506410661569829 [[https://github.com/FreeCAD/FreeCAD/blob/2fcc5317fe3aee96ca73475986a577719fc78e20/src/App/ElementMap.h#L277{ElementMap::CStringComp}]] {
+operator()(const char * str1, const char * str2) const : bool [[[https://github.com/FreeCAD/FreeCAD/blob/2fcc5317fe3aee96ca73475986a577719fc78e20/src/App/ElementMap.h#L280{operator()}]]]
__
}
class "ElementMap::IndexedElements" as C_0018343669941208334305
class C_0018343669941208334305 [[https://github.com/FreeCAD/FreeCAD/blob/2fcc5317fe3aee96ca73475986a577719fc78e20/src/App/ElementMap.h#L286{ElementMap::IndexedElements}]] {
__
+children : std::map<int,MappedChildElements> [[[https://github.com/FreeCAD/FreeCAD/blob/2fcc5317fe3aee96ca73475986a577719fc78e20/src/App/ElementMap.h#L289{children}]]]
+names : std::deque<MappedNameRef> [[[https://github.com/FreeCAD/FreeCAD/blob/2fcc5317fe3aee96ca73475986a577719fc78e20/src/App/ElementMap.h#L288{names}]]]
}
class "ElementMap::ChildMapInfo" as C_0002665795314023144912
class C_0002665795314023144912 [[https://github.com/FreeCAD/FreeCAD/blob/2fcc5317fe3aee96ca73475986a577719fc78e20/src/App/ElementMap.h#L296{ElementMap::ChildMapInfo}]] {
__
+childMap : MappedChildElements * [[[https://github.com/FreeCAD/FreeCAD/blob/2fcc5317fe3aee96ca73475986a577719fc78e20/src/App/ElementMap.h#L299{childMap}]]]
+index : int [[[https://github.com/FreeCAD/FreeCAD/blob/2fcc5317fe3aee96ca73475986a577719fc78e20/src/App/ElementMap.h#L298{index}]]]
+mapIndices : std::map<ElementMap *,int> [[[https://github.com/FreeCAD/FreeCAD/blob/2fcc5317fe3aee96ca73475986a577719fc78e20/src/App/ElementMap.h#L300{mapIndices}]]]
}
}
class "QHash<QByteArray,Data::ElementMap::ChildMapInfo>" as C_0011467621868005382832
class C_0011467621868005382832 [[https://github.com/FreeCAD/FreeCAD/blob/2fcc5317fe3aee96ca73475986a577719fc78e20/src/App/ElementMap.h#L303{QHash}]] {
__
}
C_0006510952662018626113 o-- C_0012133235533454508371 [[https://github.com/FreeCAD/FreeCAD/blob/2fcc5317fe3aee96ca73475986a577719fc78e20/src/App/ElementMap.h#L292{indexedNames}]] : -indexedNames
C_0006510952662018626113 o-- C_0007456261797851484619 [[https://github.com/FreeCAD/FreeCAD/blob/2fcc5317fe3aee96ca73475986a577719fc78e20/src/App/ElementMap.h#L294{mappedNames}]] : -mappedNames
C_0006510952662018626113 o-- C_0011467621868005382832 [[https://github.com/FreeCAD/FreeCAD/blob/2fcc5317fe3aee96ca73475986a577719fc78e20/src/App/ElementMap.h#L303{childElements}]] : -childElements
C_0006510952662018626113 o-- C_0010650550112233337169 [[https://github.com/FreeCAD/FreeCAD/blob/2fcc5317fe3aee96ca73475986a577719fc78e20/src/App/ElementMap.h#L312{hasher}]] : +hasher
C_0000643324366187203980 <|-- C_0006510952662018626113
C_0004786846721929822972 --+ C_0006510952662018626113
C_0005980506410661569829 --+ C_0006510952662018626113
C_0018343669941208334305 --+ C_0006510952662018626113
C_0002665795314023144912 --+ C_0006510952662018626113
C_0002665795314023144912 --> C_0004786846721929822972 [[https://github.com/FreeCAD/FreeCAD/blob/2fcc5317fe3aee96ca73475986a577719fc78e20/src/App/ElementMap.h#L299{childMap}]] : +childMap

'Generated with clang-uml, version 0.6.1
'LLVM version Ubuntu clang version 19.1.1 (1ubuntu1)
@enduml
