@startuml
title App::Enumeration context
package [std] as C_0009971158671206323968 {
class "vector<std::shared_ptr<App::Enumeration::Object>>" as C_0006812624800376789489
class C_0006812624800376789489 [[https://github.com/FreeCAD/FreeCAD/blob/2fcc5317fe3aee96ca73475986a577719fc78e20/src/App/Enumeration.h#L179{vector}]] {
__
}
}
package [App] as C_0018282610363821501524 {
class "Enumeration" as C_0007437775024332276402
class C_0007437775024332276402 [[https://github.com/FreeCAD/FreeCAD/blob/2fcc5317fe3aee96ca73475986a577719fc78e20/src/App/Enumeration.h#L52{Enumeration}]] {
+Enumeration() : void [[[https://github.com/FreeCAD/FreeCAD/blob/2fcc5317fe3aee96ca73475986a577719fc78e20/src/App/Enumeration.h#L65{Enumeration}]]]
+Enumeration(const Enumeration & other) : void [[[https://github.com/FreeCAD/FreeCAD/blob/2fcc5317fe3aee96ca73475986a577719fc78e20/src/App/Enumeration.h#L68{Enumeration}]]]
+Enumeration(const char * valStr) : void [[[https://github.com/FreeCAD/FreeCAD/blob/2fcc5317fe3aee96ca73475986a577719fc78e20/src/App/Enumeration.h#L71{Enumeration}]]]
+Enumeration(const char ** list, const char * valStr) : void [[[https://github.com/FreeCAD/FreeCAD/blob/2fcc5317fe3aee96ca73475986a577719fc78e20/src/App/Enumeration.h#L74{Enumeration}]]]
+~Enumeration() : void [[[https://github.com/FreeCAD/FreeCAD/blob/2fcc5317fe3aee96ca73475986a577719fc78e20/src/App/Enumeration.h#L77{~Enumeration}]]]
..
+operator=(const Enumeration & other) : Enumeration & [[[https://github.com/FreeCAD/FreeCAD/blob/2fcc5317fe3aee96ca73475986a577719fc78e20/src/App/Enumeration.h#L158{operator=}]]]
..
+operator==(const Enumeration & other) const : bool [[[https://github.com/FreeCAD/FreeCAD/blob/2fcc5317fe3aee96ca73475986a577719fc78e20/src/App/Enumeration.h#L164{operator==}]]]
+operator==(const char * other) const : bool [[[https://github.com/FreeCAD/FreeCAD/blob/2fcc5317fe3aee96ca73475986a577719fc78e20/src/App/Enumeration.h#L170{operator==}]]]
..
+contains(const char * value) const : bool [[[https://github.com/FreeCAD/FreeCAD/blob/2fcc5317fe3aee96ca73475986a577719fc78e20/src/App/Enumeration.h#L125{contains}]]]
#countItems() const : int [[[https://github.com/FreeCAD/FreeCAD/blob/2fcc5317fe3aee96ca73475986a577719fc78e20/src/App/Enumeration.h#L174{countItems}]]]
+getCStr() const : const char * [[[https://github.com/FreeCAD/FreeCAD/blob/2fcc5317fe3aee96ca73475986a577719fc78e20/src/App/Enumeration.h#L131{getCStr}]]]
+getEnumVector() const : std::vector<std::string> [[[https://github.com/FreeCAD/FreeCAD/blob/2fcc5317fe3aee96ca73475986a577719fc78e20/src/App/Enumeration.h#L140{getEnumVector}]]]
+getInt() const : int [[[https://github.com/FreeCAD/FreeCAD/blob/2fcc5317fe3aee96ca73475986a577719fc78e20/src/App/Enumeration.h#L137{getInt}]]]
+hasEnums() const : bool [[[https://github.com/FreeCAD/FreeCAD/blob/2fcc5317fe3aee96ca73475986a577719fc78e20/src/App/Enumeration.h#L143{hasEnums}]]]
+isCustom() const : bool [[[https://github.com/FreeCAD/FreeCAD/blob/2fcc5317fe3aee96ca73475986a577719fc78e20/src/App/Enumeration.h#L155{isCustom}]]]
+isValid() const : bool [[[https://github.com/FreeCAD/FreeCAD/blob/2fcc5317fe3aee96ca73475986a577719fc78e20/src/App/Enumeration.h#L146{isValid}]]]
+isValue(const char * value) const : bool [[[https://github.com/FreeCAD/FreeCAD/blob/2fcc5317fe3aee96ca73475986a577719fc78e20/src/App/Enumeration.h#L122{isValue}]]]
+maxValue() const : int [[[https://github.com/FreeCAD/FreeCAD/blob/2fcc5317fe3aee96ca73475986a577719fc78e20/src/App/Enumeration.h#L152{maxValue}]]]
+setEnums(const char ** plEnums) : void [[[https://github.com/FreeCAD/FreeCAD/blob/2fcc5317fe3aee96ca73475986a577719fc78e20/src/App/Enumeration.h#L91{setEnums}]]]
+setEnums(const std::vector<std::string> & values) : void [[[https://github.com/FreeCAD/FreeCAD/blob/2fcc5317fe3aee96ca73475986a577719fc78e20/src/App/Enumeration.h#L104{setEnums}]]]
+setValue(const char * value) : void [[[https://github.com/FreeCAD/FreeCAD/blob/2fcc5317fe3aee96ca73475986a577719fc78e20/src/App/Enumeration.h#L107{setValue}]]]
+setValue(const std::string & value) : void [[[https://github.com/FreeCAD/FreeCAD/blob/2fcc5317fe3aee96ca73475986a577719fc78e20/src/App/Enumeration.h#L110{setValue}]]]
+setValue(long value, bool checkRange = false) : void [[[https://github.com/FreeCAD/FreeCAD/blob/2fcc5317fe3aee96ca73475986a577719fc78e20/src/App/Enumeration.h#L119{setValue}]]]
__
-_index : int [[[https://github.com/FreeCAD/FreeCAD/blob/2fcc5317fe3aee96ca73475986a577719fc78e20/src/App/Enumeration.h#L186{_index}]]]
-enumArray : std::vector<ObjectPtr> [[[https://github.com/FreeCAD/FreeCAD/blob/2fcc5317fe3aee96ca73475986a577719fc78e20/src/App/Enumeration.h#L179{enumArray}]]]
}
abstract "Enumeration::Object" as C_0006323324694372464875
abstract C_0006323324694372464875 [[https://github.com/FreeCAD/FreeCAD/blob/2fcc5317fe3aee96ca73475986a577719fc78e20/src/App/Enumeration.h#L55{Enumeration::Object}]] {
{abstract} +data() const = 0 : const char * [[[https://github.com/FreeCAD/FreeCAD/blob/2fcc5317fe3aee96ca73475986a577719fc78e20/src/App/Enumeration.h#L58{data}]]]
{abstract} +isCustom() const = 0 : bool [[[https://github.com/FreeCAD/FreeCAD/blob/2fcc5317fe3aee96ca73475986a577719fc78e20/src/App/Enumeration.h#L60{isCustom}]]]
{abstract} +isEqual(const char *) const = 0 : bool [[[https://github.com/FreeCAD/FreeCAD/blob/2fcc5317fe3aee96ca73475986a577719fc78e20/src/App/Enumeration.h#L59{isEqual}]]]
+~Object() = default : void [[[https://github.com/FreeCAD/FreeCAD/blob/2fcc5317fe3aee96ca73475986a577719fc78e20/src/App/Enumeration.h#L57{~Object}]]]
__
}
class "PropertyEnumeration" as C_0004953339373382161483
class C_0004953339373382161483 [[https://github.com/FreeCAD/FreeCAD/blob/2fcc5317fe3aee96ca73475986a577719fc78e20/src/App/PropertyStandard.h#L146{PropertyEnumeration}]] {
+PropertyEnumeration() : void [[[https://github.com/FreeCAD/FreeCAD/blob/2fcc5317fe3aee96ca73475986a577719fc78e20/src/App/PropertyStandard.h#L152{PropertyEnumeration}]]]
+PropertyEnumeration(const Enumeration & e) : void [[[https://github.com/FreeCAD/FreeCAD/blob/2fcc5317fe3aee96ca73475986a577719fc78e20/src/App/PropertyStandard.h#L155{PropertyEnumeration}]]]
+~PropertyEnumeration() : void [[[https://github.com/FreeCAD/FreeCAD/blob/2fcc5317fe3aee96ca73475986a577719fc78e20/src/App/PropertyStandard.h#L158{~PropertyEnumeration}]]]
..
+Copy() const : Property * [[[https://github.com/FreeCAD/FreeCAD/blob/2fcc5317fe3aee96ca73475986a577719fc78e20/src/App/PropertyStandard.h#L228{Copy}]]]
+Paste(const Property & from) : void [[[https://github.com/FreeCAD/FreeCAD/blob/2fcc5317fe3aee96ca73475986a577719fc78e20/src/App/PropertyStandard.h#L229{Paste}]]]
+Restore(Base::XMLReader & reader) : void [[[https://github.com/FreeCAD/FreeCAD/blob/2fcc5317fe3aee96ca73475986a577719fc78e20/src/App/PropertyStandard.h#L226{Restore}]]]
+Save(Base::Writer & writer) const : void [[[https://github.com/FreeCAD/FreeCAD/blob/2fcc5317fe3aee96ca73475986a577719fc78e20/src/App/PropertyStandard.h#L225{Save}]]]
{static} +create() : void * [[[https://github.com/FreeCAD/FreeCAD/blob/2fcc5317fe3aee96ca73475986a577719fc78e20/src/Base/BaseClass.h#L52{create}]]]
{static} +getClassTypeId() : Base::Type [[[https://github.com/FreeCAD/FreeCAD/blob/2fcc5317fe3aee96ca73475986a577719fc78e20/src/Base/BaseClass.h#L49{getClassTypeId}]]]
+getEditorName() const : const char * [[[https://github.com/FreeCAD/FreeCAD/blob/2fcc5317fe3aee96ca73475986a577719fc78e20/src/App/PropertyStandard.h#L219{getEditorName}]]]
+getEnum() const : const Enumeration & [[[https://github.com/FreeCAD/FreeCAD/blob/2fcc5317fe3aee96ca73475986a577719fc78e20/src/App/PropertyStandard.h#L205{getEnum}]]]
+getEnumVector() const : std::vector<std::string> [[[https://github.com/FreeCAD/FreeCAD/blob/2fcc5317fe3aee96ca73475986a577719fc78e20/src/App/PropertyStandard.h#L208{getEnumVector}]]]
+getPathValue(const App::ObjectIdentifier &) const : const boost::any [[[https://github.com/FreeCAD/FreeCAD/blob/2fcc5317fe3aee96ca73475986a577719fc78e20/src/App/PropertyStandard.h#L233{getPathValue}]]]
+getPyObject() : PyObject * [[[https://github.com/FreeCAD/FreeCAD/blob/2fcc5317fe3aee96ca73475986a577719fc78e20/src/App/PropertyStandard.h#L222{getPyObject}]]]
+getPyPathValue(const ObjectIdentifier & path, Py::Object & r) const : bool [[[https://github.com/FreeCAD/FreeCAD/blob/2fcc5317fe3aee96ca73475986a577719fc78e20/src/App/PropertyStandard.h#L234{getPyPathValue}]]]
+getTypeId() const : Base::Type [[[https://github.com/FreeCAD/FreeCAD/blob/2fcc5317fe3aee96ca73475986a577719fc78e20/src/Base/BaseClass.h#L50{getTypeId}]]]
+getValue() const : long [[[https://github.com/FreeCAD/FreeCAD/blob/2fcc5317fe3aee96ca73475986a577719fc78e20/src/App/PropertyStandard.h#L193{getValue}]]]
+getValueAsString() const : const char * [[[https://github.com/FreeCAD/FreeCAD/blob/2fcc5317fe3aee96ca73475986a577719fc78e20/src/App/PropertyStandard.h#L202{getValueAsString}]]]
+hasEnums() const : bool [[[https://github.com/FreeCAD/FreeCAD/blob/2fcc5317fe3aee96ca73475986a577719fc78e20/src/App/PropertyStandard.h#L213{hasEnums}]]]
{static} +init() : void [[[https://github.com/FreeCAD/FreeCAD/blob/2fcc5317fe3aee96ca73475986a577719fc78e20/src/Base/BaseClass.h#L51{init}]]]
+isPartOf(const char * value) const : bool [[[https://github.com/FreeCAD/FreeCAD/blob/2fcc5317fe3aee96ca73475986a577719fc78e20/src/App/PropertyStandard.h#L199{isPartOf}]]]
+isSame(const Property & other) const : bool [[[https://github.com/FreeCAD/FreeCAD/blob/2fcc5317fe3aee96ca73475986a577719fc78e20/src/App/PropertyStandard.h#L236{isSame}]]]
+isValid() const : bool [[[https://github.com/FreeCAD/FreeCAD/blob/2fcc5317fe3aee96ca73475986a577719fc78e20/src/App/PropertyStandard.h#L216{isValid}]]]
+isValue(const char * value) const : bool [[[https://github.com/FreeCAD/FreeCAD/blob/2fcc5317fe3aee96ca73475986a577719fc78e20/src/App/PropertyStandard.h#L196{isValue}]]]
+setEditorName(const char * name) : void [[[https://github.com/FreeCAD/FreeCAD/blob/2fcc5317fe3aee96ca73475986a577719fc78e20/src/App/PropertyStandard.h#L220{setEditorName}]]]
+setEnumVector(const std::vector<std::string> &) : void [[[https://github.com/FreeCAD/FreeCAD/blob/2fcc5317fe3aee96ca73475986a577719fc78e20/src/App/PropertyStandard.h#L211{setEnumVector}]]]
+setEnums(const std::vector<std::string> & Enums) : void [[[https://github.com/FreeCAD/FreeCAD/blob/2fcc5317fe3aee96ca73475986a577719fc78e20/src/App/PropertyStandard.h#L176{setEnums}]]]
+setEnums(const char ** plEnums) : void [[[https://github.com/FreeCAD/FreeCAD/blob/2fcc5317fe3aee96ca73475986a577719fc78e20/src/App/PropertyStandard.h#L171{setEnums}]]]
+setPathValue(const App::ObjectIdentifier & path, const boost::any & value) : void [[[https://github.com/FreeCAD/FreeCAD/blob/2fcc5317fe3aee96ca73475986a577719fc78e20/src/App/PropertyStandard.h#L231{setPathValue}]]]
+setPyObject(PyObject * py) : void [[[https://github.com/FreeCAD/FreeCAD/blob/2fcc5317fe3aee96ca73475986a577719fc78e20/src/App/PropertyStandard.h#L223{setPyObject}]]]
+setPyPathValue(const App::ObjectIdentifier & path, const Py::Object & value) : bool [[[https://github.com/FreeCAD/FreeCAD/blob/2fcc5317fe3aee96ca73475986a577719fc78e20/src/App/PropertyStandard.h#L232{setPyPathValue}]]]
+setValue(const Enumeration & source) : void [[[https://github.com/FreeCAD/FreeCAD/blob/2fcc5317fe3aee96ca73475986a577719fc78e20/src/App/PropertyStandard.h#L190{setValue}]]]
+setValue(long) : void [[[https://github.com/FreeCAD/FreeCAD/blob/2fcc5317fe3aee96ca73475986a577719fc78e20/src/App/PropertyStandard.h#L187{setValue}]]]
+setValue(const char * value) : void [[[https://github.com/FreeCAD/FreeCAD/blob/2fcc5317fe3aee96ca73475986a577719fc78e20/src/App/PropertyStandard.h#L181{setValue}]]]
__
-_editorTypeName : std::string [[[https://github.com/FreeCAD/FreeCAD/blob/2fcc5317fe3aee96ca73475986a577719fc78e20/src/App/PropertyStandard.h#L246{_editorTypeName}]]]
-_enum : Enumeration [[[https://github.com/FreeCAD/FreeCAD/blob/2fcc5317fe3aee96ca73475986a577719fc78e20/src/App/PropertyStandard.h#L245{_enum}]]]
{static} -classTypeId : Base::Type [[[https://github.com/FreeCAD/FreeCAD/blob/2fcc5317fe3aee96ca73475986a577719fc78e20/src/Base/BaseClass.h#L55{classTypeId}]]]
}
}
C_0007437775024332276402 o-- C_0006812624800376789489 [[https://github.com/FreeCAD/FreeCAD/blob/2fcc5317fe3aee96ca73475986a577719fc78e20/src/App/Enumeration.h#L179{enumArray}]] : -enumArray
C_0007437775024332276402 <.. C_0004953339373382161483 : +<<friend>>
C_0006323324694372464875 --+ C_0007437775024332276402
C_0004953339373382161483 o-- C_0007437775024332276402 [[https://github.com/FreeCAD/FreeCAD/blob/2fcc5317fe3aee96ca73475986a577719fc78e20/src/App/PropertyStandard.h#L245{_enum}]] : -_enum

'Generated with clang-uml, version 0.6.1
'LLVM version Ubuntu clang version 19.1.1 (1ubuntu1)
@enduml
