@startuml
title App::VRMLObject context
package [std] as C_0009971158671206323968 {
class "basic_string<char>" as C_0001275076681856179721
class C_0001275076681856179721 [[https://github.com/FreeCAD/FreeCAD/blob/2fcc5317fe3aee96ca73475986a577719fc78e20/src/Base/Type.h#L133{basic_string}]] {
__
}
}
package [Base] as C_0005614219575140048477 {
class "Type" as C_0010396699791746075194
class C_0010396699791746075194 [[https://github.com/FreeCAD/FreeCAD/blob/2fcc5317fe3aee96ca73475986a577719fc78e20/src/Base/Type.h#L80{Type}]] {
+Type(const Type & type) = default : void [[[https://github.com/FreeCAD/FreeCAD/blob/2fcc5317fe3aee96ca73475986a577719fc78e20/src/Base/Type.h#L84{Type}]]]
+Type(Type && type) = default : void [[[https://github.com/FreeCAD/FreeCAD/blob/2fcc5317fe3aee96ca73475986a577719fc78e20/src/Base/Type.h#L85{Type}]]]
+Type() = default : void [[[https://github.com/FreeCAD/FreeCAD/blob/2fcc5317fe3aee96ca73475986a577719fc78e20/src/Base/Type.h#L86{Type}]]]
+~Type() = default : void [[[https://github.com/FreeCAD/FreeCAD/blob/2fcc5317fe3aee96ca73475986a577719fc78e20/src/Base/Type.h#L88{~Type}]]]
..
+operator=(const Type & type) constexpr = default : Type & [[[https://github.com/FreeCAD/FreeCAD/blob/2fcc5317fe3aee96ca73475986a577719fc78e20/src/Base/Type.h#L119{operator=}]]]
+operator=(Type && type) constexpr = default : Type & [[[https://github.com/FreeCAD/FreeCAD/blob/2fcc5317fe3aee96ca73475986a577719fc78e20/src/Base/Type.h#L120{operator=}]]]
..
+operator!=(const Type & type) const : bool [[[https://github.com/FreeCAD/FreeCAD/blob/2fcc5317fe3aee96ca73475986a577719fc78e20/src/Base/Type.h#L122{operator!=}]]]
+operator<(const Type & type) const : bool [[[https://github.com/FreeCAD/FreeCAD/blob/2fcc5317fe3aee96ca73475986a577719fc78e20/src/Base/Type.h#L124{operator<}]]]
+operator<=(const Type & type) const : bool [[[https://github.com/FreeCAD/FreeCAD/blob/2fcc5317fe3aee96ca73475986a577719fc78e20/src/Base/Type.h#L125{operator<=}]]]
+operator==(const Type & type) const : bool [[[https://github.com/FreeCAD/FreeCAD/blob/2fcc5317fe3aee96ca73475986a577719fc78e20/src/Base/Type.h#L121{operator==}]]]
+operator>(const Type & type) const : bool [[[https://github.com/FreeCAD/FreeCAD/blob/2fcc5317fe3aee96ca73475986a577719fc78e20/src/Base/Type.h#L127{operator>}]]]
+operator>=(const Type & type) const : bool [[[https://github.com/FreeCAD/FreeCAD/blob/2fcc5317fe3aee96ca73475986a577719fc78e20/src/Base/Type.h#L126{operator>=}]]]
..
{static} +badType() : Type [[[https://github.com/FreeCAD/FreeCAD/blob/2fcc5317fe3aee96ca73475986a577719fc78e20/src/Base/Type.h#L129{badType}]]]
+canInstantiate() const : bool [[[https://github.com/FreeCAD/FreeCAD/blob/2fcc5317fe3aee96ca73475986a577719fc78e20/src/Base/Type.h#L93{canInstantiate}]]]
+createInstance() : void * [[[https://github.com/FreeCAD/FreeCAD/blob/2fcc5317fe3aee96ca73475986a577719fc78e20/src/Base/Type.h#L91{createInstance}]]]
{static} +createInstanceByName(const char * TypeName, bool bLoadModule = false) : void * [[[https://github.com/FreeCAD/FreeCAD/blob/2fcc5317fe3aee96ca73475986a577719fc78e20/src/Base/Type.h#L95{createInstanceByName}]]]
{static} +createType(const Type & parent, const char * name, instantiationMethod method = nullptr) : Type [[[https://github.com/FreeCAD/FreeCAD/blob/2fcc5317fe3aee96ca73475986a577719fc78e20/src/Base/Type.h#L114{createType}]]]
{static} +destruct() : void [[[https://github.com/FreeCAD/FreeCAD/blob/2fcc5317fe3aee96ca73475986a577719fc78e20/src/Base/Type.h#L131{destruct}]]]
{static} +fromKey(unsigned int key) : Type [[[https://github.com/FreeCAD/FreeCAD/blob/2fcc5317fe3aee96ca73475986a577719fc78e20/src/Base/Type.h#L101{fromKey}]]]
{static} +fromName(const char * name) : Type [[[https://github.com/FreeCAD/FreeCAD/blob/2fcc5317fe3aee96ca73475986a577719fc78e20/src/Base/Type.h#L100{fromName}]]]
{static} +getAllDerivedFrom(const Type & type, std::vector<Type> & List) : int [[[https://github.com/FreeCAD/FreeCAD/blob/2fcc5317fe3aee96ca73475986a577719fc78e20/src/Base/Type.h#L106{getAllDerivedFrom}]]]
+getKey() const : unsigned int [[[https://github.com/FreeCAD/FreeCAD/blob/2fcc5317fe3aee96ca73475986a577719fc78e20/src/Base/Type.h#L116{getKey}]]]
{static} +getModuleName(const char * ClassName) : std::string [[[https://github.com/FreeCAD/FreeCAD/blob/2fcc5317fe3aee96ca73475986a577719fc78e20/src/Base/Type.h#L133{getModuleName}]]]
+getName() const : const char * [[[https://github.com/FreeCAD/FreeCAD/blob/2fcc5317fe3aee96ca73475986a577719fc78e20/src/Base/Type.h#L102{getName}]]]
{static} +getNumTypes() : int [[[https://github.com/FreeCAD/FreeCAD/blob/2fcc5317fe3aee96ca73475986a577719fc78e20/src/Base/Type.h#L111{getNumTypes}]]]
+getParent() const : Type [[[https://github.com/FreeCAD/FreeCAD/blob/2fcc5317fe3aee96ca73475986a577719fc78e20/src/Base/Type.h#L103{getParent}]]]
{static} +getTypeIfDerivedFrom(const char * name, const Type & parent, bool bLoadModule = false) : Type [[[https://github.com/FreeCAD/FreeCAD/blob/2fcc5317fe3aee96ca73475986a577719fc78e20/src/Base/Type.h#L109{getTypeIfDerivedFrom}]]]
{static} +importModule(const char * TypeName) : void [[[https://github.com/FreeCAD/FreeCAD/blob/2fcc5317fe3aee96ca73475986a577719fc78e20/src/Base/Type.h#L96{importModule}]]]
{static} +init() : void [[[https://github.com/FreeCAD/FreeCAD/blob/2fcc5317fe3aee96ca73475986a577719fc78e20/src/Base/Type.h#L130{init}]]]
+isBad() const : bool [[[https://github.com/FreeCAD/FreeCAD/blob/2fcc5317fe3aee96ca73475986a577719fc78e20/src/Base/Type.h#L117{isBad}]]]
+isDerivedFrom(const Type & type) const : bool [[[https://github.com/FreeCAD/FreeCAD/blob/2fcc5317fe3aee96ca73475986a577719fc78e20/src/Base/Type.h#L104{isDerivedFrom}]]]
__
-index : unsigned int [[[https://github.com/FreeCAD/FreeCAD/blob/2fcc5317fe3aee96ca73475986a577719fc78e20/src/Base/Type.h#L137{index}]]]
{static} -loadModuleSet : std::set<std::string> [[[https://github.com/FreeCAD/FreeCAD/blob/2fcc5317fe3aee96ca73475986a577719fc78e20/src/Base/Type.h#L141{loadModuleSet}]]]
{static} -typedata : std::vector<TypeData *> [[[https://github.com/FreeCAD/FreeCAD/blob/2fcc5317fe3aee96ca73475986a577719fc78e20/src/Base/Type.h#L140{typedata}]]]
{static} -typemap : std::map<std::string,unsigned int> [[[https://github.com/FreeCAD/FreeCAD/blob/2fcc5317fe3aee96ca73475986a577719fc78e20/src/Base/Type.h#L139{typemap}]]]
}
}
package [App] as C_0018282610363821501524 {
class "PropertyData" as C_0008521121395702379220
class C_0008521121395702379220 [[https://github.com/FreeCAD/FreeCAD/blob/2fcc5317fe3aee96ca73475986a577719fc78e20/src/App/PropertyContainer.h#L58{PropertyData}]] {
+addProperty(OffsetBase offsetBase, const char * PropName, Property * Prop, const char * PropertyGroup = nullptr, PropertyType  = Prop_None, const char * PropertyDocu = nullptr) : void [[[https://github.com/FreeCAD/FreeCAD/blob/2fcc5317fe3aee96ca73475986a577719fc78e20/src/App/PropertyContainer.h#L118{addProperty}]]]
+findProperty(OffsetBase offsetBase, const char * PropName) const : const PropertySpec * [[[https://github.com/FreeCAD/FreeCAD/blob/2fcc5317fe3aee96ca73475986a577719fc78e20/src/App/PropertyContainer.h#L120{findProperty}]]]
+findProperty(OffsetBase offsetBase, const Property * prop) const : const PropertySpec * [[[https://github.com/FreeCAD/FreeCAD/blob/2fcc5317fe3aee96ca73475986a577719fc78e20/src/App/PropertyContainer.h#L121{findProperty}]]]
+getDocumentation(OffsetBase offsetBase, const char * name) const : const char * [[[https://github.com/FreeCAD/FreeCAD/blob/2fcc5317fe3aee96ca73475986a577719fc78e20/src/App/PropertyContainer.h#L128{getDocumentation}]]]
+getDocumentation(OffsetBase offsetBase, const Property * prop) const : const char * [[[https://github.com/FreeCAD/FreeCAD/blob/2fcc5317fe3aee96ca73475986a577719fc78e20/src/App/PropertyContainer.h#L129{getDocumentation}]]]
+getGroup(OffsetBase offsetBase, const char * name) const : const char * [[[https://github.com/FreeCAD/FreeCAD/blob/2fcc5317fe3aee96ca73475986a577719fc78e20/src/App/PropertyContainer.h#L126{getGroup}]]]
+getGroup(OffsetBase offsetBase, const Property * prop) const : const char * [[[https://github.com/FreeCAD/FreeCAD/blob/2fcc5317fe3aee96ca73475986a577719fc78e20/src/App/PropertyContainer.h#L127{getGroup}]]]
+getName(OffsetBase offsetBase, const Property * prop) const : const char * [[[https://github.com/FreeCAD/FreeCAD/blob/2fcc5317fe3aee96ca73475986a577719fc78e20/src/App/PropertyContainer.h#L123{getName}]]]
+getPropertyByName(OffsetBase offsetBase, const char * name) const : Property * [[[https://github.com/FreeCAD/FreeCAD/blob/2fcc5317fe3aee96ca73475986a577719fc78e20/src/App/PropertyContainer.h#L131{getPropertyByName}]]]
+getPropertyList(OffsetBase offsetBase, std::vector<Property *> & List) const : void [[[https://github.com/FreeCAD/FreeCAD/blob/2fcc5317fe3aee96ca73475986a577719fc78e20/src/App/PropertyContainer.h#L133{getPropertyList}]]]
+getPropertyMap(OffsetBase offsetBase, std::map<std::string,Property *> & Map) const : void [[[https://github.com/FreeCAD/FreeCAD/blob/2fcc5317fe3aee96ca73475986a577719fc78e20/src/App/PropertyContainer.h#L132{getPropertyMap}]]]
+getPropertyNamedList(OffsetBase offsetBase, std::vector<std::pair<const char *,Property *>> & List) const : void [[[https://github.com/FreeCAD/FreeCAD/blob/2fcc5317fe3aee96ca73475986a577719fc78e20/src/App/PropertyContainer.h#L134{getPropertyNamedList}]]]
+getType(OffsetBase offsetBase, const Property * prop) const : short [[[https://github.com/FreeCAD/FreeCAD/blob/2fcc5317fe3aee96ca73475986a577719fc78e20/src/App/PropertyContainer.h#L124{getType}]]]
+getType(OffsetBase offsetBase, const char * name) const : short [[[https://github.com/FreeCAD/FreeCAD/blob/2fcc5317fe3aee96ca73475986a577719fc78e20/src/App/PropertyContainer.h#L125{getType}]]]
+merge(PropertyData * other = nullptr) const : void [[[https://github.com/FreeCAD/FreeCAD/blob/2fcc5317fe3aee96ca73475986a577719fc78e20/src/App/PropertyContainer.h#L136{merge}]]]
+split(PropertyData * other) : void [[[https://github.com/FreeCAD/FreeCAD/blob/2fcc5317fe3aee96ca73475986a577719fc78e20/src/App/PropertyContainer.h#L137{split}]]]
__
+parentMerged : bool [[[https://github.com/FreeCAD/FreeCAD/blob/2fcc5317fe3aee96ca73475986a577719fc78e20/src/App/PropertyContainer.h#L114{parentMerged}]]]
+parentPropertyData : const PropertyData * [[[https://github.com/FreeCAD/FreeCAD/blob/2fcc5317fe3aee96ca73475986a577719fc78e20/src/App/PropertyContainer.h#L116{parentPropertyData}]]]
+propertyData : bmi::multi_index_container<PropertySpec,bmi::indexed_by<bmi::sequenced<>,bmi::hashed_unique<bmi::member<PropertySpec,const char *,&PropertySpec::Name>,CStringHasher,CStringHasher>,bmi::hashed_unique<bmi::member<PropertySpec,short,&PropertySpec::Offset>>>> [[[https://github.com/FreeCAD/FreeCAD/blob/2fcc5317fe3aee96ca73475986a577719fc78e20/src/App/PropertyContainer.h#L112{propertyData}]]]
}
class "PropertyStringList" as C_0017690504369665749358
class C_0017690504369665749358 [[https://github.com/FreeCAD/FreeCAD/blob/2fcc5317fe3aee96ca73475986a577719fc78e20/src/App/PropertyStandard.h#L809{PropertyStringList}]] {
+PropertyStringList() : void [[[https://github.com/FreeCAD/FreeCAD/blob/2fcc5317fe3aee96ca73475986a577719fc78e20/src/App/PropertyStandard.h#L820{PropertyStringList}]]]
+~PropertyStringList() : void [[[https://github.com/FreeCAD/FreeCAD/blob/2fcc5317fe3aee96ca73475986a577719fc78e20/src/App/PropertyStandard.h#L826{~PropertyStringList}]]]
..
+Copy() const : Property * [[[https://github.com/FreeCAD/FreeCAD/blob/2fcc5317fe3aee96ca73475986a577719fc78e20/src/App/PropertyStandard.h#L839{Copy}]]]
+Paste(const Property & from) : void [[[https://github.com/FreeCAD/FreeCAD/blob/2fcc5317fe3aee96ca73475986a577719fc78e20/src/App/PropertyStandard.h#L840{Paste}]]]
+Restore(Base::XMLReader & reader) : void [[[https://github.com/FreeCAD/FreeCAD/blob/2fcc5317fe3aee96ca73475986a577719fc78e20/src/App/PropertyStandard.h#L837{Restore}]]]
+Save(Base::Writer & writer) const : void [[[https://github.com/FreeCAD/FreeCAD/blob/2fcc5317fe3aee96ca73475986a577719fc78e20/src/App/PropertyStandard.h#L836{Save}]]]
{static} +create() : void * [[[https://github.com/FreeCAD/FreeCAD/blob/2fcc5317fe3aee96ca73475986a577719fc78e20/src/Base/BaseClass.h#L52{create}]]]
{static} +getClassTypeId() : Base::Type [[[https://github.com/FreeCAD/FreeCAD/blob/2fcc5317fe3aee96ca73475986a577719fc78e20/src/Base/BaseClass.h#L49{getClassTypeId}]]]
+getEditorName() const : const char * [[[https://github.com/FreeCAD/FreeCAD/blob/2fcc5317fe3aee96ca73475986a577719fc78e20/src/App/PropertyStandard.h#L831{getEditorName}]]]
+getMemSize() const : unsigned int [[[https://github.com/FreeCAD/FreeCAD/blob/2fcc5317fe3aee96ca73475986a577719fc78e20/src/App/PropertyStandard.h#L842{getMemSize}]]]
+getPyObject() : PyObject * [[[https://github.com/FreeCAD/FreeCAD/blob/2fcc5317fe3aee96ca73475986a577719fc78e20/src/App/PropertyStandard.h#L834{getPyObject}]]]
#getPyValue(PyObject * item) const : std::string [[[https://github.com/FreeCAD/FreeCAD/blob/2fcc5317fe3aee96ca73475986a577719fc78e20/src/App/PropertyStandard.h#L845{getPyValue}]]]
+getTypeId() const : Base::Type [[[https://github.com/FreeCAD/FreeCAD/blob/2fcc5317fe3aee96ca73475986a577719fc78e20/src/Base/BaseClass.h#L50{getTypeId}]]]
{static} +init() : void [[[https://github.com/FreeCAD/FreeCAD/blob/2fcc5317fe3aee96ca73475986a577719fc78e20/src/Base/BaseClass.h#L51{init}]]]
+setValues(const std::list<std::string> &) : void [[[https://github.com/FreeCAD/FreeCAD/blob/2fcc5317fe3aee96ca73475986a577719fc78e20/src/App/PropertyStandard.h#L828{setValues}]]]
__
{static} -classTypeId : Base::Type [[[https://github.com/FreeCAD/FreeCAD/blob/2fcc5317fe3aee96ca73475986a577719fc78e20/src/Base/BaseClass.h#L55{classTypeId}]]]
}
class "GeoFeature" as C_0000183330796290968704
class C_0000183330796290968704 [[https://github.com/FreeCAD/FreeCAD/blob/2fcc5317fe3aee96ca73475986a577719fc78e20/src/App/GeoFeature.h#L39{GeoFeature}]] {
+GeoFeature() : void [[[https://github.com/FreeCAD/FreeCAD/blob/2fcc5317fe3aee96ca73475986a577719fc78e20/src/App/GeoFeature.h#L47{GeoFeature}]]]
+~GeoFeature() : void [[[https://github.com/FreeCAD/FreeCAD/blob/2fcc5317fe3aee96ca73475986a577719fc78e20/src/App/GeoFeature.h#L48{~GeoFeature}]]]
..
#_getElementName(const char * name, const Data::MappedElement & mapped) const : ElementNamePair [[[https://github.com/FreeCAD/FreeCAD/blob/2fcc5317fe3aee96ca73475986a577719fc78e20/src/App/GeoFeature.h#L192{_getElementName}]]]
{static} +create() : void * [[[https://github.com/FreeCAD/FreeCAD/blob/2fcc5317fe3aee96ca73475986a577719fc78e20/src/Base/BaseClass.h#L52{create}]]]
+getCameraAlignmentDirection(Base::Vector3d & direction, const char * subname = nullptr) const : bool [[[https://github.com/FreeCAD/FreeCAD/blob/2fcc5317fe3aee96ca73475986a577719fc78e20/src/App/GeoFeature.h#L151{getCameraAlignmentDirection}]]]
{static} +getClassTypeId() : Base::Type [[[https://github.com/FreeCAD/FreeCAD/blob/2fcc5317fe3aee96ca73475986a577719fc78e20/src/Base/BaseClass.h#L49{getClassTypeId}]]]
+getElementName(const char * name, ElementNameType type = Normal) const : ElementNamePair [[[https://github.com/FreeCAD/FreeCAD/blob/2fcc5317fe3aee96ca73475986a577719fc78e20/src/App/GeoFeature.h#L88{getElementName}]]]
+getElementOwner(const Data::MappedName &) const : DocumentObject * [[[https://github.com/FreeCAD/FreeCAD/blob/2fcc5317fe3aee96ca73475986a577719fc78e20/src/App/GeoFeature.h#L175{getElementOwner}]]]
+getElementTypes(bool all = true) const : std::vector<const char *> [[[https://github.com/FreeCAD/FreeCAD/blob/2fcc5317fe3aee96ca73475986a577719fc78e20/src/App/GeoFeature.h#L178{getElementTypes}]]]
{static} +getGlobalPlacement(DocumentObject * targetObj, PropertyXLinkSub * prop) : Base::Placement [[[https://github.com/FreeCAD/FreeCAD/blob/2fcc5317fe3aee96ca73475986a577719fc78e20/src/App/GeoFeature.h#L185{getGlobalPlacement}]]]
{static} +getGlobalPlacement(DocumentObject * targetObj, DocumentObject * rootObj, const std::string & sub) : Base::Placement [[[https://github.com/FreeCAD/FreeCAD/blob/2fcc5317fe3aee96ca73475986a577719fc78e20/src/App/GeoFeature.h#L184{getGlobalPlacement}]]]
+getHigherElements(const char * name, bool silent = false) const : std::vector<Data::IndexedName> [[[https://github.com/FreeCAD/FreeCAD/blob/2fcc5317fe3aee96ca73475986a577719fc78e20/src/App/GeoFeature.h#L181{getHigherElements}]]]
+getMaterialAppearance() const : App::Material [[[https://github.com/FreeCAD/FreeCAD/blob/2fcc5317fe3aee96ca73475986a577719fc78e20/src/App/GeoFeature.h#L133{getMaterialAppearance}]]]
{static} +getPlacementFromProp(DocumentObject * obj, const char * propName) : Base::Placement [[[https://github.com/FreeCAD/FreeCAD/blob/2fcc5317fe3aee96ca73475986a577719fc78e20/src/App/GeoFeature.h#L183{getPlacementFromProp}]]]
#getPropertyData() const : const App::PropertyData & [[[https://github.com/FreeCAD/FreeCAD/blob/2fcc5317fe3aee96ca73475986a577719fc78e20/src/App/PropertyContainer.h#L307{getPropertyData}]]]
{static} #getPropertyDataPtr() : const App::PropertyData * [[[https://github.com/FreeCAD/FreeCAD/blob/2fcc5317fe3aee96ca73475986a577719fc78e20/src/App/PropertyContainer.h#L306{getPropertyDataPtr}]]]
+getPropertyOfGeometry() const : const PropertyComplexGeoData * [[[https://github.com/FreeCAD/FreeCAD/blob/2fcc5317fe3aee96ca73475986a577719fc78e20/src/App/GeoFeature.h#L64{getPropertyOfGeometry}]]]
+getPyObject() : PyObject * [[[https://github.com/FreeCAD/FreeCAD/blob/2fcc5317fe3aee96ca73475986a577719fc78e20/src/App/GeoFeature.h#L69{getPyObject}]]]
+getTypeId() const : Base::Type [[[https://github.com/FreeCAD/FreeCAD/blob/2fcc5317fe3aee96ca73475986a577719fc78e20/src/Base/BaseClass.h#L50{getTypeId}]]]
+globalPlacement() const : Base::Placement [[[https://github.com/FreeCAD/FreeCAD/blob/2fcc5317fe3aee96ca73475986a577719fc78e20/src/App/GeoFeature.h#L123{globalPlacement}]]]
{static} +hasMissingElement(const char * subname) : bool [[[https://github.com/FreeCAD/FreeCAD/blob/2fcc5317fe3aee96ca73475986a577719fc78e20/src/App/GeoFeature.h#L172{hasMissingElement}]]]
{static} +init() : void [[[https://github.com/FreeCAD/FreeCAD/blob/2fcc5317fe3aee96ca73475986a577719fc78e20/src/Base/BaseClass.h#L51{init}]]]
#onChanged(const Property * prop) : void [[[https://github.com/FreeCAD/FreeCAD/blob/2fcc5317fe3aee96ca73475986a577719fc78e20/src/App/GeoFeature.h#L188{onChanged}]]]
{static} +resolveElement(App::DocumentObject * obj, const char * subname, ElementNamePair & elementName, bool append = false, ElementNameType type = Normal, const DocumentObject * filter = nullptr, const char ** element = nullptr, GeoFeature ** geo = nullptr) : DocumentObject * [[[https://github.com/FreeCAD/FreeCAD/blob/2fcc5317fe3aee96ca73475986a577719fc78e20/src/App/GeoFeature.h#L105{resolveElement}]]]
+searchElementCache(const std::string & element, Data::SearchOptions options = Data::SearchOption::CheckGeometry, double tol = 1e-7, double atol = 1e-10) const : const std::vector<std::string> & [[[https://github.com/FreeCAD/FreeCAD/blob/2fcc5317fe3aee96ca73475986a577719fc78e20/src/App/GeoFeature.h#L167{searchElementCache}]]]
+setMaterialAppearance(const App::Material & material) : void [[[https://github.com/FreeCAD/FreeCAD/blob/2fcc5317fe3aee96ca73475986a577719fc78e20/src/App/GeoFeature.h#L142{setMaterialAppearance}]]]
+transformPlacement(const Base::Placement & transform) : void [[[https://github.com/FreeCAD/FreeCAD/blob/2fcc5317fe3aee96ca73475986a577719fc78e20/src/App/GeoFeature.h#L57{transformPlacement}]]]
#updateElementReference() : void [[[https://github.com/FreeCAD/FreeCAD/blob/2fcc5317fe3aee96ca73475986a577719fc78e20/src/App/GeoFeature.h#L190{updateElementReference}]]]
__
+Placement : PropertyPlacement [[[https://github.com/FreeCAD/FreeCAD/blob/2fcc5317fe3aee96ca73475986a577719fc78e20/src/App/GeoFeature.h#L44{Placement}]]]
{static} -classTypeId : Base::Type [[[https://github.com/FreeCAD/FreeCAD/blob/2fcc5317fe3aee96ca73475986a577719fc78e20/src/Base/BaseClass.h#L55{classTypeId}]]]
{static} -propertyData : App::PropertyData [[[https://github.com/FreeCAD/FreeCAD/blob/2fcc5317fe3aee96ca73475986a577719fc78e20/src/App/PropertyContainer.h#L309{propertyData}]]]
}
class "PropertyFileIncluded" as C_0014984907955352612061
class C_0014984907955352612061 [[https://github.com/FreeCAD/FreeCAD/blob/2fcc5317fe3aee96ca73475986a577719fc78e20/src/App/PropertyFile.h#L75{PropertyFileIncluded}]] {
+PropertyFileIncluded() : void [[[https://github.com/FreeCAD/FreeCAD/blob/2fcc5317fe3aee96ca73475986a577719fc78e20/src/App/PropertyFile.h#L80{PropertyFileIncluded}]]]
+~PropertyFileIncluded() : void [[[https://github.com/FreeCAD/FreeCAD/blob/2fcc5317fe3aee96ca73475986a577719fc78e20/src/App/PropertyFile.h#L81{~PropertyFileIncluded}]]]
..
+Copy() const : Property * [[[https://github.com/FreeCAD/FreeCAD/blob/2fcc5317fe3aee96ca73475986a577719fc78e20/src/App/PropertyFile.h#L97{Copy}]]]
+Paste(const Property & from) : void [[[https://github.com/FreeCAD/FreeCAD/blob/2fcc5317fe3aee96ca73475986a577719fc78e20/src/App/PropertyFile.h#L98{Paste}]]]
+Restore(Base::XMLReader & reader) : void [[[https://github.com/FreeCAD/FreeCAD/blob/2fcc5317fe3aee96ca73475986a577719fc78e20/src/App/PropertyFile.h#L92{Restore}]]]
+RestoreDocFile(Base::Reader & reader) : void [[[https://github.com/FreeCAD/FreeCAD/blob/2fcc5317fe3aee96ca73475986a577719fc78e20/src/App/PropertyFile.h#L95{RestoreDocFile}]]]
+Save(Base::Writer & writer) const : void [[[https://github.com/FreeCAD/FreeCAD/blob/2fcc5317fe3aee96ca73475986a577719fc78e20/src/App/PropertyFile.h#L91{Save}]]]
+SaveDocFile(Base::Writer & writer) const : void [[[https://github.com/FreeCAD/FreeCAD/blob/2fcc5317fe3aee96ca73475986a577719fc78e20/src/App/PropertyFile.h#L94{SaveDocFile}]]]
#aboutToSetValue() : void [[[https://github.com/FreeCAD/FreeCAD/blob/2fcc5317fe3aee96ca73475986a577719fc78e20/src/App/PropertyFile.h#L127{aboutToSetValue}]]]
{static} +create() : void * [[[https://github.com/FreeCAD/FreeCAD/blob/2fcc5317fe3aee96ca73475986a577719fc78e20/src/Base/BaseClass.h#L52{create}]]]
{static} +getClassTypeId() : Base::Type [[[https://github.com/FreeCAD/FreeCAD/blob/2fcc5317fe3aee96ca73475986a577719fc78e20/src/Base/BaseClass.h#L49{getClassTypeId}]]]
#getDocTransientPath() const : std::string [[[https://github.com/FreeCAD/FreeCAD/blob/2fcc5317fe3aee96ca73475986a577719fc78e20/src/App/PropertyFile.h#L125{getDocTransientPath}]]]
+getEditorName() const : const char * [[[https://github.com/FreeCAD/FreeCAD/blob/2fcc5317fe3aee96ca73475986a577719fc78e20/src/App/PropertyFile.h#L86{getEditorName}]]]
+getExchangeTempFile() const : std::string [[[https://github.com/FreeCAD/FreeCAD/blob/2fcc5317fe3aee96ca73475986a577719fc78e20/src/App/PropertyFile.h#L115{getExchangeTempFile}]]]
+getFilter() const : std::string [[[https://github.com/FreeCAD/FreeCAD/blob/2fcc5317fe3aee96ca73475986a577719fc78e20/src/App/PropertyFile.h#L121{getFilter}]]]
+getMemSize() const : unsigned int [[[https://github.com/FreeCAD/FreeCAD/blob/2fcc5317fe3aee96ca73475986a577719fc78e20/src/App/PropertyFile.h#L99{getMemSize}]]]
+getOriginalFileName() const : std::string [[[https://github.com/FreeCAD/FreeCAD/blob/2fcc5317fe3aee96ca73475986a577719fc78e20/src/App/PropertyFile.h#L116{getOriginalFileName}]]]
+getPyObject() : PyObject * [[[https://github.com/FreeCAD/FreeCAD/blob/2fcc5317fe3aee96ca73475986a577719fc78e20/src/App/PropertyFile.h#L88{getPyObject}]]]
+getTypeId() const : Base::Type [[[https://github.com/FreeCAD/FreeCAD/blob/2fcc5317fe3aee96ca73475986a577719fc78e20/src/Base/BaseClass.h#L50{getTypeId}]]]
#getUniqueFileName(const std::string &, const std::string &) const : std::string [[[https://github.com/FreeCAD/FreeCAD/blob/2fcc5317fe3aee96ca73475986a577719fc78e20/src/App/PropertyFile.h#L126{getUniqueFileName}]]]
+getValue() const : const char * [[[https://github.com/FreeCAD/FreeCAD/blob/2fcc5317fe3aee96ca73475986a577719fc78e20/src/App/PropertyFile.h#L84{getValue}]]]
{static} +init() : void [[[https://github.com/FreeCAD/FreeCAD/blob/2fcc5317fe3aee96ca73475986a577719fc78e20/src/Base/BaseClass.h#L51{init}]]]
+isEmpty() const : bool [[[https://github.com/FreeCAD/FreeCAD/blob/2fcc5317fe3aee96ca73475986a577719fc78e20/src/App/PropertyFile.h#L118{isEmpty}]]]
+isSame(const Property & other) const : bool [[[https://github.com/FreeCAD/FreeCAD/blob/2fcc5317fe3aee96ca73475986a577719fc78e20/src/App/PropertyFile.h#L101{isSame}]]]
+setFilter(std::string filter) : void [[[https://github.com/FreeCAD/FreeCAD/blob/2fcc5317fe3aee96ca73475986a577719fc78e20/src/App/PropertyFile.h#L120{setFilter}]]]
+setPyObject(PyObject *) : void [[[https://github.com/FreeCAD/FreeCAD/blob/2fcc5317fe3aee96ca73475986a577719fc78e20/src/App/PropertyFile.h#L89{setPyObject}]]]
+setValue(const char * sFile, const char * sName = nullptr) : void [[[https://github.com/FreeCAD/FreeCAD/blob/2fcc5317fe3aee96ca73475986a577719fc78e20/src/App/PropertyFile.h#L83{setValue}]]]
__
#_BaseFileName : std::string [[[https://github.com/FreeCAD/FreeCAD/blob/2fcc5317fe3aee96ca73475986a577719fc78e20/src/App/PropertyFile.h#L131{_BaseFileName}]]]
#_OriginalName : std::string [[[https://github.com/FreeCAD/FreeCAD/blob/2fcc5317fe3aee96ca73475986a577719fc78e20/src/App/PropertyFile.h#L132{_OriginalName}]]]
#_cValue : std::string [[[https://github.com/FreeCAD/FreeCAD/blob/2fcc5317fe3aee96ca73475986a577719fc78e20/src/App/PropertyFile.h#L130{_cValue}]]]
{static} -classTypeId : Base::Type [[[https://github.com/FreeCAD/FreeCAD/blob/2fcc5317fe3aee96ca73475986a577719fc78e20/src/Base/BaseClass.h#L55{classTypeId}]]]
-m_filter : std::string [[[https://github.com/FreeCAD/FreeCAD/blob/2fcc5317fe3aee96ca73475986a577719fc78e20/src/App/PropertyFile.h#L135{m_filter}]]]
}
class "VRMLObject" as C_0005981626211632622083
class C_0005981626211632622083 [[https://github.com/FreeCAD/FreeCAD/blob/2fcc5317fe3aee96ca73475986a577719fc78e20/src/App/VRMLObject.h#L34{VRMLObject}]] {
+VRMLObject() : void [[[https://github.com/FreeCAD/FreeCAD/blob/2fcc5317fe3aee96ca73475986a577719fc78e20/src/App/VRMLObject.h#L40{VRMLObject}]]]
..
+Restore(Base::XMLReader & reader) : void [[[https://github.com/FreeCAD/FreeCAD/blob/2fcc5317fe3aee96ca73475986a577719fc78e20/src/App/VRMLObject.h#L52{Restore}]]]
+RestoreDocFile(Base::Reader & reader) : void [[[https://github.com/FreeCAD/FreeCAD/blob/2fcc5317fe3aee96ca73475986a577719fc78e20/src/App/VRMLObject.h#L54{RestoreDocFile}]]]
+Save(Base::Writer & writer) const : void [[[https://github.com/FreeCAD/FreeCAD/blob/2fcc5317fe3aee96ca73475986a577719fc78e20/src/App/VRMLObject.h#L51{Save}]]]
+SaveDocFile(Base::Writer & writer) const : void [[[https://github.com/FreeCAD/FreeCAD/blob/2fcc5317fe3aee96ca73475986a577719fc78e20/src/App/VRMLObject.h#L53{SaveDocFile}]]]
{static} +create() : void * [[[https://github.com/FreeCAD/FreeCAD/blob/2fcc5317fe3aee96ca73475986a577719fc78e20/src/Base/BaseClass.h#L52{create}]]]
+execute() : DocumentObjectExecReturn * [[[https://github.com/FreeCAD/FreeCAD/blob/2fcc5317fe3aee96ca73475986a577719fc78e20/src/App/VRMLObject.h#L46{execute}]]]
{static} -fixRelativePath(const std::string & name, const std::string & resource) : std::string [[[https://github.com/FreeCAD/FreeCAD/blob/2fcc5317fe3aee96ca73475986a577719fc78e20/src/App/VRMLObject.h#L67{fixRelativePath}]]]
{static} +getClassTypeId() : Base::Type [[[https://github.com/FreeCAD/FreeCAD/blob/2fcc5317fe3aee96ca73475986a577719fc78e20/src/Base/BaseClass.h#L49{getClassTypeId}]]]
#getPropertyData() const : const App::PropertyData & [[[https://github.com/FreeCAD/FreeCAD/blob/2fcc5317fe3aee96ca73475986a577719fc78e20/src/App/PropertyContainer.h#L307{getPropertyData}]]]
{static} #getPropertyDataPtr() : const App::PropertyData * [[[https://github.com/FreeCAD/FreeCAD/blob/2fcc5317fe3aee96ca73475986a577719fc78e20/src/App/PropertyContainer.h#L306{getPropertyDataPtr}]]]
+getPyObject() : PyObject * [[[https://github.com/FreeCAD/FreeCAD/blob/2fcc5317fe3aee96ca73475986a577719fc78e20/src/App/VRMLObject.h#L50{getPyObject}]]]
-getRelativePath(const std::string & prefix, const std::string & resource) const : std::string [[[https://github.com/FreeCAD/FreeCAD/blob/2fcc5317fe3aee96ca73475986a577719fc78e20/src/App/VRMLObject.h#L66{getRelativePath}]]]
+getTypeId() const : Base::Type [[[https://github.com/FreeCAD/FreeCAD/blob/2fcc5317fe3aee96ca73475986a577719fc78e20/src/Base/BaseClass.h#L50{getTypeId}]]]
+getViewProviderName() const : const char * [[[https://github.com/FreeCAD/FreeCAD/blob/2fcc5317fe3aee96ca73475986a577719fc78e20/src/App/VRMLObject.h#L43{getViewProviderName}]]]
{static} +init() : void [[[https://github.com/FreeCAD/FreeCAD/blob/2fcc5317fe3aee96ca73475986a577719fc78e20/src/Base/BaseClass.h#L51{init}]]]
{static} -makeDirectories(const std::string & path, const std::string & subdir) : void [[[https://github.com/FreeCAD/FreeCAD/blob/2fcc5317fe3aee96ca73475986a577719fc78e20/src/App/VRMLObject.h#L68{makeDirectories}]]]
+mustExecute() const : short [[[https://github.com/FreeCAD/FreeCAD/blob/2fcc5317fe3aee96ca73475986a577719fc78e20/src/App/VRMLObject.h#L49{mustExecute}]]]
#onChanged(const App::Property *) : void [[[https://github.com/FreeCAD/FreeCAD/blob/2fcc5317fe3aee96ca73475986a577719fc78e20/src/App/VRMLObject.h#L63{onChanged}]]]
-reloadFile() : void [[[https://github.com/FreeCAD/FreeCAD/blob/2fcc5317fe3aee96ca73475986a577719fc78e20/src/App/VRMLObject.h#L70{reloadFile}]]]
-restoreTextureFinished(Base::Reader & reader) : bool [[[https://github.com/FreeCAD/FreeCAD/blob/2fcc5317fe3aee96ca73475986a577719fc78e20/src/App/VRMLObject.h#L69{restoreTextureFinished}]]]
__
+Resources : PropertyStringList [[[https://github.com/FreeCAD/FreeCAD/blob/2fcc5317fe3aee96ca73475986a577719fc78e20/src/App/VRMLObject.h#L59{Resources}]]]
+Urls : PropertyStringList [[[https://github.com/FreeCAD/FreeCAD/blob/2fcc5317fe3aee96ca73475986a577719fc78e20/src/App/VRMLObject.h#L58{Urls}]]]
+VrmlFile : PropertyFileIncluded [[[https://github.com/FreeCAD/FreeCAD/blob/2fcc5317fe3aee96ca73475986a577719fc78e20/src/App/VRMLObject.h#L57{VrmlFile}]]]
{static} -classTypeId : Base::Type [[[https://github.com/FreeCAD/FreeCAD/blob/2fcc5317fe3aee96ca73475986a577719fc78e20/src/Base/BaseClass.h#L55{classTypeId}]]]
-indexRestore : int [[[https://github.com/FreeCAD/FreeCAD/blob/2fcc5317fe3aee96ca73475986a577719fc78e20/src/App/VRMLObject.h#L74{indexRestore}]]]
-indexSave : int [[[https://github.com/FreeCAD/FreeCAD/blob/2fcc5317fe3aee96ca73475986a577719fc78e20/src/App/VRMLObject.h#L75{indexSave}]]]
{static} -propertyData : App::PropertyData [[[https://github.com/FreeCAD/FreeCAD/blob/2fcc5317fe3aee96ca73475986a577719fc78e20/src/App/PropertyContainer.h#L309{propertyData}]]]
-restoreData : bool [[[https://github.com/FreeCAD/FreeCAD/blob/2fcc5317fe3aee96ca73475986a577719fc78e20/src/App/VRMLObject.h#L76{restoreData}]]]
-vrmlPath : std::string [[[https://github.com/FreeCAD/FreeCAD/blob/2fcc5317fe3aee96ca73475986a577719fc78e20/src/App/VRMLObject.h#L73{vrmlPath}]]]
}
}
C_0008521121395702379220 --> C_0008521121395702379220 [[https://github.com/FreeCAD/FreeCAD/blob/2fcc5317fe3aee96ca73475986a577719fc78e20/src/App/PropertyContainer.h#L116{parentPropertyData}]] : +parentPropertyData
C_0017690504369665749358 --> C_0010396699791746075194 [[https://github.com/FreeCAD/FreeCAD/blob/2fcc5317fe3aee96ca73475986a577719fc78e20/src/Base/BaseClass.h#L55{classTypeId}]] : -classTypeId
C_0000183330796290968704 --> C_0010396699791746075194 [[https://github.com/FreeCAD/FreeCAD/blob/2fcc5317fe3aee96ca73475986a577719fc78e20/src/Base/BaseClass.h#L55{classTypeId}]] : -classTypeId
C_0000183330796290968704 --> C_0008521121395702379220 [[https://github.com/FreeCAD/FreeCAD/blob/2fcc5317fe3aee96ca73475986a577719fc78e20/src/App/PropertyContainer.h#L309{propertyData}]] : -propertyData
C_0014984907955352612061 o-- C_0001275076681856179721 [[https://github.com/FreeCAD/FreeCAD/blob/2fcc5317fe3aee96ca73475986a577719fc78e20/src/App/PropertyFile.h#L130{_cValue}]] : #_cValue
C_0014984907955352612061 o-- C_0001275076681856179721 [[https://github.com/FreeCAD/FreeCAD/blob/2fcc5317fe3aee96ca73475986a577719fc78e20/src/App/PropertyFile.h#L131{_BaseFileName}]] : #_BaseFileName
C_0014984907955352612061 o-- C_0001275076681856179721 [[https://github.com/FreeCAD/FreeCAD/blob/2fcc5317fe3aee96ca73475986a577719fc78e20/src/App/PropertyFile.h#L132{_OriginalName}]] : #_OriginalName
C_0014984907955352612061 o-- C_0001275076681856179721 [[https://github.com/FreeCAD/FreeCAD/blob/2fcc5317fe3aee96ca73475986a577719fc78e20/src/App/PropertyFile.h#L135{m_filter}]] : -m_filter
C_0014984907955352612061 --> C_0010396699791746075194 [[https://github.com/FreeCAD/FreeCAD/blob/2fcc5317fe3aee96ca73475986a577719fc78e20/src/Base/BaseClass.h#L55{classTypeId}]] : -classTypeId
C_0005981626211632622083 o-- C_0014984907955352612061 [[https://github.com/FreeCAD/FreeCAD/blob/2fcc5317fe3aee96ca73475986a577719fc78e20/src/App/VRMLObject.h#L57{VrmlFile}]] : +VrmlFile
C_0005981626211632622083 o-- C_0017690504369665749358 [[https://github.com/FreeCAD/FreeCAD/blob/2fcc5317fe3aee96ca73475986a577719fc78e20/src/App/VRMLObject.h#L58{Urls}]] : +Urls
C_0005981626211632622083 o-- C_0017690504369665749358 [[https://github.com/FreeCAD/FreeCAD/blob/2fcc5317fe3aee96ca73475986a577719fc78e20/src/App/VRMLObject.h#L59{Resources}]] : +Resources
C_0005981626211632622083 o-- C_0001275076681856179721 [[https://github.com/FreeCAD/FreeCAD/blob/2fcc5317fe3aee96ca73475986a577719fc78e20/src/App/VRMLObject.h#L73{vrmlPath}]] : -vrmlPath
C_0005981626211632622083 --> C_0010396699791746075194 [[https://github.com/FreeCAD/FreeCAD/blob/2fcc5317fe3aee96ca73475986a577719fc78e20/src/Base/BaseClass.h#L55{classTypeId}]] : -classTypeId
C_0005981626211632622083 --> C_0008521121395702379220 [[https://github.com/FreeCAD/FreeCAD/blob/2fcc5317fe3aee96ca73475986a577719fc78e20/src/App/PropertyContainer.h#L309{propertyData}]] : -propertyData
C_0000183330796290968704 <|-- C_0005981626211632622083

'Generated with clang-uml, version 0.6.1
'LLVM version Ubuntu clang version 19.1.1 (1ubuntu1)
@enduml
