@startuml
title App::Placement context
package [Base] as C_0005614219575140048477 {
class "Type" as C_0010396699791746075194
class C_0010396699791746075194 [[https://github.com/FreeCAD/FreeCAD/blob/2fcc5317fe3aee96ca73475986a577719fc78e20/src/Base/Type.h#L80{Type}]] {
+Type(const Type & type) = default : void [[[https://github.com/FreeCAD/FreeCAD/blob/2fcc5317fe3aee96ca73475986a577719fc78e20/src/Base/Type.h#L84{Type}]]]
+Type(Type && type) = default : void [[[https://github.com/FreeCAD/FreeCAD/blob/2fcc5317fe3aee96ca73475986a577719fc78e20/src/Base/Type.h#L85{Type}]]]
+Type() = default : void [[[https://github.com/FreeCAD/FreeCAD/blob/2fcc5317fe3aee96ca73475986a577719fc78e20/src/Base/Type.h#L86{Type}]]]
+~Type() = default : void [[[https://github.com/FreeCAD/FreeCAD/blob/2fcc5317fe3aee96ca73475986a577719fc78e20/src/Base/Type.h#L88{~Type}]]]
..
+operator=(const Type & type) constexpr = default : Type & [[[https://github.com/FreeCAD/FreeCAD/blob/2fcc5317fe3aee96ca73475986a577719fc78e20/src/Base/Type.h#L119{operator=}]]]
+operator=(Type && type) constexpr = default : Type & [[[https://github.com/FreeCAD/FreeCAD/blob/2fcc5317fe3aee96ca73475986a577719fc78e20/src/Base/Type.h#L120{operator=}]]]
..
+operator!=(const Type & type) const : bool [[[https://github.com/FreeCAD/FreeCAD/blob/2fcc5317fe3aee96ca73475986a577719fc78e20/src/Base/Type.h#L122{operator!=}]]]
+operator<(const Type & type) const : bool [[[https://github.com/FreeCAD/FreeCAD/blob/2fcc5317fe3aee96ca73475986a577719fc78e20/src/Base/Type.h#L124{operator<}]]]
+operator<=(const Type & type) const : bool [[[https://github.com/FreeCAD/FreeCAD/blob/2fcc5317fe3aee96ca73475986a577719fc78e20/src/Base/Type.h#L125{operator<=}]]]
+operator==(const Type & type) const : bool [[[https://github.com/FreeCAD/FreeCAD/blob/2fcc5317fe3aee96ca73475986a577719fc78e20/src/Base/Type.h#L121{operator==}]]]
+operator>(const Type & type) const : bool [[[https://github.com/FreeCAD/FreeCAD/blob/2fcc5317fe3aee96ca73475986a577719fc78e20/src/Base/Type.h#L127{operator>}]]]
+operator>=(const Type & type) const : bool [[[https://github.com/FreeCAD/FreeCAD/blob/2fcc5317fe3aee96ca73475986a577719fc78e20/src/Base/Type.h#L126{operator>=}]]]
..
{static} +badType() : Type [[[https://github.com/FreeCAD/FreeCAD/blob/2fcc5317fe3aee96ca73475986a577719fc78e20/src/Base/Type.h#L129{badType}]]]
+canInstantiate() const : bool [[[https://github.com/FreeCAD/FreeCAD/blob/2fcc5317fe3aee96ca73475986a577719fc78e20/src/Base/Type.h#L93{canInstantiate}]]]
+createInstance() : void * [[[https://github.com/FreeCAD/FreeCAD/blob/2fcc5317fe3aee96ca73475986a577719fc78e20/src/Base/Type.h#L91{createInstance}]]]
{static} +createInstanceByName(const char * TypeName, bool bLoadModule = false) : void * [[[https://github.com/FreeCAD/FreeCAD/blob/2fcc5317fe3aee96ca73475986a577719fc78e20/src/Base/Type.h#L95{createInstanceByName}]]]
{static} +createType(const Type & parent, const char * name, instantiationMethod method = nullptr) : Type [[[https://github.com/FreeCAD/FreeCAD/blob/2fcc5317fe3aee96ca73475986a577719fc78e20/src/Base/Type.h#L114{createType}]]]
{static} +destruct() : void [[[https://github.com/FreeCAD/FreeCAD/blob/2fcc5317fe3aee96ca73475986a577719fc78e20/src/Base/Type.h#L131{destruct}]]]
{static} +fromKey(unsigned int key) : Type [[[https://github.com/FreeCAD/FreeCAD/blob/2fcc5317fe3aee96ca73475986a577719fc78e20/src/Base/Type.h#L101{fromKey}]]]
{static} +fromName(const char * name) : Type [[[https://github.com/FreeCAD/FreeCAD/blob/2fcc5317fe3aee96ca73475986a577719fc78e20/src/Base/Type.h#L100{fromName}]]]
{static} +getAllDerivedFrom(const Type & type, std::vector<Type> & List) : int [[[https://github.com/FreeCAD/FreeCAD/blob/2fcc5317fe3aee96ca73475986a577719fc78e20/src/Base/Type.h#L106{getAllDerivedFrom}]]]
+getKey() const : unsigned int [[[https://github.com/FreeCAD/FreeCAD/blob/2fcc5317fe3aee96ca73475986a577719fc78e20/src/Base/Type.h#L116{getKey}]]]
{static} +getModuleName(const char * ClassName) : std::string [[[https://github.com/FreeCAD/FreeCAD/blob/2fcc5317fe3aee96ca73475986a577719fc78e20/src/Base/Type.h#L133{getModuleName}]]]
+getName() const : const char * [[[https://github.com/FreeCAD/FreeCAD/blob/2fcc5317fe3aee96ca73475986a577719fc78e20/src/Base/Type.h#L102{getName}]]]
{static} +getNumTypes() : int [[[https://github.com/FreeCAD/FreeCAD/blob/2fcc5317fe3aee96ca73475986a577719fc78e20/src/Base/Type.h#L111{getNumTypes}]]]
+getParent() const : Type [[[https://github.com/FreeCAD/FreeCAD/blob/2fcc5317fe3aee96ca73475986a577719fc78e20/src/Base/Type.h#L103{getParent}]]]
{static} +getTypeIfDerivedFrom(const char * name, const Type & parent, bool bLoadModule = false) : Type [[[https://github.com/FreeCAD/FreeCAD/blob/2fcc5317fe3aee96ca73475986a577719fc78e20/src/Base/Type.h#L109{getTypeIfDerivedFrom}]]]
{static} +importModule(const char * TypeName) : void [[[https://github.com/FreeCAD/FreeCAD/blob/2fcc5317fe3aee96ca73475986a577719fc78e20/src/Base/Type.h#L96{importModule}]]]
{static} +init() : void [[[https://github.com/FreeCAD/FreeCAD/blob/2fcc5317fe3aee96ca73475986a577719fc78e20/src/Base/Type.h#L130{init}]]]
+isBad() const : bool [[[https://github.com/FreeCAD/FreeCAD/blob/2fcc5317fe3aee96ca73475986a577719fc78e20/src/Base/Type.h#L117{isBad}]]]
+isDerivedFrom(const Type & type) const : bool [[[https://github.com/FreeCAD/FreeCAD/blob/2fcc5317fe3aee96ca73475986a577719fc78e20/src/Base/Type.h#L104{isDerivedFrom}]]]
__
-index : unsigned int [[[https://github.com/FreeCAD/FreeCAD/blob/2fcc5317fe3aee96ca73475986a577719fc78e20/src/Base/Type.h#L137{index}]]]
{static} -loadModuleSet : std::set<std::string> [[[https://github.com/FreeCAD/FreeCAD/blob/2fcc5317fe3aee96ca73475986a577719fc78e20/src/Base/Type.h#L141{loadModuleSet}]]]
{static} -typedata : std::vector<TypeData *> [[[https://github.com/FreeCAD/FreeCAD/blob/2fcc5317fe3aee96ca73475986a577719fc78e20/src/Base/Type.h#L140{typedata}]]]
{static} -typemap : std::map<std::string,unsigned int> [[[https://github.com/FreeCAD/FreeCAD/blob/2fcc5317fe3aee96ca73475986a577719fc78e20/src/Base/Type.h#L139{typemap}]]]
}
}
package [App] as C_0018282610363821501524 {
class "PropertyData" as C_0008521121395702379220
class C_0008521121395702379220 [[https://github.com/FreeCAD/FreeCAD/blob/2fcc5317fe3aee96ca73475986a577719fc78e20/src/App/PropertyContainer.h#L58{PropertyData}]] {
+addProperty(OffsetBase offsetBase, const char * PropName, Property * Prop, const char * PropertyGroup = nullptr, PropertyType  = Prop_None, const char * PropertyDocu = nullptr) : void [[[https://github.com/FreeCAD/FreeCAD/blob/2fcc5317fe3aee96ca73475986a577719fc78e20/src/App/PropertyContainer.h#L118{addProperty}]]]
+findProperty(OffsetBase offsetBase, const char * PropName) const : const PropertySpec * [[[https://github.com/FreeCAD/FreeCAD/blob/2fcc5317fe3aee96ca73475986a577719fc78e20/src/App/PropertyContainer.h#L120{findProperty}]]]
+findProperty(OffsetBase offsetBase, const Property * prop) const : const PropertySpec * [[[https://github.com/FreeCAD/FreeCAD/blob/2fcc5317fe3aee96ca73475986a577719fc78e20/src/App/PropertyContainer.h#L121{findProperty}]]]
+getDocumentation(OffsetBase offsetBase, const char * name) const : const char * [[[https://github.com/FreeCAD/FreeCAD/blob/2fcc5317fe3aee96ca73475986a577719fc78e20/src/App/PropertyContainer.h#L128{getDocumentation}]]]
+getDocumentation(OffsetBase offsetBase, const Property * prop) const : const char * [[[https://github.com/FreeCAD/FreeCAD/blob/2fcc5317fe3aee96ca73475986a577719fc78e20/src/App/PropertyContainer.h#L129{getDocumentation}]]]
+getGroup(OffsetBase offsetBase, const char * name) const : const char * [[[https://github.com/FreeCAD/FreeCAD/blob/2fcc5317fe3aee96ca73475986a577719fc78e20/src/App/PropertyContainer.h#L126{getGroup}]]]
+getGroup(OffsetBase offsetBase, const Property * prop) const : const char * [[[https://github.com/FreeCAD/FreeCAD/blob/2fcc5317fe3aee96ca73475986a577719fc78e20/src/App/PropertyContainer.h#L127{getGroup}]]]
+getName(OffsetBase offsetBase, const Property * prop) const : const char * [[[https://github.com/FreeCAD/FreeCAD/blob/2fcc5317fe3aee96ca73475986a577719fc78e20/src/App/PropertyContainer.h#L123{getName}]]]
+getPropertyByName(OffsetBase offsetBase, const char * name) const : Property * [[[https://github.com/FreeCAD/FreeCAD/blob/2fcc5317fe3aee96ca73475986a577719fc78e20/src/App/PropertyContainer.h#L131{getPropertyByName}]]]
+getPropertyList(OffsetBase offsetBase, std::vector<Property *> & List) const : void [[[https://github.com/FreeCAD/FreeCAD/blob/2fcc5317fe3aee96ca73475986a577719fc78e20/src/App/PropertyContainer.h#L133{getPropertyList}]]]
+getPropertyMap(OffsetBase offsetBase, std::map<std::string,Property *> & Map) const : void [[[https://github.com/FreeCAD/FreeCAD/blob/2fcc5317fe3aee96ca73475986a577719fc78e20/src/App/PropertyContainer.h#L132{getPropertyMap}]]]
+getPropertyNamedList(OffsetBase offsetBase, std::vector<std::pair<const char *,Property *>> & List) const : void [[[https://github.com/FreeCAD/FreeCAD/blob/2fcc5317fe3aee96ca73475986a577719fc78e20/src/App/PropertyContainer.h#L134{getPropertyNamedList}]]]
+getType(OffsetBase offsetBase, const Property * prop) const : short [[[https://github.com/FreeCAD/FreeCAD/blob/2fcc5317fe3aee96ca73475986a577719fc78e20/src/App/PropertyContainer.h#L124{getType}]]]
+getType(OffsetBase offsetBase, const char * name) const : short [[[https://github.com/FreeCAD/FreeCAD/blob/2fcc5317fe3aee96ca73475986a577719fc78e20/src/App/PropertyContainer.h#L125{getType}]]]
+merge(PropertyData * other = nullptr) const : void [[[https://github.com/FreeCAD/FreeCAD/blob/2fcc5317fe3aee96ca73475986a577719fc78e20/src/App/PropertyContainer.h#L136{merge}]]]
+split(PropertyData * other) : void [[[https://github.com/FreeCAD/FreeCAD/blob/2fcc5317fe3aee96ca73475986a577719fc78e20/src/App/PropertyContainer.h#L137{split}]]]
__
+parentMerged : bool [[[https://github.com/FreeCAD/FreeCAD/blob/2fcc5317fe3aee96ca73475986a577719fc78e20/src/App/PropertyContainer.h#L114{parentMerged}]]]
+parentPropertyData : const PropertyData * [[[https://github.com/FreeCAD/FreeCAD/blob/2fcc5317fe3aee96ca73475986a577719fc78e20/src/App/PropertyContainer.h#L116{parentPropertyData}]]]
+propertyData : bmi::multi_index_container<PropertySpec,bmi::indexed_by<bmi::sequenced<>,bmi::hashed_unique<bmi::member<PropertySpec,const char *,&PropertySpec::Name>,CStringHasher,CStringHasher>,bmi::hashed_unique<bmi::member<PropertySpec,short,&PropertySpec::Offset>>>> [[[https://github.com/FreeCAD/FreeCAD/blob/2fcc5317fe3aee96ca73475986a577719fc78e20/src/App/PropertyContainer.h#L112{propertyData}]]]
}
class "PropertyPlacement" as C_0000677701823704837107
class C_0000677701823704837107 [[https://github.com/FreeCAD/FreeCAD/blob/2fcc5317fe3aee96ca73475986a577719fc78e20/src/App/PropertyGeo.h#L299{PropertyPlacement}]] {
+PropertyPlacement() : void [[[https://github.com/FreeCAD/FreeCAD/blob/2fcc5317fe3aee96ca73475986a577719fc78e20/src/App/PropertyGeo.h#L308{PropertyPlacement}]]]
+~PropertyPlacement() : void [[[https://github.com/FreeCAD/FreeCAD/blob/2fcc5317fe3aee96ca73475986a577719fc78e20/src/App/PropertyGeo.h#L314{~PropertyPlacement}]]]
..
+Copy() const : Property * [[[https://github.com/FreeCAD/FreeCAD/blob/2fcc5317fe3aee96ca73475986a577719fc78e20/src/App/PropertyGeo.h#L351{Copy}]]]
+Paste(const Property & from) : void [[[https://github.com/FreeCAD/FreeCAD/blob/2fcc5317fe3aee96ca73475986a577719fc78e20/src/App/PropertyGeo.h#L352{Paste}]]]
+Restore(Base::XMLReader & reader) : void [[[https://github.com/FreeCAD/FreeCAD/blob/2fcc5317fe3aee96ca73475986a577719fc78e20/src/App/PropertyGeo.h#L349{Restore}]]]
+Save(Base::Writer & writer) const : void [[[https://github.com/FreeCAD/FreeCAD/blob/2fcc5317fe3aee96ca73475986a577719fc78e20/src/App/PropertyGeo.h#L348{Save}]]]
{static} +create() : void * [[[https://github.com/FreeCAD/FreeCAD/blob/2fcc5317fe3aee96ca73475986a577719fc78e20/src/Base/BaseClass.h#L52{create}]]]
{static} +getClassTypeId() : Base::Type [[[https://github.com/FreeCAD/FreeCAD/blob/2fcc5317fe3aee96ca73475986a577719fc78e20/src/Base/BaseClass.h#L49{getClassTypeId}]]]
+getEditorName() const : const char * [[[https://github.com/FreeCAD/FreeCAD/blob/2fcc5317fe3aee96ca73475986a577719fc78e20/src/App/PropertyGeo.h#L341{getEditorName}]]]
+getMemSize() const : unsigned int [[[https://github.com/FreeCAD/FreeCAD/blob/2fcc5317fe3aee96ca73475986a577719fc78e20/src/App/PropertyGeo.h#L354{getMemSize}]]]
+getPathValue(const ObjectIdentifier & path) const : const boost::any [[[https://github.com/FreeCAD/FreeCAD/blob/2fcc5317fe3aee96ca73475986a577719fc78e20/src/App/PropertyGeo.h#L337{getPathValue}]]]
+getPaths(std::vector<ObjectIdentifier> & paths) const : void [[[https://github.com/FreeCAD/FreeCAD/blob/2fcc5317fe3aee96ca73475986a577719fc78e20/src/App/PropertyGeo.h#L333{getPaths}]]]
+getPyObject() : PyObject * [[[https://github.com/FreeCAD/FreeCAD/blob/2fcc5317fe3aee96ca73475986a577719fc78e20/src/App/PropertyGeo.h#L345{getPyObject}]]]
+getPyPathValue(const ObjectIdentifier & path, Py::Object & res) const : bool [[[https://github.com/FreeCAD/FreeCAD/blob/2fcc5317fe3aee96ca73475986a577719fc78e20/src/App/PropertyGeo.h#L339{getPyPathValue}]]]
+getTypeId() const : Base::Type [[[https://github.com/FreeCAD/FreeCAD/blob/2fcc5317fe3aee96ca73475986a577719fc78e20/src/Base/BaseClass.h#L50{getTypeId}]]]
+getValue() const : const Base::Placement & [[[https://github.com/FreeCAD/FreeCAD/blob/2fcc5317fe3aee96ca73475986a577719fc78e20/src/App/PropertyGeo.h#L330{getValue}]]]
{static} +init() : void [[[https://github.com/FreeCAD/FreeCAD/blob/2fcc5317fe3aee96ca73475986a577719fc78e20/src/Base/BaseClass.h#L51{init}]]]
+isSame(const Property & other) const : bool [[[https://github.com/FreeCAD/FreeCAD/blob/2fcc5317fe3aee96ca73475986a577719fc78e20/src/App/PropertyGeo.h#L358{isSame}]]]
+setPathValue(const ObjectIdentifier & path, const boost::any & value) : void [[[https://github.com/FreeCAD/FreeCAD/blob/2fcc5317fe3aee96ca73475986a577719fc78e20/src/App/PropertyGeo.h#L335{setPathValue}]]]
+setPyObject(PyObject *) : void [[[https://github.com/FreeCAD/FreeCAD/blob/2fcc5317fe3aee96ca73475986a577719fc78e20/src/App/PropertyGeo.h#L346{setPyObject}]]]
+setValue(const Base::Placement & pos) : void [[[https://github.com/FreeCAD/FreeCAD/blob/2fcc5317fe3aee96ca73475986a577719fc78e20/src/App/PropertyGeo.h#L318{setValue}]]]
+setValueIfChanged(const Base::Placement & pos, double tol = 1e-7, double atol = 1e-12) : bool [[[https://github.com/FreeCAD/FreeCAD/blob/2fcc5317fe3aee96ca73475986a577719fc78e20/src/App/PropertyGeo.h#L325{setValueIfChanged}]]]
__
{static} +Null : const Placement [[[https://github.com/FreeCAD/FreeCAD/blob/2fcc5317fe3aee96ca73475986a577719fc78e20/src/App/PropertyGeo.h#L365{Null}]]]
-_cPos : Base::Placement [[[https://github.com/FreeCAD/FreeCAD/blob/2fcc5317fe3aee96ca73475986a577719fc78e20/src/App/PropertyGeo.h#L368{_cPos}]]]
{static} -classTypeId : Base::Type [[[https://github.com/FreeCAD/FreeCAD/blob/2fcc5317fe3aee96ca73475986a577719fc78e20/src/Base/BaseClass.h#L55{classTypeId}]]]
}
class "GeoFeature" as C_0000183330796290968704
class C_0000183330796290968704 [[https://github.com/FreeCAD/FreeCAD/blob/2fcc5317fe3aee96ca73475986a577719fc78e20/src/App/GeoFeature.h#L39{GeoFeature}]] {
+GeoFeature() : void [[[https://github.com/FreeCAD/FreeCAD/blob/2fcc5317fe3aee96ca73475986a577719fc78e20/src/App/GeoFeature.h#L47{GeoFeature}]]]
+~GeoFeature() : void [[[https://github.com/FreeCAD/FreeCAD/blob/2fcc5317fe3aee96ca73475986a577719fc78e20/src/App/GeoFeature.h#L48{~GeoFeature}]]]
..
#_getElementName(const char * name, const Data::MappedElement & mapped) const : ElementNamePair [[[https://github.com/FreeCAD/FreeCAD/blob/2fcc5317fe3aee96ca73475986a577719fc78e20/src/App/GeoFeature.h#L192{_getElementName}]]]
{static} +create() : void * [[[https://github.com/FreeCAD/FreeCAD/blob/2fcc5317fe3aee96ca73475986a577719fc78e20/src/Base/BaseClass.h#L52{create}]]]
+getCameraAlignmentDirection(Base::Vector3d & direction, const char * subname = nullptr) const : bool [[[https://github.com/FreeCAD/FreeCAD/blob/2fcc5317fe3aee96ca73475986a577719fc78e20/src/App/GeoFeature.h#L151{getCameraAlignmentDirection}]]]
{static} +getClassTypeId() : Base::Type [[[https://github.com/FreeCAD/FreeCAD/blob/2fcc5317fe3aee96ca73475986a577719fc78e20/src/Base/BaseClass.h#L49{getClassTypeId}]]]
+getElementName(const char * name, ElementNameType type = Normal) const : ElementNamePair [[[https://github.com/FreeCAD/FreeCAD/blob/2fcc5317fe3aee96ca73475986a577719fc78e20/src/App/GeoFeature.h#L88{getElementName}]]]
+getElementOwner(const Data::MappedName &) const : DocumentObject * [[[https://github.com/FreeCAD/FreeCAD/blob/2fcc5317fe3aee96ca73475986a577719fc78e20/src/App/GeoFeature.h#L175{getElementOwner}]]]
+getElementTypes(bool all = true) const : std::vector<const char *> [[[https://github.com/FreeCAD/FreeCAD/blob/2fcc5317fe3aee96ca73475986a577719fc78e20/src/App/GeoFeature.h#L178{getElementTypes}]]]
{static} +getGlobalPlacement(DocumentObject * targetObj, PropertyXLinkSub * prop) : Base::Placement [[[https://github.com/FreeCAD/FreeCAD/blob/2fcc5317fe3aee96ca73475986a577719fc78e20/src/App/GeoFeature.h#L185{getGlobalPlacement}]]]
{static} +getGlobalPlacement(DocumentObject * targetObj, DocumentObject * rootObj, const std::string & sub) : Base::Placement [[[https://github.com/FreeCAD/FreeCAD/blob/2fcc5317fe3aee96ca73475986a577719fc78e20/src/App/GeoFeature.h#L184{getGlobalPlacement}]]]
+getHigherElements(const char * name, bool silent = false) const : std::vector<Data::IndexedName> [[[https://github.com/FreeCAD/FreeCAD/blob/2fcc5317fe3aee96ca73475986a577719fc78e20/src/App/GeoFeature.h#L181{getHigherElements}]]]
+getMaterialAppearance() const : App::Material [[[https://github.com/FreeCAD/FreeCAD/blob/2fcc5317fe3aee96ca73475986a577719fc78e20/src/App/GeoFeature.h#L133{getMaterialAppearance}]]]
{static} +getPlacementFromProp(DocumentObject * obj, const char * propName) : Base::Placement [[[https://github.com/FreeCAD/FreeCAD/blob/2fcc5317fe3aee96ca73475986a577719fc78e20/src/App/GeoFeature.h#L183{getPlacementFromProp}]]]
#getPropertyData() const : const App::PropertyData & [[[https://github.com/FreeCAD/FreeCAD/blob/2fcc5317fe3aee96ca73475986a577719fc78e20/src/App/PropertyContainer.h#L307{getPropertyData}]]]
{static} #getPropertyDataPtr() : const App::PropertyData * [[[https://github.com/FreeCAD/FreeCAD/blob/2fcc5317fe3aee96ca73475986a577719fc78e20/src/App/PropertyContainer.h#L306{getPropertyDataPtr}]]]
+getPropertyOfGeometry() const : const PropertyComplexGeoData * [[[https://github.com/FreeCAD/FreeCAD/blob/2fcc5317fe3aee96ca73475986a577719fc78e20/src/App/GeoFeature.h#L64{getPropertyOfGeometry}]]]
+getPyObject() : PyObject * [[[https://github.com/FreeCAD/FreeCAD/blob/2fcc5317fe3aee96ca73475986a577719fc78e20/src/App/GeoFeature.h#L69{getPyObject}]]]
+getTypeId() const : Base::Type [[[https://github.com/FreeCAD/FreeCAD/blob/2fcc5317fe3aee96ca73475986a577719fc78e20/src/Base/BaseClass.h#L50{getTypeId}]]]
+globalPlacement() const : Base::Placement [[[https://github.com/FreeCAD/FreeCAD/blob/2fcc5317fe3aee96ca73475986a577719fc78e20/src/App/GeoFeature.h#L123{globalPlacement}]]]
{static} +hasMissingElement(const char * subname) : bool [[[https://github.com/FreeCAD/FreeCAD/blob/2fcc5317fe3aee96ca73475986a577719fc78e20/src/App/GeoFeature.h#L172{hasMissingElement}]]]
{static} +init() : void [[[https://github.com/FreeCAD/FreeCAD/blob/2fcc5317fe3aee96ca73475986a577719fc78e20/src/Base/BaseClass.h#L51{init}]]]
#onChanged(const Property * prop) : void [[[https://github.com/FreeCAD/FreeCAD/blob/2fcc5317fe3aee96ca73475986a577719fc78e20/src/App/GeoFeature.h#L188{onChanged}]]]
{static} +resolveElement(App::DocumentObject * obj, const char * subname, ElementNamePair & elementName, bool append = false, ElementNameType type = Normal, const DocumentObject * filter = nullptr, const char ** element = nullptr, GeoFeature ** geo = nullptr) : DocumentObject * [[[https://github.com/FreeCAD/FreeCAD/blob/2fcc5317fe3aee96ca73475986a577719fc78e20/src/App/GeoFeature.h#L105{resolveElement}]]]
+searchElementCache(const std::string & element, Data::SearchOptions options = Data::SearchOption::CheckGeometry, double tol = 1e-7, double atol = 1e-10) const : const std::vector<std::string> & [[[https://github.com/FreeCAD/FreeCAD/blob/2fcc5317fe3aee96ca73475986a577719fc78e20/src/App/GeoFeature.h#L167{searchElementCache}]]]
+setMaterialAppearance(const App::Material & material) : void [[[https://github.com/FreeCAD/FreeCAD/blob/2fcc5317fe3aee96ca73475986a577719fc78e20/src/App/GeoFeature.h#L142{setMaterialAppearance}]]]
+transformPlacement(const Base::Placement & transform) : void [[[https://github.com/FreeCAD/FreeCAD/blob/2fcc5317fe3aee96ca73475986a577719fc78e20/src/App/GeoFeature.h#L57{transformPlacement}]]]
#updateElementReference() : void [[[https://github.com/FreeCAD/FreeCAD/blob/2fcc5317fe3aee96ca73475986a577719fc78e20/src/App/GeoFeature.h#L190{updateElementReference}]]]
__
+Placement : PropertyPlacement [[[https://github.com/FreeCAD/FreeCAD/blob/2fcc5317fe3aee96ca73475986a577719fc78e20/src/App/GeoFeature.h#L44{Placement}]]]
{static} -classTypeId : Base::Type [[[https://github.com/FreeCAD/FreeCAD/blob/2fcc5317fe3aee96ca73475986a577719fc78e20/src/Base/BaseClass.h#L55{classTypeId}]]]
{static} -propertyData : App::PropertyData [[[https://github.com/FreeCAD/FreeCAD/blob/2fcc5317fe3aee96ca73475986a577719fc78e20/src/App/PropertyContainer.h#L309{propertyData}]]]
}
class "Placement" as C_0003422068113493092212
class C_0003422068113493092212 [[https://github.com/FreeCAD/FreeCAD/blob/2fcc5317fe3aee96ca73475986a577719fc78e20/src/App/Placement.h#L35{Placement}]] {
+Placement() : void [[[https://github.com/FreeCAD/FreeCAD/blob/2fcc5317fe3aee96ca73475986a577719fc78e20/src/App/Placement.h#L41{Placement}]]]
+~Placement() : void [[[https://github.com/FreeCAD/FreeCAD/blob/2fcc5317fe3aee96ca73475986a577719fc78e20/src/App/Placement.h#L42{~Placement}]]]
..
{static} +create() : void * [[[https://github.com/FreeCAD/FreeCAD/blob/2fcc5317fe3aee96ca73475986a577719fc78e20/src/Base/BaseClass.h#L52{create}]]]
{static} +getClassTypeId() : Base::Type [[[https://github.com/FreeCAD/FreeCAD/blob/2fcc5317fe3aee96ca73475986a577719fc78e20/src/Base/BaseClass.h#L49{getClassTypeId}]]]
#getPropertyData() const : const App::PropertyData & [[[https://github.com/FreeCAD/FreeCAD/blob/2fcc5317fe3aee96ca73475986a577719fc78e20/src/App/PropertyContainer.h#L307{getPropertyData}]]]
{static} #getPropertyDataPtr() : const App::PropertyData * [[[https://github.com/FreeCAD/FreeCAD/blob/2fcc5317fe3aee96ca73475986a577719fc78e20/src/App/PropertyContainer.h#L306{getPropertyDataPtr}]]]
+getTypeId() const : Base::Type [[[https://github.com/FreeCAD/FreeCAD/blob/2fcc5317fe3aee96ca73475986a577719fc78e20/src/Base/BaseClass.h#L50{getTypeId}]]]
+getViewProviderName() const : const char * [[[https://github.com/FreeCAD/FreeCAD/blob/2fcc5317fe3aee96ca73475986a577719fc78e20/src/App/Placement.h#L45{getViewProviderName}]]]
{static} +init() : void [[[https://github.com/FreeCAD/FreeCAD/blob/2fcc5317fe3aee96ca73475986a577719fc78e20/src/Base/BaseClass.h#L51{init}]]]
__
{static} -classTypeId : Base::Type [[[https://github.com/FreeCAD/FreeCAD/blob/2fcc5317fe3aee96ca73475986a577719fc78e20/src/Base/BaseClass.h#L55{classTypeId}]]]
{static} -propertyData : App::PropertyData [[[https://github.com/FreeCAD/FreeCAD/blob/2fcc5317fe3aee96ca73475986a577719fc78e20/src/App/PropertyContainer.h#L309{propertyData}]]]
}
class "FeaturePythonT<App::Placement>" as C_0008828268465485334205
class C_0008828268465485334205 [[https://github.com/FreeCAD/FreeCAD/blob/2fcc5317fe3aee96ca73475986a577719fc78e20/src/App/Placement.cpp#L52{FeaturePythonT}]] {
+FeaturePythonT() : void [[[https://github.com/FreeCAD/FreeCAD/blob/2fcc5317fe3aee96ca73475986a577719fc78e20/src/App/FeaturePython.h#L173{FeaturePythonT}]]]
+FeaturePythonT(const App::FeaturePythonT<App::Placement> &) = deleted : void [[[https://github.com/FreeCAD/FreeCAD/blob/2fcc5317fe3aee96ca73475986a577719fc78e20/src/App/FeaturePython.h#L351{FeaturePythonT}]]]
+FeaturePythonT(App::FeaturePythonT<App::Placement> &&) = deleted : void [[[https://github.com/FreeCAD/FreeCAD/blob/2fcc5317fe3aee96ca73475986a577719fc78e20/src/App/FeaturePython.h#L352{FeaturePythonT}]]]
+~FeaturePythonT() : void [[[https://github.com/FreeCAD/FreeCAD/blob/2fcc5317fe3aee96ca73475986a577719fc78e20/src/App/FeaturePython.h#L178{~FeaturePythonT}]]]
..
+operator=(const App::FeaturePythonT<App::Placement> &) = deleted : App::FeaturePythonT<App::Placement> & [[[https://github.com/FreeCAD/FreeCAD/blob/2fcc5317fe3aee96ca73475986a577719fc78e20/src/App/FeaturePython.h#L353{operator=}]]]
+operator=(App::FeaturePythonT<App::Placement> &&) = deleted : App::FeaturePythonT<App::Placement> & [[[https://github.com/FreeCAD/FreeCAD/blob/2fcc5317fe3aee96ca73475986a577719fc78e20/src/App/FeaturePython.h#L354{operator=}]]]
..
+allowDuplicateLabel() const : bool [[[https://github.com/FreeCAD/FreeCAD/blob/2fcc5317fe3aee96ca73475986a577719fc78e20/src/App/FeaturePython.h#L276{allowDuplicateLabel}]]]
+canLinkProperties() const : bool [[[https://github.com/FreeCAD/FreeCAD/blob/2fcc5317fe3aee96ca73475986a577719fc78e20/src/App/FeaturePython.h#L265{canLinkProperties}]]]
+canLoadPartial() const : int [[[https://github.com/FreeCAD/FreeCAD/blob/2fcc5317fe3aee96ca73475986a577719fc78e20/src/App/FeaturePython.h#L300{canLoadPartial}]]]
{static} +create() : void * [[[https://github.com/FreeCAD/FreeCAD/blob/2fcc5317fe3aee96ca73475986a577719fc78e20/src/App/PropertyContainer.h#L335{create}]]]
+editProperty(const char * propName) : void [[[https://github.com/FreeCAD/FreeCAD/blob/2fcc5317fe3aee96ca73475986a577719fc78e20/src/App/FeaturePython.h#L307{editProperty}]]]
+execute() : DocumentObjectExecReturn * [[[https://github.com/FreeCAD/FreeCAD/blob/2fcc5317fe3aee96ca73475986a577719fc78e20/src/App/FeaturePython.h#L192{execute}]]]
{static} +getClassTypeId() : Base::Type [[[https://github.com/FreeCAD/FreeCAD/blob/2fcc5317fe3aee96ca73475986a577719fc78e20/src/App/PropertyContainer.h#L333{getClassTypeId}]]]
+getLinkedObject(bool recurse, Base::Matrix4D * mat, bool transform, int depth) const : App::DocumentObject * [[[https://github.com/FreeCAD/FreeCAD/blob/2fcc5317fe3aee96ca73475986a577719fc78e20/src/App/FeaturePython.h#L230{getLinkedObject}]]]
#getPropertyData() const : const App::PropertyData & [[[https://github.com/FreeCAD/FreeCAD/blob/2fcc5317fe3aee96ca73475986a577719fc78e20/src/App/PropertyContainer.h#L343{getPropertyData}]]]
{static} #getPropertyDataPtr() : const App::PropertyData * [[[https://github.com/FreeCAD/FreeCAD/blob/2fcc5317fe3aee96ca73475986a577719fc78e20/src/App/PropertyContainer.h#L342{getPropertyDataPtr}]]]
+getPyObject() : PyObject * [[[https://github.com/FreeCAD/FreeCAD/blob/2fcc5317fe3aee96ca73475986a577719fc78e20/src/App/FeaturePython.h#L312{getPyObject}]]]
+getSubObject(const char * subname, PyObject ** pyObj, Base::Matrix4D * mat, bool transform, int depth) const : App::DocumentObject * [[[https://github.com/FreeCAD/FreeCAD/blob/2fcc5317fe3aee96ca73475986a577719fc78e20/src/App/FeaturePython.h#L214{getSubObject}]]]
+getSubObjects(int reason) const : std::vector<std::string> [[[https://github.com/FreeCAD/FreeCAD/blob/2fcc5317fe3aee96ca73475986a577719fc78e20/src/App/FeaturePython.h#L223{getSubObjects}]]]
+getTypeId() const : Base::Type [[[https://github.com/FreeCAD/FreeCAD/blob/2fcc5317fe3aee96ca73475986a577719fc78e20/src/App/PropertyContainer.h#L334{getTypeId}]]]
+getViewProviderName() const : const char * [[[https://github.com/FreeCAD/FreeCAD/blob/2fcc5317fe3aee96ca73475986a577719fc78e20/src/App/Placement.cpp#L49{getViewProviderName}]]]
+getViewProviderNameOverride() const : const char * [[[https://github.com/FreeCAD/FreeCAD/blob/2fcc5317fe3aee96ca73475986a577719fc78e20/src/App/FeaturePython.h#L203{getViewProviderNameOverride}]]]
+hasChildElement() const : bool [[[https://github.com/FreeCAD/FreeCAD/blob/2fcc5317fe3aee96ca73475986a577719fc78e20/src/App/FeaturePython.h#L240{hasChildElement}]]]
{static} +init() : void [[[https://github.com/FreeCAD/FreeCAD/blob/2fcc5317fe3aee96ca73475986a577719fc78e20/src/App/PropertyContainer.h#L344{init}]]]
+isElementVisible(const char * element) const : int [[[https://github.com/FreeCAD/FreeCAD/blob/2fcc5317fe3aee96ca73475986a577719fc78e20/src/App/FeaturePython.h#L251{isElementVisible}]]]
+mustExecute() const : short [[[https://github.com/FreeCAD/FreeCAD/blob/2fcc5317fe3aee96ca73475986a577719fc78e20/src/App/FeaturePython.h#L184{mustExecute}]]]
#onBeforeChange(const Property * prop) : void [[[https://github.com/FreeCAD/FreeCAD/blob/2fcc5317fe3aee96ca73475986a577719fc78e20/src/App/FeaturePython.h#L327{onBeforeChange}]]]
#onBeforeChangeLabel(std::string & newLabel) : void [[[https://github.com/FreeCAD/FreeCAD/blob/2fcc5317fe3aee96ca73475986a577719fc78e20/src/App/FeaturePython.h#L331{onBeforeChangeLabel}]]]
#onChanged(const Property * prop) : void [[[https://github.com/FreeCAD/FreeCAD/blob/2fcc5317fe3aee96ca73475986a577719fc78e20/src/App/FeaturePython.h#L335{onChanged}]]]
#onDocumentRestored() : void [[[https://github.com/FreeCAD/FreeCAD/blob/2fcc5317fe3aee96ca73475986a577719fc78e20/src/App/FeaturePython.h#L341{onDocumentRestored}]]]
+redirectSubName(std::ostringstream & ss, App::DocumentObject * topParent, App::DocumentObject * child) const : bool [[[https://github.com/FreeCAD/FreeCAD/blob/2fcc5317fe3aee96ca73475986a577719fc78e20/src/App/FeaturePython.h#L287{redirectSubName}]]]
+setElementVisible(const char * element, bool visible) : int [[[https://github.com/FreeCAD/FreeCAD/blob/2fcc5317fe3aee96ca73475986a577719fc78e20/src/App/FeaturePython.h#L258{setElementVisible}]]]
+setPyObject(PyObject * obj) : void [[[https://github.com/FreeCAD/FreeCAD/blob/2fcc5317fe3aee96ca73475986a577719fc78e20/src/App/FeaturePython.h#L319{setPyObject}]]]
#unsetupObject() : void [[[https://github.com/FreeCAD/FreeCAD/blob/2fcc5317fe3aee96ca73475986a577719fc78e20/src/App/FeaturePython.h#L345{unsetupObject}]]]
__
-Proxy : PropertyPythonObject [[[https://github.com/FreeCAD/FreeCAD/blob/2fcc5317fe3aee96ca73475986a577719fc78e20/src/App/FeaturePython.h#L358{Proxy}]]]
{static} -classTypeId : Base::Type [[[https://github.com/FreeCAD/FreeCAD/blob/2fcc5317fe3aee96ca73475986a577719fc78e20/src/App/PropertyContainer.h#L332{classTypeId}]]]
-imp : FeaturePythonImp * [[[https://github.com/FreeCAD/FreeCAD/blob/2fcc5317fe3aee96ca73475986a577719fc78e20/src/App/FeaturePython.h#L357{imp}]]]
{static} -propertyData : App::PropertyData [[[https://github.com/FreeCAD/FreeCAD/blob/2fcc5317fe3aee96ca73475986a577719fc78e20/src/App/PropertyContainer.h#L341{propertyData}]]]
-viewProviderName : std::string [[[https://github.com/FreeCAD/FreeCAD/blob/2fcc5317fe3aee96ca73475986a577719fc78e20/src/App/FeaturePython.h#L359{viewProviderName}]]]
}
}
C_0008521121395702379220 --> C_0008521121395702379220 [[https://github.com/FreeCAD/FreeCAD/blob/2fcc5317fe3aee96ca73475986a577719fc78e20/src/App/PropertyContainer.h#L116{parentPropertyData}]] : +parentPropertyData
C_0000677701823704837107 --> C_0010396699791746075194 [[https://github.com/FreeCAD/FreeCAD/blob/2fcc5317fe3aee96ca73475986a577719fc78e20/src/Base/BaseClass.h#L55{classTypeId}]] : -classTypeId
C_0000677701823704837107 --> C_0003422068113493092212 [[https://github.com/FreeCAD/FreeCAD/blob/2fcc5317fe3aee96ca73475986a577719fc78e20/src/App/PropertyGeo.h#L365{Null}]] : +Null
C_0000183330796290968704 o-- C_0000677701823704837107 [[https://github.com/FreeCAD/FreeCAD/blob/2fcc5317fe3aee96ca73475986a577719fc78e20/src/App/GeoFeature.h#L44{Placement}]] : +Placement
C_0000183330796290968704 --> C_0010396699791746075194 [[https://github.com/FreeCAD/FreeCAD/blob/2fcc5317fe3aee96ca73475986a577719fc78e20/src/Base/BaseClass.h#L55{classTypeId}]] : -classTypeId
C_0000183330796290968704 --> C_0008521121395702379220 [[https://github.com/FreeCAD/FreeCAD/blob/2fcc5317fe3aee96ca73475986a577719fc78e20/src/App/PropertyContainer.h#L309{propertyData}]] : -propertyData
C_0003422068113493092212 --> C_0010396699791746075194 [[https://github.com/FreeCAD/FreeCAD/blob/2fcc5317fe3aee96ca73475986a577719fc78e20/src/Base/BaseClass.h#L55{classTypeId}]] : -classTypeId
C_0003422068113493092212 --> C_0008521121395702379220 [[https://github.com/FreeCAD/FreeCAD/blob/2fcc5317fe3aee96ca73475986a577719fc78e20/src/App/PropertyContainer.h#L309{propertyData}]] : -propertyData
C_0000183330796290968704 <|-- C_0003422068113493092212
C_0008828268465485334205 --> C_0010396699791746075194 [[https://github.com/FreeCAD/FreeCAD/blob/2fcc5317fe3aee96ca73475986a577719fc78e20/src/App/PropertyContainer.h#L332{classTypeId}]] : -classTypeId
C_0008828268465485334205 --> C_0008521121395702379220 [[https://github.com/FreeCAD/FreeCAD/blob/2fcc5317fe3aee96ca73475986a577719fc78e20/src/App/PropertyContainer.h#L341{propertyData}]] : -propertyData
C_0003422068113493092212 <|-- C_0008828268465485334205

'Generated with clang-uml, version 0.6.1
'LLVM version Ubuntu clang version 19.1.1 (1ubuntu1)
@enduml
