@startuml
title App::ColorModel context
package [std] as C_0009971158671206323968 {
class "vector<App::Color>" as C_0005047877959853559161
class C_0005047877959853559161 [[https://github.com/FreeCAD/FreeCAD/blob/2fcc5317fe3aee96ca73475986a577719fc78e20/src/App/PropertyStandard.h#L1138{vector}]] {
__
}
}
package [App] as C_0018282610363821501524 {
class "ColorModel" as C_0010120638161956693423
class C_0010120638161956693423 [[https://github.com/FreeCAD/FreeCAD/blob/2fcc5317fe3aee96ca73475986a577719fc78e20/src/App/ColorModel.h#L73{ColorModel}]] {
+ColorModel() = default : void [[[https://github.com/FreeCAD/FreeCAD/blob/2fcc5317fe3aee96ca73475986a577719fc78e20/src/App/ColorModel.h#L76{ColorModel}]]]
+ColorModel(std::size_t usCt) : void [[[https://github.com/FreeCAD/FreeCAD/blob/2fcc5317fe3aee96ca73475986a577719fc78e20/src/App/ColorModel.h#L77{ColorModel}]]]
+ColorModel(const ColorModel &) = default : void [[[https://github.com/FreeCAD/FreeCAD/blob/2fcc5317fe3aee96ca73475986a577719fc78e20/src/App/ColorModel.h#L80{ColorModel}]]]
+~ColorModel() = default : void [[[https://github.com/FreeCAD/FreeCAD/blob/2fcc5317fe3aee96ca73475986a577719fc78e20/src/App/ColorModel.h#L81{~ColorModel}]]]
..
+operator=(const ColorModel &) = default : ColorModel & [[[https://github.com/FreeCAD/FreeCAD/blob/2fcc5317fe3aee96ca73475986a577719fc78e20/src/App/ColorModel.h#L82{operator=}]]]
..
+getCountColors() const : std::size_t [[[https://github.com/FreeCAD/FreeCAD/blob/2fcc5317fe3aee96ca73475986a577719fc78e20/src/App/ColorModel.h#L83{getCountColors}]]]
__
+colors : std::vector<Color> [[[https://github.com/FreeCAD/FreeCAD/blob/2fcc5317fe3aee96ca73475986a577719fc78e20/src/App/ColorModel.h#L86{colors}]]]
}
class "ColorModelBlueGreenRed" as C_0002812805056146331450
class C_0002812805056146331450 [[https://github.com/FreeCAD/FreeCAD/blob/2fcc5317fe3aee96ca73475986a577719fc78e20/src/App/ColorModel.h#L89{ColorModelBlueGreenRed}]] {
+ColorModelBlueGreenRed() : void [[[https://github.com/FreeCAD/FreeCAD/blob/2fcc5317fe3aee96ca73475986a577719fc78e20/src/App/ColorModel.h#L92{ColorModelBlueGreenRed}]]]
__
}
class "ColorModelBlueCyanGreen" as C_0003509633752803973191
class C_0003509633752803973191 [[https://github.com/FreeCAD/FreeCAD/blob/2fcc5317fe3aee96ca73475986a577719fc78e20/src/App/ColorModel.h#L101{ColorModelBlueCyanGreen}]] {
+ColorModelBlueCyanGreen() : void [[[https://github.com/FreeCAD/FreeCAD/blob/2fcc5317fe3aee96ca73475986a577719fc78e20/src/App/ColorModel.h#L104{ColorModelBlueCyanGreen}]]]
__
}
class "ColorModelGreenYellowRed" as C_0009657929296881556513
class C_0009657929296881556513 [[https://github.com/FreeCAD/FreeCAD/blob/2fcc5317fe3aee96ca73475986a577719fc78e20/src/App/ColorModel.h#L111{ColorModelGreenYellowRed}]] {
+ColorModelGreenYellowRed() : void [[[https://github.com/FreeCAD/FreeCAD/blob/2fcc5317fe3aee96ca73475986a577719fc78e20/src/App/ColorModel.h#L114{ColorModelGreenYellowRed}]]]
__
}
class "ColorModelRedGreenBlue" as C_0004321527120205147471
class C_0004321527120205147471 [[https://github.com/FreeCAD/FreeCAD/blob/2fcc5317fe3aee96ca73475986a577719fc78e20/src/App/ColorModel.h#L121{ColorModelRedGreenBlue}]] {
+ColorModelRedGreenBlue() : void [[[https://github.com/FreeCAD/FreeCAD/blob/2fcc5317fe3aee96ca73475986a577719fc78e20/src/App/ColorModel.h#L124{ColorModelRedGreenBlue}]]]
__
}
class "ColorModelGreenCyanBlue" as C_0000876990277153853651
class C_0000876990277153853651 [[https://github.com/FreeCAD/FreeCAD/blob/2fcc5317fe3aee96ca73475986a577719fc78e20/src/App/ColorModel.h#L133{ColorModelGreenCyanBlue}]] {
+ColorModelGreenCyanBlue() : void [[[https://github.com/FreeCAD/FreeCAD/blob/2fcc5317fe3aee96ca73475986a577719fc78e20/src/App/ColorModel.h#L136{ColorModelGreenCyanBlue}]]]
__
}
class "ColorModelRedYellowGreen" as C_0013748058108477219628
class C_0013748058108477219628 [[https://github.com/FreeCAD/FreeCAD/blob/2fcc5317fe3aee96ca73475986a577719fc78e20/src/App/ColorModel.h#L143{ColorModelRedYellowGreen}]] {
+ColorModelRedYellowGreen() : void [[[https://github.com/FreeCAD/FreeCAD/blob/2fcc5317fe3aee96ca73475986a577719fc78e20/src/App/ColorModel.h#L146{ColorModelRedYellowGreen}]]]
__
}
class "ColorModelBlueWhiteRed" as C_0011082413038022120730
class C_0011082413038022120730 [[https://github.com/FreeCAD/FreeCAD/blob/2fcc5317fe3aee96ca73475986a577719fc78e20/src/App/ColorModel.h#L153{ColorModelBlueWhiteRed}]] {
+ColorModelBlueWhiteRed() : void [[[https://github.com/FreeCAD/FreeCAD/blob/2fcc5317fe3aee96ca73475986a577719fc78e20/src/App/ColorModel.h#L156{ColorModelBlueWhiteRed}]]]
__
}
class "ColorModelBlueWhite" as C_0000472950153822060037
class C_0000472950153822060037 [[https://github.com/FreeCAD/FreeCAD/blob/2fcc5317fe3aee96ca73475986a577719fc78e20/src/App/ColorModel.h#L165{ColorModelBlueWhite}]] {
+ColorModelBlueWhite() : void [[[https://github.com/FreeCAD/FreeCAD/blob/2fcc5317fe3aee96ca73475986a577719fc78e20/src/App/ColorModel.h#L168{ColorModelBlueWhite}]]]
__
}
class "ColorModelWhiteRed" as C_0011844043535716339923
class C_0011844043535716339923 [[https://github.com/FreeCAD/FreeCAD/blob/2fcc5317fe3aee96ca73475986a577719fc78e20/src/App/ColorModel.h#L175{ColorModelWhiteRed}]] {
+ColorModelWhiteRed() : void [[[https://github.com/FreeCAD/FreeCAD/blob/2fcc5317fe3aee96ca73475986a577719fc78e20/src/App/ColorModel.h#L178{ColorModelWhiteRed}]]]
__
}
class "ColorModelBlackWhite" as C_0001792069141836504604
class C_0001792069141836504604 [[https://github.com/FreeCAD/FreeCAD/blob/2fcc5317fe3aee96ca73475986a577719fc78e20/src/App/ColorModel.h#L185{ColorModelBlackWhite}]] {
+ColorModelBlackWhite() : void [[[https://github.com/FreeCAD/FreeCAD/blob/2fcc5317fe3aee96ca73475986a577719fc78e20/src/App/ColorModel.h#L188{ColorModelBlackWhite}]]]
__
}
class "ColorModelBlackGray" as C_0012218153606142195469
class C_0012218153606142195469 [[https://github.com/FreeCAD/FreeCAD/blob/2fcc5317fe3aee96ca73475986a577719fc78e20/src/App/ColorModel.h#L194{ColorModelBlackGray}]] {
+ColorModelBlackGray() : void [[[https://github.com/FreeCAD/FreeCAD/blob/2fcc5317fe3aee96ca73475986a577719fc78e20/src/App/ColorModel.h#L197{ColorModelBlackGray}]]]
__
}
class "ColorModelGrayWhite" as C_0007230590490846939170
class C_0007230590490846939170 [[https://github.com/FreeCAD/FreeCAD/blob/2fcc5317fe3aee96ca73475986a577719fc78e20/src/App/ColorModel.h#L203{ColorModelGrayWhite}]] {
+ColorModelGrayWhite() : void [[[https://github.com/FreeCAD/FreeCAD/blob/2fcc5317fe3aee96ca73475986a577719fc78e20/src/App/ColorModel.h#L206{ColorModelGrayWhite}]]]
__
}
class "ColorModelWhiteBlack" as C_0002891607102030984392
class C_0002891607102030984392 [[https://github.com/FreeCAD/FreeCAD/blob/2fcc5317fe3aee96ca73475986a577719fc78e20/src/App/ColorModel.h#L212{ColorModelWhiteBlack}]] {
+ColorModelWhiteBlack() : void [[[https://github.com/FreeCAD/FreeCAD/blob/2fcc5317fe3aee96ca73475986a577719fc78e20/src/App/ColorModel.h#L215{ColorModelWhiteBlack}]]]
__
}
class "ColorModelWhiteGray" as C_0016036303807467404511
class C_0016036303807467404511 [[https://github.com/FreeCAD/FreeCAD/blob/2fcc5317fe3aee96ca73475986a577719fc78e20/src/App/ColorModel.h#L221{ColorModelWhiteGray}]] {
+ColorModelWhiteGray() : void [[[https://github.com/FreeCAD/FreeCAD/blob/2fcc5317fe3aee96ca73475986a577719fc78e20/src/App/ColorModel.h#L224{ColorModelWhiteGray}]]]
__
}
class "ColorModelGrayBlack" as C_0005286932486020825510
class C_0005286932486020825510 [[https://github.com/FreeCAD/FreeCAD/blob/2fcc5317fe3aee96ca73475986a577719fc78e20/src/App/ColorModel.h#L230{ColorModelGrayBlack}]] {
+ColorModelGrayBlack() : void [[[https://github.com/FreeCAD/FreeCAD/blob/2fcc5317fe3aee96ca73475986a577719fc78e20/src/App/ColorModel.h#L233{ColorModelGrayBlack}]]]
__
}
class "ColorModelPack" as C_0010780570187126812341
class C_0010780570187126812341 [[https://github.com/FreeCAD/FreeCAD/blob/2fcc5317fe3aee96ca73475986a577719fc78e20/src/App/ColorModel.h#L239{ColorModelPack}]] {
{static} +createBlackWhite() : ColorModelPack [[[https://github.com/FreeCAD/FreeCAD/blob/2fcc5317fe3aee96ca73475986a577719fc78e20/src/App/ColorModel.h#L248{createBlackWhite}]]]
{static} +createBlueGreenRed() : ColorModelPack [[[https://github.com/FreeCAD/FreeCAD/blob/2fcc5317fe3aee96ca73475986a577719fc78e20/src/App/ColorModel.h#L246{createBlueGreenRed}]]]
{static} +createRedGreenBlue() : ColorModelPack [[[https://github.com/FreeCAD/FreeCAD/blob/2fcc5317fe3aee96ca73475986a577719fc78e20/src/App/ColorModel.h#L245{createRedGreenBlue}]]]
{static} +createRedWhiteBlue() : ColorModelPack [[[https://github.com/FreeCAD/FreeCAD/blob/2fcc5317fe3aee96ca73475986a577719fc78e20/src/App/ColorModel.h#L249{createRedWhiteBlue}]]]
{static} +createWhiteBlack() : ColorModelPack [[[https://github.com/FreeCAD/FreeCAD/blob/2fcc5317fe3aee96ca73475986a577719fc78e20/src/App/ColorModel.h#L247{createWhiteBlack}]]]
__
+bottomModel : ColorModel [[[https://github.com/FreeCAD/FreeCAD/blob/2fcc5317fe3aee96ca73475986a577719fc78e20/src/App/ColorModel.h#L243{bottomModel}]]]
+description : std::string [[[https://github.com/FreeCAD/FreeCAD/blob/2fcc5317fe3aee96ca73475986a577719fc78e20/src/App/ColorModel.h#L244{description}]]]
+topModel : ColorModel [[[https://github.com/FreeCAD/FreeCAD/blob/2fcc5317fe3aee96ca73475986a577719fc78e20/src/App/ColorModel.h#L242{topModel}]]]
+totalModel : ColorModel [[[https://github.com/FreeCAD/FreeCAD/blob/2fcc5317fe3aee96ca73475986a577719fc78e20/src/App/ColorModel.h#L241{totalModel}]]]
}
class "ColorField" as C_0002000033156209871532
class C_0002000033156209871532 [[https://github.com/FreeCAD/FreeCAD/blob/2fcc5317fe3aee96ca73475986a577719fc78e20/src/App/ColorModel.h#L252{ColorField}]] {
+ColorField() : void [[[https://github.com/FreeCAD/FreeCAD/blob/2fcc5317fe3aee96ca73475986a577719fc78e20/src/App/ColorModel.h#L255{ColorField}]]]
+ColorField(const ColorField & rclCF) = default : void [[[https://github.com/FreeCAD/FreeCAD/blob/2fcc5317fe3aee96ca73475986a577719fc78e20/src/App/ColorModel.h#L256{ColorField}]]]
+ColorField(const ColorModel & rclModel, float fMin, float fMax, std::size_t usCt) : void [[[https://github.com/FreeCAD/FreeCAD/blob/2fcc5317fe3aee96ca73475986a577719fc78e20/src/App/ColorModel.h#L257{ColorField}]]]
+~ColorField() = default : void [[[https://github.com/FreeCAD/FreeCAD/blob/2fcc5317fe3aee96ca73475986a577719fc78e20/src/App/ColorModel.h#L258{~ColorField}]]]
..
+operator=(const ColorField & rclCF) : ColorField & [[[https://github.com/FreeCAD/FreeCAD/blob/2fcc5317fe3aee96ca73475986a577719fc78e20/src/App/ColorModel.h#L260{operator=}]]]
..
+getColor(std::size_t usIndex) const : Color [[[https://github.com/FreeCAD/FreeCAD/blob/2fcc5317fe3aee96ca73475986a577719fc78e20/src/App/ColorModel.h#L292{getColor}]]]
+getColor(float fVal) const : Color [[[https://github.com/FreeCAD/FreeCAD/blob/2fcc5317fe3aee96ca73475986a577719fc78e20/src/App/ColorModel.h#L295{getColor}]]]
+getColorIndex(float fVal) const : std::size_t [[[https://github.com/FreeCAD/FreeCAD/blob/2fcc5317fe3aee96ca73475986a577719fc78e20/src/App/ColorModel.h#L296{getColorIndex}]]]
+getColorModel() const : const ColorModel & [[[https://github.com/FreeCAD/FreeCAD/blob/2fcc5317fe3aee96ca73475986a577719fc78e20/src/App/ColorModel.h#L279{getColorModel}]]]
+getCountColors() const : std::size_t [[[https://github.com/FreeCAD/FreeCAD/blob/2fcc5317fe3aee96ca73475986a577719fc78e20/src/App/ColorModel.h#L262{getCountColors}]]]
+getMaxValue() const : float [[[https://github.com/FreeCAD/FreeCAD/blob/2fcc5317fe3aee96ca73475986a577719fc78e20/src/App/ColorModel.h#L288{getMaxValue}]]]
+getMinColors() const : std::size_t [[[https://github.com/FreeCAD/FreeCAD/blob/2fcc5317fe3aee96ca73475986a577719fc78e20/src/App/ColorModel.h#L275{getMinColors}]]]
+getMinValue() const : float [[[https://github.com/FreeCAD/FreeCAD/blob/2fcc5317fe3aee96ca73475986a577719fc78e20/src/App/ColorModel.h#L285{getMinValue}]]]
+getRange(float & rfMin, float & rfMax) : void [[[https://github.com/FreeCAD/FreeCAD/blob/2fcc5317fe3aee96ca73475986a577719fc78e20/src/App/ColorModel.h#L272{getRange}]]]
#interpolate(Color clCol1, std::size_t usPos1, Color clCol2, std::size_t usPos2) : void [[[https://github.com/FreeCAD/FreeCAD/blob/2fcc5317fe3aee96ca73475986a577719fc78e20/src/App/ColorModel.h#L306{interpolate}]]]
#rebuild() : void [[[https://github.com/FreeCAD/FreeCAD/blob/2fcc5317fe3aee96ca73475986a577719fc78e20/src/App/ColorModel.h#L305{rebuild}]]]
+set(const ColorModel & rclModel, float fMin, float fMax, std::size_t usCt) : void [[[https://github.com/FreeCAD/FreeCAD/blob/2fcc5317fe3aee96ca73475986a577719fc78e20/src/App/ColorModel.h#L265{set}]]]
+setColorModel(const ColorModel & rclModel) : void [[[https://github.com/FreeCAD/FreeCAD/blob/2fcc5317fe3aee96ca73475986a577719fc78e20/src/App/ColorModel.h#L278{setColorModel}]]]
+setCountColors(std::size_t usCt) : void [[[https://github.com/FreeCAD/FreeCAD/blob/2fcc5317fe3aee96ca73475986a577719fc78e20/src/App/ColorModel.h#L266{setCountColors}]]]
+setDirect(std::size_t usInd, Color clCol) : void [[[https://github.com/FreeCAD/FreeCAD/blob/2fcc5317fe3aee96ca73475986a577719fc78e20/src/App/ColorModel.h#L282{setDirect}]]]
+setRange(float fMin, float fMax) : void [[[https://github.com/FreeCAD/FreeCAD/blob/2fcc5317fe3aee96ca73475986a577719fc78e20/src/App/ColorModel.h#L269{setRange}]]]
__
#colorField : std::vector<Color> [[[https://github.com/FreeCAD/FreeCAD/blob/2fcc5317fe3aee96ca73475986a577719fc78e20/src/App/ColorModel.h#L303{colorField}]]]
#colorModel : ColorModel [[[https://github.com/FreeCAD/FreeCAD/blob/2fcc5317fe3aee96ca73475986a577719fc78e20/src/App/ColorModel.h#L299{colorModel}]]]
#ctColors : std::size_t [[[https://github.com/FreeCAD/FreeCAD/blob/2fcc5317fe3aee96ca73475986a577719fc78e20/src/App/ColorModel.h#L302{ctColors}]]]
#fAscent : float [[[https://github.com/FreeCAD/FreeCAD/blob/2fcc5317fe3aee96ca73475986a577719fc78e20/src/App/ColorModel.h#L301{fAscent}]]]
#fConstant : float [[[https://github.com/FreeCAD/FreeCAD/blob/2fcc5317fe3aee96ca73475986a577719fc78e20/src/App/ColorModel.h#L301{fConstant}]]]
#fMax : float [[[https://github.com/FreeCAD/FreeCAD/blob/2fcc5317fe3aee96ca73475986a577719fc78e20/src/App/ColorModel.h#L300{fMax}]]]
#fMin : float [[[https://github.com/FreeCAD/FreeCAD/blob/2fcc5317fe3aee96ca73475986a577719fc78e20/src/App/ColorModel.h#L300{fMin}]]]
}
}
C_0010120638161956693423 o-- C_0005047877959853559161 [[https://github.com/FreeCAD/FreeCAD/blob/2fcc5317fe3aee96ca73475986a577719fc78e20/src/App/ColorModel.h#L86{colors}]] : +colors
C_0010120638161956693423 <|-- C_0002812805056146331450
C_0010120638161956693423 <|-- C_0003509633752803973191
C_0010120638161956693423 <|-- C_0009657929296881556513
C_0010120638161956693423 <|-- C_0004321527120205147471
C_0010120638161956693423 <|-- C_0000876990277153853651
C_0010120638161956693423 <|-- C_0013748058108477219628
C_0010120638161956693423 <|-- C_0011082413038022120730
C_0010120638161956693423 <|-- C_0000472950153822060037
C_0010120638161956693423 <|-- C_0011844043535716339923
C_0010120638161956693423 <|-- C_0001792069141836504604
C_0010120638161956693423 <|-- C_0012218153606142195469
C_0010120638161956693423 <|-- C_0007230590490846939170
C_0010120638161956693423 <|-- C_0002891607102030984392
C_0010120638161956693423 <|-- C_0016036303807467404511
C_0010120638161956693423 <|-- C_0005286932486020825510
C_0010780570187126812341 o-- C_0010120638161956693423 [[https://github.com/FreeCAD/FreeCAD/blob/2fcc5317fe3aee96ca73475986a577719fc78e20/src/App/ColorModel.h#L241{totalModel}]] : +totalModel
C_0010780570187126812341 o-- C_0010120638161956693423 [[https://github.com/FreeCAD/FreeCAD/blob/2fcc5317fe3aee96ca73475986a577719fc78e20/src/App/ColorModel.h#L242{topModel}]] : +topModel
C_0010780570187126812341 o-- C_0010120638161956693423 [[https://github.com/FreeCAD/FreeCAD/blob/2fcc5317fe3aee96ca73475986a577719fc78e20/src/App/ColorModel.h#L243{bottomModel}]] : +bottomModel
C_0002000033156209871532 o-- C_0010120638161956693423 [[https://github.com/FreeCAD/FreeCAD/blob/2fcc5317fe3aee96ca73475986a577719fc78e20/src/App/ColorModel.h#L299{colorModel}]] : #colorModel
C_0002000033156209871532 o-- C_0005047877959853559161 [[https://github.com/FreeCAD/FreeCAD/blob/2fcc5317fe3aee96ca73475986a577719fc78e20/src/App/ColorModel.h#L303{colorField}]] : #colorField

'Generated with clang-uml, version 0.6.1
'LLVM version Ubuntu clang version 19.1.1 (1ubuntu1)
@enduml
