@startuml
title NodeItem class hierarchy
left to right direction
package [Base] as C_0005614219575140048477 {
class "NodeItem" as C_0003142896263797232786
class C_0003142896263797232786 [[https://github.com/FreeCAD/FreeCAD/blob/2fcc5317fe3aee96ca73475986a577719fc78e20/src/Base/Builder3D.h#L240{NodeItem}]] {
__
}
class "LabelItem" as C_0007224731687989273775
class C_0007224731687989273775 [[https://github.com/FreeCAD/FreeCAD/blob/2fcc5317fe3aee96ca73475986a577719fc78e20/src/Base/Builder3D.h#L257{LabelItem}]] {
__
}
class "InfoItem" as C_0017513990263993922464
class C_0017513990263993922464 [[https://github.com/FreeCAD/FreeCAD/blob/2fcc5317fe3aee96ca73475986a577719fc78e20/src/Base/Builder3D.h#L270{InfoItem}]] {
__
}
class "BaseColorItem" as C_0006648564482688350559
class C_0006648564482688350559 [[https://github.com/FreeCAD/FreeCAD/blob/2fcc5317fe3aee96ca73475986a577719fc78e20/src/Base/Builder3D.h#L283{BaseColorItem}]] {
__
}
class "PointItem" as C_0012806518239958755114
class C_0012806518239958755114 [[https://github.com/FreeCAD/FreeCAD/blob/2fcc5317fe3aee96ca73475986a577719fc78e20/src/Base/Builder3D.h#L293{PointItem}]] {
__
}
class "LineItem" as C_0010821140433555204062
class C_0010821140433555204062 [[https://github.com/FreeCAD/FreeCAD/blob/2fcc5317fe3aee96ca73475986a577719fc78e20/src/Base/Builder3D.h#L307{LineItem}]] {
__
}
class "MultiLineItem" as C_0008362166361714123324
class C_0008362166361714123324 [[https://github.com/FreeCAD/FreeCAD/blob/2fcc5317fe3aee96ca73475986a577719fc78e20/src/Base/Builder3D.h#L321{MultiLineItem}]] {
__
}
class "ArrowItem" as C_0016563370239511058960
class C_0016563370239511058960 [[https://github.com/FreeCAD/FreeCAD/blob/2fcc5317fe3aee96ca73475986a577719fc78e20/src/Base/Builder3D.h#L337{ArrowItem}]] {
__
}
class "BoundingBoxItem" as C_0004229591888014686384
class C_0004229591888014686384 [[https://github.com/FreeCAD/FreeCAD/blob/2fcc5317fe3aee96ca73475986a577719fc78e20/src/Base/Builder3D.h#L351{BoundingBoxItem}]] {
__
}
class "MaterialItem" as C_0003770821643484466971
class C_0003770821643484466971 [[https://github.com/FreeCAD/FreeCAD/blob/2fcc5317fe3aee96ca73475986a577719fc78e20/src/Base/Builder3D.h#L370{MaterialItem}]] {
__
}
class "MaterialBindingItem" as C_0007381822741748470515
class C_0007381822741748470515 [[https://github.com/FreeCAD/FreeCAD/blob/2fcc5317fe3aee96ca73475986a577719fc78e20/src/Base/Builder3D.h#L403{MaterialBindingItem}]] {
__
}
class "DrawStyleItem" as C_0009846323258690831919
class C_0009846323258690831919 [[https://github.com/FreeCAD/FreeCAD/blob/2fcc5317fe3aee96ca73475986a577719fc78e20/src/Base/Builder3D.h#L418{DrawStyleItem}]] {
__
}
class "ShapeHintsItem" as C_0006308139742991240946
class C_0006308139742991240946 [[https://github.com/FreeCAD/FreeCAD/blob/2fcc5317fe3aee96ca73475986a577719fc78e20/src/Base/Builder3D.h#L433{ShapeHintsItem}]] {
__
}
class "PolygonOffsetItem" as C_0009401210480385110890
class C_0009401210480385110890 [[https://github.com/FreeCAD/FreeCAD/blob/2fcc5317fe3aee96ca73475986a577719fc78e20/src/Base/Builder3D.h#L450{PolygonOffsetItem}]] {
__
}
class "Coordinate3Item" as C_0017424363913360464021
class C_0017424363913360464021 [[https://github.com/FreeCAD/FreeCAD/blob/2fcc5317fe3aee96ca73475986a577719fc78e20/src/Base/Builder3D.h#L463{Coordinate3Item}]] {
__
}
class "PointSetItem" as C_0007236662082819544631
class C_0007236662082819544631 [[https://github.com/FreeCAD/FreeCAD/blob/2fcc5317fe3aee96ca73475986a577719fc78e20/src/Base/Builder3D.h#L478{PointSetItem}]] {
__
}
class "LineSetItem" as C_0009282498347772441127
class C_0009282498347772441127 [[https://github.com/FreeCAD/FreeCAD/blob/2fcc5317fe3aee96ca73475986a577719fc78e20/src/Base/Builder3D.h#L487{LineSetItem}]] {
__
}
class "FaceSetItem" as C_0004165658604788210492
class C_0004165658604788210492 [[https://github.com/FreeCAD/FreeCAD/blob/2fcc5317fe3aee96ca73475986a577719fc78e20/src/Base/Builder3D.h#L496{FaceSetItem}]] {
__
}
class "IndexedLineSetItem" as C_0004814078650981951908
class C_0004814078650981951908 [[https://github.com/FreeCAD/FreeCAD/blob/2fcc5317fe3aee96ca73475986a577719fc78e20/src/Base/Builder3D.h#L509{IndexedLineSetItem}]] {
__
}
class "IndexedFaceSetItem" as C_0008415487316637387662
class C_0008415487316637387662 [[https://github.com/FreeCAD/FreeCAD/blob/2fcc5317fe3aee96ca73475986a577719fc78e20/src/Base/Builder3D.h#L522{IndexedFaceSetItem}]] {
__
}
class "NormalItem" as C_0015634186810409027727
class C_0015634186810409027727 [[https://github.com/FreeCAD/FreeCAD/blob/2fcc5317fe3aee96ca73475986a577719fc78e20/src/Base/Builder3D.h#L535{NormalItem}]] {
__
}
class "NormalBindingItem" as C_0008991352168833495969
class C_0008991352168833495969 [[https://github.com/FreeCAD/FreeCAD/blob/2fcc5317fe3aee96ca73475986a577719fc78e20/src/Base/Builder3D.h#L550{NormalBindingItem}]] {
__
}
class "CylinderItem" as C_0001606703663220004622
class C_0001606703663220004622 [[https://github.com/FreeCAD/FreeCAD/blob/2fcc5317fe3aee96ca73475986a577719fc78e20/src/Base/Builder3D.h#L564{CylinderItem}]] {
__
}
class "ConeItem" as C_0011239105593547930431
class C_0011239105593547930431 [[https://github.com/FreeCAD/FreeCAD/blob/2fcc5317fe3aee96ca73475986a577719fc78e20/src/Base/Builder3D.h#L579{ConeItem}]] {
__
}
class "SphereItem" as C_0005790599249456555514
class C_0005790599249456555514 [[https://github.com/FreeCAD/FreeCAD/blob/2fcc5317fe3aee96ca73475986a577719fc78e20/src/Base/Builder3D.h#L594{SphereItem}]] {
__
}
class "NurbsSurfaceItem" as C_0005721591084170041597
class C_0005721591084170041597 [[https://github.com/FreeCAD/FreeCAD/blob/2fcc5317fe3aee96ca73475986a577719fc78e20/src/Base/Builder3D.h#L607{NurbsSurfaceItem}]] {
__
}
class "Text2Item" as C_0008348468305738718882
class C_0008348468305738718882 [[https://github.com/FreeCAD/FreeCAD/blob/2fcc5317fe3aee96ca73475986a577719fc78e20/src/Base/Builder3D.h#L624{Text2Item}]] {
__
}
class "TransformItem" as C_0012603732557138332090
class C_0012603732557138332090 [[https://github.com/FreeCAD/FreeCAD/blob/2fcc5317fe3aee96ca73475986a577719fc78e20/src/Base/Builder3D.h#L637{TransformItem}]] {
__
}
}
C_0003142896263797232786 <|-- C_0007224731687989273775
C_0003142896263797232786 <|-- C_0017513990263993922464
C_0003142896263797232786 <|-- C_0006648564482688350559
C_0003142896263797232786 <|-- C_0012806518239958755114
C_0003142896263797232786 <|-- C_0010821140433555204062
C_0003142896263797232786 <|-- C_0008362166361714123324
C_0003142896263797232786 <|-- C_0016563370239511058960
C_0003142896263797232786 <|-- C_0004229591888014686384
C_0003142896263797232786 <|-- C_0003770821643484466971
C_0003142896263797232786 <|-- C_0007381822741748470515
C_0003142896263797232786 <|-- C_0009846323258690831919
C_0003142896263797232786 <|-- C_0006308139742991240946
C_0003142896263797232786 <|-- C_0009401210480385110890
C_0003142896263797232786 <|-- C_0017424363913360464021
C_0003142896263797232786 <|-- C_0007236662082819544631
C_0003142896263797232786 <|-- C_0009282498347772441127
C_0003142896263797232786 <|-- C_0004165658604788210492
C_0003142896263797232786 <|-- C_0004814078650981951908
C_0003142896263797232786 <|-- C_0008415487316637387662
C_0003142896263797232786 <|-- C_0015634186810409027727
C_0003142896263797232786 <|-- C_0008991352168833495969
C_0003142896263797232786 <|-- C_0001606703663220004622
C_0003142896263797232786 <|-- C_0011239105593547930431
C_0003142896263797232786 <|-- C_0005790599249456555514
C_0003142896263797232786 <|-- C_0005721591084170041597
C_0003142896263797232786 <|-- C_0008348468305738718882
C_0003142896263797232786 <|-- C_0012603732557138332090

'Generated with clang-uml, version 0.6.1
'LLVM version Ubuntu clang version 19.1.1 (1ubuntu1)
@enduml
