@startuml
title 'cpp_expression' class diagram
enum "cpp_expression_kind" as C_0000674801488983168216
enum C_0000674801488983168216 [[https://github.com/foonathan/cppast/blob/f00df6675d87c6983033d270728c57a55cd3db22/include/cppast/cppast_fwd.hpp#L93{cpp_expression_kind}]] {
literal_t
unexposed_t
}
abstract "cpp_type" as C_0001585653041236922459
abstract C_0001585653041236922459 [[https://github.com/foonathan/cppast/blob/f00df6675d87c6983033d270728c57a55cd3db22/include/cppast/cpp_type.hpp#L44{cpp_type}]] {
+cpp_type(const cpp_type &) = deleted : void [[[https://github.com/foonathan/cppast/blob/f00df6675d87c6983033d270728c57a55cd3db22/include/cppast/cpp_type.hpp#L47{cpp_type}]]]
#cpp_type() noexcept : void [[[https://github.com/foonathan/cppast/blob/f00df6675d87c6983033d270728c57a55cd3db22/include/cppast/cpp_type.hpp#L77{cpp_type}]]]
+~cpp_type() noexcept = default : void [[[https://github.com/foonathan/cppast/blob/f00df6675d87c6983033d270728c57a55cd3db22/include/cppast/cpp_type.hpp#L50{~cpp_type}]]]
..
+operator=(const cpp_type &) = deleted : cpp_type & [[[https://github.com/foonathan/cppast/blob/f00df6675d87c6983033d270728c57a55cd3db22/include/cppast/cpp_type.hpp#L48{operator=}]]]
..
{abstract} -do_get_kind() const noexcept = 0 : cpp_type_kind [[[https://github.com/foonathan/cppast/blob/f00df6675d87c6983033d270728c57a55cd3db22/include/cppast/cpp_type.hpp#L81{do_get_kind}]]]
+kind() const noexcept : cpp_type_kind [[[https://github.com/foonathan/cppast/blob/f00df6675d87c6983033d270728c57a55cd3db22/include/cppast/cpp_type.hpp#L53{kind}]]]
-on_insert(const cpp_type &) : void [[[https://github.com/foonathan/cppast/blob/f00df6675d87c6983033d270728c57a55cd3db22/include/cppast/cpp_type.hpp#L83{on_insert}]]]
+set_user_data(void * data) const noexcept : void [[[https://github.com/foonathan/cppast/blob/f00df6675d87c6983033d270728c57a55cd3db22/include/cppast/cpp_type.hpp#L71{set_user_data}]]]
+user_data() const noexcept : void * [[[https://github.com/foonathan/cppast/blob/f00df6675d87c6983033d270728c57a55cd3db22/include/cppast/cpp_type.hpp#L59{user_data}]]]
__
-user_data_ : std::atomic<void *> [[[https://github.com/foonathan/cppast/blob/f00df6675d87c6983033d270728c57a55cd3db22/include/cppast/cpp_type.hpp#L85{user_data_}]]]
}
abstract "cpp_expression" as C_0002228471918600734475
abstract C_0002228471918600734475 [[https://github.com/foonathan/cppast/blob/f00df6675d87c6983033d270728c57a55cd3db22/include/cppast/cpp_expression.hpp#L24{cpp_expression}]] {
+cpp_expression(const cpp_expression &) = deleted : void [[[https://github.com/foonathan/cppast/blob/f00df6675d87c6983033d270728c57a55cd3db22/include/cppast/cpp_expression.hpp#L27{cpp_expression}]]]
#cpp_expression(std::unique_ptr<cpp_type> type) : void [[[https://github.com/foonathan/cppast/blob/f00df6675d87c6983033d270728c57a55cd3db22/include/cppast/cpp_expression.hpp#L65{cpp_expression}]]]
+~cpp_expression() noexcept = default : void [[[https://github.com/foonathan/cppast/blob/f00df6675d87c6983033d270728c57a55cd3db22/include/cppast/cpp_expression.hpp#L30{~cpp_expression}]]]
..
+operator=(const cpp_expression &) = deleted : cpp_expression & [[[https://github.com/foonathan/cppast/blob/f00df6675d87c6983033d270728c57a55cd3db22/include/cppast/cpp_expression.hpp#L28{operator=}]]]
..
{abstract} -do_get_kind() const noexcept = 0 : cpp_expression_kind [[[https://github.com/foonathan/cppast/blob/f00df6675d87c6983033d270728c57a55cd3db22/include/cppast/cpp_expression.hpp#L72{do_get_kind}]]]
+kind() const noexcept : cpp_expression_kind [[[https://github.com/foonathan/cppast/blob/f00df6675d87c6983033d270728c57a55cd3db22/include/cppast/cpp_expression.hpp#L33{kind}]]]
+set_user_data(void * data) const noexcept : void [[[https://github.com/foonathan/cppast/blob/f00df6675d87c6983033d270728c57a55cd3db22/include/cppast/cpp_expression.hpp#L57{set_user_data}]]]
+type() const noexcept : const cpp_type & [[[https://github.com/foonathan/cppast/blob/f00df6675d87c6983033d270728c57a55cd3db22/include/cppast/cpp_expression.hpp#L39{type}]]]
+user_data() const noexcept : void * [[[https://github.com/foonathan/cppast/blob/f00df6675d87c6983033d270728c57a55cd3db22/include/cppast/cpp_expression.hpp#L45{user_data}]]]
__
-type_ : std::unique_ptr<cpp_type> [[[https://github.com/foonathan/cppast/blob/f00df6675d87c6983033d270728c57a55cd3db22/include/cppast/cpp_expression.hpp#L74{type_}]]]
-user_data_ : std::atomic<void *> [[[https://github.com/foonathan/cppast/blob/f00df6675d87c6983033d270728c57a55cd3db22/include/cppast/cpp_expression.hpp#L75{user_data_}]]]
}
class "cpp_unexposed_expression" as C_0000978206085606851269
class C_0000978206085606851269 [[https://github.com/foonathan/cppast/blob/f00df6675d87c6983033d270728c57a55cd3db22/include/cppast/cpp_expression.hpp#L81{cpp_unexposed_expression}]] {
-cpp_unexposed_expression(std::unique_ptr<cpp_type> type, cpp_token_string str) : void [[[https://github.com/foonathan/cppast/blob/f00df6675d87c6983033d270728c57a55cd3db22/include/cppast/cpp_expression.hpp#L99{cpp_unexposed_expression}]]]
..
{static} +build(std::unique_ptr<cpp_type> type, cpp_token_string str) : std::unique_ptr<cpp_unexposed_expression> [[[https://github.com/foonathan/cppast/blob/f00df6675d87c6983033d270728c57a55cd3db22/include/cppast/cpp_expression.hpp#L85{build}]]]
-do_get_kind() const noexcept : cpp_expression_kind [[[https://github.com/foonathan/cppast/blob/f00df6675d87c6983033d270728c57a55cd3db22/include/cppast/cpp_expression.hpp#L103{do_get_kind}]]]
+expression() const noexcept : const cpp_token_string & [[[https://github.com/foonathan/cppast/blob/f00df6675d87c6983033d270728c57a55cd3db22/include/cppast/cpp_expression.hpp#L93{expression}]]]
__
-str_ : cpp_token_string [[[https://github.com/foonathan/cppast/blob/f00df6675d87c6983033d270728c57a55cd3db22/include/cppast/cpp_expression.hpp#L108{str_}]]]
}
class "cpp_literal_expression" as C_0001481645313438672561
class C_0001481645313438672561 [[https://github.com/foonathan/cppast/blob/f00df6675d87c6983033d270728c57a55cd3db22/include/cppast/cpp_expression.hpp#L112{cpp_literal_expression}]] {
-cpp_literal_expression(std::unique_ptr<cpp_type> type, std::string value) : void [[[https://github.com/foonathan/cppast/blob/f00df6675d87c6983033d270728c57a55cd3db22/include/cppast/cpp_expression.hpp#L130{cpp_literal_expression}]]]
..
{static} +build(std::unique_ptr<cpp_type> type, std::string value) : std::unique_ptr<cpp_literal_expression> [[[https://github.com/foonathan/cppast/blob/f00df6675d87c6983033d270728c57a55cd3db22/include/cppast/cpp_expression.hpp#L116{build}]]]
-do_get_kind() const noexcept : cpp_expression_kind [[[https://github.com/foonathan/cppast/blob/f00df6675d87c6983033d270728c57a55cd3db22/include/cppast/cpp_expression.hpp#L134{do_get_kind}]]]
+value() const noexcept : const std::string & [[[https://github.com/foonathan/cppast/blob/f00df6675d87c6983033d270728c57a55cd3db22/include/cppast/cpp_expression.hpp#L124{value}]]]
__
-value_ : std::string [[[https://github.com/foonathan/cppast/blob/f00df6675d87c6983033d270728c57a55cd3db22/include/cppast/cpp_expression.hpp#L139{value_}]]]
}
C_0002228471918600734475 ..> C_0000674801488983168216
C_0002228471918600734475 o-- C_0001585653041236922459 : -type_
C_0000978206085606851269 ..> C_0001585653041236922459
C_0000978206085606851269 ..> C_0000674801488983168216
C_0002228471918600734475 <|-- C_0000978206085606851269
C_0001481645313438672561 ..> C_0001585653041236922459
C_0001481645313438672561 ..> C_0000674801488983168216
C_0002228471918600734475 <|-- C_0001481645313438672561

'Generated with clang-uml, version 0.4.0-7-g8a6b497
'LLVM version Ubuntu clang version 16.0.6 (++20230710042027+7cbf1a259152-1~exp1~20230710162048.105)
@enduml
