@startuml
title 'cpp_entity_index' class diagram
left to right direction
class "cpp_entity_id" as C_0001152344551163828554
class C_0001152344551163828554 [[https://github.com/foonathan/cppast/blob/f00df6675d87c6983033d270728c57a55cd3db22/include/cppast/cpp_entity_index.hpp#L38{cpp_entity_id}]] {
__
}
class "cpp_entity_index" as C_0001989731226165037041
class C_0001989731226165037041 [[https://github.com/foonathan/cppast/blob/f00df6675d87c6983033d270728c57a55cd3db22/include/cppast/cpp_entity_index.hpp#L58{cpp_entity_index}]] {
__
}
class "cpp_entity_index::duplicate_definition_error" as C_0001989531636101477120
class C_0001989531636101477120 [[https://github.com/foonathan/cppast/blob/f00df6675d87c6983033d270728c57a55cd3db22/include/cppast/cpp_entity_index.hpp#L62{cpp_entity_index##duplicate_definition_error}]] {
__
}
class "cpp_entity_index::hash" as C_0000634431773903245144
class C_0000634431773903245144 [[https://github.com/foonathan/cppast/blob/f00df6675d87c6983033d270728c57a55cd3db22/include/cppast/cpp_entity_index.hpp#L116{cpp_entity_index##hash}]] {
__
}
class "cpp_entity_index::value" as C_0001918458639534713763
class C_0001918458639534713763 [[https://github.com/foonathan/cppast/blob/f00df6675d87c6983033d270728c57a55cd3db22/include/cppast/cpp_entity_index.hpp#L124{cpp_entity_index##value}]] {
__
}
class "cpp_attribute" as C_0000560657228528420559
class C_0000560657228528420559 [[https://github.com/foonathan/cppast/blob/f00df6675d87c6983033d270728c57a55cd3db22/include/cppast/cpp_attribute.hpp#L42{cpp_attribute}]] {
__
}
class "cpp_scope_name" as C_0001691123644971107631
class C_0001691123644971107631 [[https://github.com/foonathan/cppast/blob/f00df6675d87c6983033d270728c57a55cd3db22/include/cppast/cpp_entity.hpp#L22{cpp_scope_name}]] {
__
}
class "cpp_entity" as C_0001854695372332280903
class C_0001854695372332280903 [[https://github.com/foonathan/cppast/blob/f00df6675d87c6983033d270728c57a55cd3db22/include/cppast/cpp_entity.hpp#L47{cpp_entity}]] {
__
}
class "cpp_unexposed_entity" as C_0001449857709503654826
class C_0001449857709503654826 [[https://github.com/foonathan/cppast/blob/f00df6675d87c6983033d270728c57a55cd3db22/include/cppast/cpp_entity.hpp#L187{cpp_unexposed_entity}]] {
__
}
class "cpp_file" as C_0001248593507051490272
class C_0001248593507051490272 [[https://github.com/foonathan/cppast/blob/f00df6675d87c6983033d270728c57a55cd3db22/include/cppast/cpp_file.hpp#L27{cpp_file}]] {
__
}
class "cpp_template" as C_0000007122300671081288
class C_0000007122300671081288 [[https://github.com/foonathan/cppast/blob/f00df6675d87c6983033d270728c57a55cd3db22/include/cppast/cppast_fwd.hpp#L61{cpp_template}]] {
__
}
class "code_generator" as C_0000664741342971710245
class C_0000664741342971710245 [[https://github.com/foonathan/cppast/blob/f00df6675d87c6983033d270728c57a55cd3db22/include/cppast/cppast_fwd.hpp#L10{code_generator}]] {
__
}
class "cpp_template_parameter" as C_0001158442798649543268
class C_0001158442798649543268 [[https://github.com/foonathan/cppast/blob/f00df6675d87c6983033d270728c57a55cd3db22/include/cppast/cppast_fwd.hpp#L64{cpp_template_parameter}]] {
__
}
class "cpp_namespace" as C_0001318630691633731356
class C_0001318630691633731356 [[https://github.com/foonathan/cppast/blob/f00df6675d87c6983033d270728c57a55cd3db22/include/cppast/cppast_fwd.hpp#L55{cpp_namespace}]] {
__
}
class "code_generator::output" as C_0000192432743316866604
class C_0000192432743316866604 [[https://github.com/foonathan/cppast/blob/f00df6675d87c6983033d270728c57a55cd3db22/include/cppast/code_generator.hpp#L168{code_generator##output}]] {
__
}
C_0001989731226165037041 o-- C_0001152344551163828554 : -map_
C_0001989731226165037041 o-- C_0001152344551163828554 : -ns_
C_0001989731226165037041 o-- C_0001318630691633731356 : -ns_
C_0001989531636101477120 --+ C_0001989731226165037041
C_0000634431773903245144 --+ C_0001989731226165037041
C_0001918458639534713763 --+ C_0001989731226165037041
C_0001918458639534713763 o-- C_0001854695372332280903 : +entity
C_0001691123644971107631 o-- C_0001854695372332280903 : -entity_
C_0001691123644971107631 o-- C_0000007122300671081288 : -templ_
C_0001854695372332280903 o-- C_0000560657228528420559 : -attributes_
C_0001854695372332280903 o-- C_0001854695372332280903 : -parent_
C_0001854695372332280903 <|-- C_0001449857709503654826
C_0001854695372332280903 <|-- C_0001248593507051490272
C_0000007122300671081288 o-- C_0001158442798649543268 : -parameters_
C_0001854695372332280903 <|-- C_0000007122300671081288
C_0000664741342971710245 o-- C_0001854695372332280903 : -main_entity_
C_0001854695372332280903 <|-- C_0001158442798649543268
C_0000192432743316866604 --+ C_0000664741342971710245
C_0000192432743316866604 o-- C_0000664741342971710245 : -gen_
C_0000192432743316866604 o-- C_0001854695372332280903 : -e_

'Generated with clang-uml, version 0.4.0-7-g8a6b497
'LLVM version Ubuntu clang version 16.0.6 (++20230710042027+7cbf1a259152-1~exp1~20230710162048.105)
@enduml
