@startuml
title 'cpp_entity' class hierarchy
left to right direction
class "cpp_template" as C_0000007122300671081288
class C_0000007122300671081288 [[https://github.com/foonathan/cppast/blob/f00df6675d87c6983033d270728c57a55cd3db22/include/cppast/cppast_fwd.hpp#L61{cpp_template}]] {
__
}
class "cpp_constructor" as C_0000093026110207222749
class C_0000093026110207222749 [[https://github.com/foonathan/cppast/blob/f00df6675d87c6983033d270728c57a55cd3db22/include/cppast/cppast_fwd.hpp#L24{cpp_constructor}]] {
__
}
class "cpp_variable_base" as C_0000184600132526931259
class C_0000184600132526931259 [[https://github.com/foonathan/cppast/blob/f00df6675d87c6983033d270728c57a55cd3db22/include/cppast/cppast_fwd.hpp#L79{cpp_variable_base}]] {
__
}
class "cpp_member_function" as C_0000204784596342006018
class C_0000204784596342006018 [[https://github.com/foonathan/cppast/blob/f00df6675d87c6983033d270728c57a55cd3db22/include/cppast/cppast_fwd.hpp#L50{cpp_member_function}]] {
__
}
class "cpp_friend" as C_0000303046364398051951
class C_0000303046364398051951 [[https://github.com/foonathan/cppast/blob/f00df6675d87c6983033d270728c57a55cd3db22/include/cppast/cppast_fwd.hpp#L38{cpp_friend}]] {
__
}
class "cpp_class_template" as C_0000354944277741654522
class C_0000354944277741654522 [[https://github.com/foonathan/cppast/blob/f00df6675d87c6983033d270728c57a55cd3db22/include/cppast/cppast_fwd.hpp#L21{cpp_class_template}]] {
__
}
class "cpp_class" as C_0000405957729531335243
class C_0000405957729531335243 [[https://github.com/foonathan/cppast/blob/f00df6675d87c6983033d270728c57a55cd3db22/include/cppast/cppast_fwd.hpp#L20{cpp_class}]] {
__
}
class "cpp_macro_parameter" as C_0000481403470717148125
class C_0000481403470717148125 [[https://github.com/foonathan/cppast/blob/f00df6675d87c6983033d270728c57a55cd3db22/include/cppast/cppast_fwd.hpp#L49{cpp_macro_parameter}]] {
__
}
class "cpp_variable_template" as C_0000528839971184410995
class C_0000528839971184410995 [[https://github.com/foonathan/cppast/blob/f00df6675d87c6983033d270728c57a55cd3db22/include/cppast/cppast_fwd.hpp#L80{cpp_variable_template}]] {
__
}
class "cpp_template_specialization" as C_0000529201356065019777
class C_0000529201356065019777 [[https://github.com/foonathan/cppast/blob/f00df6675d87c6983033d270728c57a55cd3db22/include/cppast/cppast_fwd.hpp#L66{cpp_template_specialization}]] {
__
}
class "cpp_enum_value" as C_0000569714057132864504
class C_0000569714057132864504 [[https://github.com/foonathan/cppast/blob/f00df6675d87c6983033d270728c57a55cd3db22/include/cppast/cppast_fwd.hpp#L34{cpp_enum_value}]] {
__
}
class "cpp_using_declaration" as C_0000609158070514656735
class C_0000609158070514656735 [[https://github.com/foonathan/cppast/blob/f00df6675d87c6983033d270728c57a55cd3db22/include/cppast/cppast_fwd.hpp#L76{cpp_using_declaration}]] {
__
}
class "cpp_access_specifier" as C_0000706843607037461153
class C_0000706843607037461153 [[https://github.com/foonathan/cppast/blob/f00df6675d87c6983033d270728c57a55cd3db22/include/cppast/cppast_fwd.hpp#L12{cpp_access_specifier}]] {
__
}
class "cpp_include_directive" as C_0000710886303767961620
class C_0000710886303767961620 [[https://github.com/foonathan/cppast/blob/f00df6675d87c6983033d270728c57a55cd3db22/include/cppast/cppast_fwd.hpp#L45{cpp_include_directive}]] {
__
}
class "cpp_template_template_parameter" as C_0000753898560016921202
class C_0000753898560016921202 [[https://github.com/foonathan/cppast/blob/f00df6675d87c6983033d270728c57a55cd3db22/include/cppast/cppast_fwd.hpp#L67{cpp_template_template_parameter}]] {
__
}
class "cpp_using_directive" as C_0000884493087412892762
class C_0000884493087412892762 [[https://github.com/foonathan/cppast/blob/f00df6675d87c6983033d270728c57a55cd3db22/include/cppast/cppast_fwd.hpp#L77{cpp_using_directive}]] {
__
}
class "cpp_enum" as C_0000914084519342392608
class C_0000914084519342392608 [[https://github.com/foonathan/cppast/blob/f00df6675d87c6983033d270728c57a55cd3db22/include/cppast/cppast_fwd.hpp#L33{cpp_enum}]] {
__
}
class "cpp_alias_template" as C_0000949738581869538757
class C_0000949738581869538757 [[https://github.com/foonathan/cppast/blob/f00df6675d87c6983033d270728c57a55cd3db22/include/cppast/cppast_fwd.hpp#L13{cpp_alias_template}]] {
__
}
class "cpp_concept" as C_0001015000934507811109
class C_0001015000934507811109 [[https://github.com/foonathan/cppast/blob/f00df6675d87c6983033d270728c57a55cd3db22/include/cppast/cppast_fwd.hpp#L23{cpp_concept}]] {
__
}
class "cpp_function" as C_0001029800296375209800
class C_0001029800296375209800 [[https://github.com/foonathan/cppast/blob/f00df6675d87c6983033d270728c57a55cd3db22/include/cppast/cppast_fwd.hpp#L39{cpp_function}]] {
__
}
class "cpp_static_assert" as C_0001035636844572508781
class C_0001035636844572508781 [[https://github.com/foonathan/cppast/blob/f00df6675d87c6983033d270728c57a55cd3db22/include/cppast/cppast_fwd.hpp#L60{cpp_static_assert}]] {
__
}
class "cpp_bitfield" as C_0001142080746427367264
class C_0001142080746427367264 [[https://github.com/foonathan/cppast/blob/f00df6675d87c6983033d270728c57a55cd3db22/include/cppast/cppast_fwd.hpp#L18{cpp_bitfield}]] {
__
}
class "cpp_template_parameter" as C_0001158442798649543268
class C_0001158442798649543268 [[https://github.com/foonathan/cppast/blob/f00df6675d87c6983033d270728c57a55cd3db22/include/cppast/cppast_fwd.hpp#L64{cpp_template_parameter}]] {
__
}
class "cpp_function_base" as C_0001223070325447825853
class C_0001223070325447825853 [[https://github.com/foonathan/cppast/blob/f00df6675d87c6983033d270728c57a55cd3db22/include/cppast/cppast_fwd.hpp#L40{cpp_function_base}]] {
__
}
class "cpp_file" as C_0001248593507051490272
class C_0001248593507051490272 [[https://github.com/foonathan/cppast/blob/f00df6675d87c6983033d270728c57a55cd3db22/include/cppast/cppast_fwd.hpp#L36{cpp_file}]] {
__
}
class "cpp_member_variable_base" as C_0001290905484738066347
class C_0001290905484738066347 [[https://github.com/foonathan/cppast/blob/f00df6675d87c6983033d270728c57a55cd3db22/include/cppast/cppast_fwd.hpp#L54{cpp_member_variable_base}]] {
__
}
class "cpp_namespace" as C_0001318630691633731356
class C_0001318630691633731356 [[https://github.com/foonathan/cppast/blob/f00df6675d87c6983033d270728c57a55cd3db22/include/cppast/cppast_fwd.hpp#L55{cpp_namespace}]] {
__
}
class "cpp_function_parameter" as C_0001352597003719961343
class C_0001352597003719961343 [[https://github.com/foonathan/cppast/blob/f00df6675d87c6983033d270728c57a55cd3db22/include/cppast/cppast_fwd.hpp#L41{cpp_function_parameter}]] {
__
}
class "cpp_language_linkage" as C_0001368865032388034918
class C_0001368865032388034918 [[https://github.com/foonathan/cppast/blob/f00df6675d87c6983033d270728c57a55cd3db22/include/cppast/cppast_fwd.hpp#L46{cpp_language_linkage}]] {
__
}
class "cpp_unexposed_entity" as C_0001449857709503654826
class C_0001449857709503654826 [[https://github.com/foonathan/cppast/blob/f00df6675d87c6983033d270728c57a55cd3db22/include/cppast/cppast_fwd.hpp#L72{cpp_unexposed_entity}]] {
__
}
class "cpp_function_template" as C_0001450758198445278335
class C_0001450758198445278335 [[https://github.com/foonathan/cppast/blob/f00df6675d87c6983033d270728c57a55cd3db22/include/cppast/cppast_fwd.hpp#L42{cpp_function_template}]] {
__
}
class "cpp_non_type_template_parameter" as C_0001461284658212381765
class C_0001461284658212381765 [[https://github.com/foonathan/cppast/blob/f00df6675d87c6983033d270728c57a55cd3db22/include/cppast/cppast_fwd.hpp#L56{cpp_non_type_template_parameter}]] {
__
}
class "cpp_base_class" as C_0001513295345096619386
class C_0001513295345096619386 [[https://github.com/foonathan/cppast/blob/f00df6675d87c6983033d270728c57a55cd3db22/include/cppast/cppast_fwd.hpp#L17{cpp_base_class}]] {
__
}
class "cpp_destructor" as C_0001522207092676876515
class C_0001522207092676876515 [[https://github.com/foonathan/cppast/blob/f00df6675d87c6983033d270728c57a55cd3db22/include/cppast/cppast_fwd.hpp#L30{cpp_destructor}]] {
__
}
class "cpp_type_alias" as C_0001652684387667767114
class C_0001652684387667767114 [[https://github.com/foonathan/cppast/blob/f00df6675d87c6983033d270728c57a55cd3db22/include/cppast/cppast_fwd.hpp#L71{cpp_type_alias}]] {
__
}
class "cpp_macro_definition" as C_0001660861710076468858
class C_0001660861710076468858 [[https://github.com/foonathan/cppast/blob/f00df6675d87c6983033d270728c57a55cd3db22/include/cppast/cppast_fwd.hpp#L48{cpp_macro_definition}]] {
__
}
class "cpp_template_type_parameter" as C_0001672854013158225149
class C_0001672854013158225149 [[https://github.com/foonathan/cppast/blob/f00df6675d87c6983033d270728c57a55cd3db22/include/cppast/cppast_fwd.hpp#L68{cpp_template_type_parameter}]] {
__
}
class "cpp_variable" as C_0001714681292788161746
class C_0001714681292788161746 [[https://github.com/foonathan/cppast/blob/f00df6675d87c6983033d270728c57a55cd3db22/include/cppast/cppast_fwd.hpp#L78{cpp_variable}]] {
__
}
class "cpp_conversion_op" as C_0001746973142219232442
class C_0001746973142219232442 [[https://github.com/foonathan/cppast/blob/f00df6675d87c6983033d270728c57a55cd3db22/include/cppast/cppast_fwd.hpp#L25{cpp_conversion_op}]] {
__
}
class "cpp_class_template_specialization" as C_0001762684826194706908
class C_0001762684826194706908 [[https://github.com/foonathan/cppast/blob/f00df6675d87c6983033d270728c57a55cd3db22/include/cppast/cppast_fwd.hpp#L22{cpp_class_template_specialization}]] {
__
}
class "cpp_member_function_base" as C_0001783488486496950492
class C_0001783488486496950492 [[https://github.com/foonathan/cppast/blob/f00df6675d87c6983033d270728c57a55cd3db22/include/cppast/cppast_fwd.hpp#L51{cpp_member_function_base}]] {
__
}
class "cpp_entity" as C_0001854695372332280903
class C_0001854695372332280903 [[https://github.com/foonathan/cppast/blob/f00df6675d87c6983033d270728c57a55cd3db22/include/cppast/cppast_fwd.hpp#L31{cpp_entity}]] {
__
}
class "cpp_function_template_specialization" as C_0001912174880347917630
class C_0001912174880347917630 [[https://github.com/foonathan/cppast/blob/f00df6675d87c6983033d270728c57a55cd3db22/include/cppast/cppast_fwd.hpp#L43{cpp_function_template_specialization}]] {
__
}
class "cpp_member_variable" as C_0002206472772300753495
class C_0002206472772300753495 [[https://github.com/foonathan/cppast/blob/f00df6675d87c6983033d270728c57a55cd3db22/include/cppast/cpp_member_variable.hpp#L33{cpp_member_variable}]] {
__
}
class "cpp_namespace_alias" as C_0000173412889635012893
class C_0000173412889635012893 [[https://github.com/foonathan/cppast/blob/f00df6675d87c6983033d270728c57a55cd3db22/include/cppast/cpp_namespace.hpp#L102{cpp_namespace_alias}]] {
__
}
C_0001854695372332280903 <|-- C_0000007122300671081288
C_0001223070325447825853 <|-- C_0000093026110207222749
C_0001783488486496950492 <|-- C_0000204784596342006018
C_0001854695372332280903 <|-- C_0000303046364398051951
C_0000007122300671081288 <|-- C_0000354944277741654522
C_0001854695372332280903 <|-- C_0000405957729531335243
C_0001854695372332280903 <|-- C_0000481403470717148125
C_0000007122300671081288 <|-- C_0000528839971184410995
C_0000007122300671081288 <|-- C_0000529201356065019777
C_0001854695372332280903 <|-- C_0000569714057132864504
C_0001854695372332280903 <|-- C_0000609158070514656735
C_0001854695372332280903 <|-- C_0000706843607037461153
C_0001854695372332280903 <|-- C_0000710886303767961620
C_0001158442798649543268 <|-- C_0000753898560016921202
C_0001854695372332280903 <|-- C_0000884493087412892762
C_0001854695372332280903 <|-- C_0000914084519342392608
C_0000007122300671081288 <|-- C_0000949738581869538757
C_0001854695372332280903 <|-- C_0001015000934507811109
C_0001223070325447825853 <|-- C_0001029800296375209800
C_0001854695372332280903 <|-- C_0001035636844572508781
C_0001290905484738066347 <|-- C_0001142080746427367264
C_0001854695372332280903 <|-- C_0001158442798649543268
C_0001854695372332280903 <|-- C_0001223070325447825853
C_0001854695372332280903 <|-- C_0001248593507051490272
C_0001854695372332280903 <|-- C_0001290905484738066347
C_0000184600132526931259 <|-- C_0001290905484738066347
C_0001854695372332280903 <|-- C_0001318630691633731356
C_0001854695372332280903 <|-- C_0001352597003719961343
C_0000184600132526931259 <|-- C_0001352597003719961343
C_0001854695372332280903 <|-- C_0001368865032388034918
C_0001854695372332280903 <|-- C_0001449857709503654826
C_0000007122300671081288 <|-- C_0001450758198445278335
C_0001158442798649543268 <|-- C_0001461284658212381765
C_0000184600132526931259 <|-- C_0001461284658212381765
C_0001854695372332280903 <|-- C_0001513295345096619386
C_0001223070325447825853 <|-- C_0001522207092676876515
C_0001854695372332280903 <|-- C_0001652684387667767114
C_0001854695372332280903 <|-- C_0001660861710076468858
C_0001158442798649543268 <|-- C_0001672854013158225149
C_0001854695372332280903 <|-- C_0001714681292788161746
C_0000184600132526931259 <|-- C_0001714681292788161746
C_0001783488486496950492 <|-- C_0001746973142219232442
C_0000529201356065019777 <|-- C_0001762684826194706908
C_0001223070325447825853 <|-- C_0001783488486496950492
C_0000529201356065019777 <|-- C_0001912174880347917630
C_0001290905484738066347 <|-- C_0002206472772300753495
C_0001854695372332280903 <|-- C_0000173412889635012893

'Generated with clang-uml, version 0.4.0-7-g8a6b497
'LLVM version Ubuntu clang version 16.0.6 (++20230710042027+7cbf1a259152-1~exp1~20230710162048.105)
@enduml
