@startuml
title 'Cookie' class diagram
class "Cookie" as C_0000320721965969733468
class C_0000320721965969733468 [[https://github.com/curl/curl/blob/5691a6cf363242da38bd7e469b13a2e741a295c6/lib/cookie.h#L30{Cookie}]] {
__
+creationtime : int [[[https://github.com/curl/curl/blob/5691a6cf363242da38bd7e469b13a2e741a295c6/lib/cookie.h#L42{creationtime}]]]
+domain : char * [[[https://github.com/curl/curl/blob/5691a6cf363242da38bd7e469b13a2e741a295c6/lib/cookie.h#L36{domain}]]]
+expires : curl_off_t [[[https://github.com/curl/curl/blob/5691a6cf363242da38bd7e469b13a2e741a295c6/lib/cookie.h#L37{expires}]]]
+httponly : _Bool [[[https://github.com/curl/curl/blob/5691a6cf363242da38bd7e469b13a2e741a295c6/lib/cookie.h#L41{httponly}]]]
+livecookie : _Bool [[[https://github.com/curl/curl/blob/5691a6cf363242da38bd7e469b13a2e741a295c6/lib/cookie.h#L40{livecookie}]]]
+name : char * [[[https://github.com/curl/curl/blob/5691a6cf363242da38bd7e469b13a2e741a295c6/lib/cookie.h#L32{name}]]]
+next : struct Cookie * [[[https://github.com/curl/curl/blob/5691a6cf363242da38bd7e469b13a2e741a295c6/lib/cookie.h#L31{next}]]]
+path : char * [[[https://github.com/curl/curl/blob/5691a6cf363242da38bd7e469b13a2e741a295c6/lib/cookie.h#L34{path}]]]
+prefix : unsigned char [[[https://github.com/curl/curl/blob/5691a6cf363242da38bd7e469b13a2e741a295c6/lib/cookie.h#L43{prefix}]]]
+secure : _Bool [[[https://github.com/curl/curl/blob/5691a6cf363242da38bd7e469b13a2e741a295c6/lib/cookie.h#L39{secure}]]]
+spath : char * [[[https://github.com/curl/curl/blob/5691a6cf363242da38bd7e469b13a2e741a295c6/lib/cookie.h#L35{spath}]]]
+tailmatch : _Bool [[[https://github.com/curl/curl/blob/5691a6cf363242da38bd7e469b13a2e741a295c6/lib/cookie.h#L38{tailmatch}]]]
+value : char * [[[https://github.com/curl/curl/blob/5691a6cf363242da38bd7e469b13a2e741a295c6/lib/cookie.h#L33{value}]]]
}
class "CookieInfo" as C_0001670500687667130713
class C_0001670500687667130713 [[https://github.com/curl/curl/blob/5691a6cf363242da38bd7e469b13a2e741a295c6/lib/cookie.h#L55{CookieInfo}]] {
__
+cookies : struct Cookie *[63] [[[https://github.com/curl/curl/blob/5691a6cf363242da38bd7e469b13a2e741a295c6/lib/cookie.h#L57{cookies}]]]
+lastct : int [[[https://github.com/curl/curl/blob/5691a6cf363242da38bd7e469b13a2e741a295c6/lib/cookie.h#L60{lastct}]]]
+newsession : _Bool [[[https://github.com/curl/curl/blob/5691a6cf363242da38bd7e469b13a2e741a295c6/lib/cookie.h#L62{newsession}]]]
+next_expiration : curl_off_t [[[https://github.com/curl/curl/blob/5691a6cf363242da38bd7e469b13a2e741a295c6/lib/cookie.h#L58{next_expiration}]]]
+numcookies : int [[[https://github.com/curl/curl/blob/5691a6cf363242da38bd7e469b13a2e741a295c6/lib/cookie.h#L59{numcookies}]]]
+running : _Bool [[[https://github.com/curl/curl/blob/5691a6cf363242da38bd7e469b13a2e741a295c6/lib/cookie.h#L61{running}]]]
}
C_0000320721965969733468 --> C_0000320721965969733468 : +next
C_0001670500687667130713 --> C_0000320721965969733468 : +cookies

'Generated with clang-uml, version 0.5.0-6-gd305902
'LLVM version Ubuntu clang version 17.0.6 (++20231209124227+6009708b4367-1~exp1~20231209124336.77)
@enduml
